<?xml version="1.0" encoding="utf-8"?>
<!-- Generator: Adobe Illustrator 16.0.3, SVG Export Plug-In . SVG Version: 6.00 Build 0)  -->
<!DOCTYPE svg PUBLIC "-//W3C//DTD SVG 1.1//EN" "http://www.w3.org/Graphics/SVG/1.1/DTD/svg11.dtd">
<svg version="1.1" id="Capa_1" xmlns="http://www.w3.org/2000/svg" xmlns:xlink="http://www.w3.org/1999/xlink" x="0px" y="0px"
	 width="500px" height="350px" viewBox="0 0 500 350" enable-background="new 0 0 500 350" xml:space="preserve">
<path fill="#FFFFFF" stroke="#000000" stroke-miterlimit="10" d="M439.633,9.156H173.171c-15.743,0-30.907,6.599-41.624,18.123
	L4.174,164.088c-5.565,5.958-5.565,15.188,0,21.141L131.547,322.02c10.717,11.543,25.88,18.141,41.624,18.141h266.462
	c31.383,0,56.893-25.504,56.893-56.889V66.049C496.525,34.665,471.016,9.156,439.633,9.156z M403.059,232.977
	c7.775,8.381,7.303,21.477-1.076,29.258c-3.975,3.699-9.043,5.521-14.088,5.521c-5.566,0-11.092-2.217-15.145-6.6l-52.072-56.107
	l-52.094,56.086c-4.051,4.387-9.598,6.598-15.143,6.598c-5.047,0-10.096-1.818-14.089-5.521c-8.356-7.777-8.853-20.873-1.076-29.252
	l54.185-58.299l-54.162-58.321c-7.781-8.379-7.303-21.475,1.075-29.251c8.338-7.781,21.475-7.323,29.233,1.076l52.09,56.086
	l52.094-56.086c7.734-8.398,20.873-8.857,29.232-1.076c8.355,7.776,8.854,20.872,1.076,29.251l-54.203,58.321L403.059,232.977z"/>
</svg>
