<?xml version="1.0" encoding="utf-8"?>
<!-- Generator: Adobe Illustrator 16.0.3, SVG Export Plug-In . SVG Version: 6.00 Build 0)  -->
<!DOCTYPE svg PUBLIC "-//W3C//DTD SVG 1.1//EN" "http://www.w3.org/Graphics/SVG/1.1/DTD/svg11.dtd">
<svg version="1.1" id="Capa_1" xmlns="http://www.w3.org/2000/svg" xmlns:xlink="http://www.w3.org/1999/xlink" x="0px" y="0px"
	 width="350px" height="350px" viewBox="0 0 350 350" enable-background="new 0 0 350 350" xml:space="preserve">
<g>
	<g>
		<path fill="#FFFFFF" stroke="#000000" stroke-miterlimit="10" d="M175,0C78.35,0,0,78.35,0,175c0,96.65,78.35,175,175,175
			c96.65,0,175-78.35,175-175C349.896,78.393,271.607,0.104,175,0z M187.5,175c0,6.904-5.597,12.5-12.5,12.5H75
			c-6.904,0-12.5-5.597-12.5-12.5s5.597-12.5,12.5-12.5h87.5V75c0-6.904,5.597-12.5,12.5-12.5s12.5,5.597,12.5,12.5V175z"/>
	</g>
</g>
</svg>
