<?xml version="1.0" encoding="utf-8"?>
<!-- Generator: Adobe Illustrator 16.0.3, SVG Export Plug-In . SVG Version: 6.00 Build 0)  -->
<!DOCTYPE svg PUBLIC "-//W3C//DTD SVG 1.1//EN" "http://www.w3.org/Graphics/SVG/1.1/DTD/svg11.dtd">
<svg version="1.1" id="Capa_1" xmlns="http://www.w3.org/2000/svg" xmlns:xlink="http://www.w3.org/1999/xlink" x="0px" y="0px"
	 width="350px" height="350px" viewBox="0 0 350 350" enable-background="new 0 0 350 350" xml:space="preserve">
<g>
	<path fill="#FFFFFF" stroke="#000000" stroke-miterlimit="10" d="M132.267,301.25c0,26.922-21.828,48.75-48.75,48.75l0,0
		c-26.922,0-48.75-21.828-48.75-48.75V48.75C34.767,21.828,56.595,0,83.517,0l0,0c26.922,0,48.75,21.828,48.75,48.75V301.25z"/>
	<path fill="#FFFFFF" stroke="#000000" stroke-miterlimit="10" d="M315.226,301.25c0,26.922-21.827,48.75-48.75,48.75l0,0
		c-26.923,0-48.751-21.828-48.751-48.75V48.75C217.732,21.828,239.561,0,266.476,0l0,0c26.923,0,48.75,21.828,48.75,48.75V301.25z"
		/>
</g>
</svg>
