<?xml version="1.0" encoding="utf-8"?>
<!-- Generator: Adobe Illustrator 16.0.3, SVG Export Plug-In . SVG Version: 6.00 Build 0)  -->
<!DOCTYPE svg PUBLIC "-//W3C//DTD SVG 1.1//EN" "http://www.w3.org/Graphics/SVG/1.1/DTD/svg11.dtd">
<svg version="1.1" id="Capa_1" xmlns="http://www.w3.org/2000/svg" xmlns:xlink="http://www.w3.org/1999/xlink" x="0px" y="0px"
	 width="350px" height="350px" viewBox="0 0 350 350" enable-background="new 0 0 350 350" xml:space="preserve">
<g>
	<g>
		<path fill="#FFFFFF" stroke="#000000" stroke-miterlimit="10" d="M230.135,138.635c23.205-21.156,54.587-49.77,57.447-118.127
			h20.719V0H41.699v20.508h20.719c2.86,68.357,34.241,96.971,57.446,118.127c15.566,14.192,24.374,22.878,24.374,36.365
			c0,13.486-8.808,22.173-24.374,36.365c-23.205,21.156-54.586,49.77-57.446,118.127H41.699V350h266.602v-20.508h-20.719
			c-2.86-68.357-34.242-96.971-57.447-118.127c-15.565-14.192-24.373-22.879-24.373-36.365
			C205.762,161.513,214.569,152.827,230.135,138.635z M164.746,251.861c-3.167,0.654-6.296,1.605-9.35,2.868L92.59,280.719
			c10.257-26.078,26.776-41.146,41.092-54.198c15.976-14.565,31.064-28.323,31.064-51.521V251.861z M216.318,226.521
			c14.315,13.052,30.834,28.12,41.092,54.198l-62.807-25.99c-3.054-1.263-6.183-2.214-9.35-2.867V175
			C185.254,198.197,200.343,211.955,216.318,226.521z M92.23,68.359c-4.958-12.919-8.382-28.518-9.279-47.852h184.097
			c-0.896,19.333-4.319,34.932-9.278,47.852H92.23z"/>
	</g>
</g>
</svg>
