<svg id="layer_1" xmlns="http://www.w3.org/2000/svg" xmlns:xlink="http://www.w3.org/1999/xlink" width="400" height="200" viewBox="0 0 400 200" enable-background="new 0 0 400 200"><g><defs><path id="SVGID_1_" d="M0 0h4e2v2e2H0z"/></defs><clipPath id="SVGID_2_"><use xlink:href="#SVGID_1_" overflow="visible"/></clipPath><g opacity=".6" clip-path="url(#SVGID_2_)"><path fill="#4f86a1" d="M108.769-26.608v0 0l3.716 2.396v2.71c.288-1.813.775-3.577 1.578-5.611l7.52-2.354c1.048 2.242 1.737 4.443 2.181 6.75v-11.303l5.575-1.119 4.641 1.199v6.687l3.477-1.324 5.853 1.021v17.052h-5.853-2.16v.1h-5.957-4.909c0 .005.0.01.0.014h-2.847-2.337-.242-6.825c-.001-.035-.002-.068-.002-.104h-3.407-5.913V-23.19C103.782-24.417 106.14-26.199 108.769-26.608z"/><path fill="#4f86a1" d="M101.13-30.561v20.169H98.474 94.003V-30.925L98.474-32.155z"/><path fill="#4f86a1" d="M92.559-28.511v18.119H90.172 86.155V-28.838L90.172-29.943z"/><path fill="#4f86a1" d="M149.204-23.138V-10.392H142.417 138.385V-22.868L142.417-24.046z"/><path fill="#4f86a1" d="M151.955-24.94V-10.392H148.247 145.479V-24.146L148.935-29.113z"/><path fill="#4f86a1" d="M154.793-22.343v0 0l2.718 1.753c.321-1.303.762-2.572 1.364-3.86l5.541 1.735c1.59 4.03 1.503 6.626 1.389 12.323h-5.029-.179-1.722-2.099c-.001-.025-.001-.05-.002-.076h-1.981-4.358v-9.355C151.117-20.728 152.855-22.041 154.793-22.343z"/><path fill="#4f86a1" d="M48.878-26.76l3.396 2.418v2.735c.264-1.829.709-3.61 1.443-5.664l6.874-2.376c.958 2.263 1.588 4.484 1.993 6.813v-11.409l5.097-1.13 4.243 1.211v15.83l-4.243-.252 5.446.323v7.854h-5.446-4.487c0 .005.0.009.0.014h-2.603-2.137-.222-6.239c-.001-.035-.001-.069-.002-.104h-3.114-5.406v-12.814C44.319-24.548 46.475-26.347 48.878-26.76z"/><path fill="#4f86a1" d="M39.611-27.603V-10.392H34.261 31.082V-27.297L34.261-28.635z"/><path fill="#4f86a1" d="M41.895-30.749v20.357H39.467 35.379V-31.117L39.467-32.359z"/><path fill="#4f86a1" d="M34.059-28.68v18.288H31.877 28.205V-29.011L31.877-30.126z"/><path fill="#4f86a1" d="M84.411-23.138V-10.392H77.623 73.591V-22.868L77.623-24.046z"/><path fill="#4f86a1" d="M26.191-22.984V-10.392H22.506 16.301V-23.257L22.506-24.174z"/><path fill="#4f86a1" d="M46.191-25.076V-10.392H42.802 40.271V-24.274L43.431-29.289z"/><path fill="#4f86a1" d="M10.652-23.271 13.771-20.4v10.008H9.941 7.083v-9.462z"/></g><g opacity=".6" clip-path="url(#SVGID_2_)"><path fill="#4f86a1" d="M107.323-23.608v0 0l3.716 2.396v2.71c.288-1.813.775-3.577 1.578-5.611l7.519-2.354c1.048 2.242 1.737 4.443 2.181 6.75V-31.02l5.576-1.119 4.641 1.199v6.687l3.477-1.324 5.853 1.021v17.052h-5.853-2.16v.1h-5.957-4.909c0 .005.0.01.0.014h-2.847-2.337-.242-6.825c0-.035-.001-.068-.002-.104h-3.407-5.914V-20.19C102.336-21.417 104.694-23.199 107.323-23.608z"/><path fill="#4f86a1" d="M99.684-27.561V-7.392H97.028 92.557V-27.925L97.028-29.155z"/><path fill="#4f86a1" d="M91.112-25.511V-7.392H88.726 84.709V-25.838L88.726-26.943z"/><path fill="#4f86a1" d="M147.758-20.138V-7.392H140.971 136.938V-19.868L140.971-21.046z"/><path fill="#4f86a1" d="M150.509-21.94V-7.392H146.801 144.034V-21.146L147.489-26.113z"/><path fill="#4f86a1" d="M153.347-19.343v0 0l2.718 1.753c.321-1.303.761-2.572 1.364-3.86l5.541 1.735c1.59 4.03 1.503 6.626 1.39 12.323h-5.03-.178-1.722-2.099c0-.025-.001-.05-.001-.076h-1.982-4.358v-9.355C149.671-17.728 151.409-19.041 153.347-19.343z"/><path fill="#4f86a1" d="M47.432-23.76l3.396 2.418v2.735c.263-1.829.709-3.61 1.443-5.664l6.874-2.376c.958 2.263 1.588 4.484 1.994 6.813v-11.409l5.097-1.13 4.242 1.211v15.83l-4.242-.252 5.445.323v7.854h-5.445-4.488c0 .005.0.009.0.014h-2.603-2.137-.221-6.239c-.001-.035-.001-.069-.002-.104h-3.114-5.406v-12.814C42.874-21.548 45.029-23.347 47.432-23.76z"/><path fill="#4f86a1" d="M38.165-24.603V-7.392H32.815 29.637V-24.297L32.815-25.635z"/><path fill="#4f86a1" d="M40.449-27.749V-7.392H38.021 33.933V-28.117L38.021-29.359z"/><path fill="#4f86a1" d="M32.612-25.68V-7.392H30.431 26.759V-26.011L30.431-27.126z"/><path fill="#4f86a1" d="M82.965-20.138V-7.392H76.177 72.145V-19.868L76.177-21.046z"/><path fill="#4f86a1" d="M24.746-19.984V-7.392H21.06 14.854V-20.257L21.06-21.174z"/><path fill="#4f86a1" d="M44.746-22.076V-7.392H41.355 38.826V-21.274L41.984-26.289z"/><path fill="#4f86a1" d="M9.206-20.271 12.326-17.4V-7.392H8.495 5.637v-9.462z"/></g><g clip-path="url(#SVGID_2_)"><g><g><path fill="#4f7dab" d="M224.945 13.761h.377v13.688H224.945z"/><path fill="#4f7dab" d="M229.527 7.011h.396v20.438H229.527z"/><path fill="#4f7dab" d="M222.75 26.886V33.308L227.749 31.906V24.461z"/><path fill="#2a4c82" d="M227.749 24.461 233.541 29.461V33.776L227.749 31.906z"/></g><linearGradient id="SVGID_3_" gradientUnits="userSpaceOnUse" x1="225.9043" y1="61.2764" x2="225.9043" y2="26.6665"><stop offset="0" style="stop-color:#ffff34"/><stop offset=".1082" style="stop-color:#ffda49"/><stop offset=".2683" style="stop-color:#ffa964"/><stop offset=".4274" style="stop-color:#ff807a"/><stop offset=".5823" style="stop-color:#ff618c"/><stop offset=".7318" style="stop-color:#ff4a98"/><stop offset=".8738" style="stop-color:#ff3d9f"/><stop offset="1" style="stop-color:#ff38a2"/></linearGradient><path fill="url(#SVGID_3_)" d="M215.809 61.276V35.181L236 26.667V54.092z"/><linearGradient id="SVGID_4_" gradientUnits="userSpaceOnUse" x1="237.1152" y1="54.8613" x2="249.045" y2="34.1983"><stop offset="0" style="stop-color:#d900c7"/><stop offset=".1631" style="stop-color:#ad00b3"/><stop offset=".34" style="stop-color:#8500a1"/><stop offset=".5142" style="stop-color:#660093"/><stop offset=".6824" style="stop-color:#4f0089"/><stop offset=".8421" style="stop-color:#420083"/><stop offset=".9841" style="stop-color:#3d0081"/></linearGradient><path fill="url(#SVGID_4_)" d="M236 26.667 250.16 39.483V62.393L236 54.092z"/><path fill="#862f60" d="M222.057 37.31v21.744l-3.646 1.297V38.788L222.057 37.31zM228.705 34.566v22.203l3.645-1.289V33.097L228.705 34.566zM223.553 36.474V58.55l3.646-1.281V35.013L223.553 36.474z"/><linearGradient id="SVGID_5_" gradientUnits="userSpaceOnUse" x1="216.8428" y1="170.7344" x2="228.5727" y2="7.8943"><stop offset="0" style="stop-color:#22beb1"/><stop offset=".0367" style="stop-color:#40c8b6"/><stop offset=".0922" style="stop-color:#67d6bd"/><stop offset=".147" style="stop-color:#86e0c3"/><stop offset=".2002" style="stop-color:#9ce8c7"/><stop offset=".2512" style="stop-color:#aaecc9"/><stop offset=".2976" style="stop-color:#aeeeca"/><stop offset=".3899" style="stop-color:#a5ebc8"/><stop offset=".5383" style="stop-color:#8ee3c4"/><stop offset=".7243" style="stop-color:#67d6bd"/><stop offset=".9385" style="stop-color:#33c4b4"/><stop offset="1" style="stop-color:#22beb1"/></linearGradient><path fill="url(#SVGID_5_)" d="M219.11 39.246l2.946-1.195v20.978l-2.946 1.048V39.246zM224.252 36.932l2.947-1.181v21.492l-2.947 1.036V36.932zM229.403 35.024l2.946-1.188v21.619l-2.946 1.042V35.024z"/><path fill="#4a2748" d="M248.121 41.698v22.096l-2.526-2.139V39.373L248.121 41.698zM238.46 32.771v22.938l2.526 2.13V35.086L238.46 32.771zM242.03 35.878v22.807l2.526 2.123V38.184L242.03 35.878z"/><linearGradient id="SVGID_6_" gradientUnits="userSpaceOnUse" x1="242.9414" y1="178.8262" x2="242.9414" y2="20.4028"><stop offset="0" style="stop-color:#0485a5"/><stop offset=".0128" style="stop-color:#0d8ba7"/><stop offset=".0733" style="stop-color:#34a6ae"/><stop offset=".1331" style="stop-color:#53bab4"/><stop offset=".1913" style="stop-color:#69c9b8"/><stop offset=".247" style="stop-color:#77d2ba"/><stop offset=".2976" style="stop-color:#7bd5bb"/><stop offset=".4016" style="stop-color:#72cfb9"/><stop offset=".5686" style="stop-color:#5bbfb5"/><stop offset=".7778" style="stop-color:#34a6ae"/><stop offset="1" style="stop-color:#0485a5"/></linearGradient><path fill="url(#SVGID_6_)" d="M245.595 61.493V40.169l1.828 1.682V63.04L245.595 61.493zM242.031 58.522V36.67l1.827 1.668v21.719L242.031 58.522zM238.46 55.546v-21.98l1.828 1.674v21.847L238.46 55.546z"/><linearGradient id="SVGID_7_" gradientUnits="userSpaceOnUse" x1="221.3906" y1="200" x2="221.3906" y2="54.0923"><stop offset="0" style="stop-color:#ffff34"/><stop offset=".1082" style="stop-color:#ffda49"/><stop offset=".2683" style="stop-color:#ffa964"/><stop offset=".4274" style="stop-color:#ff807a"/><stop offset=".5823" style="stop-color:#ff618c"/><stop offset=".7318" style="stop-color:#ff4a98"/><stop offset=".8738" style="stop-color:#ff3d9f"/><stop offset="1" style="stop-color:#ff38a2"/></linearGradient><path fill="url(#SVGID_7_)" d="M206.782 64.488 236 54.092V2e2H206.782z"/><linearGradient id="SVGID_8_" gradientUnits="userSpaceOnUse" x1="246.3965" y1="200" x2="246.3965" y2="54.0923"><stop offset=".658" style="stop-color:#d900c7"/><stop offset=".7121" style="stop-color:#ad00b3"/><stop offset=".7707" style="stop-color:#8500a1"/><stop offset=".8284" style="stop-color:#660093"/><stop offset=".8841" style="stop-color:#4f0089"/><stop offset=".9371" style="stop-color:#420083"/><stop offset=".9841" style="stop-color:#3d0081"/></linearGradient><path fill="url(#SVGID_8_)" d="M236 54.092 256.793 66.281V2e2H236z"/><path fill="#862f60" d="M209.64 69.014l3.864-1.21V199.91h-3.864V69.014zM215.958 199.91h3.864V65.799l-3.864 1.21V199.91zM222.276 199.91h3.864V63.793l-3.864 1.21V199.91zM228.596 199.91h3.864V61.788l-3.864 1.21V199.91z"/><linearGradient id="SVGID_9_" gradientUnits="userSpaceOnUse" x1="218.5566" y1="174.2373" x2="231.3445" y2="-3.2897"><stop offset="0" style="stop-color:#22beb1"/><stop offset=".0367" style="stop-color:#40c8b6"/><stop offset=".0922" style="stop-color:#67d6bd"/><stop offset=".147" style="stop-color:#86e0c3"/><stop offset=".2002" style="stop-color:#9ce8c7"/><stop offset=".2512" style="stop-color:#aaecc9"/><stop offset=".2976" style="stop-color:#aeeeca"/><stop offset=".3899" style="stop-color:#a5ebc8"/><stop offset=".5383" style="stop-color:#8ee3c4"/><stop offset=".7243" style="stop-color:#67d6bd"/><stop offset=".9385" style="stop-color:#33c4b4"/><stop offset="1" style="stop-color:#22beb1"/></linearGradient><path fill="url(#SVGID_9_)" d="M229.294 199.91V63.604l3.166-.991V199.91H229.294zM222.976 199.91V65.61l3.165-.991V199.91H222.976zM216.656 199.91V67.615l3.166-.991V199.91H216.656zM210.338 199.91V69.621l3.166-.991v131.28H210.338z"/><g><path fill="#4a2748" d="M254.238 70.28 251.615 68.734V199.91H254.238z"/><path fill="#4a2748" d="M249.95 68.028 247.327 66.583V199.91H249.95z"/><path fill="#4a2748" d="M245.662 65.788 243.039 64.23V199.91H245.662z"/><path fill="#4a2748" d="M241.373 63.435 238.75 61.788V199.91H241.373z"/></g><linearGradient id="SVGID_10_" gradientUnits="userSpaceOnUse" x1="246.1445" y1="185.0117" x2="246.1445" y2="10.688"><stop offset="0" style="stop-color:#0485a5"/><stop offset=".0128" style="stop-color:#0d8ba7"/><stop offset=".0733" style="stop-color:#34a6ae"/><stop offset=".1331" style="stop-color:#53bab4"/><stop offset=".1913" style="stop-color:#69c9b8"/><stop offset=".247" style="stop-color:#77d2ba"/><stop offset=".2976" style="stop-color:#7bd5bb"/><stop offset=".4016" style="stop-color:#72cfb9"/><stop offset=".5686" style="stop-color:#5bbfb5"/><stop offset=".7778" style="stop-color:#34a6ae"/><stop offset="1" style="stop-color:#0485a5"/></linearGradient><path fill="url(#SVGID_10_)" d="M251.615 199.91V69.696l1.924 1.134V199.91H251.615zM249.251 199.91V68.584l-1.924-1.06V199.91H249.251zM244.963 199.91V66.337l-1.924-1.143V199.91H244.963zM240.674 199.91V63.978l-1.924-1.208v137.14H240.674z"/></g><g><g><path fill="#4f7dab" d="M298.904 27.792h.377v13.81H298.904z"/><path fill="#4f7dab" d="M303.488 24.929h.395v16.673H303.488z"/><path fill="#4f7dab" d="M296.709 41.363v5.57h5V39.711z"/><path fill="#2a4c82" d="M301.709 39.711 307.502 43.322V46.933H301.709z"/></g><linearGradient id="SVGID_11_" gradientUnits="userSpaceOnUse" x1="277.8613" y1="97.4448" x2="307.5273" y2="97.4448"><stop offset="0" style="stop-color:#22beb1"/><stop offset=".0367" style="stop-color:#40c8b6"/><stop offset=".0922" style="stop-color:#67d6bd"/><stop offset=".147" style="stop-color:#86e0c3"/><stop offset=".2002" style="stop-color:#9ce8c7"/><stop offset=".2512" style="stop-color:#aaecc9"/><stop offset=".2976" style="stop-color:#aeeeca"/><stop offset=".3899" style="stop-color:#a5ebc8"/><stop offset=".5383" style="stop-color:#8ee3c4"/><stop offset=".7243" style="stop-color:#67d6bd"/><stop offset=".9385" style="stop-color:#33c4b4"/><stop offset="1" style="stop-color:#22beb1"/></linearGradient><path fill="url(#SVGID_11_)" d="M277.861 51.646 307.527 43.222V151.668H277.861z"/><g><linearGradient id="SVGID_12_" gradientUnits="userSpaceOnUse" x1="276.4277" y1="151.668" x2="276.4277" y2="49.9214"><stop offset="0" style="stop-color:#fbcb34"/><stop offset=".5049" style="stop-color:#ff3c94"/><stop offset="1" style="stop-color:#9a00ff"/></linearGradient><path fill="url(#SVGID_12_)" d="M277.861 49.921 274.994 50.84V151.668H277.861z"/><linearGradient id="SVGID_13_" gradientUnits="userSpaceOnUse" x1="281.8506" y1="151.668" x2="281.8506" y2="48.3828"><stop offset="0" style="stop-color:#fbcb34"/><stop offset=".5049" style="stop-color:#ff3c94"/><stop offset="1" style="stop-color:#9a00ff"/></linearGradient><path fill="url(#SVGID_13_)" d="M283.285 48.382 280.416 49.301V151.668H283.285z"/><linearGradient id="SVGID_14_" gradientUnits="userSpaceOnUse" x1="287.2725" y1="151.668" x2="287.2725" y2="46.8442"><stop offset="0" style="stop-color:#fbcb34"/><stop offset=".5049" style="stop-color:#ff3c94"/><stop offset="1" style="stop-color:#9a00ff"/></linearGradient><path fill="url(#SVGID_14_)" d="M288.707 46.844 285.838 47.763V151.668H288.707z"/><linearGradient id="SVGID_15_" gradientUnits="userSpaceOnUse" x1="292.6953" y1="151.668" x2="292.6953" y2="45.3057"><stop offset="0" style="stop-color:#fbcb34"/><stop offset=".5049" style="stop-color:#ff3c94"/><stop offset="1" style="stop-color:#9a00ff"/></linearGradient><path fill="url(#SVGID_15_)" d="M294.129 45.305 291.262 46.224V151.668H294.129z"/><linearGradient id="SVGID_16_" gradientUnits="userSpaceOnUse" x1="298.1172" y1="151.668" x2="298.1172" y2="43.7671"><stop offset="0" style="stop-color:#fbcb34"/><stop offset=".5049" style="stop-color:#ff3c94"/><stop offset="1" style="stop-color:#9a00ff"/></linearGradient><path fill="url(#SVGID_16_)" d="M299.551 43.767 296.684 44.686V151.668H299.551z"/><linearGradient id="SVGID_17_" gradientUnits="userSpaceOnUse" x1="303.5391" y1="151.668" x2="303.5391" y2="42.229"><stop offset="0" style="stop-color:#fbcb34"/><stop offset=".5049" style="stop-color:#ff3c94"/><stop offset="1" style="stop-color:#9a00ff"/></linearGradient><path fill="url(#SVGID_17_)" d="M304.973 42.229 302.105 43.147V151.668H304.973z"/><linearGradient id="SVGID_18_" gradientUnits="userSpaceOnUse" x1="308.9619" y1="151.668" x2="308.9619" y2="40.6899"><stop offset="0" style="stop-color:#fbcb34"/><stop offset=".5049" style="stop-color:#ff3c94"/><stop offset="1" style="stop-color:#9a00ff"/></linearGradient><path fill="url(#SVGID_18_)" d="M310.396 40.689 307.527 41.608v110.06H310.396z"/></g><linearGradient id="SVGID_19_" gradientUnits="userSpaceOnUse" x1="315.8408" y1="151.668" x2="315.8408" y2="40.6899"><stop offset="0" style="stop-color:#d900c7"/><stop offset=".1486" style="stop-color:#b300b6"/><stop offset=".3374" style="stop-color:#8900a3"/><stop offset=".5215" style="stop-color:#680094"/><stop offset=".6971" style="stop-color:#50008a"/><stop offset=".8606" style="stop-color:#420083"/><stop offset="1" style="stop-color:#3d0081"/></linearGradient><path fill="url(#SVGID_19_)" d="M310.396 40.689V151.668H321.285V48.599z"/><linearGradient id="SVGID_20_" gradientUnits="userSpaceOnUse" x1="307.5273" y1="46.9468" x2="277.8613" y2="46.9468"><stop offset="0" style="stop-color:#d900c7"/><stop offset=".0037" style="stop-color:#b300b6"/><stop offset=".0083" style="stop-color:#8900a3"/><stop offset=".0128" style="stop-color:#680094"/><stop offset=".0172" style="stop-color:#50008a"/><stop offset=".0212" style="stop-color:#420083"/><stop offset=".0246" style="stop-color:#3d0081"/></linearGradient><path fill="url(#SVGID_20_)" d="M277.861 49.921l2.494 1.018-2.494.708V49.921zM283.279 50.108l2.51-.713-2.51-1.009V50.108zM288.697 48.569l2.527-.718-2.527-1V48.569zM294.115 47.031l2.543-.723-2.543-.992V47.031zM299.533 45.492l2.561-.727-2.561-.983V45.492zM304.951 43.954l2.576-.732-2.576-.975V43.954z"/><linearGradient id="SVGID_21_" gradientUnits="userSpaceOnUse" x1="291.6631" y1="151.668" x2="291.6631" y2="43.8076"><stop offset="0" style="stop-color:#d900c7"/><stop offset=".1486" style="stop-color:#b300b6"/><stop offset=".3374" style="stop-color:#8900a3"/><stop offset=".5215" style="stop-color:#680094"/><stop offset=".6971" style="stop-color:#50008a"/><stop offset=".8606" style="stop-color:#420083"/><stop offset="1" style="stop-color:#3d0081"/></linearGradient><path fill="url(#SVGID_21_)" d="M278.342 51.51v100.158h-.48V51.646L278.342 51.51zM283.279 50.108v101.56h.488V49.969L283.279 50.108zM288.697 48.569v103.099h.494V48.429L288.697 48.569zM294.115 47.031v104.637h.502V46.888L294.115 47.031zM299.533 45.492v106.176h.508V45.348L299.533 45.492zM304.951 43.954v107.714h.514V43.807L304.951 43.954z"/></g></g></g></svg>