<svg id="layer_1" xmlns="http://www.w3.org/2000/svg" xmlns:xlink="http://www.w3.org/1999/xlink" width="400" height="200" viewBox="0 0 400 200" enable-background="new 0 0 400 200"><g><defs><path id="SVGID_1_" d="M0 0h4e2v2e2H0z"/></defs><clipPath id="SVGID_2_"><use xlink:href="#SVGID_1_" overflow="visible"/></clipPath><g opacity=".6" clip-path="url(#SVGID_2_)"><path fill="#4f86a1" d="M108.769-26.608v0 0l3.716 2.396v2.71c.288-1.813.775-3.577 1.578-5.611l7.52-2.354c1.048 2.242 1.737 4.443 2.181 6.75v-11.303l5.575-1.119 4.641 1.199v6.687l3.477-1.324 5.853 1.021v17.052h-5.853-2.16v.1h-5.957-4.909c0 .005.0.01.0.014h-2.847-2.337-.242-6.825c-.001-.035-.002-.068-.002-.104h-3.407-5.913V-23.19C103.782-24.417 106.14-26.199 108.769-26.608z"/><path fill="#4f86a1" d="M101.13-30.561v20.169H98.474 94.003V-30.925L98.474-32.155z"/><path fill="#4f86a1" d="M92.559-28.511v18.119H90.172 86.155V-28.838L90.172-29.943z"/><path fill="#4f86a1" d="M149.204-23.138V-10.392H142.417 138.385V-22.868L142.417-24.046z"/><path fill="#4f86a1" d="M151.955-24.94V-10.392H148.247 145.479V-24.146L148.935-29.113z"/><path fill="#4f86a1" d="M154.793-22.343v0 0l2.718 1.753c.321-1.303.762-2.572 1.364-3.86l5.541 1.735c1.59 4.03 1.503 6.626 1.389 12.323h-5.029-.179-1.722-2.099c-.001-.025-.001-.05-.002-.076h-1.981-4.358v-9.355C151.117-20.728 152.855-22.041 154.793-22.343z"/><path fill="#4f86a1" d="M48.878-26.76l3.396 2.418v2.735c.264-1.829.709-3.61 1.443-5.664l6.874-2.376c.958 2.263 1.588 4.484 1.993 6.813v-11.409l5.097-1.13 4.243 1.211v15.83l-4.243-.252 5.446.323v7.854h-5.446-4.487c0 .005.0.009.0.014h-2.603-2.137-.222-6.239c-.001-.035-.001-.069-.002-.104h-3.114-5.406v-12.814C44.319-24.548 46.475-26.347 48.878-26.76z"/><path fill="#4f86a1" d="M39.611-27.603V-10.392H34.261 31.082V-27.297L34.261-28.635z"/><path fill="#4f86a1" d="M41.895-30.749v20.357H39.467 35.379V-31.117L39.467-32.359z"/><path fill="#4f86a1" d="M34.059-28.68v18.288H31.877 28.205V-29.011L31.877-30.126z"/><path fill="#4f86a1" d="M84.411-23.138V-10.392H77.623 73.591V-22.868L77.623-24.046z"/><path fill="#4f86a1" d="M26.191-22.984V-10.392H22.506 16.301V-23.257L22.506-24.174z"/><path fill="#4f86a1" d="M46.191-25.076V-10.392H42.802 40.271V-24.274L43.431-29.289z"/><path fill="#4f86a1" d="M10.652-23.271 13.771-20.4v10.008H9.941 7.083v-9.462z"/></g><g opacity=".6" clip-path="url(#SVGID_2_)"><path fill="#4f86a1" d="M107.323-23.608v0 0l3.716 2.396v2.71c.288-1.813.775-3.577 1.578-5.611l7.519-2.354c1.048 2.242 1.737 4.443 2.181 6.75V-31.02l5.576-1.119 4.641 1.199v6.687l3.477-1.324 5.853 1.021v17.052h-5.853-2.16v.1h-5.957-4.909c0 .005.0.01.0.014h-2.847-2.337-.242-6.825c0-.035-.001-.068-.002-.104h-3.407-5.914V-20.19C102.336-21.417 104.694-23.199 107.323-23.608z"/><path fill="#4f86a1" d="M99.684-27.561V-7.392H97.028 92.557V-27.925L97.028-29.155z"/><path fill="#4f86a1" d="M91.112-25.511V-7.392H88.726 84.709V-25.838L88.726-26.943z"/><path fill="#4f86a1" d="M147.758-20.138V-7.392H140.971 136.938V-19.868L140.971-21.046z"/><path fill="#4f86a1" d="M150.509-21.94V-7.392H146.801 144.034V-21.146L147.489-26.113z"/><path fill="#4f86a1" d="M153.347-19.343v0 0l2.718 1.753c.321-1.303.761-2.572 1.364-3.86l5.541 1.735c1.59 4.03 1.503 6.626 1.39 12.323h-5.03-.178-1.722-2.099c0-.025-.001-.05-.001-.076h-1.982-4.358v-9.355C149.671-17.728 151.409-19.041 153.347-19.343z"/><path fill="#4f86a1" d="M47.432-23.76l3.396 2.418v2.735c.263-1.829.709-3.61 1.443-5.664l6.874-2.376c.958 2.263 1.588 4.484 1.994 6.813v-11.409l5.097-1.13 4.242 1.211v15.83l-4.242-.252 5.445.323v7.854h-5.445-4.488c0 .005.0.009.0.014h-2.603-2.137-.221-6.239c-.001-.035-.001-.069-.002-.104h-3.114-5.406v-12.814C42.874-21.548 45.029-23.347 47.432-23.76z"/><path fill="#4f86a1" d="M38.165-24.603V-7.392H32.815 29.637V-24.297L32.815-25.635z"/><path fill="#4f86a1" d="M40.449-27.749V-7.392H38.021 33.933V-28.117L38.021-29.359z"/><path fill="#4f86a1" d="M32.612-25.68V-7.392H30.431 26.759V-26.011L30.431-27.126z"/><path fill="#4f86a1" d="M82.965-20.138V-7.392H76.177 72.145V-19.868L76.177-21.046z"/><path fill="#4f86a1" d="M24.746-19.984V-7.392H21.06 14.854V-20.257L21.06-21.174z"/><path fill="#4f86a1" d="M44.746-22.076V-7.392H41.355 38.826V-21.274L41.984-26.289z"/><path fill="#4f86a1" d="M9.206-20.271 12.326-17.4V-7.392H8.495 5.637v-9.462z"/></g><g clip-path="url(#SVGID_2_)"><g><linearGradient id="SVGID_3_" gradientUnits="userSpaceOnUse" x1="211.4863" y1="200" x2="211.4863" y2="159.792" gradientTransform="matrix(-1 0 0 1 399.8613 0)"><stop offset="0" style="stop-color:#ffff74"/><stop offset=".36" style="stop-color:#ff9574"/><stop offset="1" style="stop-color:#d900c7"/></linearGradient><path fill="url(#SVGID_3_)" d="M202.273 159.792V2e2H174.476V163.268z"/><linearGradient id="SVGID_4_" gradientUnits="userSpaceOnUse" x1="191.5957" y1="200" x2="191.5957" y2="159.792" gradientTransform="matrix(-1 0 0 1 399.8613 0)"><stop offset="0" style="stop-color:#9a00ff"/><stop offset="1" style="stop-color:#d900c7"/></linearGradient><path fill="url(#SVGID_4_)" d="M202.273 159.792 214.258 162.771V2e2H202.273z"/><path fill="#446d8e" d="M202.273 159.792 214.896 162.912V160.701L202.273 157.12z"/><path fill="#67b2c6" d="M202.273 157.12V159.792L173.673 163.379V161.388z"/><path fill="#862f60" d="M191.182 183.956v-8.748l3.298-.258v8.879L191.182 183.956zM194.479 196.047v-8.897l-3.298.12v8.777H194.479zm-13.012.0h3.297v-8.543l-3.297.121V196.047zM186.324 196.047h3.297v-8.72l-3.297.12V196.047zM186.324 163.73v8.507l3.297-.253v-8.649L186.324 163.73zM194.479 162.751l-3.298.396v8.717l3.298-.252V162.751zM189.621 184.016v-8.685l-3.297.258v8.553L189.621 184.016zM196.04 196.047h3.822v-9.095l-3.822.14V196.047zM179.906 187.682l-3.303.121v8.244h3.303V187.682zM179.906 176.092l-3.303.259v8.164l3.303-.127V176.092zM176.604 164.898v8.084l3.303-.254V164.5L176.604 164.898zM181.467 164.313v8.296l3.297-.253v-8.438L181.467 164.313zM181.467 175.97v8.358l3.297-.127v-8.49L181.467 175.97zM196.04 183.77l3.822-.146v-9.095l-3.822.3V183.77zM196.04 171.492l3.822-.293v-9.095l-3.822.459V171.492z"/><linearGradient id="SVGID_5_" gradientUnits="userSpaceOnUse" x1="211.3633" y1="162.1328" x2="211.3633" y2="198.1649" gradientTransform="matrix(-1 0 0 1 399.8613 0)"><stop offset="0" style="stop-color:#0485a5"/><stop offset=".0128" style="stop-color:#0d8ba7"/><stop offset=".0733" style="stop-color:#34a6ae"/><stop offset=".1331" style="stop-color:#53bab4"/><stop offset=".1913" style="stop-color:#69c9b8"/><stop offset=".247" style="stop-color:#77d2ba"/><stop offset=".2976" style="stop-color:#7bd5bb"/><stop offset=".4016" style="stop-color:#72cfb9"/><stop offset=".5686" style="stop-color:#5bbfb5"/><stop offset=".7778" style="stop-color:#34a6ae"/><stop offset="1" style="stop-color:#0485a5"/></linearGradient><path fill="url(#SVGID_5_)" d="M177.146 196.022v-7.7l2.751-.101v7.801H177.146zM182.01 196.022v-7.878l2.744-.101v7.979H182.01zM186.867 196.022v-8.056l2.744-.101v8.156H186.867zM191.725 196.022v-8.233l2.744-.101v8.334H191.725zM196.582 196.022v-8.411l3.27-.12v8.531H196.582zM177.146 184.479v-7.621l2.751-.215v7.73L177.146 184.479zM182.01 184.293v-7.814l2.744-.215v7.925L182.01 184.293zM186.867 184.107v-8.01l2.744-.215v8.119L186.867 184.107zM191.725 183.921v-8.204l2.744-.215v8.313L191.725 183.921zM196.582 183.734v-8.398l3.27-.256v8.529L196.582 183.734zM177.146 172.937v-7.54l2.751-.331v7.66L177.146 172.937zM182.01 172.563v-7.752l2.744-.329v7.87L182.01 172.563zM186.867 172.19v-7.962l2.744-.329v8.081L186.867 172.19zM191.725 171.818v-8.173l2.744-.33v8.293L191.725 171.818zM196.582 171.446v-8.385l3.27-.393v8.526L196.582 171.446z"/><path fill="#7a3e52" d="M214.896 162.912 202.273 159.792 173.673 163.379 174.476 163.737 202.289 160.493 214.258 163.072z"/></g><g><linearGradient id="SVGID_6_" gradientUnits="userSpaceOnUse" x1="372.3379" y1="200" x2="372.3379" y2="172.9736"><stop offset="0" style="stop-color:#ffff74"/><stop offset=".36" style="stop-color:#ff9574"/><stop offset="1" style="stop-color:#d900c7"/></linearGradient><path fill="url(#SVGID_6_)" d="M381.68 172.974V2e2H362.996V175.31z"/><linearGradient id="SVGID_7_" gradientUnits="userSpaceOnUse" x1="366.9131" y1="200" x2="366.9131" y2="172.9736" gradientTransform="matrix(-1 0 0 1 752.6211 0)"><stop offset="0" style="stop-color:#9a00ff"/><stop offset="1" style="stop-color:#d900c7"/></linearGradient><path fill="url(#SVGID_7_)" d="M381.68 172.974 389.736 174.976V2e2H381.68z"/><path fill="#446d8e" d="M381.68 172.974 390.164 175.071V173.585L381.68 171.178z"/><path fill="#67b2c6" d="M381.68 171.178V172.974L362.457 175.385V174.047z"/><path fill="#862f60" d="M374.225 189.216v-5.88l2.217-.174v5.969L374.225 189.216zM376.441 197.343v-5.98l-2.217.081v5.899H376.441zM367.695 197.343h2.217v-5.742l-2.217.081V197.343zM370.961 197.343h2.215v-5.861l-2.215.081V197.343zM370.961 175.621v5.718l2.215-.17v-5.813L370.961 175.621zM376.441 174.963l-2.217.267v5.859l2.217-.17V174.963zM373.176 189.256v-5.838l-2.215.174v5.749L373.176 189.256zM377.49 197.343h2.57v-6.113l-2.57.094V197.343zM366.646 191.721l-2.221.081v5.541h2.221V191.721zM366.646 183.93l-2.221.174v5.487l2.221-.085V183.93zM364.426 176.406v5.434l2.221-.17v-5.53L364.426 176.406zM367.695 176.014v5.575l2.217-.17v-5.672L367.695 176.014zM367.695 183.848v5.618l2.217-.085v-5.707L367.695 183.848zM377.49 189.091l2.57-.099v-6.113l-2.57.201V189.091zM377.49 180.838l2.57-.196v-6.113l-2.57.309v6z"/><linearGradient id="SVGID_8_" gradientUnits="userSpaceOnUse" x1="380.1992" y1="174.5469" x2="380.1992" y2="198.7663" gradientTransform="matrix(-1 0 0 1 752.6211 0)"><stop offset="0" style="stop-color:#0485a5"/><stop offset=".0128" style="stop-color:#0d8ba7"/><stop offset=".0733" style="stop-color:#34a6ae"/><stop offset=".1331" style="stop-color:#53bab4"/><stop offset=".1913" style="stop-color:#69c9b8"/><stop offset=".247" style="stop-color:#77d2ba"/><stop offset=".2976" style="stop-color:#7bd5bb"/><stop offset=".4016" style="stop-color:#72cfb9"/><stop offset=".5686" style="stop-color:#5bbfb5"/><stop offset=".7778" style="stop-color:#34a6ae"/><stop offset="1" style="stop-color:#0485a5"/></linearGradient><path fill="url(#SVGID_8_)" d="M364.791 197.326v-5.176l1.848-.067v5.243H364.791zM368.061 197.326v-5.295l1.844-.068v5.363H368.061zM371.324 197.326v-5.414l1.846-.068v5.482H371.324zM374.59 197.326v-5.534l1.844-.067v5.602H374.59zM377.855 197.326v-5.653l2.197-.081v5.734H377.855zM364.791 189.567v-5.122l1.848-.145v5.196L364.791 189.567zM368.061 189.442v-5.253l1.844-.145v5.327L368.061 189.442zM371.324 189.317v-5.384l1.846-.145v5.458L371.324 189.317zM374.59 189.192v-5.515l1.844-.145v5.588L374.59 189.192zM377.855 189.067v-5.646l2.197-.172v5.732L377.855 189.067zM364.791 181.809v-5.068l1.848-.222v5.148L364.791 181.809zM368.061 181.558v-5.21l1.844-.221v5.29L368.061 181.558zM371.324 181.308v-5.352l1.846-.222v5.432L371.324 181.308zM374.59 181.058v-5.494l1.844-.222v5.574L374.59 181.058zM377.855 180.808v-5.636l2.197-.265v5.731L377.855 180.808z"/><path fill="#7a3e52" d="M390.164 175.071 381.68 172.974 362.457 175.385 362.996 175.625 381.691 173.444 389.736 175.179z"/></g><g><linearGradient id="SVGID_9_" gradientUnits="userSpaceOnUse" x1="307.2949" y1="162.3203" x2="325.6484" y2="162.3203"><stop offset="0" style="stop-color:#9a00ff"/><stop offset="1" style="stop-color:#d900c7"/></linearGradient><path fill="url(#SVGID_9_)" d="M307.295 124.642V2e2H325.648V129.952z"/><linearGradient id="SVGID_10_" gradientUnits="userSpaceOnUse" x1="297.4707" y1="200" x2="297.4707" y2="124.6416"><stop offset="0" style="stop-color:#ffff74"/><stop offset=".36" style="stop-color:#ff9574"/><stop offset="1" style="stop-color:#d900c7"/></linearGradient><path fill="url(#SVGID_10_)" d="M307.295 124.642 287.646 130.513V2e2h19.649z"/><path fill="#67b2c6" d="M307.295 124.642 286.941 130.691V128.877L307.295 122.244z"/><path fill="#446d8e" d="M307.295 122.244V124.642L326.537 130.378V128.557z"/><path fill="#4a2748" d="M320.352 131.357l3.582.9v6.767l-3.582-.831V131.357zM314.52 129.892v6.95l4.01.93v-6.872L314.52 129.892zM318.529 165.055v-6.807l-4.01-.563v6.969L318.529 165.055zM314.52 139.156v6.956l4.01.754v-6.851L314.52 139.156zM320.352 147.208l3.582.674v-6.707l-3.582-.769V147.208zM314.52 148.42v6.963l4.01.577v-6.828L314.52 148.42zM312.697 138.765l-3.686-.79v7.103l3.686.692V138.765zM320.352 156.223l3.582.517v-6.647l-3.582-.636V156.223zM312.697 148.097l-3.686-.655v7.148l3.686.53V148.097zM309.012 128.507v7.059l3.686.854v-6.986L309.012 128.507zM312.697 157.428l-3.686-.519v7.192l3.686.369V157.428zM320.352 165.237l3.582.359v-6.588l-3.582-.504V165.237zM314.52 192.663v-6.97l4.01.097v6.807L314.52 192.663zM314.52 167.165v6.957l4.01.286v-6.851L314.52 167.165zM320.352 174.538l3.582.255v-6.707l-3.582-.35V174.538zM314.52 176.43v6.963l4.01.109v-6.828L314.52 176.43zM312.697 166.987l-3.686-.361v7.103l3.686.264V166.987zM320.352 183.553l3.582.098v-6.646l-3.582-.219V183.553zM312.697 176.318l-3.686-.225v7.147l3.686.101V176.318zM312.697 185.649l-3.686-.089v7.192l3.686-.061V185.649zM320.352 192.567l3.582-.06v-6.587l-3.582-.087V192.567z"/><linearGradient id="SVGID_11_" gradientUnits="userSpaceOnUse" x1="316.1406" y1="129.4014" x2="316.1406" y2="194.0293"><stop offset="0" style="stop-color:#0485a5"/><stop offset=".0128" style="stop-color:#0d8ba7"/><stop offset=".0733" style="stop-color:#34a6ae"/><stop offset=".1331" style="stop-color:#53bab4"/><stop offset=".1913" style="stop-color:#69c9b8"/><stop offset=".247" style="stop-color:#77d2ba"/><stop offset=".2976" style="stop-color:#7bd5bb"/><stop offset=".4016" style="stop-color:#72cfb9"/><stop offset=".5686" style="stop-color:#5bbfb5"/><stop offset=".7778" style="stop-color:#34a6ae"/><stop offset="1" style="stop-color:#0485a5"/></linearGradient><path fill="url(#SVGID_11_)" d="M309.002 186.186l3.041.073v6.411l-3.041.049V186.186zM314.512 186.318l3.363.081v6.174l-3.363.056V186.318zM320.342 186.459l2.938.07v5.956l-2.938.047V186.459zM320.342 183.532v-6.11l2.938.18v6.012L320.342 183.532zM314.512 183.373v-6.307l3.363.205v6.193L314.512 183.373zM309.002 183.222v-6.491l3.041.186v6.389L309.002 183.222zM320.342 174.531v-6.146l2.938.287v6.068L320.342 174.531zM314.512 174.115v-6.301l3.363.329v6.212L314.512 174.115zM309.002 173.723v-6.447l3.041.298v6.366L309.002 173.723zM320.342 165.239v-6.069l2.938.414v5.95L320.342 165.239zM314.512 164.655v-6.306l3.363.473v6.17L314.512 164.655zM309.002 164.104v-6.529l3.041.429v6.405L309.002 164.104zM320.342 156.237v-6.103l2.938.521v6.005L320.342 156.237zM314.512 155.397V149.1l3.363.597v6.186L314.512 155.397zM309.002 154.604v-6.483l3.041.54v6.381L309.002 154.604zM320.342 147.234V141.1l2.938.63v6.057L320.342 147.234zM314.512 146.139v-6.29l3.363.723v6.199L314.512 146.139zM309.002 145.104v-6.436l3.041.652v6.354L309.002 145.104zM320.342 138.231v-6.166l2.938.737v6.109L320.342 138.231zM314.512 136.88v-6.28l3.363.846v6.214L314.512 136.88zM309.002 135.603v-6.388l3.041.765v6.328L309.002 135.603z"/><path fill="#7a3e52" d="M293.426 138.54l-3.582.979v-6.767l3.582-1.049V138.54zM295.248 131.17v6.873l4.01-1.096v-6.951L295.248 131.17zM299.258 164.758v-6.969l-4.01.73v6.807L299.258 164.758zM295.248 140.287v6.85l4.01-.919v-6.957L295.248 140.287zM293.426 140.753l-3.582.917v6.707l3.582-.822V140.753zM295.248 149.403v6.828l4.01-.743v-6.963L295.248 149.403zM301.08 145.799l3.686-.845v-7.104l-3.686.943v7.006zM293.426 149.803l-3.582.784v6.647l3.582-.665V149.803zM301.08 155.149l3.686-.684v-7.147l-3.686.808V155.149zM301.08 129.463v6.986l3.686-1.008v-7.058L301.08 129.463zM301.08 164.5l3.686-.521v-7.192l-3.686.671V164.5zM293.426 158.852l-3.582.652v6.588l3.582-.508V158.852zM295.229 192.665v-6.807l3.996-.229v6.97L295.229 192.665zM295.229 167.625v6.851l3.996-.418v-6.957L295.229 167.625zM293.414 167.864l-3.57.469v6.707l3.57-.374V167.864zM295.229 176.742v6.828l3.996-.242v-6.963L295.229 176.742zM301.041 173.867l3.674-.385v-7.103l-3.674.482v7.006zM293.414 176.913l-3.57.337v6.647l3.57-.217V176.913zM301.041 183.218l3.674-.223v-7.147l-3.674.346V183.218zM301.041 192.568l3.674-.062v-7.192l-3.674.211V192.568zM293.414 185.963l-3.57.204v6.588l3.57-.06V185.963z"/><linearGradient id="SVGID_12_" gradientUnits="userSpaceOnUse" x1="297.624" y1="130.4854" x2="297.624" y2="194.3874"><stop offset="0" style="stop-color:#22beb1"/><stop offset=".0367" style="stop-color:#40c8b6"/><stop offset=".0922" style="stop-color:#67d6bd"/><stop offset=".147" style="stop-color:#86e0c3"/><stop offset=".2002" style="stop-color:#9ce8c7"/><stop offset=".2512" style="stop-color:#aaecc9"/><stop offset=".2976" style="stop-color:#aeeeca"/><stop offset=".3899" style="stop-color:#a5ebc8"/><stop offset=".5383" style="stop-color:#8ee3c4"/><stop offset=".7243" style="stop-color:#67d6bd"/><stop offset=".9385" style="stop-color:#33c4b4"/><stop offset="1" style="stop-color:#22beb1"/></linearGradient><path fill="url(#SVGID_12_)" d="M290.484 186.773l2.926-.167v6.074l-2.926.048V186.773zM295.871 186.466l3.35-.192v6.311l-3.35.056V186.466zM301.684 186.132l3.027-.173v6.533l-3.027.051V186.132zM290.484 177.846l2.926-.275v6.109l-2.926.177V177.846zM295.871 177.338l3.35-.315v6.305l-3.35.202V177.338zM301.684 176.79l3.027-.286v6.49l-3.027.183V176.79zM290.484 168.918l2.926-.384v6.144l-2.926.307V168.918zM295.871 168.211l3.35-.439v6.298l-3.35.351V168.211zM301.684 167.447l3.027-.397v6.445l-3.027.316V167.447zM290.484 160.076l2.938-.535v6.065l-2.938.416V160.076zM295.891 159.092l3.363-.613v6.302l-3.363.477V159.092zM301.721 158.029l3.043-.555V164l-3.043.431V158.029zM290.484 151.149l2.938-.644v6.098l-2.938.545V151.149zM295.891 149.965l3.363-.736v6.294l-3.363.624V149.965zM301.721 148.688l3.043-.666v6.479l-3.043.564V148.688zM290.484 142.223l2.938-.752v6.13l-2.938.674V142.223zM295.891 140.84l3.363-.861v6.284l-3.363.772V140.84zM301.721 139.348l3.043-.778v6.43l-3.043.698V139.348zM290.484 133.297l2.938-.859v6.159l-2.938.803V133.297zM295.891 131.715l3.363-.985v6.273l-3.363.919V131.715zM301.721 130.007l3.043-.89v6.381l-3.043.831V130.007z"/><path fill="#7a3e52" d="M286.941 130.691 307.295 124.642 326.537 130.378 325.648 130.586 307.246 125.32 287.646 130.854z"/></g></g></g></svg>