<?xml version="1.0" encoding="utf-8"?>
<!-- Generator: Adobe Illustrator 16.0.3, SVG Export Plug-In . SVG Version: 6.00 Build 0)  -->
<!DOCTYPE svg PUBLIC "-//W3C//DTD SVG 1.1//EN" "http://www.w3.org/Graphics/SVG/1.1/DTD/svg11.dtd">
<svg version="1.1" id="layer_1" xmlns="http://www.w3.org/2000/svg" xmlns:xlink="http://www.w3.org/1999/xlink" x="0px" y="0px"
	 width="400px" height="200px" viewBox="0 0 400 200" enable-background="new 0 0 400 200" xml:space="preserve">
<g>
	<defs>
		<rect id="SVGID_1_" width="400" height="200"/>
	</defs>
	<clipPath id="SVGID_2_">
		<use xlink:href="#SVGID_1_"  overflow="visible"/>
	</clipPath>
	<g opacity="0.6" clip-path="url(#SVGID_2_)">
		<path fill="#4F86A1" d="M108.769-26.608L108.769-26.608L108.769-26.608l3.716,2.396v2.71c0.288-1.813,0.775-3.577,1.578-5.611
			l7.52-2.354c1.048,2.242,1.737,4.443,2.181,6.75v-11.303l5.575-1.119l4.641,1.199v6.687l3.477-1.324l5.853,1.021v17.052h-5.853
			h-2.16v0.1h-5.957h-4.909c0,0.005,0,0.01,0,0.014h-2.847h-2.337h-0.242h-6.825c-0.001-0.035-0.002-0.068-0.002-0.104h-3.407
			h-5.913V-23.19C103.782-24.417,106.14-26.199,108.769-26.608z"/>
		<polygon fill="#4F86A1" points="101.13,-30.561 101.13,-10.392 98.474,-10.392 94.003,-10.392 94.003,-30.925 98.474,-32.155 		
			"/>
		<polygon fill="#4F86A1" points="92.559,-28.511 92.559,-10.392 90.172,-10.392 86.155,-10.392 86.155,-28.838 90.172,-29.943 		
			"/>
		<polygon fill="#4F86A1" points="149.204,-23.138 149.204,-10.392 142.417,-10.392 138.385,-10.392 138.385,-22.868 
			142.417,-24.046 		"/>
		<polygon fill="#4F86A1" points="151.955,-24.94 151.955,-10.392 148.247,-10.392 145.479,-10.392 145.479,-24.146 
			148.935,-29.113 		"/>
		<path fill="#4F86A1" d="M154.793-22.343L154.793-22.343L154.793-22.343l2.718,1.753c0.321-1.303,0.762-2.572,1.364-3.86
			l5.541,1.735c1.59,4.03,1.503,6.626,1.389,12.323h-5.029h-0.179h-1.722h-2.099c-0.001-0.025-0.001-0.05-0.002-0.076h-1.981h-4.358
			v-9.355C151.117-20.728,152.855-22.041,154.793-22.343z"/>
		<path fill="#4F86A1" d="M48.878-26.76l3.396,2.418v2.735c0.264-1.829,0.709-3.61,1.443-5.664l6.874-2.376
			c0.958,2.263,1.588,4.484,1.993,6.813v-11.409l5.097-1.13l4.243,1.211v15.83l-4.243-0.252l5.446,0.323v7.854h-5.446h-4.487
			c0,0.005,0,0.009,0,0.014h-2.603h-2.137h-0.222h-6.239c-0.001-0.035-0.001-0.069-0.002-0.104h-3.114h-5.406v-12.814
			C44.319-24.548,46.475-26.347,48.878-26.76z"/>
		<polygon fill="#4F86A1" points="39.611,-27.603 39.611,-10.392 34.261,-10.392 31.082,-10.392 31.082,-27.297 34.261,-28.635 		
			"/>
		<polygon fill="#4F86A1" points="41.895,-30.749 41.895,-10.392 39.467,-10.392 35.379,-10.392 35.379,-31.117 39.467,-32.359 		
			"/>
		<polygon fill="#4F86A1" points="34.059,-28.68 34.059,-10.392 31.877,-10.392 28.205,-10.392 28.205,-29.011 31.877,-30.126 		"/>
		<polygon fill="#4F86A1" points="84.411,-23.138 84.411,-10.392 77.623,-10.392 73.591,-10.392 73.591,-22.868 77.623,-24.046 		
			"/>
		<polygon fill="#4F86A1" points="26.191,-22.984 26.191,-10.392 22.506,-10.392 16.301,-10.392 16.301,-23.257 22.506,-24.174 		
			"/>
		<polygon fill="#4F86A1" points="46.191,-25.076 46.191,-10.392 42.802,-10.392 40.271,-10.392 40.271,-24.274 43.431,-29.289 		
			"/>
		<polygon fill="#4F86A1" points="10.652,-23.271 13.771,-20.4 13.771,-10.392 9.941,-10.392 7.083,-10.392 7.083,-19.854 		"/>
	</g>
	<g opacity="0.6" clip-path="url(#SVGID_2_)">
		<path fill="#4F86A1" d="M107.323-23.608L107.323-23.608L107.323-23.608l3.716,2.396v2.71c0.288-1.813,0.775-3.577,1.578-5.611
			l7.519-2.354c1.048,2.242,1.737,4.443,2.181,6.75v-11.303l5.576-1.119l4.641,1.199v6.687l3.477-1.324l5.853,1.021v17.052h-5.853
			h-2.16v0.1h-5.957h-4.909c0,0.005,0,0.01,0,0.014h-2.847h-2.337h-0.242h-6.825c0-0.035-0.001-0.068-0.002-0.104h-3.407h-5.914
			V-20.19C102.336-21.417,104.694-23.199,107.323-23.608z"/>
		<polygon fill="#4F86A1" points="99.684,-27.561 99.684,-7.392 97.028,-7.392 92.557,-7.392 92.557,-27.925 97.028,-29.155 		"/>
		<polygon fill="#4F86A1" points="91.112,-25.511 91.112,-7.392 88.726,-7.392 84.709,-7.392 84.709,-25.838 88.726,-26.943 		"/>
		<polygon fill="#4F86A1" points="147.758,-20.138 147.758,-7.392 140.971,-7.392 136.938,-7.392 136.938,-19.868 140.971,-21.046 
					"/>
		<polygon fill="#4F86A1" points="150.509,-21.94 150.509,-7.392 146.801,-7.392 144.034,-7.392 144.034,-21.146 147.489,-26.113 		
			"/>
		<path fill="#4F86A1" d="M153.347-19.343L153.347-19.343L153.347-19.343l2.718,1.753c0.321-1.303,0.761-2.572,1.364-3.86
			l5.541,1.735c1.59,4.03,1.503,6.626,1.39,12.323h-5.03h-0.178h-1.722h-2.099c0-0.025-0.001-0.05-0.001-0.076h-1.982h-4.358v-9.355
			C149.671-17.728,151.409-19.041,153.347-19.343z"/>
		<path fill="#4F86A1" d="M47.432-23.76l3.396,2.418v2.735c0.263-1.829,0.709-3.61,1.443-5.664l6.874-2.376
			c0.958,2.263,1.588,4.484,1.994,6.813v-11.409l5.097-1.13l4.242,1.211v15.83l-4.242-0.252l5.445,0.323v7.854h-5.445h-4.488
			c0,0.005,0,0.009,0,0.014h-2.603h-2.137h-0.221h-6.239c-0.001-0.035-0.001-0.069-0.002-0.104h-3.114h-5.406v-12.814
			C42.874-21.548,45.029-23.347,47.432-23.76z"/>
		<polygon fill="#4F86A1" points="38.165,-24.603 38.165,-7.392 32.815,-7.392 29.637,-7.392 29.637,-24.297 32.815,-25.635 		"/>
		<polygon fill="#4F86A1" points="40.449,-27.749 40.449,-7.392 38.021,-7.392 33.933,-7.392 33.933,-28.117 38.021,-29.359 		"/>
		<polygon fill="#4F86A1" points="32.612,-25.68 32.612,-7.392 30.431,-7.392 26.759,-7.392 26.759,-26.011 30.431,-27.126 		"/>
		<polygon fill="#4F86A1" points="82.965,-20.138 82.965,-7.392 76.177,-7.392 72.145,-7.392 72.145,-19.868 76.177,-21.046 		"/>
		<polygon fill="#4F86A1" points="24.746,-19.984 24.746,-7.392 21.06,-7.392 14.854,-7.392 14.854,-20.257 21.06,-21.174 		"/>
		<polygon fill="#4F86A1" points="44.746,-22.076 44.746,-7.392 41.355,-7.392 38.826,-7.392 38.826,-21.274 41.984,-26.289 		"/>
		<polygon fill="#4F86A1" points="9.206,-20.271 12.326,-17.4 12.326,-7.392 8.495,-7.392 5.637,-7.392 5.637,-16.854 		"/>
	</g>
	<g clip-path="url(#SVGID_2_)">
		<g>
			<rect x="156.777" y="85.771" fill="#4F7DAB" width="0.377" height="13.688"/>
			<rect x="161.36" y="79.021" fill="#4F7DAB" width="0.396" height="20.438"/>
			<polygon fill="#4F7DAB" points="154.583,98.896 154.583,103.917 159.582,103.917 159.582,95 			"/>
			<polygon fill="#2A4C82" points="159.582,95 165.374,99.458 165.374,103.917 159.582,103.917 			"/>
		</g>
		<g>
			<linearGradient id="SVGID_3_" gradientUnits="userSpaceOnUse" x1="390.9629" y1="167.5264" x2="390.9629" y2="159.6914">
				<stop  offset="0" style="stop-color:#5F40E5"/>
				<stop  offset="1" style="stop-color:#3D0077"/>
			</linearGradient>
			<polygon fill="url(#SVGID_3_)" points="385.258,159.691 385.258,165.357 396.668,167.526 396.668,162.904 			"/>
			<linearGradient id="SVGID_4_" gradientUnits="userSpaceOnUse" x1="379.1514" y1="167.5264" x2="379.1514" y2="159.6914">
				<stop  offset="0" style="stop-color:#C300FF"/>
				<stop  offset="1" style="stop-color:#001C8C"/>
			</linearGradient>
			<polygon fill="url(#SVGID_4_)" points="385.258,159.691 373.045,163.243 373.045,167.526 385.258,165.357 			"/>
			<polygon fill="#67B2C6" points="385.258,159.691 372.605,163.352 372.605,161.155 385.258,157.143 			"/>
			<polygon fill="#446D8E" points="385.258,157.143 385.258,159.691 397.219,163.161 397.219,160.962 			"/>
			<linearGradient id="SVGID_5_" gradientUnits="userSpaceOnUse" x1="392.3301" y1="200" x2="392.3301" y2="164.7041">
				<stop  offset="0" style="stop-color:#5F40E5"/>
				<stop  offset="1" style="stop-color:#3D0077"/>
			</linearGradient>
			<polygon fill="url(#SVGID_5_)" points="385.336,164.704 385.336,200 399.324,200 399.324,168.246 			"/>
			<linearGradient id="SVGID_6_" gradientUnits="userSpaceOnUse" x1="377.8496" y1="200" x2="377.8496" y2="164.7041">
				<stop  offset="0" style="stop-color:#C300FF"/>
				<stop  offset="1" style="stop-color:#001C8C"/>
			</linearGradient>
			<polygon fill="url(#SVGID_6_)" points="385.336,164.704 370.363,168.619 370.363,200 385.336,200 			"/>
			<polygon fill="#67B2C6" points="385.336,164.704 369.826,168.738 369.826,166.318 385.336,161.895 			"/>
			<polygon fill="#446D8E" points="385.336,161.895 385.336,164.704 400,168.529 400,166.104 			"/>
			<linearGradient id="SVGID_7_" gradientUnits="userSpaceOnUse" x1="392.3301" y1="192.5283" x2="392.3301" y2="200">
				<stop  offset="0" style="stop-color:#5F40E5"/>
				<stop  offset="1" style="stop-color:#3D0077"/>
			</linearGradient>
			<polygon fill="url(#SVGID_7_)" points="399.324,193.694 385.336,192.528 385.336,200 399.324,200 			"/>
			<path fill="#862F60" d="M389.795,200h-2.844v-5.001c0-1.322,2.844-0.936,2.844,0.387V200z M393.932,195.707
				c0-1.238-2.844-1.625-2.844-0.387V200h2.844V195.707z M398.068,195.994c0-1.162-2.844-1.549-2.844-0.387V200h2.844V195.994z"/>
			<polygon fill="#E3DC6B" points="370.363,193.993 385.336,192.528 385.336,200 370.363,200 			"/>
			<path fill="#87536C" d="M374.768,173.974l-2.73,0.652v-4.513l2.73-0.699V173.974z M376.156,169.059v4.583l3.055-0.731v-4.635
				L376.156,169.059z M379.211,191.459v-4.648l-3.055,0.487v4.54L379.211,191.459z M376.156,175.138v4.569l3.055-0.613v-4.64
				L376.156,175.138z M374.768,175.449l-2.73,0.611v4.473l2.73-0.548V175.449z M376.156,181.218v4.555l3.055-0.496v-4.644
				L376.156,181.218z M380.6,178.814l2.809-0.563v-4.737l-2.809,0.629V178.814z M374.768,181.484l-2.73,0.523v4.433l2.73-0.442
				V181.484z M380.6,185.051l2.809-0.456v-4.767l-2.809,0.538V185.051z M380.6,167.919v4.659l2.809-0.672v-4.707L380.6,167.919z
				 M380.6,191.287l2.809-0.349v-4.797l-2.809,0.448V191.287z M374.768,187.52l-2.73,0.436v4.394l2.73-0.339V187.52z"/>
			<linearGradient id="SVGID_8_" gradientUnits="userSpaceOnUse" x1="377.9561" y1="168.4863" x2="377.9561" y2="192.4163">
				<stop  offset="0" style="stop-color:#22BEB1"/>
				<stop  offset="0.0367" style="stop-color:#40C8B6"/>
				<stop  offset="0.0922" style="stop-color:#67D6BD"/>
				<stop  offset="0.147" style="stop-color:#86E0C3"/>
				<stop  offset="0.2002" style="stop-color:#9CE8C7"/>
				<stop  offset="0.2512" style="stop-color:#AAECC9"/>
				<stop  offset="0.2976" style="stop-color:#AEEECA"/>
				<stop  offset="0.3899" style="stop-color:#A5EBC8"/>
				<stop  offset="0.5383" style="stop-color:#8EE3C4"/>
				<stop  offset="0.7243" style="stop-color:#67D6BD"/>
				<stop  offset="0.9385" style="stop-color:#33C4B4"/>
				<stop  offset="1" style="stop-color:#22BEB1"/>
			</linearGradient>
			<path fill="url(#SVGID_8_)" d="M372.504,188.351l2.264-0.361v4.012l-2.264,0.28V188.351z M376.621,187.693l2.59-0.412v4.168
				l-2.59,0.321V187.693z M381.066,186.985l2.342-0.374v4.318l-2.342,0.29V186.985z M372.504,182.396l2.264-0.434v4.033
				l-2.264,0.367V182.396z M376.621,181.607l2.59-0.496v4.163l-2.59,0.421V181.607z M381.066,180.756l2.342-0.449v4.286
				l-2.342,0.381V180.756z M372.504,176.444l2.264-0.508v4.055l-2.264,0.454V176.444z M376.621,175.521l2.59-0.58v4.157l-2.59,0.521
				V175.521z M381.066,174.526l2.342-0.524v4.255l-2.342,0.47V174.526z M372.504,170.491l2.264-0.58v4.075l-2.264,0.541V170.491z
				 M376.621,169.436l2.59-0.663v4.151l-2.59,0.618V169.436z M381.066,168.297l2.342-0.601v4.223l-2.342,0.561V168.297z"/>
			<path fill="#4A2748" d="M395.285,169.307l2.73,0.601v4.513l-2.73-0.554V169.307z M390.842,168.329v4.636l3.055,0.619v-4.583
				L390.842,168.329z M393.896,191.78v-4.539l-3.055-0.376v4.647L393.896,191.78z M390.842,174.508v4.64l3.055,0.503v-4.569
				L390.842,174.508z M395.285,179.878l2.73,0.449v-4.473l-2.73-0.513V179.878z M390.842,180.687v4.644l3.055,0.385v-4.554
				L390.842,180.687z M389.453,174.247l-2.809-0.527v4.737l2.809,0.462V174.247z M395.285,185.891l2.73,0.344v-4.433l-2.73-0.425
				V185.891z M389.453,180.471l-2.809-0.437v4.767l2.809,0.354V180.471z M386.645,167.406v4.707l2.809,0.569v-4.659L386.645,167.406
				z M389.453,186.694l-2.809-0.347v4.797l2.809,0.246V186.694z M395.285,191.902l2.73,0.239v-4.394l-2.73-0.336V191.902z"/>
			<linearGradient id="SVGID_9_" gradientUnits="userSpaceOnUse" x1="392.0967" y1="167.9199" x2="392.0967" y2="192.7882">
				<stop  offset="0" style="stop-color:#0485A5"/>
				<stop  offset="0.0128" style="stop-color:#0D8BA7"/>
				<stop  offset="0.0733" style="stop-color:#34A6AE"/>
				<stop  offset="0.1331" style="stop-color:#53BAB4"/>
				<stop  offset="0.1913" style="stop-color:#69C9B8"/>
				<stop  offset="0.247" style="stop-color:#77D2BA"/>
				<stop  offset="0.2976" style="stop-color:#7BD5BB"/>
				<stop  offset="0.4016" style="stop-color:#72CFB9"/>
				<stop  offset="0.5686" style="stop-color:#5BBFB5"/>
				<stop  offset="0.7778" style="stop-color:#34A6AE"/>
				<stop  offset="1" style="stop-color:#0485A5"/>
			</linearGradient>
			<path fill="url(#SVGID_9_)" d="M395.285,191.886v-4.013l2.264,0.278v3.934L395.285,191.886z M390.842,191.496v-4.17l2.59,0.318
				v4.079L390.842,191.496z M386.645,191.128v-4.319l2.342,0.289v4.236L386.645,191.128z M395.285,185.882v-4.035l2.264,0.352v3.969
				L395.285,185.882z M390.842,185.322v-4.166l2.59,0.401v4.091L390.842,185.322z M386.645,184.793v-4.29l2.342,0.364v4.221
				L386.645,184.793z M395.285,179.878v-4.058l2.264,0.425v4.005L395.285,179.878z M390.842,179.146v-4.161l2.59,0.486v4.101
				L390.842,179.146z M386.645,178.456v-4.258l2.342,0.439v4.204L386.645,178.456z M395.285,173.873v-4.079l2.264,0.498v4.04
				L395.285,173.873z M390.842,172.972v-4.155l2.59,0.569v4.11L390.842,172.972z M386.645,172.12v-4.227l2.342,0.515v4.187
				L386.645,172.12z"/>
			<g>
				<path fill="#4A2748" d="M396.971,196.186c0-0.599-0.756-0.989-1.488-1.07c-0.16,0.114-0.258,0.276-0.258,0.492V200h1.746
					V196.186z"/>
				<path fill="#4A2748" d="M388.695,195.577c0-0.661-0.711-1.089-1.422-1.186c-0.195,0.135-0.322,0.332-0.322,0.607V200h1.744
					V195.577z"/>
				<path fill="#4A2748" d="M392.832,195.898c0-0.629-0.732-1.036-1.455-1.125c-0.178,0.124-0.289,0.303-0.289,0.547V200h1.744
					V195.898z"/>
			</g>
			<path fill="#A48598" d="M380.6,195.386c0-1.322,3.057-1.709,3.057-0.387V200H380.6V195.386z M376.156,200h3.055v-4.68
				c0-1.238-3.055-0.852-3.055,0.387V200z M371.711,200h3.057v-4.393c0-1.162-3.057-0.775-3.057,0.387V200z"/>
			<g>
				<path fill="#862F60" d="M373.99,194.939c-0.744,0.107-1.473,0.488-1.473,1.055V200h2.25v-4.393
					C374.768,195.226,374.434,195.014,373.99,194.939z"/>
				<path fill="#862F60" d="M378.414,194.599c-0.736,0.113-1.451,0.51-1.451,1.108V200h2.248v-4.68
					C379.211,194.907,378.869,194.679,378.414,194.599z"/>
				<path fill="#862F60" d="M382.84,194.218c-0.73,0.119-1.434,0.534-1.434,1.168V200h2.25v-5.001
					C383.656,194.552,383.303,194.304,382.84,194.218z"/>
			</g>
			<polygon fill="#7A3E52" points="372.605,163.352 385.258,159.691 397.219,163.161 396.668,163.609 385.336,160.4 
				373.045,163.609 			"/>
			<polygon fill="#7A3E52" points="369.826,168.738 385.336,164.704 400,168.529 399.324,168.858 385.336,165.559 370.363,169 			
				"/>
		</g>
		<g>
			<linearGradient id="SVGID_10_" gradientUnits="userSpaceOnUse" x1="158.7485" y1="116.2119" x2="158.7485" y2="98.7451">
				<stop  offset="0" style="stop-color:#C300FF"/>
				<stop  offset="1" style="stop-color:#001C8C"/>
			</linearGradient>
			<polygon fill="url(#SVGID_10_)" points="170.306,98.745 170.306,116.212 147.191,116.212 147.191,106.533 			"/>
			<linearGradient id="SVGID_11_" gradientUnits="userSpaceOnUse" x1="176.0142" y1="116.2119" x2="176.0142" y2="98.7451">
				<stop  offset="0" style="stop-color:#5F40E5"/>
				<stop  offset="1" style="stop-color:#3D0077"/>
			</linearGradient>
			<polygon fill="url(#SVGID_11_)" points="170.306,98.745 181.722,105.895 181.722,116.212 170.306,116.212 			"/>
			<polygon fill="#446D8E" points="170.306,98.745 182.252,106.034 182.252,104.381 170.306,96.636 			"/>
			<polygon fill="#67B2C6" points="170.306,96.636 170.306,98.745 146.524,106.905 146.524,105.208 			"/>
			<linearGradient id="SVGID_12_" gradientUnits="userSpaceOnUse" x1="156.9937" y1="130.627" x2="156.9937" y2="108.8877">
				<stop  offset="0" style="stop-color:#C300FF"/>
				<stop  offset="1" style="stop-color:#001C8C"/>
			</linearGradient>
			<polygon fill="url(#SVGID_12_)" points="172.148,108.888 172.148,130.627 141.839,130.627 141.839,116.357 			"/>
			<linearGradient id="SVGID_13_" gradientUnits="userSpaceOnUse" x1="179.6318" y1="130.627" x2="179.6318" y2="108.8877">
				<stop  offset="0" style="stop-color:#5F40E5"/>
				<stop  offset="1" style="stop-color:#3D0077"/>
			</linearGradient>
			<polygon fill="url(#SVGID_13_)" points="172.148,108.888 187.116,116.724 187.116,130.627 172.148,130.627 			"/>
			<polygon fill="#446D8E" points="172.148,108.888 187.812,116.907 187.812,114.74 172.148,106.123 			"/>
			<polygon fill="#67B2C6" points="172.148,106.123 172.148,108.888 140.964,116.846 140.964,114.62 			"/>
			<path fill="#87536C" d="M144.169,118.112l2.708-0.629v6.94L144.169,125V118.112z M148.725,124.18l2.708-0.568v-7.239
				l-2.708,0.618V124.18z M153.281,123.359l2.708-0.561v-7.538l-2.708,0.606V123.359z M157.836,122.539l2.708-0.553v-7.836
				l-2.708,0.595V122.539z M162.392,121.719l2.709-0.545v-8.135l-2.709,0.583V121.719z M166.948,120.898l2.708-0.537v-8.434
				l-2.708,0.572V120.898z"/>
			<linearGradient id="SVGID_14_" gradientUnits="userSpaceOnUse" x1="157.2134" y1="113.334" x2="157.2134" y2="123.0424">
				<stop  offset="0" style="stop-color:#22BEB1"/>
				<stop  offset="0.0367" style="stop-color:#40C8B6"/>
				<stop  offset="0.0922" style="stop-color:#67D6BD"/>
				<stop  offset="0.147" style="stop-color:#86E0C3"/>
				<stop  offset="0.2002" style="stop-color:#9CE8C7"/>
				<stop  offset="0.2512" style="stop-color:#AAECC9"/>
				<stop  offset="0.2976" style="stop-color:#AEEECA"/>
				<stop  offset="0.3899" style="stop-color:#A5EBC8"/>
				<stop  offset="0.5383" style="stop-color:#8EE3C4"/>
				<stop  offset="0.7243" style="stop-color:#67D6BD"/>
				<stop  offset="0.9385" style="stop-color:#33C4B4"/>
				<stop  offset="1" style="stop-color:#22BEB1"/>
			</linearGradient>
			<path fill="url(#SVGID_14_)" d="M144.771,118.615l2.107-0.489v6.317l-2.107,0.448V118.615z M149.327,117.493l2.106-0.48v6.617
				l-2.106,0.442V117.493z M153.882,116.372l2.107-0.473v6.918l-2.107,0.436V116.372z M158.438,115.25l2.107-0.463v7.217
				l-2.107,0.43V115.25z M162.994,114.129l2.107-0.454v7.516l-2.107,0.424V114.129z M167.55,113.007l2.106-0.444v7.814l-2.106,0.418
				V113.007z"/>
			<path fill="#4A2748" d="M185.906,123.081l-1.591-0.624v-5.496l1.591,0.777V123.081z M183.256,116.403l-1.591-0.8v6.023
				l1.591,0.613V116.403z M180.607,115.069l-1.591-0.823v6.55l1.591,0.604V115.069z M177.958,113.734l-1.591-0.847v7.078
				l1.591,0.595V113.734z M175.308,112.399l-1.591-0.869v7.604l1.591,0.585V112.399z"/>
			<linearGradient id="SVGID_15_" gradientUnits="userSpaceOnUse" x1="179.5103" y1="114.4805" x2="179.5103" y2="121.6323">
				<stop  offset="0" style="stop-color:#0485A5"/>
				<stop  offset="0.0128" style="stop-color:#0D8BA7"/>
				<stop  offset="0.0733" style="stop-color:#34A6AE"/>
				<stop  offset="0.1331" style="stop-color:#53BAB4"/>
				<stop  offset="0.1913" style="stop-color:#69C9B8"/>
				<stop  offset="0.247" style="stop-color:#77D2BA"/>
				<stop  offset="0.2976" style="stop-color:#7BD5BB"/>
				<stop  offset="0.4016" style="stop-color:#72CFB9"/>
				<stop  offset="0.5686" style="stop-color:#5BBFB5"/>
				<stop  offset="0.7778" style="stop-color:#34A6AE"/>
				<stop  offset="1" style="stop-color:#0485A5"/>
			</linearGradient>
			<path fill="url(#SVGID_15_)" d="M184.314,122.459v-4.81l0.989,0.484v4.713L184.314,122.459z M181.666,121.628v-5.33l0.989,0.498
				v5.213L181.666,121.628z M179.016,120.796v-5.849l0.989,0.512v5.712L179.016,120.796z M176.366,119.964v-6.368l0.989,0.526v6.211
				L176.366,119.964z M173.717,119.132v-6.888l0.989,0.541v6.71L173.717,119.132z"/>
			<linearGradient id="SVGID_16_" gradientUnits="userSpaceOnUse" x1="154.7935" y1="200" x2="154.7935" y2="123.2529">
				<stop  offset="0" style="stop-color:#C300FF"/>
				<stop  offset="1" style="stop-color:#001C8C"/>
			</linearGradient>
			<polygon fill="url(#SVGID_16_)" points="174.457,123.253 174.457,200 135.13,200 135.13,130.094 			"/>
			<linearGradient id="SVGID_17_" gradientUnits="userSpaceOnUse" x1="184.1675" y1="200" x2="184.1675" y2="123.2529">
				<stop  offset="0" style="stop-color:#5F40E5"/>
				<stop  offset="1" style="stop-color:#3D0077"/>
			</linearGradient>
			<polygon fill="url(#SVGID_17_)" points="174.457,123.253 193.878,129.18 193.878,200 174.457,200 			"/>
			<polygon fill="#446D8E" points="174.457,123.253 194.781,129.38 194.781,127.014 174.457,120.234 			"/>
			<polygon fill="#67B2C6" points="174.457,120.234 174.457,123.253 133.995,130.627 133.995,128.196 			"/>
			<path fill="#87536C" d="M160.106,141.9v9.03l-3.236,0.324v-8.938L160.106,141.9z M147.299,141.231l3.236-0.404v-8.855
				l-3.236,0.515V141.231z M152.084,140.633l3.236-0.405v-9.017l-3.236,0.515V140.633z M156.87,130.965v9.069l3.236-0.405v-9.178
				L156.87,130.965z M142.513,141.831l3.236-0.405v-8.693l-3.236,0.514V141.831z M145.75,185.195v-8.405l-3.236,0.122v8.364
				L145.75,185.195z M145.75,174.253v-8.478l-3.236,0.22v8.42L145.75,174.253z M145.75,152.368v-8.622l-3.236,0.417v8.529
				L145.75,152.368z M156.87,153.668v8.808l3.236-0.243v-8.883L156.87,153.668z M145.75,163.311v-8.55l-3.236,0.318v8.475
				L145.75,163.311z M155.32,173.773v-8.649l-3.236,0.221v8.591L155.32,173.773z M152.084,142.932v8.802l3.236-0.323v-8.895
				L152.084,142.932z M147.299,152.213l3.236-0.324v-8.758l-3.236,0.416V152.213z M152.084,154.138v8.697l3.236-0.243v-8.771
				L152.084,154.138z M150.535,162.951v-8.661l-3.236,0.318v8.586L150.535,162.951z M145.75,196.138v-8.334l-3.236,0.024v8.31
				H145.75z M150.535,174.014v-8.564l-3.236,0.221v8.506L150.535,174.014z M160.106,176.248l-3.236,0.122v8.547l3.236-0.081V176.248
				z M155.32,176.429l-3.236,0.122v8.485l3.236-0.08V176.429z M150.535,185.075v-8.466l-3.236,0.122v8.425L150.535,185.075z
				 M156.87,165.019v8.678l3.236-0.162v-8.735L156.87,165.019z M155.32,187.732l-3.236,0.024v8.381h3.236V187.732z M166.44,196.138
				h3.866v-8.517l-3.866,0.029V196.138z M140.964,155.231l-3.116,0.307v8.366l3.116-0.234V155.231z M166.44,184.677l3.866-0.097
				v-8.717l-3.866,0.146V184.677z M140.964,166.101l-3.116,0.212v8.336l3.116-0.156V166.101z M140.964,176.97l-3.116,0.118v8.305
				l3.116-0.077V176.97z M140.964,187.84l-3.116,0.023v8.274h3.116V187.84z M166.44,129.444v9.392l3.866-0.484v-9.521
				L166.44,129.444z M166.44,150.296l3.866-0.387v-9.321l-3.866,0.497V150.296z M166.44,173.217l3.866-0.193v-8.919l-3.866,0.264
				V173.217z M166.44,161.757l3.866-0.291v-9.119l-3.866,0.38V161.757z M161.655,153.197v8.919l3.236-0.243v-8.994L161.655,153.197z
				 M161.655,176.189v8.607l3.236-0.081v-8.648L161.655,176.189z M164.891,187.661l-3.236,0.024v8.452h3.236V187.661z
				 M161.655,164.693v8.763l3.236-0.162v-8.821L161.655,164.693z M160.106,187.697l-3.236,0.024v8.416h3.236V187.697z
				 M161.655,141.701v9.074l3.236-0.324v-9.166L161.655,141.701z M140.964,133.492l-3.116,0.495v8.428l3.116-0.391V133.492z
				 M161.655,130.205v9.229l3.236-0.405v-9.339L161.655,130.205z M140.964,144.362l-3.116,0.4v8.396l3.116-0.312V144.362z
				 M150.535,187.769l-3.236,0.024v8.345h3.236V187.769z"/>
			<linearGradient id="SVGID_18_" gradientUnits="userSpaceOnUse" x1="154.3784" y1="130.6494" x2="154.3784" y2="198.7441">
				<stop  offset="0" style="stop-color:#22BEB1"/>
				<stop  offset="0.0367" style="stop-color:#40C8B6"/>
				<stop  offset="0.0922" style="stop-color:#67D6BD"/>
				<stop  offset="0.147" style="stop-color:#86E0C3"/>
				<stop  offset="0.2002" style="stop-color:#9CE8C7"/>
				<stop  offset="0.2512" style="stop-color:#AAECC9"/>
				<stop  offset="0.2976" style="stop-color:#AEEECA"/>
				<stop  offset="0.3899" style="stop-color:#A5EBC8"/>
				<stop  offset="0.5383" style="stop-color:#8EE3C4"/>
				<stop  offset="0.7243" style="stop-color:#67D6BD"/>
				<stop  offset="0.9385" style="stop-color:#33C4B4"/>
				<stop  offset="1" style="stop-color:#22BEB1"/>
			</linearGradient>
			<path fill="url(#SVGID_18_)" d="M167.042,196.11v-7.889l3.264-0.023v7.912H167.042z M162.257,196.11v-7.853l2.635-0.02v7.872
				H162.257z M157.472,196.11v-7.817l2.634-0.02v7.837H157.472z M152.686,196.11v-7.781l2.635-0.02v7.801H152.686z M147.901,196.11
				v-7.745l2.634-0.02v7.765H147.901z M143.115,196.11v-7.71l2.634-0.02v7.729H143.115z M138.45,196.11v-7.676l2.514-0.019v7.694
				H138.45z M138.45,177.651l2.514-0.095v7.738l-2.514,0.063V177.651z M143.115,177.475l2.634-0.099v7.799l-2.634,0.066V177.475z
				 M147.901,177.294l2.634-0.099v7.86l-2.634,0.065V177.294z M152.686,177.114l2.635-0.1v7.921l-2.635,0.065V177.114z
				 M157.472,176.934l2.634-0.1v7.982l-2.634,0.064V176.934z M162.257,176.753l2.635-0.1v8.043l-2.635,0.065V176.753z
				 M167.042,176.572l3.264-0.123v8.111l-3.264,0.082V176.572z M138.45,166.867l2.514-0.171v7.783l-2.514,0.126V166.867z
				 M143.115,166.55l2.634-0.179v7.869l-2.634,0.132V166.55z M147.901,166.225l2.634-0.18V174l-2.634,0.132V166.225z
				 M152.686,165.898l2.635-0.179v8.041l-2.635,0.133V165.898z M157.472,165.573l2.634-0.179v8.127l-2.634,0.132V165.573z
				 M162.257,165.248l2.635-0.18v8.213l-2.635,0.132V165.248z M167.042,164.922l3.264-0.222v8.31l-3.264,0.164V164.922z
				 M138.45,156.084l2.514-0.247v7.827l-2.514,0.189V156.084z M143.115,155.625l2.634-0.259v7.938l-2.634,0.198V155.625z
				 M147.901,155.155l2.634-0.26v8.05l-2.634,0.197V155.155z M152.686,154.684l2.635-0.258v8.16l-2.635,0.197V154.684z
				 M157.472,154.214l2.634-0.259v8.271l-2.634,0.197V154.214z M162.257,153.743l2.635-0.259v8.383l-2.635,0.197V153.743z
				 M167.042,153.272l3.264-0.32v8.509l-3.264,0.245V153.272z M138.45,145.301l2.514-0.323v7.871l-2.514,0.251V145.301z
				 M143.115,144.701l2.634-0.34v8.008l-2.634,0.264V144.701z M147.901,144.085l2.634-0.339v8.144l-2.634,0.264V144.085z
				 M152.686,143.47l2.635-0.339v8.28l-2.635,0.264V143.47z M157.472,142.854l2.634-0.338v8.416l-2.634,0.264V142.854z
				 M162.257,142.238l2.635-0.338v8.552l-2.635,0.264V142.238z M167.042,141.623l3.264-0.419v8.706l-3.264,0.326V141.623z
				 M138.45,134.518l2.514-0.398v7.913l-2.514,0.315V134.518z M143.115,133.776l2.634-0.418v8.075l-2.634,0.33V133.776z
				 M147.901,133.016l2.634-0.418v8.236l-2.634,0.331V133.016z M152.686,132.256l2.635-0.418v8.397l-2.635,0.33V132.256z
				 M157.472,131.495l2.634-0.418v8.559l-2.634,0.33V131.495z M162.257,130.734l2.635-0.418v8.721l-2.635,0.33V130.734z
				 M167.042,129.975l3.264-0.519v8.903l-3.264,0.408V129.975z"/>
			<path fill="#4A2748" d="M185.511,142.316v8.938l-2.056-0.324v-9.03L185.511,142.316z M191.592,132.486l-2.056-0.515v8.855
				l2.056,0.404V132.486z M188.552,131.726l-2.056-0.515v9.017l2.056,0.405V131.726z M183.455,130.451v9.178l2.056,0.405v-9.069
				L183.455,130.451z M183.455,153.35v8.883l2.056,0.243v-8.808L183.455,153.35z M188.552,173.936v-8.591l-2.056-0.221v8.649
				L188.552,173.936z M186.496,142.516v8.895l2.056,0.323v-8.802L186.496,142.516z M191.592,143.547l-2.056-0.416v8.758l2.056,0.324
				V143.547z M186.496,153.82v8.771l2.056,0.243v-8.697L186.496,153.82z M191.592,163.194v-8.586l-2.056-0.318v8.661
				L191.592,163.194z M191.592,174.176v-8.506l-2.056-0.221v8.564L191.592,174.176z M183.455,184.836l2.056,0.081v-8.547
				l-2.056-0.122V184.836z M186.496,184.956l2.056,0.08v-8.485l-2.056-0.122V184.956z M191.592,185.156v-8.425l-2.056-0.122v8.466
				L191.592,185.156z M183.455,164.799v8.735l2.056,0.162v-8.678L183.455,164.799z M186.496,196.138h2.056v-8.381l-2.056-0.024
				V196.138z M179.43,187.65l-2.456-0.029v8.517h2.456V187.65z M179.43,176.009l-2.456-0.146v8.717l2.456,0.097V176.009z
				 M176.974,128.83v9.521l2.456,0.484v-9.392L176.974,128.83z M179.43,141.085l-2.456-0.497v9.321l2.456,0.387V141.085z
				 M179.43,164.368l-2.456-0.264v8.919l2.456,0.193V164.368z M179.43,152.727l-2.456-0.38v9.119l2.456,0.291V152.727z
				 M180.415,152.879v8.994l2.056,0.243v-8.919L180.415,152.879z M180.415,176.067v8.648l2.056,0.081v-8.607L180.415,176.067z
				 M180.415,196.138h2.056v-8.452l-2.056-0.024V196.138z M180.415,164.473v8.821l2.056,0.162v-8.763L180.415,164.473z
				 M183.455,196.138h2.056v-8.416l-2.056-0.024V196.138z M180.415,141.285v9.166l2.056,0.324v-9.074L180.415,141.285z
				 M180.415,129.69v9.339l2.056,0.405v-9.229L180.415,129.69z M189.536,196.138h2.056v-8.345l-2.056-0.024V196.138z"/>
			<linearGradient id="SVGID_19_" gradientUnits="userSpaceOnUse" x1="183.9819" y1="127.2402" x2="183.9819" y2="196.6741">
				<stop  offset="0" style="stop-color:#0485A5"/>
				<stop  offset="0.0128" style="stop-color:#0D8BA7"/>
				<stop  offset="0.0733" style="stop-color:#34A6AE"/>
				<stop  offset="0.1331" style="stop-color:#53BAB4"/>
				<stop  offset="0.1913" style="stop-color:#69C9B8"/>
				<stop  offset="0.247" style="stop-color:#77D2BA"/>
				<stop  offset="0.2976" style="stop-color:#7BD5BB"/>
				<stop  offset="0.4016" style="stop-color:#72CFB9"/>
				<stop  offset="0.5686" style="stop-color:#5BBFB5"/>
				<stop  offset="0.7778" style="stop-color:#34A6AE"/>
				<stop  offset="1" style="stop-color:#0485A5"/>
			</linearGradient>
			<path fill="url(#SVGID_19_)" d="M189.536,196.112v-7.764l1.454,0.018v7.746H189.536z M186.496,196.112v-7.799l1.454,0.017v7.782
				H186.496z M183.455,196.112v-7.835l1.454,0.017v7.818H183.455z M180.415,196.112v-7.87l1.455,0.017v7.854H180.415z
				 M176.974,196.112v-7.911l1.854,0.022v7.889H176.974z M189.536,185.062v-7.857l1.454,0.087v7.828L189.536,185.062z
				 M186.496,184.942v-7.919l1.454,0.086v7.89L186.496,184.942z M183.455,184.822v-7.979l1.454,0.087v7.95L183.455,184.822z
				 M180.415,184.703v-8.041l1.455,0.087v8.011L180.415,184.703z M176.974,184.567v-8.109l1.854,0.11v8.071L176.974,184.567z
				 M189.536,174.012v-7.951l1.454,0.155v7.909L189.536,174.012z M186.496,173.771v-8.036l1.454,0.155v7.995L186.496,173.771z
				 M183.455,173.531v-8.121l1.454,0.154v8.082L183.455,173.531z M180.415,173.292v-8.208l1.455,0.156v8.166L180.415,173.292z
				 M176.974,173.021v-8.305l1.854,0.198v8.253L176.974,173.021z M189.536,162.96v-8.043l1.454,0.226v7.988L189.536,162.96z
				 M186.496,162.6v-8.153l1.454,0.226v8.101L186.496,162.6z M183.455,162.24v-8.264l1.454,0.225v8.211L183.455,162.24z
				 M180.415,161.881v-8.375l1.455,0.226v8.321L180.415,161.881z M176.974,161.475v-8.501l1.854,0.287v8.433L176.974,161.475z
				 M189.536,151.907v-8.133l1.454,0.295v8.067L189.536,151.907z M186.496,151.428v-8.269l1.454,0.295v8.203L186.496,151.428z
				 M183.455,150.949v-8.405l1.454,0.294v8.341L183.455,150.949z M180.415,150.47v-8.541l1.455,0.294v8.477L180.415,150.47z
				 M176.974,149.928v-8.695l1.854,0.375v8.612L176.974,149.928z M189.536,140.854v-8.222l1.454,0.364v8.145L189.536,140.854z
				 M186.496,140.256v-8.383l1.454,0.363v8.306L186.496,140.256z M183.455,139.657v-8.545l1.454,0.364v8.467L183.455,139.657z
				 M180.415,139.058v-8.706l1.455,0.364v8.628L180.415,139.058z M176.974,138.38v-8.889l1.854,0.464v8.79L176.974,138.38z"/>
			<polygon fill="#7A3E52" points="146.524,106.905 170.306,98.745 182.252,106.034 181.722,106.449 170.306,99.677 
				147.191,107.201 			"/>
			<polygon fill="#7A3E52" points="140.964,116.846 172.148,108.888 187.812,116.907 187.116,117.134 172.148,109.734 
				141.839,117.134 			"/>
			<polygon fill="#7A3E52" points="133.995,130.627 174.457,123.253 194.781,129.38 193.878,129.824 174.416,124.324 
				135.13,130.928 			"/>
		</g>
		<g>
			<g>
				<rect x="311.717" y="87.005" fill="#4F7DAB" width="0.377" height="13.688"/>
				<rect x="316.301" y="80.255" fill="#4F7DAB" width="0.396" height="20.438"/>
				<polygon fill="#4F7DAB" points="309.523,100.13 309.523,106.553 314.521,105.151 314.521,97.706 				"/>
				<polygon fill="#2A4C82" points="314.521,97.706 320.314,102.706 320.314,107.021 314.521,105.151 				"/>
			</g>
			<linearGradient id="SVGID_20_" gradientUnits="userSpaceOnUse" x1="317.6133" y1="115.8037" x2="317.6133" y2="98.2515">
				<stop  offset="0" style="stop-color:#C300FF"/>
				<stop  offset="0.6798" style="stop-color:#061B8F"/>
				<stop  offset="1" style="stop-color:#001C8C"/>
			</linearGradient>
			<polygon fill="url(#SVGID_20_)" points="329.227,98.251 329.227,115.804 306,115.804 306,106.077 			"/>
			<linearGradient id="SVGID_21_" gradientUnits="userSpaceOnUse" x1="334.9629" y1="115.8037" x2="334.9629" y2="98.2515">
				<stop  offset="0" style="stop-color:#5F40E5"/>
				<stop  offset="0.532" style="stop-color:#3D0077"/>
			</linearGradient>
			<polygon fill="url(#SVGID_21_)" points="329.227,98.251 340.699,105.436 340.699,115.804 329.227,115.804 			"/>
			<polygon fill="#446D8E" points="329.227,98.251 341.232,105.576 341.232,103.915 329.227,96.132 			"/>
			<polygon fill="#67B2C6" points="329.227,96.132 329.227,98.251 305.328,106.451 305.328,104.745 			"/>
			<linearGradient id="SVGID_22_" gradientUnits="userSpaceOnUse" x1="315.8496" y1="130.2891" x2="315.8496" y2="108.4434">
				<stop  offset="0" style="stop-color:#C300FF"/>
				<stop  offset="1" style="stop-color:#001C8C"/>
			</linearGradient>
			<polygon fill="url(#SVGID_22_)" points="331.078,108.443 331.078,130.289 300.621,130.289 300.621,115.949 			"/>
			<linearGradient id="SVGID_23_" gradientUnits="userSpaceOnUse" x1="338.5986" y1="130.2891" x2="338.5986" y2="108.4434">
				<stop  offset="0" style="stop-color:#5F40E5"/>
				<stop  offset="0.4828" style="stop-color:#3D0077"/>
			</linearGradient>
			<polygon fill="url(#SVGID_23_)" points="331.078,108.443 346.119,116.317 346.119,130.289 331.078,130.289 			"/>
			<polygon fill="#446D8E" points="331.078,108.443 346.818,116.502 346.818,114.324 331.078,105.665 			"/>
			<polygon fill="#67B2C6" points="331.078,105.665 331.078,108.443 299.742,116.44 299.742,114.203 			"/>
			<path fill="#87536C" d="M302.963,117.713l2.721-0.632v6.975l-2.721,0.578V117.713z M307.541,123.81l2.721-0.57v-7.275
				l-2.721,0.621V123.81z M312.119,122.985l2.721-0.563v-7.575l-2.721,0.609V122.985z M316.697,122.161l2.721-0.556v-7.874
				l-2.721,0.598V122.161z M321.275,121.337l2.721-0.548v-8.174l-2.721,0.586V121.337z M325.854,120.512l2.721-0.539v-8.475
				l-2.721,0.575V120.512z"/>
			<linearGradient id="SVGID_24_" gradientUnits="userSpaceOnUse" x1="316.0703" y1="112.9111" x2="316.0703" y2="122.6672">
				<stop  offset="0" style="stop-color:#22BEB1"/>
				<stop  offset="0.0367" style="stop-color:#40C8B6"/>
				<stop  offset="0.0922" style="stop-color:#67D6BD"/>
				<stop  offset="0.147" style="stop-color:#86E0C3"/>
				<stop  offset="0.2002" style="stop-color:#9CE8C7"/>
				<stop  offset="0.2512" style="stop-color:#AAECC9"/>
				<stop  offset="0.2976" style="stop-color:#AEEECA"/>
				<stop  offset="0.3899" style="stop-color:#A5EBC8"/>
				<stop  offset="0.5383" style="stop-color:#8EE3C4"/>
				<stop  offset="0.7243" style="stop-color:#67D6BD"/>
				<stop  offset="0.9385" style="stop-color:#33C4B4"/>
				<stop  offset="1" style="stop-color:#22BEB1"/>
			</linearGradient>
			<path fill="url(#SVGID_24_)" d="M303.566,118.218l2.117-0.491v6.349l-2.117,0.45V118.218z M308.145,117.091l2.117-0.482v6.649
				l-2.117,0.444V117.091z M312.723,115.964l2.117-0.475v6.951l-2.117,0.438V115.964z M317.301,114.837l2.117-0.465v7.251
				l-2.117,0.432V114.837z M321.879,113.71l2.117-0.456v7.553l-2.117,0.426V113.71z M326.457,112.583l2.117-0.447v7.854
				l-2.117,0.419V112.583z"/>
			<path fill="#4A2748" d="M344.902,122.705l-1.598-0.626v-5.523l1.598,0.781V122.705z M342.24,115.996l-1.6-0.805v6.053l1.6,0.617
				V115.996z M339.578,114.654l-1.6-0.827v6.583l1.6,0.606V114.654z M336.916,113.313l-1.6-0.851v7.112l1.6,0.598V113.313z
				 M334.254,111.973l-1.6-0.874v7.642l1.6,0.588V111.973z"/>
			<linearGradient id="SVGID_25_" gradientUnits="userSpaceOnUse" x1="338.4766" y1="114.0645" x2="338.4766" y2="121.2512">
				<stop  offset="0" style="stop-color:#0485A5"/>
				<stop  offset="0.0128" style="stop-color:#0D8BA7"/>
				<stop  offset="0.0733" style="stop-color:#34A6AE"/>
				<stop  offset="0.1331" style="stop-color:#53BAB4"/>
				<stop  offset="0.1913" style="stop-color:#69C9B8"/>
				<stop  offset="0.247" style="stop-color:#77D2BA"/>
				<stop  offset="0.2976" style="stop-color:#7BD5BB"/>
				<stop  offset="0.4016" style="stop-color:#72CFB9"/>
				<stop  offset="0.5686" style="stop-color:#5BBFB5"/>
				<stop  offset="0.7778" style="stop-color:#34A6AE"/>
				<stop  offset="1" style="stop-color:#0485A5"/>
			</linearGradient>
			<path fill="url(#SVGID_25_)" d="M343.305,122.081v-4.833l0.994,0.486v4.736L343.305,122.081z M340.643,121.245v-5.355
				l0.994,0.501v5.238L340.643,121.245z M337.979,120.409v-5.877l0.994,0.515v5.739L337.979,120.409z M335.316,119.573v-6.398
				l0.994,0.528v6.241L335.316,119.573z M332.654,118.737v-6.921l0.994,0.543v6.743L332.654,118.737z"/>
			<linearGradient id="SVGID_26_" gradientUnits="userSpaceOnUse" x1="313.6387" y1="200" x2="313.6387" y2="122.8789">
				<stop  offset="0" style="stop-color:#C300FF"/>
				<stop  offset="0.7685" style="stop-color:#001C8C"/>
			</linearGradient>
			<polygon fill="url(#SVGID_26_)" points="333.398,122.879 333.398,200 293.879,200 293.879,129.753 			"/>
			<linearGradient id="SVGID_27_" gradientUnits="userSpaceOnUse" x1="343.1563" y1="200" x2="343.1563" y2="122.8789">
				<stop  offset="0" style="stop-color:#5F40E5"/>
				<stop  offset="0.5074" style="stop-color:#3F047E"/>
				<stop  offset="0.6847" style="stop-color:#3D0077"/>
			</linearGradient>
			<polygon fill="url(#SVGID_27_)" points="333.398,122.879 352.914,128.834 352.914,200 333.398,200 			"/>
			<polygon fill="#446D8E" points="333.398,122.879 353.822,129.035 353.822,126.657 333.398,119.846 			"/>
			<polygon fill="#67B2C6" points="333.398,119.846 333.398,122.879 292.738,130.289 292.738,127.847 			"/>
			<path fill="#87536C" d="M318.977,141.617v9.074l-3.252,0.325v-8.981L318.977,141.617z M306.107,140.945l3.252-0.407v-8.898
				l-3.252,0.517V140.945z M310.916,140.343l3.252-0.406v-9.061l-3.252,0.517V140.343z M315.725,130.628v9.113l3.252-0.407v-9.223
				L315.725,130.628z M301.299,141.547l3.252-0.407v-8.735l-3.252,0.517V141.547z M304.551,185.123v-8.446l-3.252,0.122v8.405
				L304.551,185.123z M304.551,174.127v-8.519l-3.252,0.222v8.46L304.551,174.127z M304.551,152.136v-8.663l-3.252,0.418v8.571
				L304.551,152.136z M315.725,153.441v8.851l3.252-0.244v-8.926L315.725,153.441z M304.551,163.132v-8.592l-3.252,0.32v8.516
				L304.551,163.132z M314.168,173.646v-8.691l-3.252,0.222v8.633L314.168,173.646z M310.916,142.653v8.845l3.252-0.325v-8.938
				L310.916,142.653z M306.107,151.979l3.252-0.325v-8.801l-3.252,0.419V151.979z M310.916,153.914v8.739l3.252-0.244v-8.814
				L310.916,153.914z M309.359,162.771v-8.703l-3.252,0.319v8.628L309.359,162.771z M304.551,196.119v-8.375l-3.252,0.024v8.351
				H304.551z M309.359,173.887v-8.605l-3.252,0.221v8.547L309.359,173.887z M318.977,176.132l-3.252,0.123v8.588l3.252-0.081
				V176.132z M314.168,176.313l-3.252,0.123v8.527l3.252-0.082V176.313z M309.359,185.003v-8.508l-3.252,0.123v8.466
				L309.359,185.003z M315.725,164.849v8.719l3.252-0.162v-8.778L315.725,164.849z M314.168,187.673l-3.252,0.024v8.422h3.252
				V187.673z M325.342,196.119h3.885v-8.559l-3.885,0.029V196.119z M299.742,155.013l-3.131,0.309v8.406l3.131-0.234V155.013z
				 M325.342,184.603l3.885-0.098v-8.76l-3.885,0.146V184.603z M299.742,165.936l-3.131,0.213v8.376l3.131-0.156V165.936z
				 M299.742,176.857l-3.131,0.118v8.347l3.131-0.079V176.857z M299.742,187.78l-3.131,0.023v8.315h3.131V187.78z M325.342,129.101
				v9.437l3.885-0.486v-9.568L325.342,129.101z M325.342,150.054l3.885-0.389v-9.366l-3.885,0.499V150.054z M325.342,173.086
				l3.885-0.194v-8.962l-3.885,0.265V173.086z M325.342,161.57l3.885-0.292v-9.164l-3.885,0.382V161.57z M320.533,152.969v8.962
				l3.252-0.244v-9.037L320.533,152.969z M320.533,176.073v8.649l3.252-0.081v-8.691L320.533,176.073z M323.785,187.602
				l-3.252,0.024v8.493h3.252V187.602z M320.533,164.521v8.806l3.252-0.163V164.3L320.533,164.521z M318.977,187.637l-3.252,0.024
				v8.458h3.252V187.637z M320.533,141.416v9.119l3.252-0.325v-9.212L320.533,141.416z M299.742,133.168l-3.131,0.498v8.468
				l3.131-0.392V133.168z M320.533,129.864v9.275l3.252-0.407v-9.385L320.533,129.864z M299.742,144.091l-3.131,0.402v8.438
				l3.131-0.313V144.091z M309.359,187.709l-3.252,0.023v8.387h3.252V187.709z"/>
			<linearGradient id="SVGID_28_" gradientUnits="userSpaceOnUse" x1="313.2217" y1="130.3115" x2="313.2217" y2="198.7375">
				<stop  offset="0" style="stop-color:#22BEB1"/>
				<stop  offset="0.0367" style="stop-color:#40C8B6"/>
				<stop  offset="0.0922" style="stop-color:#67D6BD"/>
				<stop  offset="0.147" style="stop-color:#86E0C3"/>
				<stop  offset="0.2002" style="stop-color:#9CE8C7"/>
				<stop  offset="0.2512" style="stop-color:#AAECC9"/>
				<stop  offset="0.2976" style="stop-color:#AEEECA"/>
				<stop  offset="0.3899" style="stop-color:#A5EBC8"/>
				<stop  offset="0.5383" style="stop-color:#8EE3C4"/>
				<stop  offset="0.7243" style="stop-color:#67D6BD"/>
				<stop  offset="0.9385" style="stop-color:#33C4B4"/>
				<stop  offset="1" style="stop-color:#22BEB1"/>
			</linearGradient>
			<path fill="url(#SVGID_28_)" d="M325.947,196.091v-7.927l3.279-0.023v7.95H325.947z M321.139,196.091V188.2l2.646-0.02v7.91
				H321.139z M316.33,196.091v-7.854l2.646-0.02v7.874H316.33z M311.521,196.091v-7.818l2.646-0.02v7.838H311.521z M306.713,196.091
				v-7.783l2.646-0.019v7.802H306.713z M301.904,196.091v-7.747l2.646-0.02v7.767H301.904z M297.217,196.091v-7.713l2.525-0.018
				v7.73H297.217z M297.217,177.542l2.525-0.095v7.776l-2.525,0.063V177.542z M301.904,177.365l2.646-0.1v7.837l-2.646,0.066
				V177.365z M306.713,177.184l2.646-0.1v7.898l-2.646,0.066V177.184z M311.521,177.002l2.646-0.1v7.96l-2.646,0.065V177.002z
				 M316.33,176.82l2.646-0.1v8.021l-2.646,0.065V176.82z M321.139,176.64l2.646-0.1v8.081l-2.646,0.066V176.64z M325.947,176.458
				l3.279-0.124v8.151l-3.279,0.082V176.458z M297.217,166.706l2.525-0.172v7.821l-2.525,0.126V166.706z M301.904,166.387
				l2.646-0.18v7.907l-2.646,0.133V166.387z M306.713,166.06l2.646-0.181v7.994l-2.646,0.133V166.06z M311.521,165.732l2.646-0.18
				v8.08l-2.646,0.133V165.732z M316.33,165.405l2.646-0.18v8.166l-2.646,0.133V165.405z M321.139,165.078l2.646-0.18v8.253
				l-2.646,0.132V165.078z M325.947,164.751l3.279-0.223v8.351l-3.279,0.164V164.751z M297.217,155.869l2.525-0.248v7.866
				l-2.525,0.189V155.869z M301.904,155.408l2.646-0.26v7.977l-2.646,0.199V155.408z M306.713,154.937l2.646-0.261v8.089
				l-2.646,0.198V154.937z M311.521,154.463l2.646-0.26v8.2l-2.646,0.199V154.463z M316.33,153.99l2.646-0.26v8.312l-2.646,0.198
				V153.99z M321.139,153.518l2.646-0.26v8.423l-2.646,0.199V153.518z M325.947,153.045l3.279-0.322v8.55l-3.279,0.246V153.045z
				 M297.217,145.034l2.525-0.325v7.91l-2.525,0.252V145.034z M301.904,144.432l2.646-0.341v8.046l-2.646,0.266V144.432z
				 M306.713,143.813l2.646-0.341v8.184l-2.646,0.265V143.813z M311.521,143.194l2.646-0.341v8.32l-2.646,0.265V143.194z
				 M316.33,142.575l2.646-0.34v8.457l-2.646,0.265V142.575z M321.139,141.957l2.646-0.341v8.595l-2.646,0.265V141.957z
				 M325.947,141.339l3.279-0.422v8.749l-3.279,0.328V141.339z M297.217,134.198l2.525-0.4v7.951l-2.525,0.317V134.198z
				 M301.904,133.454l2.646-0.421v8.114l-2.646,0.332V133.454z M306.713,132.689l2.646-0.421v8.277l-2.646,0.332V132.689z
				 M311.521,131.926l2.646-0.421v8.438l-2.646,0.332V131.926z M316.33,131.161l2.646-0.421v8.602l-2.646,0.331V131.161z
				 M321.139,130.396l2.646-0.42v8.764l-2.646,0.331V130.396z M325.947,129.633l3.279-0.521v8.946l-3.279,0.411V129.633z"/>
			<path fill="#4A2748" d="M344.506,142.035v8.981l-2.066-0.325v-9.074L344.506,142.035z M350.617,132.156l-2.066-0.517v8.898
				l2.066,0.407V132.156z M347.563,131.393l-2.066-0.517v9.061l2.066,0.406V131.393z M342.439,130.111v9.223l2.066,0.407v-9.113
				L342.439,130.111z M342.439,153.122v8.926l2.066,0.244v-8.851L342.439,153.122z M347.563,173.809v-8.633l-2.066-0.222v8.691
				L347.563,173.809z M345.496,142.235v8.938l2.066,0.325v-8.845L345.496,142.235z M350.617,143.272l-2.066-0.419v8.801l2.066,0.325
				V143.272z M345.496,153.595v8.814l2.066,0.244v-8.739L345.496,153.595z M350.617,163.015v-8.628l-2.066-0.319v8.703
				L350.617,163.015z M350.617,174.049v-8.547l-2.066-0.221v8.605L350.617,174.049z M342.439,184.762l2.066,0.081v-8.588
				l-2.066-0.123V184.762z M345.496,184.882l2.066,0.082v-8.527l-2.066-0.123V184.882z M350.617,185.084v-8.466l-2.066-0.123v8.508
				L350.617,185.084z M342.439,164.627v8.778l2.066,0.162v-8.719L342.439,164.627z M345.496,196.119h2.066v-8.422l-2.066-0.024
				V196.119z M338.396,187.59l-2.469-0.029v8.559h2.469V187.59z M338.396,175.892l-2.469-0.146v8.76l2.469,0.098V175.892z
				 M335.928,128.482v9.568l2.469,0.486v-9.437L335.928,128.482z M338.396,140.798l-2.469-0.499v9.366l2.469,0.389V140.798z
				 M338.396,164.194l-2.469-0.265v8.962l2.469,0.194V164.194z M338.396,152.496l-2.469-0.382v9.164l2.469,0.292V152.496z
				 M339.385,152.649v9.037l2.066,0.244v-8.962L339.385,152.649z M339.385,175.95v8.691l2.066,0.081v-8.649L339.385,175.95z
				 M339.385,196.119h2.066v-8.493l-2.066-0.024V196.119z M339.385,164.3v8.864l2.066,0.163v-8.806L339.385,164.3z M342.439,196.119
				h2.066v-8.458l-2.066-0.024V196.119z M339.385,140.998v9.212l2.066,0.325v-9.119L339.385,140.998z M339.385,129.348v9.385
				l2.066,0.407v-9.275L339.385,129.348z M348.551,196.119h2.066v-8.387l-2.066-0.023V196.119z"/>
			<linearGradient id="SVGID_29_" gradientUnits="userSpaceOnUse" x1="342.9697" y1="126.8857" x2="342.9697" y2="196.6585">
				<stop  offset="0" style="stop-color:#0485A5"/>
				<stop  offset="0.0128" style="stop-color:#0D8BA7"/>
				<stop  offset="0.0733" style="stop-color:#34A6AE"/>
				<stop  offset="0.1331" style="stop-color:#53BAB4"/>
				<stop  offset="0.1913" style="stop-color:#69C9B8"/>
				<stop  offset="0.247" style="stop-color:#77D2BA"/>
				<stop  offset="0.2976" style="stop-color:#7BD5BB"/>
				<stop  offset="0.4016" style="stop-color:#72CFB9"/>
				<stop  offset="0.5686" style="stop-color:#5BBFB5"/>
				<stop  offset="0.7778" style="stop-color:#34A6AE"/>
				<stop  offset="1" style="stop-color:#0485A5"/>
			</linearGradient>
			<path fill="url(#SVGID_29_)" d="M348.551,196.094v-7.802l1.461,0.018v7.784H348.551z M345.496,196.094v-7.838l1.461,0.018v7.82
				H345.496z M342.439,196.094v-7.874l1.463,0.018v7.856H342.439z M339.385,196.094v-7.909l1.461,0.018v7.892H339.385z
				 M335.928,196.094v-7.95l1.863,0.022v7.928H335.928z M348.551,184.989v-7.896l1.461,0.086v7.867L348.551,184.989z
				 M345.496,184.868v-7.957l1.461,0.087v7.928L345.496,184.868z M342.439,184.749v-8.019l1.463,0.086v7.989L342.439,184.749z
				 M339.385,184.628v-8.079l1.461,0.087v8.05L339.385,184.628z M335.928,184.492v-8.149l1.863,0.111v8.111L335.928,184.492z
				 M348.551,173.885v-7.989l1.461,0.156v7.947L348.551,173.885z M345.496,173.644v-8.075l1.461,0.156v8.034L345.496,173.644z
				 M342.439,173.402v-8.161l1.463,0.155v8.121L342.439,173.402z M339.385,173.162v-8.248l1.461,0.156v8.206L339.385,173.162z
				 M335.928,172.89v-8.347l1.863,0.2v8.293L335.928,172.89z M348.551,162.779v-8.082l1.461,0.227v8.027L348.551,162.779z
				 M345.496,162.417v-8.192l1.461,0.227v8.14L345.496,162.417z M342.439,162.057v-8.305l1.463,0.227v8.25L342.439,162.057z
				 M339.385,161.695v-8.417l1.461,0.228v8.362L339.385,161.695z M335.928,161.287v-8.543l1.863,0.288v8.475L335.928,161.287z
				 M348.551,151.673V143.5l1.461,0.297v8.106L348.551,151.673z M345.496,151.191v-8.31l1.461,0.297v8.243L345.496,151.191z
				 M342.439,150.71v-8.446l1.463,0.296v8.381L342.439,150.71z M339.385,150.228v-8.582l1.461,0.296v8.518L339.385,150.228z
				 M335.928,149.684v-8.738l1.863,0.377v8.654L335.928,149.684z M348.551,140.566v-8.262l1.461,0.365v8.185L348.551,140.566z
				 M345.496,139.965v-8.424l1.461,0.365v8.346L345.496,139.965z M342.439,139.362v-8.586l1.463,0.365v8.509L342.439,139.362z
				 M339.385,138.761v-8.749l1.461,0.366v8.671L339.385,138.761z M335.928,138.08v-8.933l1.863,0.467v8.832L335.928,138.08z"/>
			<polygon fill="#7A3E52" points="305.328,106.451 329.227,98.251 341.232,105.576 340.699,105.993 329.227,99.188 306,106.749 			
				"/>
			<polygon fill="#7A3E52" points="299.742,116.44 331.078,108.443 346.818,116.502 346.119,116.729 331.078,109.295 
				300.621,116.729 			"/>
			<polygon fill="#7A3E52" points="292.738,130.289 333.398,122.879 353.822,129.035 352.914,129.482 333.357,123.955 
				293.879,130.591 			"/>
		</g>
		<g>
			<g>
				<rect x="265.467" y="123.745" fill="#4F7DAB" width="0.378" height="13.688"/>
				<rect x="270.051" y="116.995" fill="#4F7DAB" width="0.396" height="20.438"/>
				<polygon fill="#4F7DAB" points="263.272,136.87 263.272,143.293 268.271,141.891 268.271,134.445 				"/>
				<polygon fill="#2A4C82" points="268.271,134.445 274.064,139.445 274.064,143.761 268.271,141.891 				"/>
			</g>
			<linearGradient id="SVGID_30_" gradientUnits="userSpaceOnUse" x1="286.3779" y1="151.3086" x2="286.3779" y2="139.5605">
				<stop  offset="0" style="stop-color:#5F40E5"/>
				<stop  offset="1" style="stop-color:#3D0077"/>
			</linearGradient>
			<polygon fill="url(#SVGID_30_)" points="277.824,139.561 277.824,148.057 294.932,151.309 294.932,144.378 			"/>
			<linearGradient id="SVGID_31_" gradientUnits="userSpaceOnUse" x1="268.668" y1="151.3086" x2="268.668" y2="139.5605">
				<stop  offset="0" style="stop-color:#C300FF"/>
				<stop  offset="1" style="stop-color:#001C8C"/>
			</linearGradient>
			<polygon fill="url(#SVGID_31_)" points="277.824,139.561 259.512,144.886 259.512,151.309 277.824,148.057 			"/>
			<polygon fill="#67B2C6" points="277.824,139.561 258.854,145.049 258.854,141.756 277.824,135.739 			"/>
			<polygon fill="#446D8E" points="277.824,135.739 277.824,139.561 295.758,144.764 295.758,141.466 			"/>
			<linearGradient id="SVGID_32_" gradientUnits="userSpaceOnUse" x1="288.4277" y1="200" x2="288.4277" y2="147.0771">
				<stop  offset="0" style="stop-color:#5F40E5"/>
				<stop  offset="1" style="stop-color:#3D0077"/>
			</linearGradient>
			<polygon fill="url(#SVGID_32_)" points="277.941,147.077 277.941,200 298.914,200 298.914,152.387 			"/>
			<linearGradient id="SVGID_33_" gradientUnits="userSpaceOnUse" x1="266.7168" y1="200" x2="266.7168" y2="147.0771">
				<stop  offset="0.2069" style="stop-color:#C300FF"/>
				<stop  offset="1" style="stop-color:#001C8C"/>
			</linearGradient>
			<polygon fill="url(#SVGID_33_)" points="277.941,147.077 255.491,152.947 255.491,200 277.941,200 			"/>
			<polygon fill="#67B2C6" points="277.941,147.077 254.685,153.127 254.685,149.497 277.941,142.864 			"/>
			<polygon fill="#446D8E" points="277.941,142.864 277.941,147.077 299.928,152.813 299.928,149.177 			"/>
			<linearGradient id="SVGID_34_" gradientUnits="userSpaceOnUse" x1="288.4277" y1="188.7969" x2="288.4277" y2="200">
				<stop  offset="0" style="stop-color:#5F40E5"/>
				<stop  offset="1" style="stop-color:#3D0077"/>
			</linearGradient>
			<polygon fill="url(#SVGID_34_)" points="298.914,190.545 277.941,188.797 277.941,200 298.914,200 			"/>
			<path fill="#862F60" d="M284.627,200h-4.266v-7.498c0-1.983,4.266-1.404,4.266,0.58V200z M290.828,193.563
				c0-1.856-4.264-2.436-4.264-0.579V200h4.264V193.563z M297.031,193.993c0-1.742-4.264-2.321-4.264-0.579V200h4.264V193.993z"/>
			<linearGradient id="SVGID_35_" gradientUnits="userSpaceOnUse" x1="266.7168" y1="188.7969" x2="266.7168" y2="200">
				<stop  offset="0.1182" style="stop-color:#C300FF"/>
				<stop  offset="1" style="stop-color:#001C8C"/>
			</linearGradient>
			<polygon fill="url(#SVGID_35_)" points="255.491,190.993 277.941,188.797 277.941,200 255.491,200 			"/>
			<path fill="#87536C" d="M262.094,160.976L258,161.954v-6.767l4.094-1.049V160.976z M264.176,153.605v6.872l4.582-1.096v-6.95
				L264.176,153.605z M268.758,187.193v-6.969l-4.582,0.73v6.806L268.758,187.193z M264.176,162.722v6.851l4.582-0.92v-6.957
				L264.176,162.722z M262.094,163.188L258,164.105v6.706l4.094-0.821V163.188z M264.176,171.838v6.829l4.582-0.744v-6.963
				L264.176,171.838z M270.84,168.234l4.211-0.846v-7.103l-4.211,0.943V168.234z M262.094,172.237L258,173.022v6.646l4.094-0.664
				V172.237z M270.84,177.585l4.211-0.685v-7.147l-4.211,0.808V177.585z M270.84,151.897v6.986l4.211-1.007v-7.059L270.84,151.897z
				 M270.84,186.936l4.211-0.522v-7.192l-4.211,0.672V186.936z M262.094,181.287L258,181.939v6.587l4.094-0.507V181.287z"/>
			<linearGradient id="SVGID_36_" gradientUnits="userSpaceOnUse" x1="266.875" y1="152.749" x2="266.875" y2="188.6302">
				<stop  offset="0" style="stop-color:#22BEB1"/>
				<stop  offset="0.0367" style="stop-color:#40C8B6"/>
				<stop  offset="0.0922" style="stop-color:#67D6BD"/>
				<stop  offset="0.147" style="stop-color:#86E0C3"/>
				<stop  offset="0.2002" style="stop-color:#9CE8C7"/>
				<stop  offset="0.2512" style="stop-color:#AAECC9"/>
				<stop  offset="0.2976" style="stop-color:#AEEECA"/>
				<stop  offset="0.3899" style="stop-color:#A5EBC8"/>
				<stop  offset="0.5383" style="stop-color:#8EE3C4"/>
				<stop  offset="0.7243" style="stop-color:#67D6BD"/>
				<stop  offset="0.9385" style="stop-color:#33C4B4"/>
				<stop  offset="1" style="stop-color:#22BEB1"/>
			</linearGradient>
			<path fill="url(#SVGID_36_)" d="M258.699,182.532l3.395-0.541v6.015l-3.395,0.421V182.532z M264.875,181.548l3.883-0.619v6.251
				l-3.883,0.48V181.548z M271.539,180.485l3.512-0.56v6.474l-3.512,0.436V180.485z M258.699,173.605l3.395-0.65v6.048l-3.395,0.551
				V173.605z M264.875,172.422l3.883-0.744v6.242l-3.883,0.631V172.422z M271.539,171.145l3.512-0.674v6.428l-3.512,0.57V171.145z
				 M258.699,164.68l3.395-0.76v6.078l-3.395,0.682V164.68z M264.875,163.297l3.883-0.87v6.234l-3.883,0.779V163.297z
				 M271.539,161.805l3.512-0.787v6.38l-3.512,0.705V161.805z M258.699,155.754l3.395-0.869v6.109l-3.395,0.813V155.754z
				 M264.875,154.172l3.883-0.995v6.225l-3.883,0.928V154.172z M271.539,152.464l3.512-0.9v6.332l-3.512,0.84V152.464z"/>
			<path fill="#4A2748" d="M292.859,153.979l4.094,0.899v6.767l-4.094-0.83V153.979z M286.197,152.513v6.95l4.58,0.93v-6.872
				L286.197,152.513z M290.777,187.676v-6.807l-4.58-0.563v6.969L290.777,187.676z M286.197,161.776v6.957l4.58,0.753v-6.85
				L286.197,161.776z M292.859,169.829l4.094,0.673v-6.706l-4.094-0.769V169.829z M286.197,171.041v6.963l4.58,0.577v-6.828
				L286.197,171.041z M284.113,161.386l-4.211-0.79v7.103l4.211,0.692V161.386z M292.859,178.844l4.094,0.517v-6.647l-4.094-0.637
				V178.844z M284.113,170.718l-4.211-0.655v7.147l4.211,0.531V170.718z M279.902,151.128v7.059l4.211,0.854v-6.985L279.902,151.128
				z M284.113,180.049l-4.211-0.519v7.192l4.211,0.369V180.049z M292.859,187.858l4.094,0.358v-6.587l-4.094-0.504V187.858z"/>
			<linearGradient id="SVGID_37_" gradientUnits="userSpaceOnUse" x1="288.0781" y1="151.8984" x2="288.0781" y2="189.1868">
				<stop  offset="0" style="stop-color:#0485A5"/>
				<stop  offset="0.0128" style="stop-color:#0D8BA7"/>
				<stop  offset="0.0733" style="stop-color:#34A6AE"/>
				<stop  offset="0.1331" style="stop-color:#53BAB4"/>
				<stop  offset="0.1913" style="stop-color:#69C9B8"/>
				<stop  offset="0.247" style="stop-color:#77D2BA"/>
				<stop  offset="0.2976" style="stop-color:#7BD5BB"/>
				<stop  offset="0.4016" style="stop-color:#72CFB9"/>
				<stop  offset="0.5686" style="stop-color:#5BBFB5"/>
				<stop  offset="0.7778" style="stop-color:#34A6AE"/>
				<stop  offset="1" style="stop-color:#0485A5"/>
			</linearGradient>
			<path fill="url(#SVGID_37_)" d="M292.859,187.834v-6.017l3.395,0.417v5.897L292.859,187.834z M286.197,187.25v-6.254l3.881,0.479
				v6.115L286.197,187.25z M279.902,186.698v-6.478l3.512,0.434v6.352L279.902,186.698z M292.859,178.831v-6.051l3.395,0.527v5.951
				L292.859,178.831z M286.197,177.991v-6.246l3.881,0.603v6.133L286.197,177.991z M279.902,177.198v-6.432l3.512,0.546v6.328
				L279.902,177.198z M292.859,169.828v-6.084l3.395,0.638v6.005L292.859,169.828z M286.197,168.732v-6.239l3.881,0.729v6.149
				L286.197,168.732z M279.902,167.697v-6.385l3.512,0.659v6.303L279.902,167.697z M292.859,160.824v-6.115l3.395,0.746v6.058
				L292.859,160.824z M286.197,159.473v-6.229l3.881,0.854v6.164L286.197,159.473z M279.902,158.196v-6.338l3.512,0.772v6.278
				L279.902,158.196z"/>
			<g>
				<path fill="#4A2748" d="M295.385,194.281c0-0.898-1.131-1.483-2.229-1.605c-0.24,0.171-0.389,0.414-0.389,0.738V200h2.617
					V194.281z"/>
				<path fill="#4A2748" d="M282.979,193.369c0-0.992-1.066-1.633-2.133-1.777c-0.293,0.201-0.484,0.497-0.484,0.91V200h2.617
					V193.369z"/>
				<path fill="#4A2748" d="M289.182,193.85c0-0.942-1.1-1.554-2.182-1.686c-0.266,0.186-0.436,0.453-0.436,0.819V200h2.617V193.85z
					"/>
			</g>
			<path fill="#A48598" d="M270.84,193.082c0-1.984,4.582-2.563,4.582-0.58V200h-4.582V193.082z M264.176,200h4.582v-7.017
				c0-1.856-4.582-1.277-4.582,0.579V200z M257.513,200h4.581v-6.586c0-1.742-4.581-1.163-4.581,0.579V200z"/>
			<g>
				<path fill="#862F60" d="M260.93,192.411c-1.117,0.162-2.207,0.732-2.207,1.582V200h3.371v-6.586
					C262.094,192.841,261.596,192.523,260.93,192.411z"/>
				<path fill="#862F60" d="M267.563,191.9c-1.106,0.17-2.177,0.765-2.177,1.662V200h3.371v-7.017
					C268.758,192.363,268.243,192.021,267.563,191.9z"/>
				<path fill="#862F60" d="M274.197,191.33c-1.096,0.178-2.146,0.801-2.146,1.752V200h3.371v-7.498
					C275.422,191.831,274.893,191.459,274.197,191.33z"/>
			</g>
			<polygon fill="#7A3E52" points="258.854,145.049 277.824,139.561 295.758,144.764 294.932,145.435 277.941,140.624 
				259.512,145.435 			"/>
			<polygon fill="#7A3E52" points="254.685,153.127 277.941,147.077 299.928,152.813 298.914,153.306 277.941,148.357 
				255.491,153.519 			"/>
		</g>
	</g>
</g>
</svg>
