<?xml version="1.0" encoding="utf-8"?>
<!-- Generator: Adobe Illustrator 16.0.3, SVG Export Plug-In . SVG Version: 6.00 Build 0)  -->
<!DOCTYPE svg PUBLIC "-//W3C//DTD SVG 1.1//EN" "http://www.w3.org/Graphics/SVG/1.1/DTD/svg11.dtd">
<svg version="1.1" id="layer_1" xmlns="http://www.w3.org/2000/svg" xmlns:xlink="http://www.w3.org/1999/xlink" x="0px" y="0px"
	 width="400px" height="200px" viewBox="0 0 400 200" enable-background="new 0 0 400 200" xml:space="preserve">
<g>
	<defs>
		<rect id="SVGID_1_" width="400" height="200"/>
	</defs>
	<clipPath id="SVGID_2_">
		<use xlink:href="#SVGID_1_"  overflow="visible"/>
	</clipPath>
	<g opacity="0.6" clip-path="url(#SVGID_2_)">
		<path fill="#4F86A1" d="M108.769-26.608L108.769-26.608L108.769-26.608l3.716,2.396v2.71c0.288-1.813,0.775-3.577,1.578-5.611
			l7.52-2.354c1.048,2.242,1.737,4.443,2.181,6.75v-11.303l5.575-1.119l4.641,1.199v6.687l3.477-1.324l5.853,1.021v17.052h-5.853
			h-2.16v0.1h-5.957h-4.909c0,0.005,0,0.01,0,0.014h-2.847h-2.337h-0.242h-6.825c-0.001-0.035-0.002-0.068-0.002-0.104h-3.407
			h-5.913V-23.19C103.782-24.417,106.14-26.199,108.769-26.608z"/>
		<polygon fill="#4F86A1" points="101.13,-30.561 101.13,-10.392 98.474,-10.392 94.003,-10.392 94.003,-30.925 98.474,-32.155 		
			"/>
		<polygon fill="#4F86A1" points="92.559,-28.511 92.559,-10.392 90.172,-10.392 86.155,-10.392 86.155,-28.838 90.172,-29.943 		
			"/>
		<polygon fill="#4F86A1" points="149.204,-23.138 149.204,-10.392 142.417,-10.392 138.385,-10.392 138.385,-22.868 
			142.417,-24.046 		"/>
		<polygon fill="#4F86A1" points="151.955,-24.94 151.955,-10.392 148.247,-10.392 145.479,-10.392 145.479,-24.146 
			148.935,-29.113 		"/>
		<path fill="#4F86A1" d="M154.793-22.343L154.793-22.343L154.793-22.343l2.718,1.753c0.321-1.303,0.762-2.572,1.364-3.86
			l5.541,1.735c1.59,4.03,1.503,6.626,1.389,12.323h-5.029h-0.179h-1.722h-2.099c-0.001-0.025-0.001-0.05-0.002-0.076h-1.981h-4.358
			v-9.355C151.117-20.728,152.855-22.041,154.793-22.343z"/>
		<path fill="#4F86A1" d="M48.878-26.76l3.396,2.418v2.735c0.264-1.829,0.709-3.61,1.443-5.664l6.874-2.376
			c0.958,2.263,1.588,4.484,1.993,6.813v-11.409l5.097-1.13l4.243,1.211v15.83l-4.243-0.252l5.446,0.323v7.854h-5.446h-4.487
			c0,0.005,0,0.009,0,0.014h-2.603h-2.137h-0.222h-6.239c-0.001-0.035-0.001-0.069-0.002-0.104h-3.114h-5.406v-12.814
			C44.319-24.548,46.475-26.347,48.878-26.76z"/>
		<polygon fill="#4F86A1" points="39.611,-27.603 39.611,-10.392 34.261,-10.392 31.082,-10.392 31.082,-27.297 34.261,-28.635 		
			"/>
		<polygon fill="#4F86A1" points="41.895,-30.749 41.895,-10.392 39.467,-10.392 35.379,-10.392 35.379,-31.117 39.467,-32.359 		
			"/>
		<polygon fill="#4F86A1" points="34.059,-28.68 34.059,-10.392 31.877,-10.392 28.205,-10.392 28.205,-29.011 31.877,-30.126 		"/>
		<polygon fill="#4F86A1" points="84.411,-23.138 84.411,-10.392 77.623,-10.392 73.591,-10.392 73.591,-22.868 77.623,-24.046 		
			"/>
		<polygon fill="#4F86A1" points="26.191,-22.984 26.191,-10.392 22.506,-10.392 16.301,-10.392 16.301,-23.257 22.506,-24.174 		
			"/>
		<polygon fill="#4F86A1" points="46.191,-25.076 46.191,-10.392 42.802,-10.392 40.271,-10.392 40.271,-24.274 43.431,-29.289 		
			"/>
		<polygon fill="#4F86A1" points="10.652,-23.271 13.771,-20.4 13.771,-10.392 9.941,-10.392 7.083,-10.392 7.083,-19.854 		"/>
	</g>
	<g opacity="0.6" clip-path="url(#SVGID_2_)">
		<path fill="#4F86A1" d="M107.323-23.608L107.323-23.608L107.323-23.608l3.716,2.396v2.71c0.288-1.813,0.775-3.577,1.578-5.611
			l7.519-2.354c1.048,2.242,1.737,4.443,2.181,6.75v-11.303l5.576-1.119l4.641,1.199v6.687l3.477-1.324l5.853,1.021v17.052h-5.853
			h-2.16v0.1h-5.957h-4.909c0,0.005,0,0.01,0,0.014h-2.847h-2.337h-0.242h-6.825c0-0.035-0.001-0.068-0.002-0.104h-3.407h-5.914
			V-20.19C102.336-21.417,104.694-23.199,107.323-23.608z"/>
		<polygon fill="#4F86A1" points="99.684,-27.561 99.684,-7.392 97.028,-7.392 92.557,-7.392 92.557,-27.925 97.028,-29.155 		"/>
		<polygon fill="#4F86A1" points="91.112,-25.511 91.112,-7.392 88.726,-7.392 84.709,-7.392 84.709,-25.838 88.726,-26.943 		"/>
		<polygon fill="#4F86A1" points="147.758,-20.138 147.758,-7.392 140.971,-7.392 136.938,-7.392 136.938,-19.868 140.971,-21.046 
					"/>
		<polygon fill="#4F86A1" points="150.509,-21.94 150.509,-7.392 146.801,-7.392 144.034,-7.392 144.034,-21.146 147.489,-26.113 		
			"/>
		<path fill="#4F86A1" d="M153.347-19.343L153.347-19.343L153.347-19.343l2.718,1.753c0.321-1.303,0.761-2.572,1.364-3.86
			l5.541,1.735c1.59,4.03,1.503,6.626,1.39,12.323h-5.03h-0.178h-1.722h-2.099c0-0.025-0.001-0.05-0.001-0.076h-1.982h-4.358v-9.355
			C149.671-17.728,151.409-19.041,153.347-19.343z"/>
		<path fill="#4F86A1" d="M47.432-23.76l3.396,2.418v2.735c0.263-1.829,0.709-3.61,1.443-5.664l6.874-2.376
			c0.958,2.263,1.588,4.484,1.994,6.813v-11.409l5.097-1.13l4.242,1.211v15.83l-4.242-0.252l5.445,0.323v7.854h-5.445h-4.488
			c0,0.005,0,0.009,0,0.014h-2.603h-2.137h-0.221h-6.239c-0.001-0.035-0.001-0.069-0.002-0.104h-3.114h-5.406v-12.814
			C42.874-21.548,45.029-23.347,47.432-23.76z"/>
		<polygon fill="#4F86A1" points="38.165,-24.603 38.165,-7.392 32.815,-7.392 29.637,-7.392 29.637,-24.297 32.815,-25.635 		"/>
		<polygon fill="#4F86A1" points="40.449,-27.749 40.449,-7.392 38.021,-7.392 33.933,-7.392 33.933,-28.117 38.021,-29.359 		"/>
		<polygon fill="#4F86A1" points="32.612,-25.68 32.612,-7.392 30.431,-7.392 26.759,-7.392 26.759,-26.011 30.431,-27.126 		"/>
		<polygon fill="#4F86A1" points="82.965,-20.138 82.965,-7.392 76.177,-7.392 72.145,-7.392 72.145,-19.868 76.177,-21.046 		"/>
		<polygon fill="#4F86A1" points="24.746,-19.984 24.746,-7.392 21.06,-7.392 14.854,-7.392 14.854,-20.257 21.06,-21.174 		"/>
		<polygon fill="#4F86A1" points="44.746,-22.076 44.746,-7.392 41.355,-7.392 38.826,-7.392 38.826,-21.274 41.984,-26.289 		"/>
		<polygon fill="#4F86A1" points="9.206,-20.271 12.326,-17.4 12.326,-7.392 8.495,-7.392 5.637,-7.392 5.637,-16.854 		"/>
	</g>
	<g clip-path="url(#SVGID_2_)">
		<g>
			<g>
				<rect x="202.516" y="117.172" fill="#4F7DAB" width="0.377" height="7.356"/>
				<rect x="207.098" y="113.545" fill="#4F7DAB" width="0.396" height="10.983"/>
				<polygon fill="#4F7DAB" points="200.32,124.226 200.32,126.924 205.32,126.924 205.32,122.132 				"/>
				<polygon fill="#2A4C82" points="205.32,122.132 211.111,124.528 211.111,126.924 205.32,126.924 				"/>
			</g>
			<g>
				<rect x="224.082" y="119.07" fill="#4F7DAB" width="0.307" height="7.355"/>
				<rect x="227.814" y="115.442" fill="#4F7DAB" width="0.322" height="10.983"/>
				<polygon fill="#4F7DAB" points="222.295,126.124 222.295,128.822 226.365,128.822 226.365,124.03 				"/>
				<polygon fill="#2A4C82" points="226.365,124.03 231.082,126.426 231.082,128.822 226.365,128.822 				"/>
			</g>
			<linearGradient id="SVGID_3_" gradientUnits="userSpaceOnUse" x1="203.2539" y1="199.9248" x2="203.2539" y2="125.7969">
				<stop  offset="0" style="stop-color:#00FDFE"/>
				<stop  offset="0.7182" style="stop-color:#0087FF"/>
				<stop  offset="1" style="stop-color:#0000FF"/>
			</linearGradient>
			<polygon fill="url(#SVGID_3_)" points="192.997,131.917 213.512,125.797 213.512,199.925 192.997,199.925 			"/>
			<linearGradient id="SVGID_4_" gradientUnits="userSpaceOnUse" x1="225.4131" y1="199.9248" x2="225.4131" y2="125.7969">
				<stop  offset="0" style="stop-color:#0094FE"/>
				<stop  offset="1" style="stop-color:#001C8C"/>
			</linearGradient>
			<polygon fill="url(#SVGID_4_)" points="213.512,125.797 237.314,135.469 237.314,199.925 213.512,199.925 			"/>
			<polygon fill="#67B2C6" points="190.56,129.027 214.532,121.603 214.532,125.797 190.56,132.654 			"/>
			<polygon fill="#446D8E" points="214.532,121.603 238.845,131.521 238.845,135.261 214.532,125.797 			"/>
			<polygon fill="#7A3E52" points="190.56,132.654 214.532,125.797 238.845,135.261 237.314,136.659 237.314,135.865 
				213.512,126.958 192.997,132.861 192.997,133.655 			"/>
			<path fill="#87536C" d="M206.371,194.243h-6.857v-9.047l6.857-0.46V194.243z M199.514,181.826l6.857-0.4v-9.501l-6.857,0.841
				V181.826z M199.514,169.408l6.857-0.8v-9.495l-6.857,1.222V169.408z M199.514,156.991l6.857-1.2v-9.489l-6.857,1.603V156.991z
				 M199.514,135.474v9.101l6.857-1.6v-9.484L199.514,135.474z"/>
			<linearGradient id="SVGID_5_" gradientUnits="userSpaceOnUse" x1="203.2236" y1="132.8994" x2="203.2236" y2="196.3091">
				<stop  offset="0" style="stop-color:#22BEB1"/>
				<stop  offset="0.0367" style="stop-color:#40C8B6"/>
				<stop  offset="0.0922" style="stop-color:#67D6BD"/>
				<stop  offset="0.147" style="stop-color:#86E0C3"/>
				<stop  offset="0.2002" style="stop-color:#9CE8C7"/>
				<stop  offset="0.2512" style="stop-color:#AAECC9"/>
				<stop  offset="0.2976" style="stop-color:#AEEECA"/>
				<stop  offset="0.3899" style="stop-color:#A5EBC8"/>
				<stop  offset="0.5383" style="stop-color:#8EE3C4"/>
				<stop  offset="0.7243" style="stop-color:#67D6BD"/>
				<stop  offset="0.9385" style="stop-color:#33C4B4"/>
				<stop  offset="1" style="stop-color:#22BEB1"/>
			</linearGradient>
			<path fill="url(#SVGID_5_)" d="M200.089,194.19v-8.477l6.269-0.42v8.896H200.089z M200.089,173.269l6.269-0.769v8.89
				l-6.269,0.366V173.269z M200.089,160.824l6.269-1.117v8.882l-6.269,0.73V160.824z M200.089,148.38l6.269-1.465v8.871
				l-6.269,1.097V148.38z M200.089,135.938l6.269-1.813v8.858l-6.269,1.463V135.938z"/>
			<path fill="#4A2748" d="M220.879,194.384v-9.272l2.627,0.221v9.026L220.879,194.384z M223.506,181.709v-9.081l-2.627-0.4v9.307
				L223.506,181.709z M227.435,185.661l-2.626-0.221v8.905l2.626-0.026V185.661z M231.363,185.99l-2.625-0.22v8.536l2.625-0.025
				V185.99z M223.506,168.969v-9.136l-2.627-0.582v9.341L223.506,168.969z M227.435,181.972v-8.743l-2.626-0.401v8.97
				L227.435,181.972z M228.738,173.428v8.631l2.625,0.176v-8.406L228.738,173.428z M223.506,156.228v-9.189l-2.627-0.763v9.375
				L223.506,156.228z M224.809,160.122v9.033l2.626,0.377v-8.828L224.809,160.122z M224.809,147.416v9.099l2.626,0.577v-8.913
				L224.809,147.416z M220.879,142.709l2.627,0.778v-9.245l-2.627-0.943V142.709z M224.809,134.711v9.162l2.626,0.778v-8.997
				L224.809,134.711z M219.576,158.963l-3.174-0.703v9.69l3.174,0.455V158.963z M219.576,185.002l-3.174-0.266v9.69l3.174-0.03
				V185.002z M232.668,182.321l2.663,0.178v-8.065l-2.663-0.406V182.321z M232.668,194.269l2.663-0.025v-7.92l-2.663-0.224V194.269z
				 M232.668,170.282l2.663,0.382v-8.211l-2.663-0.59V170.282z M232.668,158.242l2.663,0.586v-8.355l-2.663-0.774V158.242z
				 M232.668,137.534v8.668l2.663,0.79v-8.501L232.668,137.534z M219.576,172.028l-3.174-0.484v9.69l3.174,0.213V172.028z
				 M228.738,160.992v8.727l2.625,0.376v-8.521L228.738,160.992z M228.738,136.122v8.916l2.625,0.778v-8.751L228.738,136.122z
				 M228.738,148.558v8.82l2.625,0.578v-8.636L228.738,148.558z M219.576,132.831l-3.174-1.141v9.691l3.174,0.94V132.831z
				 M219.576,145.896l-3.174-0.922v9.691l3.174,0.698V145.896z"/>
			<linearGradient id="SVGID_6_" gradientUnits="userSpaceOnUse" x1="225.5723" y1="134.1084" x2="225.5723" y2="195.163">
				<stop  offset="0" style="stop-color:#0485A5"/>
				<stop  offset="0.0128" style="stop-color:#0D8BA7"/>
				<stop  offset="0.0733" style="stop-color:#34A6AE"/>
				<stop  offset="0.1331" style="stop-color:#53BAB4"/>
				<stop  offset="0.1913" style="stop-color:#69C9B8"/>
				<stop  offset="0.247" style="stop-color:#77D2BA"/>
				<stop  offset="0.2976" style="stop-color:#7BD5BB"/>
				<stop  offset="0.4016" style="stop-color:#72CFB9"/>
				<stop  offset="0.5686" style="stop-color:#5BBFB5"/>
				<stop  offset="0.7778" style="stop-color:#34A6AE"/>
				<stop  offset="1" style="stop-color:#0485A5"/>
			</linearGradient>
			<path fill="url(#SVGID_6_)" d="M216.402,185.354l2.584,0.216v8.832l-2.584,0.024V185.354z M220.879,185.729l2.037,0.171v8.464
				l-2.037,0.02V185.729z M224.809,186.059l2.037,0.171v8.097l-2.037,0.02V186.059z M228.738,186.389l2.036,0.17v7.729l-2.036,0.021
				V186.389z M232.668,186.718l2.074,0.174v7.357l-2.074,0.021V186.718z M232.668,182.343v-7.675l2.074,0.317v7.496L232.668,182.343
				z M228.738,182.08v-8.012l2.036,0.311v7.838L228.738,182.08z M224.809,181.818v-8.351l2.037,0.312v8.175L224.809,181.818z
				 M220.879,181.556v-8.688l2.037,0.312v8.512L220.879,181.556z M216.402,181.257v-9.072l2.584,0.395v8.851L216.402,181.257z
				 M232.668,170.324v-7.797l2.074,0.46v7.634L232.668,170.324z M228.738,169.761v-8.104l2.036,0.451v7.944L228.738,169.761z
				 M224.809,169.197v-8.411l2.037,0.452v8.251L224.809,169.197z M220.879,168.634v-8.718l2.037,0.451v8.559L220.879,168.634z
				 M216.402,167.992v-9.068l2.584,0.572v8.866L216.402,167.992z M232.668,158.303v-7.914l2.074,0.603v7.768L232.668,158.303z
				 M228.738,157.438v-8.191l2.036,0.592v8.048L228.738,157.438z M224.809,156.575v-8.469l2.037,0.591v8.325L224.809,156.575z
				 M220.879,155.711v-8.746l2.037,0.592v8.602L220.879,155.711z M216.402,154.727v-9.062l2.584,0.751v8.879L216.402,154.727z
				 M232.668,146.28v-8.029l2.074,0.745v7.899L232.668,146.28z M228.738,145.115v-8.276l2.036,0.731v8.148L228.738,145.115z
				 M224.809,143.951v-8.523l2.037,0.731v8.396L224.809,143.951z M220.879,142.786v-8.771l2.037,0.731v8.643L220.879,142.786z
				 M216.402,141.459v-9.052l2.584,0.928v8.89L216.402,141.459z"/>
		</g>
		<g>
			<linearGradient id="SVGID_7_" gradientUnits="userSpaceOnUse" x1="135.1509" y1="200" x2="135.1509" y2="135.9092">
				<stop  offset="0" style="stop-color:#0094FE"/>
				<stop  offset="1" style="stop-color:#001C8C"/>
			</linearGradient>
			<polygon fill="url(#SVGID_7_)" points="112.054,135.909 112.054,200 158.247,200 158.247,141.622 			"/>
			<linearGradient id="SVGID_8_" gradientUnits="userSpaceOnUse" x1="100.6479" y1="200" x2="100.6479" y2="135.9092">
				<stop  offset="0" style="stop-color:#00FDFE"/>
				<stop  offset="0.6985" style="stop-color:#0087FF"/>
				<stop  offset="1" style="stop-color:#0000FF"/>
			</linearGradient>
			<polygon fill="url(#SVGID_8_)" points="112.054,135.909 89.242,140.858 89.242,200 112.054,200 			"/>
			<polygon fill="#67B2C6" points="112.054,135.909 88.181,141.026 88.181,139.05 112.054,133.389 			"/>
			<polygon fill="#446D8E" points="112.054,133.389 112.054,135.909 159.581,142.067 159.581,140.038 			"/>
			<path fill="#4A2748" d="M132.712,151.829v7.464l-3.802-0.271v-7.541L132.712,151.829z M143.954,143.62l-3.801-0.43v7.395
				l3.801,0.338V143.62z M138.333,142.984l-3.801-0.429v7.529l3.801,0.338V142.984z M128.911,141.92v7.665l3.802,0.338v-7.573
				L128.911,141.92z M149.575,144.255l-3.802-0.43v7.26l3.802,0.339V144.255z M149.575,187.704v-6.984l-3.802-0.103v7.02
				L149.575,187.704z M149.575,178.634v-7.03l-3.802-0.185v7.08L149.575,178.634z M149.575,160.494v-7.123l-3.802-0.348v7.199
				L149.575,160.494z M128.911,161.043v7.418l3.802,0.202v-7.354L128.911,161.043z M149.575,169.564v-7.077l-3.802-0.266v7.14
				L149.575,169.564z M138.333,178.234v-7.175l-3.801-0.184v7.223L138.333,178.234z M134.532,151.995v7.428l3.801,0.271v-7.351
				L134.532,151.995z M143.954,152.856l-3.801-0.347v7.313l3.801,0.271V152.856z M134.532,161.436v7.325l3.801,0.203v-7.263
				L134.532,161.436z M143.954,169.264v-7.17l-3.801-0.266v7.232L143.954,169.264z M149.575,196.774v-6.939l-3.802-0.02v6.959
				H149.575z M143.954,178.434v-7.103l-3.801-0.184v7.151L143.954,178.434z M128.911,187.337l3.802,0.067v-7.138l-3.802-0.102
				V187.337z M134.532,187.437l3.801,0.067v-7.086l-3.801-0.103V187.437z M143.954,187.604v-7.036l-3.801-0.102v7.069
				L143.954,187.604z M128.911,170.604v7.295l3.802,0.136v-7.247L128.911,170.604z M134.532,196.774h3.801v-6.999l-3.801-0.02
				V196.774z M121.47,189.687l-4.541-0.023v7.111h4.541V189.687z M151.395,169.661l3.66,0.195v-6.986l-3.66-0.256V169.661z
				 M121.47,179.965l-4.541-0.121v7.279l4.541,0.081V179.965z M151.395,178.699l3.66,0.13v-6.961l-3.66-0.177V178.699z
				 M151.395,187.736l3.66,0.065v-6.936l-3.66-0.098V187.736z M151.395,196.774h3.66v-6.91l-3.66-0.02V196.774z M116.93,140.566
				v7.952l4.541,0.403v-7.842L116.93,140.566z M121.47,150.801l-4.541-0.415v7.784l4.541,0.323V150.801z M121.47,170.244
				l-4.541-0.22v7.447l4.541,0.162V170.244z M121.47,160.522l-4.541-0.317v7.615l4.541,0.243V160.522z M123.29,160.649v7.511
				l3.801,0.203v-7.448L123.29,160.649z M123.29,180.014v7.223l3.801,0.067v-7.188L123.29,180.014z M123.29,196.774h3.801v-7.058
				l-3.801-0.021V196.774z M123.29,170.332v7.366l3.801,0.136v-7.318L123.29,170.332z M128.911,196.774h3.802v-7.028l-3.802-0.02
				V196.774z M123.29,150.968v7.654l3.801,0.271v-7.577L123.29,150.968z M151.395,151.586l3.66,0.325v-7.037l-3.66-0.414V151.586z
				 M123.29,141.285v7.799l3.801,0.339v-7.708L123.29,141.285z M151.395,160.623l3.66,0.261v-7.012l-3.66-0.335V160.623z
				 M140.153,196.774h3.801v-6.969l-3.801-0.021V196.774z"/>
			<linearGradient id="SVGID_9_" gradientUnits="userSpaceOnUse" x1="135.7031" y1="140.3555" x2="135.7031" y2="197.6001">
				<stop  offset="0" style="stop-color:#0485A5"/>
				<stop  offset="0.0128" style="stop-color:#0D8BA7"/>
				<stop  offset="0.0733" style="stop-color:#34A6AE"/>
				<stop  offset="0.1331" style="stop-color:#53BAB4"/>
				<stop  offset="0.1913" style="stop-color:#69C9B8"/>
				<stop  offset="0.247" style="stop-color:#77D2BA"/>
				<stop  offset="0.2976" style="stop-color:#7BD5BB"/>
				<stop  offset="0.4016" style="stop-color:#72CFB9"/>
				<stop  offset="0.5686" style="stop-color:#5BBFB5"/>
				<stop  offset="0.7778" style="stop-color:#34A6AE"/>
				<stop  offset="1" style="stop-color:#0485A5"/>
			</linearGradient>
			<path fill="url(#SVGID_9_)" d="M151.395,196.811v-6.35l3.082,0.016v6.334H151.395z M145.774,196.811v-6.38l3.223,0.018v6.362
				H145.774z M140.153,196.811v-6.409l3.223,0.017v6.393H140.153z M134.532,196.811v-6.438l3.223,0.017v6.422H134.532z
				 M128.911,196.811v-6.469l3.223,0.017v6.452H128.911z M123.29,196.811v-6.498l3.223,0.017v6.481H123.29z M116.93,196.811v-6.532
				l3.963,0.021v6.511H116.93z M151.395,187.778v-6.388l3.082,0.082v6.36L151.395,187.778z M145.774,187.678v-6.438l3.223,0.087
				v6.409L145.774,187.678z M140.153,187.577v-6.488l3.223,0.086v6.46L140.153,187.577z M134.532,187.478v-6.539l3.223,0.086v6.511
				L134.532,187.478z M128.911,187.378v-6.591l3.223,0.086v6.563L128.911,187.378z M123.29,187.277v-6.641l3.223,0.086v6.612
				L123.29,187.277z M116.93,187.164v-6.698l3.963,0.105v6.664L116.93,187.164z M151.395,178.745v-6.426l3.082,0.149v6.386
				L151.395,178.745z M145.774,178.545v-6.497l3.223,0.156v6.456L145.774,178.545z M140.153,178.345v-6.569l3.223,0.157v6.527
				L140.153,178.345z M134.532,178.145v-6.641l3.223,0.156v6.6L134.532,178.145z M128.911,177.944v-6.712l3.223,0.156v6.671
				L128.911,177.944z M123.29,177.745v-6.785l3.223,0.156v6.743L123.29,177.745z M116.93,177.519v-6.865l3.963,0.191v6.814
				L116.93,177.519z M151.395,169.712v-6.463l3.082,0.216v6.412L151.395,169.712z M145.774,169.412v-6.556l3.223,0.226v6.502
				L145.774,169.412z M140.153,169.112v-6.648l3.223,0.225v6.596L140.153,169.112z M134.532,168.812v-6.741l3.223,0.226v6.688
				L134.532,168.812z M128.911,168.512v-6.834l3.223,0.226v6.78L128.911,168.512z M123.29,168.212v-6.927l3.223,0.225v6.874
				L123.29,168.212z M116.93,167.872v-7.031l3.963,0.276v6.967L116.93,167.872z M151.395,160.68v-6.5l3.082,0.281v6.438
				L151.395,160.68z M145.774,160.279v-6.614l3.223,0.295v6.549L145.774,160.279z M140.153,159.879v-6.728l3.223,0.295v6.662
				L140.153,159.879z M134.532,159.479v-6.841l3.223,0.294v6.776L134.532,159.479z M128.911,159.078v-6.955l3.223,0.295v6.891
				L128.911,159.078z M123.29,158.678v-7.068l3.223,0.295v7.004L123.29,158.678z M116.93,158.226v-7.197l3.963,0.361v7.118
				L116.93,158.226z M151.395,151.646v-6.537l3.082,0.348v6.464L151.395,151.646z M145.774,151.146v-6.673l3.223,0.364v6.595
				L145.774,151.146z M140.153,150.646v-6.808l3.223,0.364v6.729L140.153,150.646z M134.532,150.146v-6.942l3.223,0.364v6.864
				L134.532,150.146z M128.911,149.646v-7.076l3.223,0.363v6.999L128.911,149.646z M123.29,149.146v-7.212l3.223,0.364v7.134
				L123.29,149.146z M116.93,148.579v-7.364l3.963,0.448v7.269L116.93,148.579z"/>
			<path fill="#87536C" d="M101.485,151.481v7.541l-2.415,0.271v-7.464L101.485,151.481z M91.927,150.923l2.415-0.338v-7.395
				l-2.415,0.43V150.923z M95.499,150.423l2.415-0.338v-7.529l-2.415,0.429V150.423z M99.07,142.35v7.573l2.415-0.338v-7.665
				L99.07,142.35z M99.07,161.309v7.354l2.415-0.202v-7.418L99.07,161.309z M97.914,178.099v-7.223l-2.415,0.184v7.175
				L97.914,178.099z M95.499,152.343v7.351l2.415-0.271v-7.428L95.499,152.343z M91.927,160.094l2.415-0.271v-7.313l-2.415,0.347
				V160.094z M95.499,161.701v7.263l2.415-0.203v-7.325L95.499,161.701z M94.342,169.061v-7.232l-2.415,0.266v7.17L94.342,169.061z
				 M94.342,178.299v-7.151l-2.415,0.184v7.103L94.342,178.299z M101.485,180.165l-2.415,0.102v7.138l2.415-0.067V180.165z
				 M97.914,180.315l-2.415,0.103v7.086l2.415-0.067V180.315z M94.342,187.536v-7.069l-2.415,0.102v7.036L94.342,187.536z
				 M99.07,170.787v7.247l2.415-0.136v-7.295L99.07,170.787z M97.914,189.756l-2.415,0.02v6.999h2.415V189.756z M106.212,196.774
				h2.885v-7.111l-2.885,0.023V196.774z M106.212,187.204l2.885-0.081v-7.279l-2.885,0.121V187.204z M106.212,141.08v7.842
				l2.885-0.403v-7.952L106.212,141.08z M106.212,158.493l2.885-0.323v-7.784l-2.885,0.415V158.493z M106.212,177.634l2.885-0.162
				v-7.447l-2.885,0.22V177.634z M106.212,168.063l2.885-0.243v-7.615l-2.885,0.317V168.063z M102.641,160.915v7.448l2.415-0.203
				v-7.511L102.641,160.915z M102.641,180.116v7.188l2.415-0.067v-7.223L102.641,180.116z M105.056,189.696l-2.415,0.021v7.058
				h2.415V189.696z M102.641,170.516v7.318l2.415-0.136v-7.366L102.641,170.516z M101.485,189.727l-2.415,0.02v7.028h2.415V189.727z
				 M102.641,151.315v7.577l2.415-0.271v-7.654L102.641,151.315z M102.641,141.715v7.708l2.415-0.339v-7.799L102.641,141.715z
				 M94.342,189.785l-2.415,0.021v6.969h2.415V189.785z"/>
			<linearGradient id="SVGID_10_" gradientUnits="userSpaceOnUse" x1="100.7769" y1="140.2109" x2="100.7769" y2="197.7947">
				<stop  offset="0" style="stop-color:#22BEB1"/>
				<stop  offset="0.0367" style="stop-color:#40C8B6"/>
				<stop  offset="0.0922" style="stop-color:#67D6BD"/>
				<stop  offset="0.147" style="stop-color:#86E0C3"/>
				<stop  offset="0.2002" style="stop-color:#9CE8C7"/>
				<stop  offset="0.2512" style="stop-color:#AAECC9"/>
				<stop  offset="0.2976" style="stop-color:#AEEECA"/>
				<stop  offset="0.3899" style="stop-color:#A5EBC8"/>
				<stop  offset="0.5383" style="stop-color:#8EE3C4"/>
				<stop  offset="0.7243" style="stop-color:#67D6BD"/>
				<stop  offset="0.9385" style="stop-color:#33C4B4"/>
				<stop  offset="1" style="stop-color:#22BEB1"/>
			</linearGradient>
			<path fill="url(#SVGID_10_)" d="M106.766,196.738v-6.512l2.307-0.02v6.531H106.766z M103.195,196.738v-6.482l1.837-0.016v6.498
				H103.195z M99.624,196.738v-6.452l1.837-0.016v6.468H99.624z M96.052,196.738v-6.423l1.837-0.016v6.438H96.052z M92.481,196.738
				v-6.394l1.837-0.015v6.408H92.481z M92.481,181.099l1.837-0.077v6.486l-1.837,0.052V181.099z M96.052,180.947l1.837-0.077v6.538
				l-1.837,0.052V180.947z M99.624,180.797l1.837-0.077v6.589l-1.837,0.051V180.797z M103.195,180.646l1.837-0.078v6.64
				l-1.837,0.052V180.646z M106.766,180.495l2.307-0.098v6.697l-2.307,0.064V180.495z M92.481,171.853l1.837-0.141v6.566
				l-1.837,0.103V171.853z M96.052,171.58l1.837-0.14v6.638l-1.837,0.103V171.58z M99.624,171.309l1.837-0.141v6.71l-1.837,0.103
				V171.309z M103.195,171.036l1.837-0.14v6.781l-1.837,0.104V171.036z M106.766,170.766l2.307-0.177v6.863l-2.307,0.129V170.766z
				 M92.481,162.606l1.837-0.203v6.645l-1.837,0.154V162.606z M96.052,162.214l1.837-0.203v6.736l-1.837,0.155V162.214z
				 M99.624,161.82l1.837-0.202v6.829l-1.837,0.154V161.82z M103.195,161.428l1.837-0.203v6.923l-1.837,0.154V161.428z
				 M106.766,161.034l2.307-0.254v7.027l-2.307,0.194V161.034z M92.481,153.36l1.837-0.265v6.722l-1.837,0.205V153.36z
				 M96.052,152.847l1.837-0.265v6.835l-1.837,0.206V152.847z M99.624,152.333l1.837-0.266v6.949l-1.837,0.206V152.333z
				 M103.195,151.818l1.837-0.265v7.063l-1.837,0.206V151.818z M106.766,151.305l2.307-0.332v7.191l-2.307,0.258V151.305z
				 M92.481,144.115l1.837-0.327v6.799l-1.837,0.257V144.115z M96.052,143.479l1.837-0.326v6.934l-1.837,0.257V143.479z
				 M99.624,142.845l1.837-0.326v7.068l-1.837,0.257V142.845z M103.195,142.21l1.837-0.327v7.203l-1.837,0.257V142.21z
				 M106.766,141.575l2.307-0.411v7.355l-2.307,0.323V141.575z"/>
			<polygon fill="#7A3E52" points="88.181,141.026 112.054,135.909 159.581,142.067 158.247,142.451 112.054,136.814 89.28,141.319 
							"/>
		</g>
		<g>
			<polygon fill="#67B2C6" points="351.182,115.832 353.988,90.087 353.988,114.555 			"/>
			<polygon fill="#446D8E" points="353.988,90.087 356.273,115.598 353.988,114.555 			"/>
			<linearGradient id="SVGID_11_" gradientUnits="userSpaceOnUse" x1="349.9463" y1="131.1514" x2="349.9463" y2="113.0322">
				<stop  offset="0" style="stop-color:#00FDFE"/>
				<stop  offset="0.3586" style="stop-color:#0087FF"/>
				<stop  offset="0.8079" style="stop-color:#0000FF"/>
			</linearGradient>
			<polygon fill="url(#SVGID_11_)" points="345.904,131.151 345.904,117.514 353.988,113.032 353.988,127.555 			"/>
			<linearGradient id="SVGID_12_" gradientUnits="userSpaceOnUse" x1="358.0303" y1="131.1514" x2="358.0303" y2="113.0322">
				<stop  offset="0" style="stop-color:#0094FE"/>
				<stop  offset="0.3547" style="stop-color:#001C8C"/>
			</linearGradient>
			<polygon fill="url(#SVGID_12_)" points="362.072,131.151 362.072,117.514 353.988,113.032 353.988,127.555 			"/>
			<linearGradient id="SVGID_13_" gradientUnits="userSpaceOnUse" x1="359.8809" y1="200" x2="359.8809" y2="127.5547">
				<stop  offset="0" style="stop-color:#0094FE"/>
				<stop  offset="0.3941" style="stop-color:#001C8C"/>
			</linearGradient>
			<polygon fill="url(#SVGID_13_)" points="353.988,127.555 353.988,200 365.773,200 365.773,132.659 			"/>
			<linearGradient id="SVGID_14_" gradientUnits="userSpaceOnUse" x1="347.6807" y1="200" x2="347.6807" y2="127.5547">
				<stop  offset="0" style="stop-color:#00FDFE"/>
				<stop  offset="0.7084" style="stop-color:#0087FF"/>
				<stop  offset="1" style="stop-color:#0000FF"/>
			</linearGradient>
			<polygon fill="url(#SVGID_14_)" points="353.988,127.555 341.373,133.198 341.373,200 353.988,200 			"/>
			<polygon fill="#67B2C6" points="353.988,127.555 340.92,133.37 340.92,131.625 353.988,125.25 			"/>
			<polygon fill="#446D8E" points="353.988,125.25 353.988,127.555 366.344,133.068 366.344,131.318 			"/>
			<path fill="#4A2748" d="M362.371,134.01l2.301,0.866v6.505l-2.301-0.799V134.01z M358.627,132.602v6.682l2.574,0.894v-6.606
				L358.627,132.602z M361.201,166.405v-6.543l-2.574-0.543v6.7L361.201,166.405z M358.627,141.508v6.688l2.574,0.724v-6.585
				L358.627,141.508z M362.371,149.249l2.301,0.646v-6.447l-2.301-0.738V149.249z M358.627,150.414v6.693l2.574,0.555v-6.564
				L358.627,150.414z M357.457,141.132l-2.367-0.76v6.828l2.367,0.666V141.132z M362.371,157.915l2.301,0.496v-6.391l-2.301-0.611
				V157.915z M357.457,150.103l-2.367-0.629v6.871l2.367,0.51V150.103z M355.09,131.271v6.785l2.367,0.821v-6.716L355.09,131.271z
				 M357.457,159.073l-2.367-0.499v6.915l2.367,0.354V159.073z M362.371,166.581l2.301,0.345v-6.332l-2.301-0.485V166.581z
				 M358.627,192.946v-6.699l2.574,0.093v6.543L358.627,192.946z M358.627,168.435v6.688l2.574,0.274v-6.585L358.627,168.435z
				 M362.371,175.521l2.301,0.246v-6.447l-2.301-0.338V175.521z M358.627,177.341v6.693l2.574,0.105v-6.564L358.627,177.341z
				 M357.457,168.263l-2.367-0.347v6.828l2.367,0.253V168.263z M362.371,184.188l2.301,0.094v-6.39l-2.301-0.21V184.188z
				 M357.457,177.233l-2.367-0.216v6.871l2.367,0.098V177.233z M357.457,186.204l-2.367-0.085v6.914l2.367-0.058V186.204z
				 M362.371,192.854l2.301-0.057v-6.333l-2.301-0.083V192.854z"/>
			<linearGradient id="SVGID_15_" gradientUnits="userSpaceOnUse" x1="359.5586" y1="132.0693" x2="359.5586" y2="194.4486">
				<stop  offset="0" style="stop-color:#0485A5"/>
				<stop  offset="0.0128" style="stop-color:#0D8BA7"/>
				<stop  offset="0.0733" style="stop-color:#34A6AE"/>
				<stop  offset="0.1331" style="stop-color:#53BAB4"/>
				<stop  offset="0.1913" style="stop-color:#69C9B8"/>
				<stop  offset="0.247" style="stop-color:#77D2BA"/>
				<stop  offset="0.2976" style="stop-color:#7BD5BB"/>
				<stop  offset="0.4016" style="stop-color:#72CFB9"/>
				<stop  offset="0.5686" style="stop-color:#5BBFB5"/>
				<stop  offset="0.7778" style="stop-color:#34A6AE"/>
				<stop  offset="1" style="stop-color:#0485A5"/>
			</linearGradient>
			<path fill="url(#SVGID_15_)" d="M355.09,186.786l1.721,0.063v6.144l-1.721,0.042V186.786z M358.627,186.913l1.93,0.07v5.917
				l-1.93,0.048V186.913z M362.371,187.049l1.656,0.06v5.707l-1.656,0.041V187.049z M362.371,184.211v-5.843l1.656,0.151v5.759
				L362.371,184.211z M358.627,184.057v-6.03l1.93,0.176v5.934L358.627,184.057z M355.09,183.911v-6.208l1.721,0.157v6.122
				L355.09,183.911z M362.371,175.564v-5.876l1.656,0.242v5.81L362.371,175.564z M358.627,175.164v-6.024l1.93,0.283v5.947
				L358.627,175.164z M355.09,174.787v-6.165l1.721,0.252v6.097L355.09,174.787z M362.371,166.636v-5.797l1.656,0.349v5.696
				L362.371,166.636z M358.627,166.073v-6.023l1.93,0.406v5.907L358.627,166.073z M355.09,165.543v-6.238l1.721,0.362v6.135
				L355.09,165.543z M362.371,157.986v-5.825l1.656,0.439v5.743L362.371,157.986z M358.627,157.179v-6.014l1.93,0.513v5.918
				L358.627,157.179z M355.09,156.416v-6.191l1.721,0.458v6.104L355.09,156.416z M362.371,149.337v-5.853l1.656,0.531v5.786
				L362.371,149.337z M358.627,148.283v-6.001l1.93,0.619v5.925L358.627,148.283z M355.09,147.288v-6.142l1.721,0.553v6.073
				L355.09,147.288z M362.371,140.686v-5.877l1.656,0.623v5.827L362.371,140.686z M358.627,139.386v-5.986l1.93,0.726v5.93
				L358.627,139.386z M355.09,138.158v-6.089l1.721,0.646v6.039L355.09,138.158z"/>
			<path fill="#87536C" d="M345.082,140.916l-2.299,0.941v-6.506l2.299-1.008V140.916z M346.254,133.831v6.606l2.574-1.054v-6.682
				L346.254,133.831z M348.828,166.12v-6.699l-2.574,0.702v6.543L348.828,166.12z M346.254,142.595v6.586l2.574-0.885v-6.688
				L346.254,142.595z M345.082,143.043l-2.299,0.882v6.447l2.299-0.79V143.043z M346.254,151.358v6.564l2.574-0.715v-6.693
				L346.254,151.358z M349.998,147.895l2.365-0.813v-6.828l-2.365,0.907V147.895z M345.082,151.742l-2.299,0.755v6.391l2.299-0.64
				V151.742z M349.998,156.883l2.365-0.657v-6.871l-2.365,0.776V156.883z M349.998,132.189v6.716l2.365-0.969v-6.785
				L349.998,132.189z M349.998,165.872l2.365-0.502v-6.914l-2.365,0.646V165.872z M345.082,160.442l-2.299,0.627v6.333l2.299-0.488
				V160.442z M346.24,192.948v-6.543l2.566-0.221v6.7L346.24,192.948z M346.24,168.877v6.585l2.566-0.401v-6.688L346.24,168.877z
				 M345.074,169.106l-2.291,0.45v6.447l2.291-0.359V169.106z M346.24,177.641v6.564l2.566-0.232v-6.694L346.24,177.641z
				 M349.973,174.877l2.357-0.369v-6.828l-2.357,0.464V174.877z M345.074,177.806l-2.291,0.323v6.391l2.291-0.208V177.806z
				 M349.973,183.866l2.357-0.214v-6.871l-2.357,0.333V183.866z M349.973,192.855l2.357-0.059v-6.915l-2.357,0.203V192.855z
				 M345.074,186.505l-2.291,0.197v6.332l2.291-0.057V186.505z"/>
			<linearGradient id="SVGID_16_" gradientUnits="userSpaceOnUse" x1="347.8955" y1="131.9746" x2="347.8955" y2="194.1738">
				<stop  offset="0" style="stop-color:#22BEB1"/>
				<stop  offset="0.0367" style="stop-color:#40C8B6"/>
				<stop  offset="0.0922" style="stop-color:#67D6BD"/>
				<stop  offset="0.147" style="stop-color:#86E0C3"/>
				<stop  offset="0.2002" style="stop-color:#9CE8C7"/>
				<stop  offset="0.2512" style="stop-color:#AAECC9"/>
				<stop  offset="0.2976" style="stop-color:#AEEECA"/>
				<stop  offset="0.3899" style="stop-color:#A5EBC8"/>
				<stop  offset="0.5383" style="stop-color:#8EE3C4"/>
				<stop  offset="0.7243" style="stop-color:#67D6BD"/>
				<stop  offset="0.9385" style="stop-color:#33C4B4"/>
				<stop  offset="1" style="stop-color:#22BEB1"/>
			</linearGradient>
			<path fill="url(#SVGID_16_)" d="M343.428,187.328l1.646-0.143v5.807l-1.646,0.041V187.328z M346.887,187.03l1.92-0.165v6.034
				l-1.92,0.048V187.03z M350.617,186.71l1.715-0.146v6.248l-1.715,0.042V186.71z M343.428,178.739l1.646-0.232v5.839l-1.646,0.15
				V178.739z M346.887,178.251l1.92-0.271v6.027l-1.92,0.175V178.251z M350.617,177.724l1.715-0.242v6.205l-1.715,0.155V177.724z
				 M343.428,170.151l1.646-0.323v5.87l-1.646,0.259V170.151z M346.887,169.472l1.92-0.378v6.02l-1.92,0.302V169.472z
				 M350.617,168.737l1.715-0.336v6.159l-1.715,0.27V168.737z M343.428,161.646l1.654-0.451v5.788l-1.654,0.352V161.646z
				 M346.898,160.699l1.93-0.526v6.016l-1.93,0.409V160.699z M350.643,159.678l1.721-0.47v6.23l-1.721,0.365V159.678z
				 M343.428,153.061l1.654-0.543v5.814l-1.654,0.461V153.061z M346.898,151.922l1.93-0.633v6.004l-1.93,0.535V151.922z
				 M350.643,150.693l1.721-0.564v6.182l-1.721,0.479V150.693z M343.428,144.477l1.654-0.635v5.84l-1.654,0.567V144.477z
				 M346.898,143.146l1.93-0.739v5.988l-1.93,0.662V143.146z M350.643,141.712l1.721-0.66v6.128l-1.721,0.592V141.712z
				 M343.428,135.893l1.654-0.726v5.862l-1.654,0.677V135.893z M346.898,134.371l1.93-0.846v5.972l-1.93,0.789V134.371z
				 M350.643,132.729l1.721-0.755v6.075l-1.721,0.704V132.729z"/>
			<linearGradient id="SVGID_17_" gradientUnits="userSpaceOnUse" x1="347.877" y1="131.959" x2="347.877" y2="194.1581">
				<stop  offset="0" style="stop-color:#22BEB1"/>
				<stop  offset="0.0367" style="stop-color:#40C8B6"/>
				<stop  offset="0.0922" style="stop-color:#67D6BD"/>
				<stop  offset="0.147" style="stop-color:#86E0C3"/>
				<stop  offset="0.2002" style="stop-color:#9CE8C7"/>
				<stop  offset="0.2512" style="stop-color:#AAECC9"/>
				<stop  offset="0.2976" style="stop-color:#AEEECA"/>
				<stop  offset="0.3899" style="stop-color:#A5EBC8"/>
				<stop  offset="0.5383" style="stop-color:#8EE3C4"/>
				<stop  offset="0.7243" style="stop-color:#67D6BD"/>
				<stop  offset="0.9385" style="stop-color:#33C4B4"/>
				<stop  offset="1" style="stop-color:#22BEB1"/>
			</linearGradient>
			<path fill="url(#SVGID_17_)" d="M343.408,187.312l1.648-0.142v5.807l-1.648,0.041V187.312z M346.867,187.015l1.92-0.165v6.034
				l-1.92,0.048V187.015z M350.598,186.694l1.715-0.147v6.249l-1.715,0.042V186.694z M343.408,178.724l1.648-0.233v5.84
				l-1.648,0.149V178.724z M346.867,178.234l1.92-0.271v6.028l-1.92,0.175V178.234z M350.598,177.708l1.715-0.242v6.205
				l-1.715,0.155V177.708z M343.408,170.136l1.648-0.323v5.87l-1.648,0.259V170.136z M346.867,169.455l1.92-0.377v6.02l-1.92,0.302
				V169.455z M350.598,168.722l1.715-0.337v6.16l-1.715,0.27V168.722z M343.408,161.629l1.656-0.451v5.789l-1.656,0.352V161.629z
				 M346.879,160.683l1.93-0.525v6.016l-1.93,0.409V160.683z M350.623,159.661l1.723-0.469v6.23l-1.723,0.365V159.661z
				 M343.408,153.044l1.656-0.542v5.814l-1.656,0.46V153.044z M346.879,151.906l1.93-0.633v6.004l-1.93,0.535V151.906z
				 M350.623,150.678l1.723-0.564v6.181l-1.723,0.479V150.678z M343.408,144.46l1.656-0.634v5.839l-1.656,0.568V144.46z
				 M346.879,143.131l1.93-0.739v5.987l-1.93,0.663V143.131z M350.623,141.696l1.723-0.66v6.128l-1.723,0.592V141.696z
				 M343.408,135.877l1.656-0.726v5.862l-1.656,0.677V135.877z M346.879,134.355l1.93-0.846v5.972l-1.93,0.789V134.355z
				 M350.623,132.714l1.723-0.755v6.075l-1.723,0.704V132.714z"/>
			<polygon fill="#67B2C6" points="353.988,112.415 353.988,114.14 345.082,119.248 345.082,117.624 			"/>
			<polygon fill="#446D8E" points="353.988,112.415 353.988,114.14 362.895,119.248 362.895,117.624 			"/>
			<polygon fill="#7A3E52" points="345.904,119.696 345.082,119.248 353.988,114.14 362.895,119.248 362.072,119.696 
				353.988,115.171 			"/>
			<polygon fill="#7A3E52" points="341.373,133.835 340.92,133.37 353.988,127.555 366.344,133.068 365.773,133.37 353.988,128.307 
							"/>
		</g>
	</g>
</g>
</svg>
