<svg id="layer_1" xmlns="http://www.w3.org/2000/svg" xmlns:xlink="http://www.w3.org/1999/xlink" width="400" height="200" viewBox="0 0 400 200" enable-background="new 0 0 400 200"><g><defs><path id="SVGID_1_" d="M0 0h4e2v2e2H0z"/></defs><clipPath id="SVGID_2_"><use xlink:href="#SVGID_1_" overflow="visible"/></clipPath><g opacity=".6" clip-path="url(#SVGID_2_)"><path fill="#4f86a1" d="M108.769-26.608v0 0l3.716 2.396v2.71c.288-1.813.775-3.577 1.578-5.611l7.52-2.354c1.048 2.242 1.737 4.443 2.181 6.75v-11.303l5.575-1.119 4.641 1.199v6.687l3.477-1.324 5.853 1.021v17.052h-5.853-2.16v.1h-5.957-4.909c0 .005.0.01.0.014h-2.847-2.337-.242-6.825c-.001-.035-.002-.068-.002-.104h-3.407-5.913V-23.19C103.782-24.417 106.14-26.199 108.769-26.608z"/><path fill="#4f86a1" d="M101.13-30.561v20.169H98.474 94.003V-30.925L98.474-32.155z"/><path fill="#4f86a1" d="M92.559-28.511v18.119H90.172 86.155V-28.838L90.172-29.943z"/><path fill="#4f86a1" d="M149.204-23.138V-10.392H142.417 138.385V-22.868L142.417-24.046z"/><path fill="#4f86a1" d="M151.955-24.94V-10.392H148.247 145.479V-24.146L148.935-29.113z"/><path fill="#4f86a1" d="M154.793-22.343v0 0l2.718 1.753c.321-1.303.762-2.572 1.364-3.86l5.541 1.735c1.59 4.03 1.503 6.626 1.389 12.323h-5.029-.179-1.722-2.099c-.001-.025-.001-.05-.002-.076h-1.981-4.358v-9.355C151.117-20.728 152.855-22.041 154.793-22.343z"/><path fill="#4f86a1" d="M48.878-26.76l3.396 2.418v2.735c.264-1.829.709-3.61 1.443-5.664l6.874-2.376c.958 2.263 1.588 4.484 1.993 6.813v-11.409l5.097-1.13 4.243 1.211v15.83l-4.243-.252 5.446.323v7.854h-5.446-4.487c0 .005.0.009.0.014h-2.603-2.137-.222-6.239c-.001-.035-.001-.069-.002-.104h-3.114-5.406v-12.814C44.319-24.548 46.475-26.347 48.878-26.76z"/><path fill="#4f86a1" d="M39.611-27.603V-10.392H34.261 31.082V-27.297L34.261-28.635z"/><path fill="#4f86a1" d="M41.895-30.749v20.357H39.467 35.379V-31.117L39.467-32.359z"/><path fill="#4f86a1" d="M34.059-28.68v18.288H31.877 28.205V-29.011L31.877-30.126z"/><path fill="#4f86a1" d="M84.411-23.138V-10.392H77.623 73.591V-22.868L77.623-24.046z"/><path fill="#4f86a1" d="M26.191-22.984V-10.392H22.506 16.301V-23.257L22.506-24.174z"/><path fill="#4f86a1" d="M46.191-25.076V-10.392H42.802 40.271V-24.274L43.431-29.289z"/><path fill="#4f86a1" d="M10.652-23.271 13.771-20.4v10.008H9.941 7.083v-9.462z"/></g><g opacity=".6" clip-path="url(#SVGID_2_)"><path fill="#4f86a1" d="M107.323-23.608v0 0l3.716 2.396v2.71c.288-1.813.775-3.577 1.578-5.611l7.519-2.354c1.048 2.242 1.737 4.443 2.181 6.75V-31.02l5.576-1.119 4.641 1.199v6.687l3.477-1.324 5.853 1.021v17.052h-5.853-2.16v.1h-5.957-4.909c0 .005.0.01.0.014h-2.847-2.337-.242-6.825c0-.035-.001-.068-.002-.104h-3.407-5.914V-20.19C102.336-21.417 104.694-23.199 107.323-23.608z"/><path fill="#4f86a1" d="M99.684-27.561V-7.392H97.028 92.557V-27.925L97.028-29.155z"/><path fill="#4f86a1" d="M91.112-25.511V-7.392H88.726 84.709V-25.838L88.726-26.943z"/><path fill="#4f86a1" d="M147.758-20.138V-7.392H140.971 136.938V-19.868L140.971-21.046z"/><path fill="#4f86a1" d="M150.509-21.94V-7.392H146.801 144.034V-21.146L147.489-26.113z"/><path fill="#4f86a1" d="M153.347-19.343v0 0l2.718 1.753c.321-1.303.761-2.572 1.364-3.86l5.541 1.735c1.59 4.03 1.503 6.626 1.39 12.323h-5.03-.178-1.722-2.099c0-.025-.001-.05-.001-.076h-1.982-4.358v-9.355C149.671-17.728 151.409-19.041 153.347-19.343z"/><path fill="#4f86a1" d="M47.432-23.76l3.396 2.418v2.735c.263-1.829.709-3.61 1.443-5.664l6.874-2.376c.958 2.263 1.588 4.484 1.994 6.813v-11.409l5.097-1.13 4.242 1.211v15.83l-4.242-.252 5.445.323v7.854h-5.445-4.488c0 .005.0.009.0.014h-2.603-2.137-.221-6.239c-.001-.035-.001-.069-.002-.104h-3.114-5.406v-12.814C42.874-21.548 45.029-23.347 47.432-23.76z"/><path fill="#4f86a1" d="M38.165-24.603V-7.392H32.815 29.637V-24.297L32.815-25.635z"/><path fill="#4f86a1" d="M40.449-27.749V-7.392H38.021 33.933V-28.117L38.021-29.359z"/><path fill="#4f86a1" d="M32.612-25.68V-7.392H30.431 26.759V-26.011L30.431-27.126z"/><path fill="#4f86a1" d="M82.965-20.138V-7.392H76.177 72.145V-19.868L76.177-21.046z"/><path fill="#4f86a1" d="M24.746-19.984V-7.392H21.06 14.854V-20.257L21.06-21.174z"/><path fill="#4f86a1" d="M44.746-22.076V-7.392H41.355 38.826V-21.274L41.984-26.289z"/><path fill="#4f86a1" d="M9.206-20.271 12.326-17.4V-7.392H8.495 5.637v-9.462z"/></g><g clip-path="url(#SVGID_2_)"><g><g><path fill="#4f7dab" d="M202.516 117.172h.377v7.356H202.516z"/><path fill="#4f7dab" d="M207.098 113.545h.396v10.983H207.098z"/><path fill="#4f7dab" d="M200.32 124.226V126.924h5V122.132z"/><path fill="#2a4c82" d="M205.32 122.132 211.111 124.528V126.924H205.32z"/></g><g><path fill="#4f7dab" d="M224.082 119.07h.307v7.355H224.082z"/><path fill="#4f7dab" d="M227.814 115.442h.322v10.983H227.814z"/><path fill="#4f7dab" d="M222.295 126.124V128.822H226.365V124.03z"/><path fill="#2a4c82" d="M226.365 124.03 231.082 126.426V128.822H226.365z"/></g><linearGradient id="SVGID_3_" gradientUnits="userSpaceOnUse" x1="203.2539" y1="199.9248" x2="203.2539" y2="125.7969"><stop offset="0" style="stop-color:#00fdfe"/><stop offset=".7182" style="stop-color:#0087ff"/><stop offset="1" style="stop-color:#00f"/></linearGradient><path fill="url(#SVGID_3_)" d="M192.997 131.917 213.512 125.797V199.925H192.997z"/><linearGradient id="SVGID_4_" gradientUnits="userSpaceOnUse" x1="225.4131" y1="199.9248" x2="225.4131" y2="125.7969"><stop offset="0" style="stop-color:#0094fe"/><stop offset="1" style="stop-color:#001c8c"/></linearGradient><path fill="url(#SVGID_4_)" d="M213.512 125.797 237.314 135.469V199.925H213.512z"/><path fill="#67b2c6" d="M190.56 129.027 214.532 121.603V125.797L190.56 132.654z"/><path fill="#446d8e" d="M214.532 121.603 238.845 131.521V135.261L214.532 125.797z"/><path fill="#7a3e52" d="M190.56 132.654 214.532 125.797 238.845 135.261 237.314 136.659V135.865L213.512 126.958 192.997 132.861V133.655z"/><path fill="#87536c" d="M206.371 194.243h-6.857v-9.047l6.857-.46V194.243zM199.514 181.826l6.857-.4v-9.501l-6.857.841V181.826zM199.514 169.408l6.857-.8v-9.495l-6.857 1.222V169.408zM199.514 156.991l6.857-1.2v-9.489l-6.857 1.603V156.991zM199.514 135.474v9.101l6.857-1.6v-9.484L199.514 135.474z"/><linearGradient id="SVGID_5_" gradientUnits="userSpaceOnUse" x1="203.2236" y1="132.8994" x2="203.2236" y2="196.3091"><stop offset="0" style="stop-color:#22beb1"/><stop offset=".0367" style="stop-color:#40c8b6"/><stop offset=".0922" style="stop-color:#67d6bd"/><stop offset=".147" style="stop-color:#86e0c3"/><stop offset=".2002" style="stop-color:#9ce8c7"/><stop offset=".2512" style="stop-color:#aaecc9"/><stop offset=".2976" style="stop-color:#aeeeca"/><stop offset=".3899" style="stop-color:#a5ebc8"/><stop offset=".5383" style="stop-color:#8ee3c4"/><stop offset=".7243" style="stop-color:#67d6bd"/><stop offset=".9385" style="stop-color:#33c4b4"/><stop offset="1" style="stop-color:#22beb1"/></linearGradient><path fill="url(#SVGID_5_)" d="M200.089 194.19v-8.477l6.269-.42v8.896H200.089zM200.089 173.269l6.269-.769v8.89l-6.269.366V173.269zM200.089 160.824l6.269-1.117v8.882l-6.269.73V160.824zM200.089 148.38l6.269-1.465v8.871l-6.269 1.097V148.38zM200.089 135.938l6.269-1.813v8.858l-6.269 1.463V135.938z"/><path fill="#4a2748" d="M220.879 194.384v-9.272l2.627.221v9.026L220.879 194.384zM223.506 181.709v-9.081l-2.627-.4v9.307L223.506 181.709zM227.435 185.661l-2.626-.221v8.905l2.626-.026V185.661zM231.363 185.99l-2.625-.22v8.536l2.625-.025V185.99zM223.506 168.969v-9.136l-2.627-.582v9.341L223.506 168.969zM227.435 181.972v-8.743l-2.626-.401v8.97L227.435 181.972zM228.738 173.428v8.631l2.625.176v-8.406L228.738 173.428zM223.506 156.228v-9.189l-2.627-.763v9.375L223.506 156.228zM224.809 160.122v9.033l2.626.377v-8.828L224.809 160.122zM224.809 147.416v9.099l2.626.577v-8.913L224.809 147.416zM220.879 142.709l2.627.778v-9.245l-2.627-.943V142.709zM224.809 134.711v9.162l2.626.778v-8.997L224.809 134.711zM219.576 158.963l-3.174-.703v9.69l3.174.455V158.963zM219.576 185.002l-3.174-.266v9.69l3.174-.03V185.002zM232.668 182.321l2.663.178v-8.065l-2.663-.406V182.321zM232.668 194.269l2.663-.025v-7.92l-2.663-.224V194.269zM232.668 170.282l2.663.382v-8.211l-2.663-.59V170.282zM232.668 158.242l2.663.586v-8.355l-2.663-.774V158.242zm0-20.708v8.668l2.663.79v-8.501L232.668 137.534zM219.576 172.028l-3.174-.484v9.69l3.174.213V172.028zM228.738 160.992v8.727l2.625.376v-8.521L228.738 160.992zM228.738 136.122v8.916l2.625.778v-8.751L228.738 136.122zM228.738 148.558v8.82l2.625.578v-8.636L228.738 148.558zM219.576 132.831l-3.174-1.141v9.691l3.174.94V132.831zM219.576 145.896l-3.174-.922v9.691l3.174.698V145.896z"/><linearGradient id="SVGID_6_" gradientUnits="userSpaceOnUse" x1="225.5723" y1="134.1084" x2="225.5723" y2="195.163"><stop offset="0" style="stop-color:#0485a5"/><stop offset=".0128" style="stop-color:#0d8ba7"/><stop offset=".0733" style="stop-color:#34a6ae"/><stop offset=".1331" style="stop-color:#53bab4"/><stop offset=".1913" style="stop-color:#69c9b8"/><stop offset=".247" style="stop-color:#77d2ba"/><stop offset=".2976" style="stop-color:#7bd5bb"/><stop offset=".4016" style="stop-color:#72cfb9"/><stop offset=".5686" style="stop-color:#5bbfb5"/><stop offset=".7778" style="stop-color:#34a6ae"/><stop offset="1" style="stop-color:#0485a5"/></linearGradient><path fill="url(#SVGID_6_)" d="M216.402 185.354l2.584.216v8.832l-2.584.024V185.354zM220.879 185.729l2.037.171v8.464l-2.037.02V185.729zM224.809 186.059l2.037.171v8.097l-2.037.02V186.059zM228.738 186.389l2.036.17v7.729l-2.036.021V186.389zM232.668 186.718l2.074.174v7.357l-2.074.021V186.718zm0-4.375v-7.675l2.074.317v7.496L232.668 182.343zM228.738 182.08v-8.012l2.036.311v7.838L228.738 182.08zM224.809 181.818v-8.351l2.037.312v8.175L224.809 181.818zM220.879 181.556v-8.688l2.037.312v8.512L220.879 181.556zM216.402 181.257v-9.072l2.584.395v8.851L216.402 181.257zM232.668 170.324v-7.797l2.074.46v7.634L232.668 170.324zM228.738 169.761v-8.104l2.036.451v7.944L228.738 169.761zM224.809 169.197v-8.411l2.037.452v8.251L224.809 169.197zM220.879 168.634v-8.718l2.037.451v8.559L220.879 168.634zM216.402 167.992v-9.068l2.584.572v8.866L216.402 167.992zM232.668 158.303v-7.914l2.074.603v7.768L232.668 158.303zM228.738 157.438v-8.191l2.036.592v8.048L228.738 157.438zM224.809 156.575v-8.469l2.037.591v8.325L224.809 156.575zM220.879 155.711v-8.746l2.037.592v8.602L220.879 155.711zM216.402 154.727v-9.062l2.584.751v8.879L216.402 154.727zM232.668 146.28v-8.029l2.074.745v7.899L232.668 146.28zM228.738 145.115v-8.276l2.036.731v8.148L228.738 145.115zM224.809 143.951v-8.523l2.037.731v8.396L224.809 143.951zM220.879 142.786v-8.771l2.037.731v8.643L220.879 142.786zM216.402 141.459v-9.052l2.584.928v8.89L216.402 141.459z"/></g><g><linearGradient id="SVGID_7_" gradientUnits="userSpaceOnUse" x1="135.1509" y1="200" x2="135.1509" y2="135.9092"><stop offset="0" style="stop-color:#0094fe"/><stop offset="1" style="stop-color:#001c8c"/></linearGradient><path fill="url(#SVGID_7_)" d="M112.054 135.909V2e2H158.247V141.622z"/><linearGradient id="SVGID_8_" gradientUnits="userSpaceOnUse" x1="100.6479" y1="200" x2="100.6479" y2="135.9092"><stop offset="0" style="stop-color:#00fdfe"/><stop offset=".6985" style="stop-color:#0087ff"/><stop offset="1" style="stop-color:#00f"/></linearGradient><path fill="url(#SVGID_8_)" d="M112.054 135.909 89.242 140.858V2e2H112.054z"/><path fill="#67b2c6" d="M112.054 135.909 88.181 141.026V139.05L112.054 133.389z"/><path fill="#446d8e" d="M112.054 133.389V135.909L159.581 142.067V140.038z"/><path fill="#4a2748" d="M132.712 151.829v7.464l-3.802-.271v-7.541L132.712 151.829zM143.954 143.62l-3.801-.43v7.395l3.801.338V143.62zM138.333 142.984l-3.801-.429v7.529l3.801.338V142.984zM128.911 141.92v7.665l3.802.338v-7.573L128.911 141.92zM149.575 144.255l-3.802-.43v7.26l3.802.339V144.255zM149.575 187.704v-6.984l-3.802-.103v7.02L149.575 187.704zM149.575 178.634v-7.03l-3.802-.185v7.08L149.575 178.634zM149.575 160.494v-7.123l-3.802-.348v7.199L149.575 160.494zM128.911 161.043v7.418l3.802.202v-7.354L128.911 161.043zM149.575 169.564v-7.077l-3.802-.266v7.14L149.575 169.564zM138.333 178.234v-7.175l-3.801-.184v7.223L138.333 178.234zM134.532 151.995v7.428l3.801.271v-7.351L134.532 151.995zM143.954 152.856l-3.801-.347v7.313l3.801.271V152.856zM134.532 161.436v7.325l3.801.203v-7.263L134.532 161.436zM143.954 169.264v-7.17l-3.801-.266v7.232L143.954 169.264zM149.575 196.774v-6.939l-3.802-.02v6.959H149.575zM143.954 178.434v-7.103l-3.801-.184v7.151L143.954 178.434zM128.911 187.337l3.802.067v-7.138l-3.802-.102V187.337zM134.532 187.437l3.801.067v-7.086l-3.801-.103V187.437zM143.954 187.604v-7.036l-3.801-.102v7.069L143.954 187.604zM128.911 170.604v7.295l3.802.136v-7.247L128.911 170.604zM134.532 196.774h3.801v-6.999l-3.801-.02V196.774zM121.47 189.687l-4.541-.023v7.111h4.541V189.687zM151.395 169.661l3.66.195v-6.986l-3.66-.256V169.661zM121.47 179.965l-4.541-.121v7.279l4.541.081V179.965zM151.395 178.699l3.66.13v-6.961l-3.66-.177V178.699zM151.395 187.736l3.66.065v-6.936l-3.66-.098V187.736zM151.395 196.774h3.66v-6.91l-3.66-.02V196.774zM116.93 140.566v7.952l4.541.403v-7.842L116.93 140.566zM121.47 150.801l-4.541-.415v7.784l4.541.323V150.801zM121.47 170.244l-4.541-.22v7.447l4.541.162V170.244zM121.47 160.522l-4.541-.317v7.615l4.541.243V160.522zM123.29 160.649v7.511l3.801.203v-7.448L123.29 160.649zM123.29 180.014v7.223l3.801.067v-7.188L123.29 180.014zM123.29 196.774h3.801v-7.058l-3.801-.021V196.774zM123.29 170.332v7.366l3.801.136v-7.318L123.29 170.332zM128.911 196.774h3.802v-7.028l-3.802-.02V196.774zM123.29 150.968v7.654l3.801.271v-7.577L123.29 150.968zM151.395 151.586l3.66.325v-7.037l-3.66-.414V151.586zM123.29 141.285v7.799l3.801.339v-7.708L123.29 141.285zM151.395 160.623l3.66.261v-7.012l-3.66-.335V160.623zM140.153 196.774h3.801v-6.969l-3.801-.021V196.774z"/><linearGradient id="SVGID_9_" gradientUnits="userSpaceOnUse" x1="135.7031" y1="140.3555" x2="135.7031" y2="197.6001"><stop offset="0" style="stop-color:#0485a5"/><stop offset=".0128" style="stop-color:#0d8ba7"/><stop offset=".0733" style="stop-color:#34a6ae"/><stop offset=".1331" style="stop-color:#53bab4"/><stop offset=".1913" style="stop-color:#69c9b8"/><stop offset=".247" style="stop-color:#77d2ba"/><stop offset=".2976" style="stop-color:#7bd5bb"/><stop offset=".4016" style="stop-color:#72cfb9"/><stop offset=".5686" style="stop-color:#5bbfb5"/><stop offset=".7778" style="stop-color:#34a6ae"/><stop offset="1" style="stop-color:#0485a5"/></linearGradient><path fill="url(#SVGID_9_)" d="M151.395 196.811v-6.35l3.082.016v6.334H151.395zM145.774 196.811v-6.38l3.223.018v6.362H145.774zM140.153 196.811v-6.409l3.223.017v6.393H140.153zM134.532 196.811v-6.438l3.223.017v6.422H134.532zM128.911 196.811v-6.469l3.223.017v6.452H128.911zM123.29 196.811v-6.498l3.223.017v6.481H123.29zM116.93 196.811v-6.532l3.963.021v6.511H116.93zM151.395 187.778v-6.388l3.082.082v6.36L151.395 187.778zM145.774 187.678v-6.438l3.223.087v6.409L145.774 187.678zM140.153 187.577v-6.488l3.223.086v6.46L140.153 187.577zM134.532 187.478v-6.539l3.223.086v6.511L134.532 187.478zM128.911 187.378v-6.591l3.223.086v6.563L128.911 187.378zM123.29 187.277v-6.641l3.223.086v6.612L123.29 187.277zM116.93 187.164v-6.698l3.963.105v6.664L116.93 187.164zM151.395 178.745v-6.426l3.082.149v6.386L151.395 178.745zM145.774 178.545v-6.497l3.223.156v6.456L145.774 178.545zM140.153 178.345v-6.569l3.223.157v6.527L140.153 178.345zM134.532 178.145v-6.641l3.223.156v6.6L134.532 178.145zM128.911 177.944v-6.712l3.223.156v6.671L128.911 177.944zM123.29 177.745v-6.785l3.223.156v6.743L123.29 177.745zM116.93 177.519v-6.865l3.963.191v6.814L116.93 177.519zM151.395 169.712v-6.463l3.082.216v6.412L151.395 169.712zM145.774 169.412v-6.556l3.223.226v6.502L145.774 169.412zM140.153 169.112v-6.648l3.223.225v6.596L140.153 169.112zM134.532 168.812v-6.741l3.223.226v6.688L134.532 168.812zM128.911 168.512v-6.834l3.223.226v6.78L128.911 168.512zM123.29 168.212v-6.927l3.223.225v6.874L123.29 168.212zM116.93 167.872v-7.031l3.963.276v6.967L116.93 167.872zM151.395 160.68v-6.5l3.082.281v6.438L151.395 160.68zM145.774 160.279v-6.614l3.223.295v6.549L145.774 160.279zM140.153 159.879v-6.728l3.223.295v6.662L140.153 159.879zM134.532 159.479v-6.841l3.223.294v6.776L134.532 159.479zM128.911 159.078v-6.955l3.223.295v6.891L128.911 159.078zM123.29 158.678v-7.068l3.223.295v7.004L123.29 158.678zM116.93 158.226v-7.197l3.963.361v7.118L116.93 158.226zM151.395 151.646v-6.537l3.082.348v6.464L151.395 151.646zM145.774 151.146v-6.673l3.223.364v6.595L145.774 151.146zM140.153 150.646v-6.808l3.223.364v6.729L140.153 150.646zM134.532 150.146v-6.942l3.223.364v6.864L134.532 150.146zM128.911 149.646v-7.076l3.223.363v6.999L128.911 149.646zM123.29 149.146v-7.212l3.223.364v7.134L123.29 149.146zM116.93 148.579v-7.364l3.963.448v7.269L116.93 148.579z"/><path fill="#87536c" d="M101.485 151.481v7.541l-2.415.271v-7.464L101.485 151.481zM91.927 150.923l2.415-.338v-7.395l-2.415.43V150.923zM95.499 150.423l2.415-.338v-7.529l-2.415.429V150.423zM99.07 142.35v7.573l2.415-.338v-7.665L99.07 142.35zM99.07 161.309v7.354l2.415-.202v-7.418L99.07 161.309zM97.914 178.099v-7.223l-2.415.184v7.175L97.914 178.099zM95.499 152.343v7.351l2.415-.271v-7.428L95.499 152.343zM91.927 160.094l2.415-.271v-7.313l-2.415.347V160.094zM95.499 161.701v7.263l2.415-.203v-7.325L95.499 161.701zM94.342 169.061v-7.232l-2.415.266v7.17L94.342 169.061zm0 9.238v-7.151l-2.415.184v7.103L94.342 178.299zM101.485 180.165l-2.415.102v7.138l2.415-.067V180.165zM97.914 180.315l-2.415.103v7.086l2.415-.067V180.315zM94.342 187.536v-7.069l-2.415.102v7.036L94.342 187.536zM99.07 170.787v7.247l2.415-.136v-7.295L99.07 170.787zM97.914 189.756l-2.415.02v6.999h2.415V189.756zM106.212 196.774h2.885v-7.111l-2.885.023V196.774zM106.212 187.204l2.885-.081v-7.279l-2.885.121V187.204zM106.212 141.08v7.842l2.885-.403v-7.952L106.212 141.08zM106.212 158.493l2.885-.323v-7.784l-2.885.415V158.493zM106.212 177.634l2.885-.162v-7.447l-2.885.22V177.634zM106.212 168.063l2.885-.243v-7.615l-2.885.317V168.063zM102.641 160.915v7.448l2.415-.203v-7.511L102.641 160.915zM102.641 180.116v7.188l2.415-.067v-7.223L102.641 180.116zM105.056 189.696l-2.415.021v7.058h2.415V189.696zM102.641 170.516v7.318l2.415-.136v-7.366L102.641 170.516zM101.485 189.727l-2.415.02v7.028h2.415V189.727zM102.641 151.315v7.577l2.415-.271v-7.654L102.641 151.315zM102.641 141.715v7.708l2.415-.339v-7.799L102.641 141.715zM94.342 189.785l-2.415.021v6.969h2.415V189.785z"/><linearGradient id="SVGID_10_" gradientUnits="userSpaceOnUse" x1="100.7769" y1="140.2109" x2="100.7769" y2="197.7947"><stop offset="0" style="stop-color:#22beb1"/><stop offset=".0367" style="stop-color:#40c8b6"/><stop offset=".0922" style="stop-color:#67d6bd"/><stop offset=".147" style="stop-color:#86e0c3"/><stop offset=".2002" style="stop-color:#9ce8c7"/><stop offset=".2512" style="stop-color:#aaecc9"/><stop offset=".2976" style="stop-color:#aeeeca"/><stop offset=".3899" style="stop-color:#a5ebc8"/><stop offset=".5383" style="stop-color:#8ee3c4"/><stop offset=".7243" style="stop-color:#67d6bd"/><stop offset=".9385" style="stop-color:#33c4b4"/><stop offset="1" style="stop-color:#22beb1"/></linearGradient><path fill="url(#SVGID_10_)" d="M106.766 196.738v-6.512l2.307-.02v6.531H106.766zM103.195 196.738v-6.482l1.837-.016v6.498H103.195zM99.624 196.738v-6.452l1.837-.016v6.468H99.624zM96.052 196.738v-6.423l1.837-.016v6.438H96.052zM92.481 196.738v-6.394l1.837-.015v6.408H92.481zM92.481 181.099l1.837-.077v6.486l-1.837.052V181.099zM96.052 180.947l1.837-.077v6.538l-1.837.052V180.947zM99.624 180.797l1.837-.077v6.589l-1.837.051V180.797zM103.195 180.646l1.837-.078v6.64l-1.837.052V180.646zM106.766 180.495l2.307-.098v6.697l-2.307.064V180.495zM92.481 171.853l1.837-.141v6.566l-1.837.103V171.853zM96.052 171.58l1.837-.14v6.638l-1.837.103V171.58zM99.624 171.309l1.837-.141v6.71l-1.837.103V171.309zM103.195 171.036l1.837-.14v6.781l-1.837.104V171.036zM106.766 170.766l2.307-.177v6.863l-2.307.129V170.766zM92.481 162.606l1.837-.203v6.645l-1.837.154V162.606zM96.052 162.214l1.837-.203v6.736l-1.837.155V162.214zM99.624 161.82l1.837-.202v6.829l-1.837.154V161.82zM103.195 161.428l1.837-.203v6.923l-1.837.154V161.428zM106.766 161.034l2.307-.254v7.027l-2.307.194V161.034zM92.481 153.36l1.837-.265v6.722l-1.837.205V153.36zM96.052 152.847l1.837-.265v6.835l-1.837.206V152.847zM99.624 152.333l1.837-.266v6.949l-1.837.206V152.333zM103.195 151.818l1.837-.265v7.063l-1.837.206V151.818zM106.766 151.305l2.307-.332v7.191l-2.307.258V151.305zM92.481 144.115l1.837-.327v6.799l-1.837.257V144.115zM96.052 143.479l1.837-.326v6.934l-1.837.257V143.479zM99.624 142.845l1.837-.326v7.068l-1.837.257V142.845zM103.195 142.21l1.837-.327v7.203l-1.837.257V142.21zM106.766 141.575l2.307-.411v7.355l-2.307.323V141.575z"/><path fill="#7a3e52" d="M88.181 141.026 112.054 135.909 159.581 142.067 158.247 142.451 112.054 136.814 89.28 141.319z"/></g><g><path fill="#67b2c6" d="M351.182 115.832 353.988 90.087V114.555z"/><path fill="#446d8e" d="M353.988 90.087 356.273 115.598 353.988 114.555z"/><linearGradient id="SVGID_11_" gradientUnits="userSpaceOnUse" x1="349.9463" y1="131.1514" x2="349.9463" y2="113.0322"><stop offset="0" style="stop-color:#00fdfe"/><stop offset=".3586" style="stop-color:#0087ff"/><stop offset=".8079" style="stop-color:#00f"/></linearGradient><path fill="url(#SVGID_11_)" d="M345.904 131.151V117.514L353.988 113.032V127.555z"/><linearGradient id="SVGID_12_" gradientUnits="userSpaceOnUse" x1="358.0303" y1="131.1514" x2="358.0303" y2="113.0322"><stop offset="0" style="stop-color:#0094fe"/><stop offset=".3547" style="stop-color:#001c8c"/></linearGradient><path fill="url(#SVGID_12_)" d="M362.072 131.151V117.514L353.988 113.032V127.555z"/><linearGradient id="SVGID_13_" gradientUnits="userSpaceOnUse" x1="359.8809" y1="200" x2="359.8809" y2="127.5547"><stop offset="0" style="stop-color:#0094fe"/><stop offset=".3941" style="stop-color:#001c8c"/></linearGradient><path fill="url(#SVGID_13_)" d="M353.988 127.555V2e2H365.773V132.659z"/><linearGradient id="SVGID_14_" gradientUnits="userSpaceOnUse" x1="347.6807" y1="200" x2="347.6807" y2="127.5547"><stop offset="0" style="stop-color:#00fdfe"/><stop offset=".7084" style="stop-color:#0087ff"/><stop offset="1" style="stop-color:#00f"/></linearGradient><path fill="url(#SVGID_14_)" d="M353.988 127.555 341.373 133.198V2e2H353.988z"/><path fill="#67b2c6" d="M353.988 127.555 340.92 133.37V131.625L353.988 125.25z"/><path fill="#446d8e" d="M353.988 125.25V127.555L366.344 133.068v-1.75z"/><path fill="#4a2748" d="M362.371 134.01l2.301.866v6.505l-2.301-.799V134.01zM358.627 132.602v6.682l2.574.894v-6.606L358.627 132.602zM361.201 166.405v-6.543l-2.574-.543v6.7L361.201 166.405zM358.627 141.508v6.688l2.574.724v-6.585L358.627 141.508zM362.371 149.249l2.301.646v-6.447l-2.301-.738V149.249zM358.627 150.414v6.693l2.574.555v-6.564L358.627 150.414zM357.457 141.132l-2.367-.76v6.828l2.367.666V141.132zM362.371 157.915l2.301.496v-6.391l-2.301-.611V157.915zM357.457 150.103l-2.367-.629v6.871l2.367.51V150.103zM355.09 131.271v6.785l2.367.821v-6.716L355.09 131.271zM357.457 159.073l-2.367-.499v6.915l2.367.354V159.073zM362.371 166.581l2.301.345v-6.332l-2.301-.485V166.581zM358.627 192.946v-6.699l2.574.093v6.543L358.627 192.946zM358.627 168.435v6.688l2.574.274v-6.585L358.627 168.435zM362.371 175.521l2.301.246v-6.447l-2.301-.338V175.521zM358.627 177.341v6.693l2.574.105v-6.564L358.627 177.341zM357.457 168.263l-2.367-.347v6.828l2.367.253V168.263zM362.371 184.188l2.301.094v-6.39l-2.301-.21v6.506zM357.457 177.233l-2.367-.216v6.871l2.367.098V177.233zM357.457 186.204l-2.367-.085v6.914l2.367-.058V186.204zM362.371 192.854l2.301-.057v-6.333l-2.301-.083V192.854z"/><linearGradient id="SVGID_15_" gradientUnits="userSpaceOnUse" x1="359.5586" y1="132.0693" x2="359.5586" y2="194.4486"><stop offset="0" style="stop-color:#0485a5"/><stop offset=".0128" style="stop-color:#0d8ba7"/><stop offset=".0733" style="stop-color:#34a6ae"/><stop offset=".1331" style="stop-color:#53bab4"/><stop offset=".1913" style="stop-color:#69c9b8"/><stop offset=".247" style="stop-color:#77d2ba"/><stop offset=".2976" style="stop-color:#7bd5bb"/><stop offset=".4016" style="stop-color:#72cfb9"/><stop offset=".5686" style="stop-color:#5bbfb5"/><stop offset=".7778" style="stop-color:#34a6ae"/><stop offset="1" style="stop-color:#0485a5"/></linearGradient><path fill="url(#SVGID_15_)" d="M355.09 186.786l1.721.063v6.144l-1.721.042V186.786zM358.627 186.913l1.93.07v5.917l-1.93.048V186.913zM362.371 187.049l1.656.06v5.707l-1.656.041V187.049zM362.371 184.211v-5.843l1.656.151v5.759L362.371 184.211zM358.627 184.057v-6.03l1.93.176v5.934L358.627 184.057zM355.09 183.911v-6.208l1.721.157v6.122L355.09 183.911zM362.371 175.564v-5.876l1.656.242v5.81L362.371 175.564zM358.627 175.164v-6.024l1.93.283v5.947L358.627 175.164zM355.09 174.787v-6.165l1.721.252v6.097L355.09 174.787zM362.371 166.636v-5.797l1.656.349v5.696L362.371 166.636zM358.627 166.073v-6.023l1.93.406v5.907L358.627 166.073zM355.09 165.543v-6.238l1.721.362v6.135L355.09 165.543zM362.371 157.986v-5.825l1.656.439v5.743L362.371 157.986zM358.627 157.179v-6.014l1.93.513v5.918L358.627 157.179zM355.09 156.416v-6.191l1.721.458v6.104L355.09 156.416zM362.371 149.337v-5.853l1.656.531v5.786L362.371 149.337zM358.627 148.283v-6.001l1.93.619v5.925L358.627 148.283zM355.09 147.288v-6.142l1.721.553v6.073L355.09 147.288zM362.371 140.686v-5.877l1.656.623v5.827L362.371 140.686zM358.627 139.386V133.4l1.93.726v5.93L358.627 139.386zM355.09 138.158v-6.089l1.721.646v6.039L355.09 138.158z"/><path fill="#87536c" d="M345.082 140.916l-2.299.941v-6.506l2.299-1.008V140.916zM346.254 133.831v6.606l2.574-1.054v-6.682L346.254 133.831zM348.828 166.12v-6.699l-2.574.702v6.543L348.828 166.12zM346.254 142.595v6.586l2.574-.885v-6.688L346.254 142.595zM345.082 143.043l-2.299.882v6.447l2.299-.79V143.043zM346.254 151.358v6.564l2.574-.715v-6.693L346.254 151.358zM349.998 147.895l2.365-.813v-6.828l-2.365.907V147.895zM345.082 151.742l-2.299.755v6.391l2.299-.64v-6.506zM349.998 156.883l2.365-.657v-6.871l-2.365.776V156.883zM349.998 132.189v6.716l2.365-.969v-6.785L349.998 132.189zM349.998 165.872l2.365-.502v-6.914l-2.365.646V165.872zM345.082 160.442l-2.299.627v6.333l2.299-.488V160.442zM346.24 192.948v-6.543l2.566-.221v6.7L346.24 192.948zM346.24 168.877v6.585l2.566-.401v-6.688L346.24 168.877zM345.074 169.106l-2.291.45v6.447l2.291-.359V169.106zM346.24 177.641v6.564l2.566-.232v-6.694L346.24 177.641zM349.973 174.877l2.357-.369v-6.828l-2.357.464V174.877zM345.074 177.806l-2.291.323v6.391l2.291-.208v-6.506zM349.973 183.866l2.357-.214v-6.871l-2.357.333V183.866zM349.973 192.855l2.357-.059v-6.915l-2.357.203V192.855zM345.074 186.505l-2.291.197v6.332l2.291-.057V186.505z"/><linearGradient id="SVGID_16_" gradientUnits="userSpaceOnUse" x1="347.8955" y1="131.9746" x2="347.8955" y2="194.1738"><stop offset="0" style="stop-color:#22beb1"/><stop offset=".0367" style="stop-color:#40c8b6"/><stop offset=".0922" style="stop-color:#67d6bd"/><stop offset=".147" style="stop-color:#86e0c3"/><stop offset=".2002" style="stop-color:#9ce8c7"/><stop offset=".2512" style="stop-color:#aaecc9"/><stop offset=".2976" style="stop-color:#aeeeca"/><stop offset=".3899" style="stop-color:#a5ebc8"/><stop offset=".5383" style="stop-color:#8ee3c4"/><stop offset=".7243" style="stop-color:#67d6bd"/><stop offset=".9385" style="stop-color:#33c4b4"/><stop offset="1" style="stop-color:#22beb1"/></linearGradient><path fill="url(#SVGID_16_)" d="M343.428 187.328l1.646-.143v5.807l-1.646.041V187.328zM346.887 187.03l1.92-.165v6.034l-1.92.048V187.03zM350.617 186.71l1.715-.146v6.248l-1.715.042V186.71zM343.428 178.739l1.646-.232v5.839l-1.646.15V178.739zM346.887 178.251l1.92-.271v6.027l-1.92.175V178.251zM350.617 177.724l1.715-.242v6.205l-1.715.155V177.724zM343.428 170.151l1.646-.323v5.87l-1.646.259V170.151zM346.887 169.472l1.92-.378v6.02l-1.92.302V169.472zM350.617 168.737l1.715-.336v6.159l-1.715.27V168.737zM343.428 161.646l1.654-.451v5.788l-1.654.352V161.646zM346.898 160.699l1.93-.526v6.016l-1.93.409V160.699zM350.643 159.678l1.721-.47v6.23l-1.721.365v-6.125zM343.428 153.061l1.654-.543v5.814l-1.654.461V153.061zM346.898 151.922l1.93-.633v6.004l-1.93.535V151.922zM350.643 150.693l1.721-.564v6.182l-1.721.479V150.693zM343.428 144.477l1.654-.635v5.84l-1.654.567V144.477zM346.898 143.146l1.93-.739v5.988l-1.93.662V143.146zM350.643 141.712l1.721-.66v6.128l-1.721.592V141.712zM343.428 135.893l1.654-.726v5.862l-1.654.677V135.893zM346.898 134.371l1.93-.846v5.972l-1.93.789V134.371zM350.643 132.729l1.721-.755v6.075l-1.721.704V132.729z"/><linearGradient id="SVGID_17_" gradientUnits="userSpaceOnUse" x1="347.877" y1="131.959" x2="347.877" y2="194.1581"><stop offset="0" style="stop-color:#22beb1"/><stop offset=".0367" style="stop-color:#40c8b6"/><stop offset=".0922" style="stop-color:#67d6bd"/><stop offset=".147" style="stop-color:#86e0c3"/><stop offset=".2002" style="stop-color:#9ce8c7"/><stop offset=".2512" style="stop-color:#aaecc9"/><stop offset=".2976" style="stop-color:#aeeeca"/><stop offset=".3899" style="stop-color:#a5ebc8"/><stop offset=".5383" style="stop-color:#8ee3c4"/><stop offset=".7243" style="stop-color:#67d6bd"/><stop offset=".9385" style="stop-color:#33c4b4"/><stop offset="1" style="stop-color:#22beb1"/></linearGradient><path fill="url(#SVGID_17_)" d="M343.408 187.312l1.648-.142v5.807l-1.648.041V187.312zM346.867 187.015l1.92-.165v6.034l-1.92.048V187.015zM350.598 186.694l1.715-.147v6.249l-1.715.042V186.694zM343.408 178.724l1.648-.233v5.84l-1.648.149v-5.756zM346.867 178.234l1.92-.271v6.028l-1.92.175V178.234zM350.598 177.708l1.715-.242v6.205l-1.715.155V177.708zM343.408 170.136l1.648-.323v5.87l-1.648.259V170.136zM346.867 169.455l1.92-.377v6.02l-1.92.302V169.455zM350.598 168.722l1.715-.337v6.16l-1.715.27V168.722zM343.408 161.629l1.656-.451v5.789l-1.656.352V161.629zM346.879 160.683l1.93-.525v6.016l-1.93.409V160.683zM350.623 159.661l1.723-.469v6.23l-1.723.365V159.661zM343.408 153.044l1.656-.542v5.814l-1.656.46V153.044zM346.879 151.906l1.93-.633v6.004l-1.93.535V151.906zM350.623 150.678l1.723-.564v6.181l-1.723.479V150.678zM343.408 144.46l1.656-.634v5.839l-1.656.568V144.46zM346.879 143.131l1.93-.739v5.987l-1.93.663V143.131zM350.623 141.696l1.723-.66v6.128l-1.723.592V141.696zM343.408 135.877l1.656-.726v5.862l-1.656.677V135.877zM346.879 134.355l1.93-.846v5.972l-1.93.789V134.355zM350.623 132.714l1.723-.755v6.075l-1.723.704V132.714z"/><path fill="#67b2c6" d="M353.988 112.415V114.14L345.082 119.248V117.624z"/><path fill="#446d8e" d="M353.988 112.415V114.14L362.895 119.248V117.624z"/><path fill="#7a3e52" d="M345.904 119.696 345.082 119.248 353.988 114.14 362.895 119.248 362.072 119.696 353.988 115.171z"/><path fill="#7a3e52" d="M341.373 133.835 340.92 133.37 353.988 127.555 366.344 133.068 365.773 133.37 353.988 128.307z"/></g></g></g></svg>