<?xml version="1.0" encoding="utf-8"?>
<!-- Generator: Adobe Illustrator 16.0.3, SVG Export Plug-In . SVG Version: 6.00 Build 0)  -->
<!DOCTYPE svg PUBLIC "-//W3C//DTD SVG 1.1//EN" "http://www.w3.org/Graphics/SVG/1.1/DTD/svg11.dtd">
<svg version="1.1" id="layer_1" xmlns="http://www.w3.org/2000/svg" xmlns:xlink="http://www.w3.org/1999/xlink" x="0px" y="0px"
	 width="400px" height="200px" viewBox="0 0 400 200" enable-background="new 0 0 400 200" xml:space="preserve">
<g>
	<defs>
		<rect id="SVGID_1_" width="400" height="200"/>
	</defs>
	<clipPath id="SVGID_2_">
		<use xlink:href="#SVGID_1_"  overflow="visible"/>
	</clipPath>
	<g opacity="0.6" clip-path="url(#SVGID_2_)">
		<path fill="#4F86A1" d="M108.769-26.608L108.769-26.608L108.769-26.608l3.716,2.396v2.71c0.288-1.813,0.775-3.577,1.578-5.611
			l7.52-2.354c1.048,2.242,1.737,4.443,2.181,6.75v-11.303l5.575-1.119l4.641,1.199v6.687l3.477-1.324l5.853,1.021v17.052h-5.853
			h-2.16v0.1h-5.957h-4.909c0,0.005,0,0.01,0,0.014h-2.847h-2.337h-0.242h-6.825c-0.001-0.035-0.002-0.068-0.002-0.104h-3.407
			h-5.913V-23.19C103.782-24.417,106.14-26.199,108.769-26.608z"/>
		<polygon fill="#4F86A1" points="101.13,-30.561 101.13,-10.392 98.474,-10.392 94.003,-10.392 94.003,-30.925 98.474,-32.155 		
			"/>
		<polygon fill="#4F86A1" points="92.559,-28.511 92.559,-10.392 90.172,-10.392 86.155,-10.392 86.155,-28.838 90.172,-29.943 		
			"/>
		<polygon fill="#4F86A1" points="149.204,-23.138 149.204,-10.392 142.417,-10.392 138.385,-10.392 138.385,-22.868 
			142.417,-24.046 		"/>
		<polygon fill="#4F86A1" points="151.955,-24.94 151.955,-10.392 148.247,-10.392 145.479,-10.392 145.479,-24.146 
			148.935,-29.113 		"/>
		<path fill="#4F86A1" d="M154.793-22.343L154.793-22.343L154.793-22.343l2.718,1.753c0.321-1.303,0.762-2.572,1.364-3.86
			l5.541,1.735c1.59,4.03,1.503,6.626,1.389,12.323h-5.029h-0.179h-1.722h-2.099c-0.001-0.025-0.001-0.05-0.002-0.076h-1.981h-4.358
			v-9.355C151.117-20.728,152.855-22.041,154.793-22.343z"/>
		<path fill="#4F86A1" d="M48.878-26.76l3.396,2.418v2.735c0.264-1.829,0.709-3.61,1.443-5.664l6.874-2.376
			c0.958,2.263,1.588,4.484,1.993,6.813v-11.409l5.097-1.13l4.243,1.211v15.83l-4.243-0.252l5.446,0.323v7.854h-5.446h-4.487
			c0,0.005,0,0.009,0,0.014h-2.603h-2.137h-0.222h-6.239c-0.001-0.035-0.001-0.069-0.002-0.104h-3.114h-5.406v-12.814
			C44.319-24.548,46.475-26.347,48.878-26.76z"/>
		<polygon fill="#4F86A1" points="39.611,-27.603 39.611,-10.392 34.261,-10.392 31.082,-10.392 31.082,-27.297 34.261,-28.635 		
			"/>
		<polygon fill="#4F86A1" points="41.895,-30.749 41.895,-10.392 39.467,-10.392 35.379,-10.392 35.379,-31.117 39.467,-32.359 		
			"/>
		<polygon fill="#4F86A1" points="34.059,-28.68 34.059,-10.392 31.877,-10.392 28.205,-10.392 28.205,-29.011 31.877,-30.126 		"/>
		<polygon fill="#4F86A1" points="84.411,-23.138 84.411,-10.392 77.623,-10.392 73.591,-10.392 73.591,-22.868 77.623,-24.046 		
			"/>
		<polygon fill="#4F86A1" points="26.191,-22.984 26.191,-10.392 22.506,-10.392 16.301,-10.392 16.301,-23.257 22.506,-24.174 		
			"/>
		<polygon fill="#4F86A1" points="46.191,-25.076 46.191,-10.392 42.802,-10.392 40.271,-10.392 40.271,-24.274 43.431,-29.289 		
			"/>
		<polygon fill="#4F86A1" points="10.652,-23.271 13.771,-20.4 13.771,-10.392 9.941,-10.392 7.083,-10.392 7.083,-19.854 		"/>
	</g>
	<g opacity="0.6" clip-path="url(#SVGID_2_)">
		<path fill="#4F86A1" d="M107.323-23.608L107.323-23.608L107.323-23.608l3.716,2.396v2.71c0.288-1.813,0.775-3.577,1.578-5.611
			l7.519-2.354c1.048,2.242,1.737,4.443,2.181,6.75v-11.303l5.576-1.119l4.641,1.199v6.687l3.477-1.324l5.853,1.021v17.052h-5.853
			h-2.16v0.1h-5.957h-4.909c0,0.005,0,0.01,0,0.014h-2.847h-2.337h-0.242h-6.825c0-0.035-0.001-0.068-0.002-0.104h-3.407h-5.914
			V-20.19C102.336-21.417,104.694-23.199,107.323-23.608z"/>
		<polygon fill="#4F86A1" points="99.684,-27.561 99.684,-7.392 97.028,-7.392 92.557,-7.392 92.557,-27.925 97.028,-29.155 		"/>
		<polygon fill="#4F86A1" points="91.112,-25.511 91.112,-7.392 88.726,-7.392 84.709,-7.392 84.709,-25.838 88.726,-26.943 		"/>
		<polygon fill="#4F86A1" points="147.758,-20.138 147.758,-7.392 140.971,-7.392 136.938,-7.392 136.938,-19.868 140.971,-21.046 
					"/>
		<polygon fill="#4F86A1" points="150.509,-21.94 150.509,-7.392 146.801,-7.392 144.034,-7.392 144.034,-21.146 147.489,-26.113 		
			"/>
		<path fill="#4F86A1" d="M153.347-19.343L153.347-19.343L153.347-19.343l2.718,1.753c0.321-1.303,0.761-2.572,1.364-3.86
			l5.541,1.735c1.59,4.03,1.503,6.626,1.39,12.323h-5.03h-0.178h-1.722h-2.099c0-0.025-0.001-0.05-0.001-0.076h-1.982h-4.358v-9.355
			C149.671-17.728,151.409-19.041,153.347-19.343z"/>
		<path fill="#4F86A1" d="M47.432-23.76l3.396,2.418v2.735c0.263-1.829,0.709-3.61,1.443-5.664l6.874-2.376
			c0.958,2.263,1.588,4.484,1.994,6.813v-11.409l5.097-1.13l4.242,1.211v15.83l-4.242-0.252l5.445,0.323v7.854h-5.445h-4.488
			c0,0.005,0,0.009,0,0.014h-2.603h-2.137h-0.221h-6.239c-0.001-0.035-0.001-0.069-0.002-0.104h-3.114h-5.406v-12.814
			C42.874-21.548,45.029-23.347,47.432-23.76z"/>
		<polygon fill="#4F86A1" points="38.165,-24.603 38.165,-7.392 32.815,-7.392 29.637,-7.392 29.637,-24.297 32.815,-25.635 		"/>
		<polygon fill="#4F86A1" points="40.449,-27.749 40.449,-7.392 38.021,-7.392 33.933,-7.392 33.933,-28.117 38.021,-29.359 		"/>
		<polygon fill="#4F86A1" points="32.612,-25.68 32.612,-7.392 30.431,-7.392 26.759,-7.392 26.759,-26.011 30.431,-27.126 		"/>
		<polygon fill="#4F86A1" points="82.965,-20.138 82.965,-7.392 76.177,-7.392 72.145,-7.392 72.145,-19.868 76.177,-21.046 		"/>
		<polygon fill="#4F86A1" points="24.746,-19.984 24.746,-7.392 21.06,-7.392 14.854,-7.392 14.854,-20.257 21.06,-21.174 		"/>
		<polygon fill="#4F86A1" points="44.746,-22.076 44.746,-7.392 41.355,-7.392 38.826,-7.392 38.826,-21.274 41.984,-26.289 		"/>
		<polygon fill="#4F86A1" points="9.206,-20.271 12.326,-17.4 12.326,-7.392 8.495,-7.392 5.637,-7.392 5.637,-16.854 		"/>
	</g>
	<g clip-path="url(#SVGID_2_)">
		<g>
			<g>
				<rect x="224.945" y="13.761" fill="#4F7DAB" width="0.377" height="13.688"/>
				<rect x="229.527" y="7.011" fill="#4F7DAB" width="0.396" height="20.438"/>
				<polygon fill="#4F7DAB" points="222.75,26.886 222.75,33.308 227.749,31.906 227.749,24.461 				"/>
				<polygon fill="#2A4C82" points="227.749,24.461 233.541,29.461 233.541,33.776 227.749,31.906 				"/>
			</g>
			<linearGradient id="SVGID_3_" gradientUnits="userSpaceOnUse" x1="225.9043" y1="61.2764" x2="225.9043" y2="26.6665">
				<stop  offset="0" style="stop-color:#FFFF34"/>
				<stop  offset="0.1082" style="stop-color:#FFDA49"/>
				<stop  offset="0.2683" style="stop-color:#FFA964"/>
				<stop  offset="0.4274" style="stop-color:#FF807A"/>
				<stop  offset="0.5823" style="stop-color:#FF618C"/>
				<stop  offset="0.7318" style="stop-color:#FF4A98"/>
				<stop  offset="0.8738" style="stop-color:#FF3D9F"/>
				<stop  offset="1" style="stop-color:#FF38A2"/>
			</linearGradient>
			<polygon fill="url(#SVGID_3_)" points="215.809,61.276 215.809,35.181 236,26.667 236,54.092 			"/>
			<linearGradient id="SVGID_4_" gradientUnits="userSpaceOnUse" x1="237.1152" y1="54.8613" x2="249.045" y2="34.1983">
				<stop  offset="0" style="stop-color:#D900C7"/>
				<stop  offset="0.1631" style="stop-color:#AD00B3"/>
				<stop  offset="0.34" style="stop-color:#8500A1"/>
				<stop  offset="0.5142" style="stop-color:#660093"/>
				<stop  offset="0.6824" style="stop-color:#4F0089"/>
				<stop  offset="0.8421" style="stop-color:#420083"/>
				<stop  offset="0.9841" style="stop-color:#3D0081"/>
			</linearGradient>
			<polygon fill="url(#SVGID_4_)" points="236,26.667 250.16,39.483 250.16,62.393 236,54.092 			"/>
			<path fill="#862F60" d="M222.057,37.31v21.744l-3.646,1.297V38.788L222.057,37.31z M228.705,34.566v22.203l3.645-1.289V33.097
				L228.705,34.566z M223.553,36.474V58.55l3.646-1.281V35.013L223.553,36.474z"/>
			<linearGradient id="SVGID_5_" gradientUnits="userSpaceOnUse" x1="216.8428" y1="170.7344" x2="228.5727" y2="7.8943">
				<stop  offset="0" style="stop-color:#22BEB1"/>
				<stop  offset="0.0367" style="stop-color:#40C8B6"/>
				<stop  offset="0.0922" style="stop-color:#67D6BD"/>
				<stop  offset="0.147" style="stop-color:#86E0C3"/>
				<stop  offset="0.2002" style="stop-color:#9CE8C7"/>
				<stop  offset="0.2512" style="stop-color:#AAECC9"/>
				<stop  offset="0.2976" style="stop-color:#AEEECA"/>
				<stop  offset="0.3899" style="stop-color:#A5EBC8"/>
				<stop  offset="0.5383" style="stop-color:#8EE3C4"/>
				<stop  offset="0.7243" style="stop-color:#67D6BD"/>
				<stop  offset="0.9385" style="stop-color:#33C4B4"/>
				<stop  offset="1" style="stop-color:#22BEB1"/>
			</linearGradient>
			<path fill="url(#SVGID_5_)" d="M219.11,39.246l2.946-1.195v20.978l-2.946,1.048V39.246z M224.252,36.932l2.947-1.181v21.492
				l-2.947,1.036V36.932z M229.403,35.024l2.946-1.188v21.619l-2.946,1.042V35.024z"/>
			<path fill="#4A2748" d="M248.121,41.698v22.096l-2.526-2.139V39.373L248.121,41.698z M238.46,32.771v22.938l2.526,2.13V35.086
				L238.46,32.771z M242.03,35.878v22.807l2.526,2.123V38.184L242.03,35.878z"/>
			<linearGradient id="SVGID_6_" gradientUnits="userSpaceOnUse" x1="242.9414" y1="178.8262" x2="242.9414" y2="20.4028">
				<stop  offset="0" style="stop-color:#0485A5"/>
				<stop  offset="0.0128" style="stop-color:#0D8BA7"/>
				<stop  offset="0.0733" style="stop-color:#34A6AE"/>
				<stop  offset="0.1331" style="stop-color:#53BAB4"/>
				<stop  offset="0.1913" style="stop-color:#69C9B8"/>
				<stop  offset="0.247" style="stop-color:#77D2BA"/>
				<stop  offset="0.2976" style="stop-color:#7BD5BB"/>
				<stop  offset="0.4016" style="stop-color:#72CFB9"/>
				<stop  offset="0.5686" style="stop-color:#5BBFB5"/>
				<stop  offset="0.7778" style="stop-color:#34A6AE"/>
				<stop  offset="1" style="stop-color:#0485A5"/>
			</linearGradient>
			<path fill="url(#SVGID_6_)" d="M245.595,61.493V40.169l1.828,1.682V63.04L245.595,61.493z M242.031,58.522V36.67l1.827,1.668
				v21.719L242.031,58.522z M238.46,55.546v-21.98l1.828,1.674v21.847L238.46,55.546z"/>
			<linearGradient id="SVGID_7_" gradientUnits="userSpaceOnUse" x1="221.3906" y1="200" x2="221.3906" y2="54.0923">
				<stop  offset="0" style="stop-color:#FFFF34"/>
				<stop  offset="0.1082" style="stop-color:#FFDA49"/>
				<stop  offset="0.2683" style="stop-color:#FFA964"/>
				<stop  offset="0.4274" style="stop-color:#FF807A"/>
				<stop  offset="0.5823" style="stop-color:#FF618C"/>
				<stop  offset="0.7318" style="stop-color:#FF4A98"/>
				<stop  offset="0.8738" style="stop-color:#FF3D9F"/>
				<stop  offset="1" style="stop-color:#FF38A2"/>
			</linearGradient>
			<polygon fill="url(#SVGID_7_)" points="206.782,64.488 236,54.092 236,200 206.782,200 			"/>
			<linearGradient id="SVGID_8_" gradientUnits="userSpaceOnUse" x1="246.3965" y1="200" x2="246.3965" y2="54.0923">
				<stop  offset="0.658" style="stop-color:#D900C7"/>
				<stop  offset="0.7121" style="stop-color:#AD00B3"/>
				<stop  offset="0.7707" style="stop-color:#8500A1"/>
				<stop  offset="0.8284" style="stop-color:#660093"/>
				<stop  offset="0.8841" style="stop-color:#4F0089"/>
				<stop  offset="0.9371" style="stop-color:#420083"/>
				<stop  offset="0.9841" style="stop-color:#3D0081"/>
			</linearGradient>
			<polygon fill="url(#SVGID_8_)" points="236,54.092 256.793,66.281 256.793,200 236,200 			"/>
			<path fill="#862F60" d="M209.64,69.014l3.864-1.21V199.91h-3.864V69.014z M215.958,199.91h3.864V65.799l-3.864,1.21V199.91z
				 M222.276,199.91h3.864V63.793l-3.864,1.21V199.91z M228.596,199.91h3.864V61.788l-3.864,1.21V199.91z"/>
			<linearGradient id="SVGID_9_" gradientUnits="userSpaceOnUse" x1="218.5566" y1="174.2373" x2="231.3445" y2="-3.2897">
				<stop  offset="0" style="stop-color:#22BEB1"/>
				<stop  offset="0.0367" style="stop-color:#40C8B6"/>
				<stop  offset="0.0922" style="stop-color:#67D6BD"/>
				<stop  offset="0.147" style="stop-color:#86E0C3"/>
				<stop  offset="0.2002" style="stop-color:#9CE8C7"/>
				<stop  offset="0.2512" style="stop-color:#AAECC9"/>
				<stop  offset="0.2976" style="stop-color:#AEEECA"/>
				<stop  offset="0.3899" style="stop-color:#A5EBC8"/>
				<stop  offset="0.5383" style="stop-color:#8EE3C4"/>
				<stop  offset="0.7243" style="stop-color:#67D6BD"/>
				<stop  offset="0.9385" style="stop-color:#33C4B4"/>
				<stop  offset="1" style="stop-color:#22BEB1"/>
			</linearGradient>
			<path fill="url(#SVGID_9_)" d="M229.294,199.91V63.604l3.166-0.991V199.91H229.294z M222.976,199.91V65.61l3.165-0.991V199.91
				H222.976z M216.656,199.91V67.615l3.166-0.991V199.91H216.656z M210.338,199.91V69.621l3.166-0.991v131.28H210.338z"/>
			<g>
				<polygon fill="#4A2748" points="254.238,70.28 251.615,68.734 251.615,199.91 254.238,199.91 				"/>
				<polygon fill="#4A2748" points="249.95,68.028 247.327,66.583 247.327,199.91 249.95,199.91 				"/>
				<polygon fill="#4A2748" points="245.662,65.788 243.039,64.23 243.039,199.91 245.662,199.91 				"/>
				<polygon fill="#4A2748" points="241.373,63.435 238.75,61.788 238.75,199.91 241.373,199.91 				"/>
			</g>
			<linearGradient id="SVGID_10_" gradientUnits="userSpaceOnUse" x1="246.1445" y1="185.0117" x2="246.1445" y2="10.688">
				<stop  offset="0" style="stop-color:#0485A5"/>
				<stop  offset="0.0128" style="stop-color:#0D8BA7"/>
				<stop  offset="0.0733" style="stop-color:#34A6AE"/>
				<stop  offset="0.1331" style="stop-color:#53BAB4"/>
				<stop  offset="0.1913" style="stop-color:#69C9B8"/>
				<stop  offset="0.247" style="stop-color:#77D2BA"/>
				<stop  offset="0.2976" style="stop-color:#7BD5BB"/>
				<stop  offset="0.4016" style="stop-color:#72CFB9"/>
				<stop  offset="0.5686" style="stop-color:#5BBFB5"/>
				<stop  offset="0.7778" style="stop-color:#34A6AE"/>
				<stop  offset="1" style="stop-color:#0485A5"/>
			</linearGradient>
			<path fill="url(#SVGID_10_)" d="M251.615,199.91V69.696l1.924,1.134V199.91H251.615z M249.251,199.91V68.584l-1.924-1.06V199.91
				H249.251z M244.963,199.91V66.337l-1.924-1.143V199.91H244.963z M240.674,199.91V63.978l-1.924-1.208v137.14H240.674z"/>
		</g>
		<g>
			<g>
				<rect x="298.904" y="27.792" fill="#4F7DAB" width="0.377" height="13.81"/>
				<rect x="303.488" y="24.929" fill="#4F7DAB" width="0.395" height="16.673"/>
				<polygon fill="#4F7DAB" points="296.709,41.363 296.709,46.933 301.709,46.933 301.709,39.711 				"/>
				<polygon fill="#2A4C82" points="301.709,39.711 307.502,43.322 307.502,46.933 301.709,46.933 				"/>
			</g>
			<linearGradient id="SVGID_11_" gradientUnits="userSpaceOnUse" x1="277.8613" y1="97.4448" x2="307.5273" y2="97.4448">
				<stop  offset="0" style="stop-color:#22BEB1"/>
				<stop  offset="0.0367" style="stop-color:#40C8B6"/>
				<stop  offset="0.0922" style="stop-color:#67D6BD"/>
				<stop  offset="0.147" style="stop-color:#86E0C3"/>
				<stop  offset="0.2002" style="stop-color:#9CE8C7"/>
				<stop  offset="0.2512" style="stop-color:#AAECC9"/>
				<stop  offset="0.2976" style="stop-color:#AEEECA"/>
				<stop  offset="0.3899" style="stop-color:#A5EBC8"/>
				<stop  offset="0.5383" style="stop-color:#8EE3C4"/>
				<stop  offset="0.7243" style="stop-color:#67D6BD"/>
				<stop  offset="0.9385" style="stop-color:#33C4B4"/>
				<stop  offset="1" style="stop-color:#22BEB1"/>
			</linearGradient>
			<polygon fill="url(#SVGID_11_)" points="277.861,51.646 307.527,43.222 307.527,151.668 277.861,151.668 			"/>
			<g>
				<linearGradient id="SVGID_12_" gradientUnits="userSpaceOnUse" x1="276.4277" y1="151.668" x2="276.4277" y2="49.9214">
					<stop  offset="0" style="stop-color:#FBCB34"/>
					<stop  offset="0.5049" style="stop-color:#FF3C94"/>
					<stop  offset="1" style="stop-color:#9A00FF"/>
				</linearGradient>
				<polygon fill="url(#SVGID_12_)" points="277.861,49.921 274.994,50.84 274.994,151.668 277.861,151.668 				"/>
				<linearGradient id="SVGID_13_" gradientUnits="userSpaceOnUse" x1="281.8506" y1="151.668" x2="281.8506" y2="48.3828">
					<stop  offset="0" style="stop-color:#FBCB34"/>
					<stop  offset="0.5049" style="stop-color:#FF3C94"/>
					<stop  offset="1" style="stop-color:#9A00FF"/>
				</linearGradient>
				<polygon fill="url(#SVGID_13_)" points="283.285,48.382 280.416,49.301 280.416,151.668 283.285,151.668 				"/>
				<linearGradient id="SVGID_14_" gradientUnits="userSpaceOnUse" x1="287.2725" y1="151.668" x2="287.2725" y2="46.8442">
					<stop  offset="0" style="stop-color:#FBCB34"/>
					<stop  offset="0.5049" style="stop-color:#FF3C94"/>
					<stop  offset="1" style="stop-color:#9A00FF"/>
				</linearGradient>
				<polygon fill="url(#SVGID_14_)" points="288.707,46.844 285.838,47.763 285.838,151.668 288.707,151.668 				"/>
				<linearGradient id="SVGID_15_" gradientUnits="userSpaceOnUse" x1="292.6953" y1="151.668" x2="292.6953" y2="45.3057">
					<stop  offset="0" style="stop-color:#FBCB34"/>
					<stop  offset="0.5049" style="stop-color:#FF3C94"/>
					<stop  offset="1" style="stop-color:#9A00FF"/>
				</linearGradient>
				<polygon fill="url(#SVGID_15_)" points="294.129,45.305 291.262,46.224 291.262,151.668 294.129,151.668 				"/>
				<linearGradient id="SVGID_16_" gradientUnits="userSpaceOnUse" x1="298.1172" y1="151.668" x2="298.1172" y2="43.7671">
					<stop  offset="0" style="stop-color:#FBCB34"/>
					<stop  offset="0.5049" style="stop-color:#FF3C94"/>
					<stop  offset="1" style="stop-color:#9A00FF"/>
				</linearGradient>
				<polygon fill="url(#SVGID_16_)" points="299.551,43.767 296.684,44.686 296.684,151.668 299.551,151.668 				"/>
				<linearGradient id="SVGID_17_" gradientUnits="userSpaceOnUse" x1="303.5391" y1="151.668" x2="303.5391" y2="42.229">
					<stop  offset="0" style="stop-color:#FBCB34"/>
					<stop  offset="0.5049" style="stop-color:#FF3C94"/>
					<stop  offset="1" style="stop-color:#9A00FF"/>
				</linearGradient>
				<polygon fill="url(#SVGID_17_)" points="304.973,42.229 302.105,43.147 302.105,151.668 304.973,151.668 				"/>
				<linearGradient id="SVGID_18_" gradientUnits="userSpaceOnUse" x1="308.9619" y1="151.668" x2="308.9619" y2="40.6899">
					<stop  offset="0" style="stop-color:#FBCB34"/>
					<stop  offset="0.5049" style="stop-color:#FF3C94"/>
					<stop  offset="1" style="stop-color:#9A00FF"/>
				</linearGradient>
				<polygon fill="url(#SVGID_18_)" points="310.396,40.689 307.527,41.608 307.527,151.668 310.396,151.668 				"/>
			</g>
			<linearGradient id="SVGID_19_" gradientUnits="userSpaceOnUse" x1="315.8408" y1="151.668" x2="315.8408" y2="40.6899">
				<stop  offset="0" style="stop-color:#D900C7"/>
				<stop  offset="0.1486" style="stop-color:#B300B6"/>
				<stop  offset="0.3374" style="stop-color:#8900A3"/>
				<stop  offset="0.5215" style="stop-color:#680094"/>
				<stop  offset="0.6971" style="stop-color:#50008A"/>
				<stop  offset="0.8606" style="stop-color:#420083"/>
				<stop  offset="1" style="stop-color:#3D0081"/>
			</linearGradient>
			<polygon fill="url(#SVGID_19_)" points="310.396,40.689 310.396,151.668 321.285,151.668 321.285,48.599 			"/>
			<linearGradient id="SVGID_20_" gradientUnits="userSpaceOnUse" x1="307.5273" y1="46.9468" x2="277.8613" y2="46.9468">
				<stop  offset="0" style="stop-color:#D900C7"/>
				<stop  offset="0.0037" style="stop-color:#B300B6"/>
				<stop  offset="0.0083" style="stop-color:#8900A3"/>
				<stop  offset="0.0128" style="stop-color:#680094"/>
				<stop  offset="0.0172" style="stop-color:#50008A"/>
				<stop  offset="0.0212" style="stop-color:#420083"/>
				<stop  offset="0.0246" style="stop-color:#3D0081"/>
			</linearGradient>
			<path fill="url(#SVGID_20_)" d="M277.861,49.921l2.494,1.018l-2.494,0.708V49.921z M283.279,50.108l2.51-0.713l-2.51-1.009
				V50.108z M288.697,48.569l2.527-0.718l-2.527-1V48.569z M294.115,47.031l2.543-0.723l-2.543-0.992V47.031z M299.533,45.492
				l2.561-0.727l-2.561-0.983V45.492z M304.951,43.954l2.576-0.732l-2.576-0.975V43.954z"/>
			<linearGradient id="SVGID_21_" gradientUnits="userSpaceOnUse" x1="291.6631" y1="151.668" x2="291.6631" y2="43.8076">
				<stop  offset="0" style="stop-color:#D900C7"/>
				<stop  offset="0.1486" style="stop-color:#B300B6"/>
				<stop  offset="0.3374" style="stop-color:#8900A3"/>
				<stop  offset="0.5215" style="stop-color:#680094"/>
				<stop  offset="0.6971" style="stop-color:#50008A"/>
				<stop  offset="0.8606" style="stop-color:#420083"/>
				<stop  offset="1" style="stop-color:#3D0081"/>
			</linearGradient>
			<path fill="url(#SVGID_21_)" d="M278.342,51.51v100.158h-0.48V51.646L278.342,51.51z M283.279,50.108v101.56h0.488V49.969
				L283.279,50.108z M288.697,48.569v103.099h0.494V48.429L288.697,48.569z M294.115,47.031v104.637h0.502V46.888L294.115,47.031z
				 M299.533,45.492v106.176h0.508V45.348L299.533,45.492z M304.951,43.954v107.714h0.514V43.807L304.951,43.954z"/>
		</g>
	</g>
</g>
</svg>
