<svg id="layer_1" xmlns="http://www.w3.org/2000/svg" xmlns:xlink="http://www.w3.org/1999/xlink" width="400" height="200" viewBox="0 0 400 200" enable-background="new 0 0 400 200"><g><defs><path id="SVGID_1_" d="M0 0h4e2v2e2H0z"/></defs><clipPath id="SVGID_2_"><use xlink:href="#SVGID_1_" overflow="visible"/></clipPath><g opacity=".6" clip-path="url(#SVGID_2_)"><path fill="#4f86a1" d="M108.769-26.608v0 0l3.716 2.396v2.71c.288-1.813.775-3.577 1.578-5.611l7.52-2.354c1.048 2.242 1.737 4.443 2.181 6.75v-11.303l5.575-1.119 4.641 1.199v6.687l3.477-1.324 5.853 1.021v17.052h-5.853-2.16v.1h-5.957-4.909c0 .005.0.01.0.014h-2.847-2.337-.242-6.825c-.001-.035-.002-.068-.002-.104h-3.407-5.913V-23.19C103.782-24.417 106.14-26.199 108.769-26.608z"/><path fill="#4f86a1" d="M101.13-30.561v20.169H98.474 94.003V-30.925L98.474-32.155z"/><path fill="#4f86a1" d="M92.559-28.511v18.119H90.172 86.155V-28.838L90.172-29.943z"/><path fill="#4f86a1" d="M149.204-23.138V-10.392H142.417 138.385V-22.868L142.417-24.046z"/><path fill="#4f86a1" d="M151.955-24.94V-10.392H148.247 145.479V-24.146L148.935-29.113z"/><path fill="#4f86a1" d="M154.793-22.343v0 0l2.718 1.753c.321-1.303.762-2.572 1.364-3.86l5.541 1.735c1.59 4.03 1.503 6.626 1.389 12.323h-5.029-.179-1.722-2.099c-.001-.025-.001-.05-.002-.076h-1.981-4.358v-9.355C151.117-20.728 152.855-22.041 154.793-22.343z"/><path fill="#4f86a1" d="M48.878-26.76l3.396 2.418v2.735c.264-1.829.709-3.61 1.443-5.664l6.874-2.376c.958 2.263 1.588 4.484 1.993 6.813v-11.409l5.097-1.13 4.243 1.211v15.83l-4.243-.252 5.446.323v7.854h-5.446-4.487c0 .005.0.009.0.014h-2.603-2.137-.222-6.239c-.001-.035-.001-.069-.002-.104h-3.114-5.406v-12.814C44.319-24.548 46.475-26.347 48.878-26.76z"/><path fill="#4f86a1" d="M39.611-27.603V-10.392H34.261 31.082V-27.297L34.261-28.635z"/><path fill="#4f86a1" d="M41.895-30.749v20.357H39.467 35.379V-31.117L39.467-32.359z"/><path fill="#4f86a1" d="M34.059-28.68v18.288H31.877 28.205V-29.011L31.877-30.126z"/><path fill="#4f86a1" d="M84.411-23.138V-10.392H77.623 73.591V-22.868L77.623-24.046z"/><path fill="#4f86a1" d="M26.191-22.984V-10.392H22.506 16.301V-23.257L22.506-24.174z"/><path fill="#4f86a1" d="M46.191-25.076V-10.392H42.802 40.271V-24.274L43.431-29.289z"/><path fill="#4f86a1" d="M10.652-23.271 13.771-20.4v10.008H9.941 7.083v-9.462z"/></g><g opacity=".6" clip-path="url(#SVGID_2_)"><path fill="#4f86a1" d="M107.323-23.608v0 0l3.716 2.396v2.71c.288-1.813.775-3.577 1.578-5.611l7.519-2.354c1.048 2.242 1.737 4.443 2.181 6.75V-31.02l5.576-1.119 4.641 1.199v6.687l3.477-1.324 5.853 1.021v17.052h-5.853-2.16v.1h-5.957-4.909c0 .005.0.01.0.014h-2.847-2.337-.242-6.825c0-.035-.001-.068-.002-.104h-3.407-5.914V-20.19C102.336-21.417 104.694-23.199 107.323-23.608z"/><path fill="#4f86a1" d="M99.684-27.561V-7.392H97.028 92.557V-27.925L97.028-29.155z"/><path fill="#4f86a1" d="M91.112-25.511V-7.392H88.726 84.709V-25.838L88.726-26.943z"/><path fill="#4f86a1" d="M147.758-20.138V-7.392H140.971 136.938V-19.868L140.971-21.046z"/><path fill="#4f86a1" d="M150.509-21.94V-7.392H146.801 144.034V-21.146L147.489-26.113z"/><path fill="#4f86a1" d="M153.347-19.343v0 0l2.718 1.753c.321-1.303.761-2.572 1.364-3.86l5.541 1.735c1.59 4.03 1.503 6.626 1.39 12.323h-5.03-.178-1.722-2.099c0-.025-.001-.05-.001-.076h-1.982-4.358v-9.355C149.671-17.728 151.409-19.041 153.347-19.343z"/><path fill="#4f86a1" d="M47.432-23.76l3.396 2.418v2.735c.263-1.829.709-3.61 1.443-5.664l6.874-2.376c.958 2.263 1.588 4.484 1.994 6.813v-11.409l5.097-1.13 4.242 1.211v15.83l-4.242-.252 5.445.323v7.854h-5.445-4.488c0 .005.0.009.0.014h-2.603-2.137-.221-6.239c-.001-.035-.001-.069-.002-.104h-3.114-5.406v-12.814C42.874-21.548 45.029-23.347 47.432-23.76z"/><path fill="#4f86a1" d="M38.165-24.603V-7.392H32.815 29.637V-24.297L32.815-25.635z"/><path fill="#4f86a1" d="M40.449-27.749V-7.392H38.021 33.933V-28.117L38.021-29.359z"/><path fill="#4f86a1" d="M32.612-25.68V-7.392H30.431 26.759V-26.011L30.431-27.126z"/><path fill="#4f86a1" d="M82.965-20.138V-7.392H76.177 72.145V-19.868L76.177-21.046z"/><path fill="#4f86a1" d="M24.746-19.984V-7.392H21.06 14.854V-20.257L21.06-21.174z"/><path fill="#4f86a1" d="M44.746-22.076V-7.392H41.355 38.826V-21.274L41.984-26.289z"/><path fill="#4f86a1" d="M9.206-20.271 12.326-17.4V-7.392H8.495 5.637v-9.462z"/></g><g clip-path="url(#SVGID_2_)"><g><path fill="#4f7dab" d="M156.777 85.771h.377v13.688H156.777z"/><path fill="#4f7dab" d="M161.36 79.021h.396v20.438H161.36z"/><path fill="#4f7dab" d="M154.583 98.896V103.917H159.582V95z"/><path fill="#2a4c82" d="M159.582 95 165.374 99.458V103.917H159.582z"/></g><g><linearGradient id="SVGID_3_" gradientUnits="userSpaceOnUse" x1="390.9629" y1="167.5264" x2="390.9629" y2="159.6914"><stop offset="0" style="stop-color:#5f40e5"/><stop offset="1" style="stop-color:#3d0077"/></linearGradient><path fill="url(#SVGID_3_)" d="M385.258 159.691V165.357L396.668 167.526V162.904z"/><linearGradient id="SVGID_4_" gradientUnits="userSpaceOnUse" x1="379.1514" y1="167.5264" x2="379.1514" y2="159.6914"><stop offset="0" style="stop-color:#c300ff"/><stop offset="1" style="stop-color:#001c8c"/></linearGradient><path fill="url(#SVGID_4_)" d="M385.258 159.691 373.045 163.243V167.526L385.258 165.357z"/><path fill="#67b2c6" d="M385.258 159.691 372.605 163.352V161.155L385.258 157.143z"/><path fill="#446d8e" d="M385.258 157.143V159.691L397.219 163.161V160.962z"/><linearGradient id="SVGID_5_" gradientUnits="userSpaceOnUse" x1="392.3301" y1="200" x2="392.3301" y2="164.7041"><stop offset="0" style="stop-color:#5f40e5"/><stop offset="1" style="stop-color:#3d0077"/></linearGradient><path fill="url(#SVGID_5_)" d="M385.336 164.704V2e2h13.988V168.246z"/><linearGradient id="SVGID_6_" gradientUnits="userSpaceOnUse" x1="377.8496" y1="200" x2="377.8496" y2="164.7041"><stop offset="0" style="stop-color:#c300ff"/><stop offset="1" style="stop-color:#001c8c"/></linearGradient><path fill="url(#SVGID_6_)" d="M385.336 164.704 370.363 168.619V2e2H385.336z"/><path fill="#67b2c6" d="M385.336 164.704 369.826 168.738V166.318L385.336 161.895z"/><path fill="#446d8e" d="M385.336 161.895V164.704L4e2 168.529V166.104z"/><linearGradient id="SVGID_7_" gradientUnits="userSpaceOnUse" x1="392.3301" y1="192.5283" x2="392.3301" y2="200"><stop offset="0" style="stop-color:#5f40e5"/><stop offset="1" style="stop-color:#3d0077"/></linearGradient><path fill="url(#SVGID_7_)" d="M399.324 193.694 385.336 192.528V2e2h13.988z"/><path fill="#862f60" d="M389.795 2e2h-2.844v-5.001c0-1.322 2.844-.936 2.844.387V2e2zM393.932 195.707c0-1.238-2.844-1.625-2.844-.387V2e2h2.844V195.707zM398.068 195.994c0-1.162-2.844-1.549-2.844-.387V2e2h2.844v-4.006z"/><path fill="#e3dc6b" d="M370.363 193.993 385.336 192.528V2e2H370.363z"/><path fill="#87536c" d="M374.768 173.974l-2.73.652v-4.513l2.73-.699V173.974zM376.156 169.059v4.583l3.055-.731v-4.635L376.156 169.059zM379.211 191.459v-4.648l-3.055.487v4.54L379.211 191.459zM376.156 175.138v4.569l3.055-.613v-4.64L376.156 175.138zM374.768 175.449l-2.73.611v4.473l2.73-.548V175.449zM376.156 181.218v4.555l3.055-.496v-4.644L376.156 181.218zM380.6 178.814l2.809-.563v-4.737l-2.809.629V178.814zM374.768 181.484l-2.73.523v4.433l2.73-.442V181.484zM380.6 185.051l2.809-.456v-4.767l-2.809.538V185.051zM380.6 167.919v4.659l2.809-.672v-4.707L380.6 167.919zM380.6 191.287l2.809-.349v-4.797l-2.809.448V191.287zM374.768 187.52l-2.73.436v4.394l2.73-.339V187.52z"/><linearGradient id="SVGID_8_" gradientUnits="userSpaceOnUse" x1="377.9561" y1="168.4863" x2="377.9561" y2="192.4163"><stop offset="0" style="stop-color:#22beb1"/><stop offset=".0367" style="stop-color:#40c8b6"/><stop offset=".0922" style="stop-color:#67d6bd"/><stop offset=".147" style="stop-color:#86e0c3"/><stop offset=".2002" style="stop-color:#9ce8c7"/><stop offset=".2512" style="stop-color:#aaecc9"/><stop offset=".2976" style="stop-color:#aeeeca"/><stop offset=".3899" style="stop-color:#a5ebc8"/><stop offset=".5383" style="stop-color:#8ee3c4"/><stop offset=".7243" style="stop-color:#67d6bd"/><stop offset=".9385" style="stop-color:#33c4b4"/><stop offset="1" style="stop-color:#22beb1"/></linearGradient><path fill="url(#SVGID_8_)" d="M372.504 188.351l2.264-.361v4.012l-2.264.28V188.351zM376.621 187.693l2.59-.412v4.168l-2.59.321V187.693zM381.066 186.985l2.342-.374v4.318l-2.342.29V186.985zM372.504 182.396l2.264-.434v4.033l-2.264.367V182.396zM376.621 181.607l2.59-.496v4.163l-2.59.421V181.607zM381.066 180.756l2.342-.449v4.286l-2.342.381V180.756zM372.504 176.444l2.264-.508v4.055l-2.264.454V176.444zM376.621 175.521l2.59-.58v4.157l-2.59.521V175.521zM381.066 174.526l2.342-.524v4.255l-2.342.47V174.526zM372.504 170.491l2.264-.58v4.075l-2.264.541V170.491zM376.621 169.436l2.59-.663v4.151l-2.59.618V169.436zM381.066 168.297l2.342-.601v4.223l-2.342.561V168.297z"/><path fill="#4a2748" d="M395.285 169.307l2.73.601v4.513l-2.73-.554V169.307zM390.842 168.329v4.636l3.055.619v-4.583L390.842 168.329zM393.896 191.78v-4.539l-3.055-.376v4.647L393.896 191.78zM390.842 174.508v4.64l3.055.503v-4.569L390.842 174.508zM395.285 179.878l2.73.449v-4.473l-2.73-.513V179.878zM390.842 180.687v4.644l3.055.385v-4.554L390.842 180.687zM389.453 174.247l-2.809-.527v4.737l2.809.462V174.247zM395.285 185.891l2.73.344v-4.433l-2.73-.425V185.891zM389.453 180.471l-2.809-.437v4.767l2.809.354V180.471zM386.645 167.406v4.707l2.809.569v-4.659L386.645 167.406zM389.453 186.694l-2.809-.347v4.797l2.809.246V186.694zM395.285 191.902l2.73.239v-4.394l-2.73-.336V191.902z"/><linearGradient id="SVGID_9_" gradientUnits="userSpaceOnUse" x1="392.0967" y1="167.9199" x2="392.0967" y2="192.7882"><stop offset="0" style="stop-color:#0485a5"/><stop offset=".0128" style="stop-color:#0d8ba7"/><stop offset=".0733" style="stop-color:#34a6ae"/><stop offset=".1331" style="stop-color:#53bab4"/><stop offset=".1913" style="stop-color:#69c9b8"/><stop offset=".247" style="stop-color:#77d2ba"/><stop offset=".2976" style="stop-color:#7bd5bb"/><stop offset=".4016" style="stop-color:#72cfb9"/><stop offset=".5686" style="stop-color:#5bbfb5"/><stop offset=".7778" style="stop-color:#34a6ae"/><stop offset="1" style="stop-color:#0485a5"/></linearGradient><path fill="url(#SVGID_9_)" d="M395.285 191.886v-4.013l2.264.278v3.934L395.285 191.886zM390.842 191.496v-4.17l2.59.318v4.079L390.842 191.496zM386.645 191.128v-4.319l2.342.289v4.236L386.645 191.128zM395.285 185.882v-4.035l2.264.352v3.969L395.285 185.882zM390.842 185.322v-4.166l2.59.401v4.091L390.842 185.322zM386.645 184.793v-4.29l2.342.364v4.221L386.645 184.793zM395.285 179.878v-4.058l2.264.425v4.005L395.285 179.878zM390.842 179.146v-4.161l2.59.486v4.101L390.842 179.146zM386.645 178.456v-4.258l2.342.439v4.204L386.645 178.456zM395.285 173.873v-4.079l2.264.498v4.04L395.285 173.873zM390.842 172.972v-4.155l2.59.569v4.11L390.842 172.972zM386.645 172.12v-4.227l2.342.515v4.187L386.645 172.12z"/><g><path fill="#4a2748" d="M396.971 196.186c0-.599-.756-.989-1.488-1.07-.16.114-.258.276-.258.492V2e2h1.746V196.186z"/><path fill="#4a2748" d="M388.695 195.577c0-.661-.711-1.089-1.422-1.186-.195.135-.322.332-.322.607V2e2h1.744V195.577z"/><path fill="#4a2748" d="M392.832 195.898c0-.629-.732-1.036-1.455-1.125-.178.124-.289.303-.289.547V2e2h1.744V195.898z"/></g><path fill="#a48598" d="M380.6 195.386c0-1.322 3.057-1.709 3.057-.387V2e2H380.6V195.386zM376.156 2e2h3.055v-4.68c0-1.238-3.055-.852-3.055.387V2e2zM371.711 2e2h3.057v-4.393c0-1.162-3.057-.775-3.057.387V2e2z"/><g><path fill="#862f60" d="M373.99 194.939c-.744.107-1.473.488-1.473 1.055V2e2h2.25v-4.393C374.768 195.226 374.434 195.014 373.99 194.939z"/><path fill="#862f60" d="M378.414 194.599c-.736.113-1.451.51-1.451 1.108V2e2h2.248v-4.68C379.211 194.907 378.869 194.679 378.414 194.599z"/><path fill="#862f60" d="M382.84 194.218c-.73.119-1.434.534-1.434 1.168V2e2h2.25v-5.001C383.656 194.552 383.303 194.304 382.84 194.218z"/></g><path fill="#7a3e52" d="M372.605 163.352 385.258 159.691 397.219 163.161 396.668 163.609 385.336 160.4 373.045 163.609z"/><path fill="#7a3e52" d="M369.826 168.738 385.336 164.704 4e2 168.529 399.324 168.858 385.336 165.559 370.363 169z"/></g><g><linearGradient id="SVGID_10_" gradientUnits="userSpaceOnUse" x1="158.7485" y1="116.2119" x2="158.7485" y2="98.7451"><stop offset="0" style="stop-color:#c300ff"/><stop offset="1" style="stop-color:#001c8c"/></linearGradient><path fill="url(#SVGID_10_)" d="M170.306 98.745v17.467H147.191V106.533z"/><linearGradient id="SVGID_11_" gradientUnits="userSpaceOnUse" x1="176.0142" y1="116.2119" x2="176.0142" y2="98.7451"><stop offset="0" style="stop-color:#5f40e5"/><stop offset="1" style="stop-color:#3d0077"/></linearGradient><path fill="url(#SVGID_11_)" d="M170.306 98.745 181.722 105.895V116.212H170.306z"/><path fill="#446d8e" d="M170.306 98.745 182.252 106.034V104.381L170.306 96.636z"/><path fill="#67b2c6" d="M170.306 96.636V98.745L146.524 106.905V105.208z"/><linearGradient id="SVGID_12_" gradientUnits="userSpaceOnUse" x1="156.9937" y1="130.627" x2="156.9937" y2="108.8877"><stop offset="0" style="stop-color:#c300ff"/><stop offset="1" style="stop-color:#001c8c"/></linearGradient><path fill="url(#SVGID_12_)" d="M172.148 108.888V130.627H141.839V116.357z"/><linearGradient id="SVGID_13_" gradientUnits="userSpaceOnUse" x1="179.6318" y1="130.627" x2="179.6318" y2="108.8877"><stop offset="0" style="stop-color:#5f40e5"/><stop offset="1" style="stop-color:#3d0077"/></linearGradient><path fill="url(#SVGID_13_)" d="M172.148 108.888 187.116 116.724V130.627H172.148z"/><path fill="#446d8e" d="M172.148 108.888 187.812 116.907V114.74L172.148 106.123z"/><path fill="#67b2c6" d="M172.148 106.123V108.888L140.964 116.846V114.62z"/><path fill="#87536c" d="M144.169 118.112l2.708-.629v6.94L144.169 125V118.112zM148.725 124.18l2.708-.568v-7.239l-2.708.618V124.18zM153.281 123.359l2.708-.561v-7.538l-2.708.606V123.359zM157.836 122.539l2.708-.553v-7.836l-2.708.595V122.539zM162.392 121.719l2.709-.545v-8.135l-2.709.583V121.719zM166.948 120.898l2.708-.537v-8.434l-2.708.572V120.898z"/><linearGradient id="SVGID_14_" gradientUnits="userSpaceOnUse" x1="157.2134" y1="113.334" x2="157.2134" y2="123.0424"><stop offset="0" style="stop-color:#22beb1"/><stop offset=".0367" style="stop-color:#40c8b6"/><stop offset=".0922" style="stop-color:#67d6bd"/><stop offset=".147" style="stop-color:#86e0c3"/><stop offset=".2002" style="stop-color:#9ce8c7"/><stop offset=".2512" style="stop-color:#aaecc9"/><stop offset=".2976" style="stop-color:#aeeeca"/><stop offset=".3899" style="stop-color:#a5ebc8"/><stop offset=".5383" style="stop-color:#8ee3c4"/><stop offset=".7243" style="stop-color:#67d6bd"/><stop offset=".9385" style="stop-color:#33c4b4"/><stop offset="1" style="stop-color:#22beb1"/></linearGradient><path fill="url(#SVGID_14_)" d="M144.771 118.615l2.107-.489v6.317l-2.107.448V118.615zM149.327 117.493l2.106-.48v6.617l-2.106.442V117.493zM153.882 116.372l2.107-.473v6.918l-2.107.436V116.372zM158.438 115.25l2.107-.463v7.217l-2.107.43V115.25zM162.994 114.129l2.107-.454v7.516l-2.107.424V114.129zM167.55 113.007l2.106-.444v7.814l-2.106.418V113.007z"/><path fill="#4a2748" d="M185.906 123.081l-1.591-.624v-5.496l1.591.777V123.081zM183.256 116.403l-1.591-.8v6.023l1.591.613V116.403zM180.607 115.069l-1.591-.823v6.55l1.591.604V115.069zM177.958 113.734l-1.591-.847v7.078l1.591.595V113.734zM175.308 112.399l-1.591-.869v7.604l1.591.585V112.399z"/><linearGradient id="SVGID_15_" gradientUnits="userSpaceOnUse" x1="179.5103" y1="114.4805" x2="179.5103" y2="121.6323"><stop offset="0" style="stop-color:#0485a5"/><stop offset=".0128" style="stop-color:#0d8ba7"/><stop offset=".0733" style="stop-color:#34a6ae"/><stop offset=".1331" style="stop-color:#53bab4"/><stop offset=".1913" style="stop-color:#69c9b8"/><stop offset=".247" style="stop-color:#77d2ba"/><stop offset=".2976" style="stop-color:#7bd5bb"/><stop offset=".4016" style="stop-color:#72cfb9"/><stop offset=".5686" style="stop-color:#5bbfb5"/><stop offset=".7778" style="stop-color:#34a6ae"/><stop offset="1" style="stop-color:#0485a5"/></linearGradient><path fill="url(#SVGID_15_)" d="M184.314 122.459v-4.81l.989.484v4.713L184.314 122.459zM181.666 121.628v-5.33l.989.498v5.213L181.666 121.628zM179.016 120.796v-5.849l.989.512v5.712L179.016 120.796zM176.366 119.964v-6.368l.989.526v6.211L176.366 119.964zM173.717 119.132v-6.888l.989.541v6.71L173.717 119.132z"/><linearGradient id="SVGID_16_" gradientUnits="userSpaceOnUse" x1="154.7935" y1="200" x2="154.7935" y2="123.2529"><stop offset="0" style="stop-color:#c300ff"/><stop offset="1" style="stop-color:#001c8c"/></linearGradient><path fill="url(#SVGID_16_)" d="M174.457 123.253V2e2H135.13V130.094z"/><linearGradient id="SVGID_17_" gradientUnits="userSpaceOnUse" x1="184.1675" y1="200" x2="184.1675" y2="123.2529"><stop offset="0" style="stop-color:#5f40e5"/><stop offset="1" style="stop-color:#3d0077"/></linearGradient><path fill="url(#SVGID_17_)" d="M174.457 123.253 193.878 129.18V2e2H174.457z"/><path fill="#446d8e" d="M174.457 123.253 194.781 129.38V127.014L174.457 120.234z"/><path fill="#67b2c6" d="M174.457 120.234V123.253L133.995 130.627V128.196z"/><path fill="#87536c" d="M160.106 141.9v9.03l-3.236.324v-8.938L160.106 141.9zM147.299 141.231l3.236-.404v-8.855l-3.236.515v8.744zM152.084 140.633l3.236-.405v-9.017l-3.236.515V140.633zM156.87 130.965v9.069l3.236-.405v-9.178L156.87 130.965zM142.513 141.831l3.236-.405v-8.693l-3.236.514V141.831zM145.75 185.195v-8.405l-3.236.122v8.364L145.75 185.195zM145.75 174.253v-8.478l-3.236.22v8.42L145.75 174.253zM145.75 152.368v-8.622l-3.236.417v8.529L145.75 152.368zM156.87 153.668v8.808l3.236-.243v-8.883L156.87 153.668zM145.75 163.311v-8.55l-3.236.318v8.475L145.75 163.311zM155.32 173.773v-8.649l-3.236.221v8.591L155.32 173.773zM152.084 142.932v8.802l3.236-.323v-8.895L152.084 142.932zM147.299 152.213l3.236-.324v-8.758l-3.236.416V152.213zM152.084 154.138v8.697l3.236-.243v-8.771L152.084 154.138zM150.535 162.951v-8.661l-3.236.318v8.586L150.535 162.951zM145.75 196.138v-8.334l-3.236.024v8.31H145.75zM150.535 174.014v-8.564l-3.236.221v8.506L150.535 174.014zM160.106 176.248l-3.236.122v8.547l3.236-.081V176.248zM155.32 176.429l-3.236.122v8.485l3.236-.08V176.429zM150.535 185.075v-8.466l-3.236.122v8.425L150.535 185.075zM156.87 165.019v8.678l3.236-.162V164.8L156.87 165.019zM155.32 187.732l-3.236.024v8.381h3.236V187.732zM166.44 196.138h3.866v-8.517l-3.866.029v8.488zM140.964 155.231l-3.116.307v8.366l3.116-.234V155.231zM166.44 184.677l3.866-.097v-8.717l-3.866.146V184.677zM140.964 166.101l-3.116.212v8.336l3.116-.156V166.101zm0 10.869-3.116.118v8.305l3.116-.077V176.97zM140.964 187.84l-3.116.023v8.274h3.116V187.84zM166.44 129.444v9.392l3.866-.484v-9.521L166.44 129.444zM166.44 150.296l3.866-.387v-9.321l-3.866.497V150.296zM166.44 173.217l3.866-.193v-8.919l-3.866.264V173.217zM166.44 161.757l3.866-.291v-9.119l-3.866.38V161.757zM161.655 153.197v8.919l3.236-.243v-8.994L161.655 153.197zM161.655 176.189v8.607l3.236-.081v-8.648L161.655 176.189zM164.891 187.661l-3.236.024v8.452h3.236V187.661zM161.655 164.693v8.763l3.236-.162v-8.821L161.655 164.693zM160.106 187.697l-3.236.024v8.416h3.236V187.697zM161.655 141.701v9.074l3.236-.324v-9.166L161.655 141.701zM140.964 133.492l-3.116.495v8.428l3.116-.391V133.492zM161.655 130.205v9.229l3.236-.405v-9.339L161.655 130.205zM140.964 144.362l-3.116.4v8.396l3.116-.312V144.362zM150.535 187.769l-3.236.024v8.345h3.236v-8.369z"/><linearGradient id="SVGID_18_" gradientUnits="userSpaceOnUse" x1="154.3784" y1="130.6494" x2="154.3784" y2="198.7441"><stop offset="0" style="stop-color:#22beb1"/><stop offset=".0367" style="stop-color:#40c8b6"/><stop offset=".0922" style="stop-color:#67d6bd"/><stop offset=".147" style="stop-color:#86e0c3"/><stop offset=".2002" style="stop-color:#9ce8c7"/><stop offset=".2512" style="stop-color:#aaecc9"/><stop offset=".2976" style="stop-color:#aeeeca"/><stop offset=".3899" style="stop-color:#a5ebc8"/><stop offset=".5383" style="stop-color:#8ee3c4"/><stop offset=".7243" style="stop-color:#67d6bd"/><stop offset=".9385" style="stop-color:#33c4b4"/><stop offset="1" style="stop-color:#22beb1"/></linearGradient><path fill="url(#SVGID_18_)" d="M167.042 196.11v-7.889l3.264-.023v7.912H167.042zM162.257 196.11v-7.853l2.635-.02v7.872H162.257zM157.472 196.11v-7.817l2.634-.02v7.837H157.472zM152.686 196.11v-7.781l2.635-.02v7.801H152.686zM147.901 196.11v-7.745l2.634-.02v7.765H147.901zM143.115 196.11v-7.71l2.634-.02v7.729H143.115zM138.45 196.11v-7.676l2.514-.019v7.694H138.45zM138.45 177.651l2.514-.095v7.738l-2.514.063V177.651zM143.115 177.475l2.634-.099v7.799l-2.634.066V177.475zM147.901 177.294l2.634-.099v7.86l-2.634.065V177.294zM152.686 177.114l2.635-.1v7.921l-2.635.065V177.114zM157.472 176.934l2.634-.1v7.982l-2.634.064V176.934zM162.257 176.753l2.635-.1v8.043l-2.635.065V176.753zM167.042 176.572l3.264-.123v8.111l-3.264.082V176.572zM138.45 166.867l2.514-.171v7.783l-2.514.126V166.867zM143.115 166.55l2.634-.179v7.869l-2.634.132V166.55zM147.901 166.225l2.634-.18V174l-2.634.132V166.225zM152.686 165.898l2.635-.179v8.041l-2.635.133V165.898zM157.472 165.573l2.634-.179v8.127l-2.634.132V165.573zM162.257 165.248l2.635-.18v8.213l-2.635.132V165.248zM167.042 164.922l3.264-.222v8.31l-3.264.164V164.922zM138.45 156.084l2.514-.247v7.827l-2.514.189V156.084zM143.115 155.625l2.634-.259v7.938l-2.634.198V155.625zM147.901 155.155l2.634-.26v8.05l-2.634.197V155.155zM152.686 154.684l2.635-.258v8.16l-2.635.197V154.684zM157.472 154.214l2.634-.259v8.271l-2.634.197V154.214zM162.257 153.743l2.635-.259v8.383l-2.635.197V153.743zM167.042 153.272l3.264-.32v8.509l-3.264.245V153.272zM138.45 145.301l2.514-.323v7.871l-2.514.251V145.301zM143.115 144.701l2.634-.34v8.008l-2.634.264V144.701zM147.901 144.085l2.634-.339v8.144l-2.634.264V144.085zM152.686 143.47l2.635-.339v8.28l-2.635.264V143.47zM157.472 142.854l2.634-.338v8.416l-2.634.264V142.854zM162.257 142.238l2.635-.338v8.552l-2.635.264V142.238zM167.042 141.623l3.264-.419v8.706l-3.264.326V141.623zM138.45 134.518l2.514-.398v7.913l-2.514.315V134.518zM143.115 133.776l2.634-.418v8.075l-2.634.33V133.776zM147.901 133.016l2.634-.418v8.236l-2.634.331V133.016zM152.686 132.256l2.635-.418v8.397l-2.635.33V132.256zM157.472 131.495l2.634-.418v8.559l-2.634.33V131.495zM162.257 130.734l2.635-.418v8.721l-2.635.33V130.734zM167.042 129.975l3.264-.519v8.903l-3.264.408V129.975z"/><path fill="#4a2748" d="M185.511 142.316v8.938l-2.056-.324v-9.03L185.511 142.316zM191.592 132.486l-2.056-.515v8.855l2.056.404v-8.744zM188.552 131.726l-2.056-.515v9.017l2.056.405V131.726zM183.455 130.451v9.178l2.056.405v-9.069L183.455 130.451zm0 22.899v8.883l2.056.243v-8.808L183.455 153.35zM188.552 173.936v-8.591l-2.056-.221v8.649L188.552 173.936zM186.496 142.516v8.895l2.056.323v-8.802L186.496 142.516zM191.592 143.547l-2.056-.416v8.758l2.056.324V143.547zM186.496 153.82v8.771l2.056.243v-8.697L186.496 153.82zM191.592 163.194v-8.586l-2.056-.318v8.661L191.592 163.194zm0 10.982v-8.506l-2.056-.221v8.564L191.592 174.176zM183.455 184.836l2.056.081v-8.547l-2.056-.122V184.836zM186.496 184.956l2.056.08v-8.485l-2.056-.122V184.956zM191.592 185.156v-8.425l-2.056-.122v8.466L191.592 185.156zm-8.137-20.357v8.735l2.056.162v-8.678L183.455 164.799zM186.496 196.138h2.056v-8.381l-2.056-.024V196.138zM179.43 187.65l-2.456-.029v8.517h2.456V187.65zM179.43 176.009l-2.456-.146v8.717l2.456.097V176.009zM176.974 128.83v9.521l2.456.484v-9.392L176.974 128.83zM179.43 141.085l-2.456-.497v9.321l2.456.387V141.085zM179.43 164.368l-2.456-.264v8.919l2.456.193V164.368zM179.43 152.727l-2.456-.38v9.119l2.456.291V152.727zM180.415 152.879v8.994l2.056.243v-8.919L180.415 152.879zM180.415 176.067v8.648l2.056.081v-8.607L180.415 176.067zM180.415 196.138h2.056v-8.452l-2.056-.024V196.138zM180.415 164.473v8.821l2.056.162v-8.763L180.415 164.473zM183.455 196.138h2.056v-8.416l-2.056-.024V196.138zM180.415 141.285v9.166l2.056.324v-9.074L180.415 141.285zM180.415 129.69v9.339l2.056.405v-9.229L180.415 129.69zM189.536 196.138h2.056v-8.345l-2.056-.024v8.369z"/><linearGradient id="SVGID_19_" gradientUnits="userSpaceOnUse" x1="183.9819" y1="127.2402" x2="183.9819" y2="196.6741"><stop offset="0" style="stop-color:#0485a5"/><stop offset=".0128" style="stop-color:#0d8ba7"/><stop offset=".0733" style="stop-color:#34a6ae"/><stop offset=".1331" style="stop-color:#53bab4"/><stop offset=".1913" style="stop-color:#69c9b8"/><stop offset=".247" style="stop-color:#77d2ba"/><stop offset=".2976" style="stop-color:#7bd5bb"/><stop offset=".4016" style="stop-color:#72cfb9"/><stop offset=".5686" style="stop-color:#5bbfb5"/><stop offset=".7778" style="stop-color:#34a6ae"/><stop offset="1" style="stop-color:#0485a5"/></linearGradient><path fill="url(#SVGID_19_)" d="M189.536 196.112v-7.764l1.454.018v7.746H189.536zM186.496 196.112v-7.799l1.454.017v7.782H186.496zM183.455 196.112v-7.835l1.454.017v7.818H183.455zM180.415 196.112v-7.87l1.455.017v7.854H180.415zM176.974 196.112v-7.911l1.854.022v7.889H176.974zM189.536 185.062v-7.857l1.454.087v7.828L189.536 185.062zM186.496 184.942v-7.919l1.454.086v7.89L186.496 184.942zM183.455 184.822v-7.979l1.454.087v7.95L183.455 184.822zM180.415 184.703v-8.041l1.455.087v8.011L180.415 184.703zM176.974 184.567v-8.109l1.854.11v8.071L176.974 184.567zM189.536 174.012v-7.951l1.454.155v7.909L189.536 174.012zM186.496 173.771v-8.036l1.454.155v7.995L186.496 173.771zM183.455 173.531v-8.121l1.454.154v8.082L183.455 173.531zM180.415 173.292v-8.208l1.455.156v8.166L180.415 173.292zM176.974 173.021v-8.305l1.854.198v8.253L176.974 173.021zM189.536 162.96v-8.043l1.454.226v7.988L189.536 162.96zM186.496 162.6v-8.153l1.454.226v8.101L186.496 162.6zM183.455 162.24v-8.264l1.454.225v8.211L183.455 162.24zM180.415 161.881v-8.375l1.455.226v8.321L180.415 161.881zM176.974 161.475v-8.501l1.854.287v8.433L176.974 161.475zM189.536 151.907v-8.133l1.454.295v8.067L189.536 151.907zM186.496 151.428v-8.269l1.454.295v8.203L186.496 151.428zM183.455 150.949v-8.405l1.454.294v8.341L183.455 150.949zM180.415 150.47v-8.541l1.455.294v8.477L180.415 150.47zM176.974 149.928v-8.695l1.854.375v8.612L176.974 149.928zM189.536 140.854v-8.222l1.454.364v8.145L189.536 140.854zM186.496 140.256v-8.383l1.454.363v8.306L186.496 140.256zM183.455 139.657v-8.545l1.454.364v8.467L183.455 139.657zM180.415 139.058v-8.706l1.455.364v8.628L180.415 139.058zM176.974 138.38v-8.889l1.854.464v8.79L176.974 138.38z"/><path fill="#7a3e52" d="M146.524 106.905 170.306 98.745 182.252 106.034 181.722 106.449 170.306 99.677 147.191 107.201z"/><path fill="#7a3e52" d="M140.964 116.846 172.148 108.888 187.812 116.907 187.116 117.134 172.148 109.734 141.839 117.134z"/><path fill="#7a3e52" d="M133.995 130.627 174.457 123.253 194.781 129.38 193.878 129.824 174.416 124.324 135.13 130.928z"/></g><g><g><path fill="#4f7dab" d="M311.717 87.005h.377v13.688H311.717z"/><path fill="#4f7dab" d="M316.301 80.255h.396v20.438H316.301z"/><path fill="#4f7dab" d="M309.523 100.13V106.553L314.521 105.151V97.706z"/><path fill="#2a4c82" d="M314.521 97.706 320.314 102.706V107.021L314.521 105.151z"/></g><linearGradient id="SVGID_20_" gradientUnits="userSpaceOnUse" x1="317.6133" y1="115.8037" x2="317.6133" y2="98.2515"><stop offset="0" style="stop-color:#c300ff"/><stop offset=".6798" style="stop-color:#061b8f"/><stop offset="1" style="stop-color:#001c8c"/></linearGradient><path fill="url(#SVGID_20_)" d="M329.227 98.251V115.804H306V106.077z"/><linearGradient id="SVGID_21_" gradientUnits="userSpaceOnUse" x1="334.9629" y1="115.8037" x2="334.9629" y2="98.2515"><stop offset="0" style="stop-color:#5f40e5"/><stop offset=".532" style="stop-color:#3d0077"/></linearGradient><path fill="url(#SVGID_21_)" d="M329.227 98.251 340.699 105.436V115.804H329.227z"/><path fill="#446d8e" d="M329.227 98.251 341.232 105.576V103.915L329.227 96.132z"/><path fill="#67b2c6" d="M329.227 96.132V98.251L305.328 106.451V104.745z"/><linearGradient id="SVGID_22_" gradientUnits="userSpaceOnUse" x1="315.8496" y1="130.2891" x2="315.8496" y2="108.4434"><stop offset="0" style="stop-color:#c300ff"/><stop offset="1" style="stop-color:#001c8c"/></linearGradient><path fill="url(#SVGID_22_)" d="M331.078 108.443V130.289H300.621V115.949z"/><linearGradient id="SVGID_23_" gradientUnits="userSpaceOnUse" x1="338.5986" y1="130.2891" x2="338.5986" y2="108.4434"><stop offset="0" style="stop-color:#5f40e5"/><stop offset=".4828" style="stop-color:#3d0077"/></linearGradient><path fill="url(#SVGID_23_)" d="M331.078 108.443 346.119 116.317V130.289H331.078z"/><path fill="#446d8e" d="M331.078 108.443 346.818 116.502V114.324L331.078 105.665z"/><path fill="#67b2c6" d="M331.078 105.665V108.443L299.742 116.44V114.203z"/><path fill="#87536c" d="M302.963 117.713l2.721-.632v6.975l-2.721.578V117.713zM307.541 123.81l2.721-.57v-7.275l-2.721.621V123.81zM312.119 122.985l2.721-.563v-7.575l-2.721.609V122.985zM316.697 122.161l2.721-.556v-7.874l-2.721.598V122.161zM321.275 121.337l2.721-.548v-8.174l-2.721.586V121.337zM325.854 120.512l2.721-.539v-8.475l-2.721.575V120.512z"/><linearGradient id="SVGID_24_" gradientUnits="userSpaceOnUse" x1="316.0703" y1="112.9111" x2="316.0703" y2="122.6672"><stop offset="0" style="stop-color:#22beb1"/><stop offset=".0367" style="stop-color:#40c8b6"/><stop offset=".0922" style="stop-color:#67d6bd"/><stop offset=".147" style="stop-color:#86e0c3"/><stop offset=".2002" style="stop-color:#9ce8c7"/><stop offset=".2512" style="stop-color:#aaecc9"/><stop offset=".2976" style="stop-color:#aeeeca"/><stop offset=".3899" style="stop-color:#a5ebc8"/><stop offset=".5383" style="stop-color:#8ee3c4"/><stop offset=".7243" style="stop-color:#67d6bd"/><stop offset=".9385" style="stop-color:#33c4b4"/><stop offset="1" style="stop-color:#22beb1"/></linearGradient><path fill="url(#SVGID_24_)" d="M303.566 118.218l2.117-.491v6.349l-2.117.45V118.218zM308.145 117.091l2.117-.482v6.649l-2.117.444V117.091zM312.723 115.964l2.117-.475v6.951l-2.117.438V115.964zM317.301 114.837l2.117-.465v7.251l-2.117.432V114.837zM321.879 113.71l2.117-.456v7.553l-2.117.426V113.71zM326.457 112.583l2.117-.447v7.854l-2.117.419V112.583z"/><path fill="#4a2748" d="M344.902 122.705l-1.598-.626v-5.523l1.598.781V122.705zM342.24 115.996l-1.6-.805v6.053l1.6.617V115.996zM339.578 114.654l-1.6-.827v6.583l1.6.606V114.654zM336.916 113.313l-1.6-.851v7.112l1.6.598V113.313zM334.254 111.973l-1.6-.874v7.642l1.6.588V111.973z"/><linearGradient id="SVGID_25_" gradientUnits="userSpaceOnUse" x1="338.4766" y1="114.0645" x2="338.4766" y2="121.2512"><stop offset="0" style="stop-color:#0485a5"/><stop offset=".0128" style="stop-color:#0d8ba7"/><stop offset=".0733" style="stop-color:#34a6ae"/><stop offset=".1331" style="stop-color:#53bab4"/><stop offset=".1913" style="stop-color:#69c9b8"/><stop offset=".247" style="stop-color:#77d2ba"/><stop offset=".2976" style="stop-color:#7bd5bb"/><stop offset=".4016" style="stop-color:#72cfb9"/><stop offset=".5686" style="stop-color:#5bbfb5"/><stop offset=".7778" style="stop-color:#34a6ae"/><stop offset="1" style="stop-color:#0485a5"/></linearGradient><path fill="url(#SVGID_25_)" d="M343.305 122.081v-4.833l.994.486v4.736L343.305 122.081zM340.643 121.245v-5.355l.994.501v5.238L340.643 121.245zM337.979 120.409v-5.877l.994.515v5.739L337.979 120.409zM335.316 119.573v-6.398l.994.528v6.241L335.316 119.573zM332.654 118.737v-6.921l.994.543v6.743L332.654 118.737z"/><linearGradient id="SVGID_26_" gradientUnits="userSpaceOnUse" x1="313.6387" y1="200" x2="313.6387" y2="122.8789"><stop offset="0" style="stop-color:#c300ff"/><stop offset=".7685" style="stop-color:#001c8c"/></linearGradient><path fill="url(#SVGID_26_)" d="M333.398 122.879V2e2H293.879V129.753z"/><linearGradient id="SVGID_27_" gradientUnits="userSpaceOnUse" x1="343.1563" y1="200" x2="343.1563" y2="122.8789"><stop offset="0" style="stop-color:#5f40e5"/><stop offset=".5074" style="stop-color:#3f047e"/><stop offset=".6847" style="stop-color:#3d0077"/></linearGradient><path fill="url(#SVGID_27_)" d="M333.398 122.879 352.914 128.834V2e2H333.398z"/><path fill="#446d8e" d="M333.398 122.879 353.822 129.035v-2.378L333.398 119.846z"/><path fill="#67b2c6" d="M333.398 119.846V122.879L292.738 130.289V127.847z"/><path fill="#87536c" d="M318.977 141.617v9.074l-3.252.325v-8.981L318.977 141.617zM306.107 140.945l3.252-.407v-8.898l-3.252.517V140.945zM310.916 140.343l3.252-.406v-9.061l-3.252.517V140.343zM315.725 130.628v9.113l3.252-.407v-9.223L315.725 130.628zM301.299 141.547l3.252-.407v-8.735l-3.252.517V141.547zM304.551 185.123v-8.446l-3.252.122v8.405L304.551 185.123zM304.551 174.127v-8.519l-3.252.222v8.46L304.551 174.127zM304.551 152.136v-8.663l-3.252.418v8.571L304.551 152.136zM315.725 153.441v8.851l3.252-.244v-8.926L315.725 153.441zM304.551 163.132v-8.592l-3.252.32v8.516L304.551 163.132zM314.168 173.646v-8.691l-3.252.222v8.633L314.168 173.646zM310.916 142.653v8.845l3.252-.325v-8.938L310.916 142.653zM306.107 151.979l3.252-.325v-8.801l-3.252.419V151.979zM310.916 153.914v8.739l3.252-.244v-8.814L310.916 153.914zM309.359 162.771v-8.703l-3.252.319v8.628L309.359 162.771zM304.551 196.119v-8.375l-3.252.024v8.351H304.551zM309.359 173.887v-8.605l-3.252.221v8.547L309.359 173.887zM318.977 176.132l-3.252.123v8.588l3.252-.081V176.132zM314.168 176.313l-3.252.123v8.527l3.252-.082V176.313zM309.359 185.003v-8.508l-3.252.123v8.466L309.359 185.003zM315.725 164.849v8.719l3.252-.162v-8.778L315.725 164.849zM314.168 187.673l-3.252.024v8.422h3.252V187.673zM325.342 196.119h3.885v-8.559l-3.885.029V196.119zM299.742 155.013l-3.131.309v8.406l3.131-.234V155.013zM325.342 184.603l3.885-.098v-8.76l-3.885.146V184.603zM299.742 165.936l-3.131.213v8.376l3.131-.156V165.936zM299.742 176.857l-3.131.118v8.347l3.131-.079V176.857zM299.742 187.78l-3.131.023v8.315h3.131V187.78zM325.342 129.101v9.437l3.885-.486v-9.568L325.342 129.101zM325.342 150.054l3.885-.389v-9.366l-3.885.499V150.054zM325.342 173.086l3.885-.194v-8.962l-3.885.265V173.086zM325.342 161.57l3.885-.292v-9.164l-3.885.382V161.57zM320.533 152.969v8.962l3.252-.244v-9.037L320.533 152.969zM320.533 176.073v8.649l3.252-.081v-8.691L320.533 176.073zM323.785 187.602l-3.252.024v8.493h3.252V187.602zM320.533 164.521v8.806l3.252-.163V164.3L320.533 164.521zM318.977 187.637l-3.252.024v8.458h3.252v-8.482zM320.533 141.416v9.119l3.252-.325v-9.212L320.533 141.416zM299.742 133.168l-3.131.498v8.468l3.131-.392V133.168zM320.533 129.864v9.275l3.252-.407v-9.385L320.533 129.864zM299.742 144.091l-3.131.402v8.438l3.131-.313V144.091zM309.359 187.709l-3.252.023v8.387h3.252V187.709z"/><linearGradient id="SVGID_28_" gradientUnits="userSpaceOnUse" x1="313.2217" y1="130.3115" x2="313.2217" y2="198.7375"><stop offset="0" style="stop-color:#22beb1"/><stop offset=".0367" style="stop-color:#40c8b6"/><stop offset=".0922" style="stop-color:#67d6bd"/><stop offset=".147" style="stop-color:#86e0c3"/><stop offset=".2002" style="stop-color:#9ce8c7"/><stop offset=".2512" style="stop-color:#aaecc9"/><stop offset=".2976" style="stop-color:#aeeeca"/><stop offset=".3899" style="stop-color:#a5ebc8"/><stop offset=".5383" style="stop-color:#8ee3c4"/><stop offset=".7243" style="stop-color:#67d6bd"/><stop offset=".9385" style="stop-color:#33c4b4"/><stop offset="1" style="stop-color:#22beb1"/></linearGradient><path fill="url(#SVGID_28_)" d="M325.947 196.091v-7.927l3.279-.023v7.95H325.947zM321.139 196.091V188.2l2.646-.02v7.91H321.139zM316.33 196.091v-7.854l2.646-.02v7.874H316.33zM311.521 196.091v-7.818l2.646-.02v7.838H311.521zM306.713 196.091v-7.783l2.646-.019v7.802H306.713zM301.904 196.091v-7.747l2.646-.02v7.767H301.904zM297.217 196.091v-7.713l2.525-.018v7.73H297.217zM297.217 177.542l2.525-.095v7.776l-2.525.063v-7.744zM301.904 177.365l2.646-.1v7.837l-2.646.066V177.365zM306.713 177.184l2.646-.1v7.898l-2.646.066V177.184zM311.521 177.002l2.646-.1v7.96l-2.646.065V177.002zM316.33 176.82l2.646-.1v8.021l-2.646.065V176.82zM321.139 176.64l2.646-.1v8.081l-2.646.066V176.64zM325.947 176.458l3.279-.124v8.151l-3.279.082V176.458zM297.217 166.706l2.525-.172v7.821l-2.525.126V166.706zM301.904 166.387l2.646-.18v7.907l-2.646.133V166.387zM306.713 166.06l2.646-.181v7.994l-2.646.133V166.06zM311.521 165.732l2.646-.18v8.08l-2.646.133V165.732zM316.33 165.405l2.646-.18v8.166l-2.646.133v-8.119zM321.139 165.078l2.646-.18v8.253l-2.646.132V165.078zM325.947 164.751l3.279-.223v8.351l-3.279.164V164.751zM297.217 155.869l2.525-.248v7.866l-2.525.189V155.869zM301.904 155.408l2.646-.26v7.977l-2.646.199V155.408zM306.713 154.937l2.646-.261v8.089l-2.646.198V154.937zM311.521 154.463l2.646-.26v8.2l-2.646.199V154.463zM316.33 153.99l2.646-.26v8.312l-2.646.198V153.99zM321.139 153.518l2.646-.26v8.423l-2.646.199V153.518zM325.947 153.045l3.279-.322v8.55l-3.279.246V153.045zM297.217 145.034l2.525-.325v7.91l-2.525.252V145.034zM301.904 144.432l2.646-.341v8.046l-2.646.266V144.432zM306.713 143.813l2.646-.341v8.184l-2.646.265V143.813zM311.521 143.194l2.646-.341v8.32l-2.646.265V143.194zM316.33 142.575l2.646-.34v8.457l-2.646.265V142.575zM321.139 141.957l2.646-.341v8.595l-2.646.265V141.957zM325.947 141.339l3.279-.422v8.749l-3.279.328V141.339zM297.217 134.198l2.525-.4v7.951l-2.525.317V134.198zM301.904 133.454l2.646-.421v8.114l-2.646.332V133.454zM306.713 132.689l2.646-.421v8.277l-2.646.332V132.689zM311.521 131.926l2.646-.421v8.438l-2.646.332V131.926zM316.33 131.161l2.646-.421v8.602l-2.646.331v-8.512zM321.139 130.396l2.646-.42v8.764l-2.646.331V130.396zM325.947 129.633l3.279-.521v8.946l-3.279.411V129.633z"/><path fill="#4a2748" d="M344.506 142.035v8.981l-2.066-.325v-9.074L344.506 142.035zM350.617 132.156l-2.066-.517v8.898l2.066.407V132.156zM347.563 131.393l-2.066-.517v9.061l2.066.406V131.393zM342.439 130.111v9.223l2.066.407v-9.113L342.439 130.111zM342.439 153.122v8.926l2.066.244v-8.851L342.439 153.122zM347.563 173.809v-8.633l-2.066-.222v8.691L347.563 173.809zM345.496 142.235v8.938l2.066.325v-8.845L345.496 142.235zM350.617 143.272l-2.066-.419v8.801l2.066.325V143.272zM345.496 153.595v8.814l2.066.244v-8.739L345.496 153.595zM350.617 163.015v-8.628l-2.066-.319v8.703L350.617 163.015zM350.617 174.049v-8.547l-2.066-.221v8.605L350.617 174.049zM342.439 184.762l2.066.081v-8.588l-2.066-.123V184.762zM345.496 184.882l2.066.082v-8.527l-2.066-.123V184.882zM350.617 185.084v-8.466l-2.066-.123v8.508L350.617 185.084zM342.439 164.627v8.778l2.066.162v-8.719L342.439 164.627zM345.496 196.119h2.066v-8.422l-2.066-.024V196.119zM338.396 187.59l-2.469-.029v8.559h2.469V187.59zM338.396 175.892l-2.469-.146v8.76l2.469.098V175.892zM335.928 128.482v9.568l2.469.486v-9.437L335.928 128.482zM338.396 140.798l-2.469-.499v9.366l2.469.389V140.798zM338.396 164.194l-2.469-.265v8.962l2.469.194V164.194zM338.396 152.496l-2.469-.382v9.164l2.469.292V152.496zM339.385 152.649v9.037l2.066.244v-8.962L339.385 152.649zM339.385 175.95v8.691l2.066.081v-8.649L339.385 175.95zM339.385 196.119h2.066v-8.493l-2.066-.024V196.119zM339.385 164.3v8.864l2.066.163v-8.806L339.385 164.3zM342.439 196.119h2.066v-8.458l-2.066-.024v8.482zM339.385 140.998v9.212l2.066.325v-9.119L339.385 140.998zM339.385 129.348v9.385l2.066.407v-9.275L339.385 129.348zM348.551 196.119h2.066v-8.387l-2.066-.023V196.119z"/><linearGradient id="SVGID_29_" gradientUnits="userSpaceOnUse" x1="342.9697" y1="126.8857" x2="342.9697" y2="196.6585"><stop offset="0" style="stop-color:#0485a5"/><stop offset=".0128" style="stop-color:#0d8ba7"/><stop offset=".0733" style="stop-color:#34a6ae"/><stop offset=".1331" style="stop-color:#53bab4"/><stop offset=".1913" style="stop-color:#69c9b8"/><stop offset=".247" style="stop-color:#77d2ba"/><stop offset=".2976" style="stop-color:#7bd5bb"/><stop offset=".4016" style="stop-color:#72cfb9"/><stop offset=".5686" style="stop-color:#5bbfb5"/><stop offset=".7778" style="stop-color:#34a6ae"/><stop offset="1" style="stop-color:#0485a5"/></linearGradient><path fill="url(#SVGID_29_)" d="M348.551 196.094v-7.802l1.461.018v7.784H348.551zM345.496 196.094v-7.838l1.461.018v7.82H345.496zM342.439 196.094v-7.874l1.463.018v7.856H342.439zM339.385 196.094v-7.909l1.461.018v7.892H339.385zM335.928 196.094v-7.95l1.863.022v7.928H335.928zM348.551 184.989v-7.896l1.461.086v7.867L348.551 184.989zM345.496 184.868v-7.957l1.461.087v7.928L345.496 184.868zM342.439 184.749v-8.019l1.463.086v7.989L342.439 184.749zM339.385 184.628v-8.079l1.461.087v8.05L339.385 184.628zM335.928 184.492v-8.149l1.863.111v8.111L335.928 184.492zM348.551 173.885v-7.989l1.461.156v7.947L348.551 173.885zM345.496 173.644v-8.075l1.461.156v8.034L345.496 173.644zM342.439 173.402v-8.161l1.463.155v8.121L342.439 173.402zM339.385 173.162v-8.248l1.461.156v8.206L339.385 173.162zM335.928 172.89v-8.347l1.863.2v8.293L335.928 172.89zM348.551 162.779v-8.082l1.461.227v8.027L348.551 162.779zM345.496 162.417v-8.192l1.461.227v8.14L345.496 162.417zM342.439 162.057v-8.305l1.463.227v8.25L342.439 162.057zM339.385 161.695v-8.417l1.461.228v8.362L339.385 161.695zM335.928 161.287v-8.543l1.863.288v8.475L335.928 161.287zM348.551 151.673V143.5l1.461.297v8.106L348.551 151.673zM345.496 151.191v-8.31l1.461.297v8.243L345.496 151.191zM342.439 150.71v-8.446l1.463.296v8.381L342.439 150.71zM339.385 150.228v-8.582l1.461.296v8.518L339.385 150.228zM335.928 149.684v-8.738l1.863.377v8.654L335.928 149.684zM348.551 140.566v-8.262l1.461.365v8.185L348.551 140.566zM345.496 139.965v-8.424l1.461.365v8.346L345.496 139.965zM342.439 139.362v-8.586l1.463.365v8.509L342.439 139.362zM339.385 138.761v-8.749l1.461.366v8.671L339.385 138.761zM335.928 138.08v-8.933l1.863.467v8.832L335.928 138.08z"/><path fill="#7a3e52" d="M305.328 106.451 329.227 98.251 341.232 105.576 340.699 105.993 329.227 99.188 306 106.749z"/><path fill="#7a3e52" d="M299.742 116.44 331.078 108.443 346.818 116.502 346.119 116.729 331.078 109.295 300.621 116.729z"/><path fill="#7a3e52" d="M292.738 130.289 333.398 122.879 353.822 129.035 352.914 129.482 333.357 123.955 293.879 130.591z"/></g><g><g><path fill="#4f7dab" d="M265.467 123.745h.378v13.688H265.467z"/><path fill="#4f7dab" d="M270.051 116.995h.396v20.438H270.051z"/><path fill="#4f7dab" d="M263.272 136.87V143.293L268.271 141.891V134.445z"/><path fill="#2a4c82" d="M268.271 134.445 274.064 139.445V143.761L268.271 141.891z"/></g><linearGradient id="SVGID_30_" gradientUnits="userSpaceOnUse" x1="286.3779" y1="151.3086" x2="286.3779" y2="139.5605"><stop offset="0" style="stop-color:#5f40e5"/><stop offset="1" style="stop-color:#3d0077"/></linearGradient><path fill="url(#SVGID_30_)" d="M277.824 139.561V148.057L294.932 151.309V144.378z"/><linearGradient id="SVGID_31_" gradientUnits="userSpaceOnUse" x1="268.668" y1="151.3086" x2="268.668" y2="139.5605"><stop offset="0" style="stop-color:#c300ff"/><stop offset="1" style="stop-color:#001c8c"/></linearGradient><path fill="url(#SVGID_31_)" d="M277.824 139.561 259.512 144.886V151.309L277.824 148.057z"/><path fill="#67b2c6" d="M277.824 139.561 258.854 145.049V141.756L277.824 135.739z"/><path fill="#446d8e" d="M277.824 135.739V139.561L295.758 144.764V141.466z"/><linearGradient id="SVGID_32_" gradientUnits="userSpaceOnUse" x1="288.4277" y1="200" x2="288.4277" y2="147.0771"><stop offset="0" style="stop-color:#5f40e5"/><stop offset="1" style="stop-color:#3d0077"/></linearGradient><path fill="url(#SVGID_32_)" d="M277.941 147.077V2e2H298.914V152.387z"/><linearGradient id="SVGID_33_" gradientUnits="userSpaceOnUse" x1="266.7168" y1="200" x2="266.7168" y2="147.0771"><stop offset=".2069" style="stop-color:#c300ff"/><stop offset="1" style="stop-color:#001c8c"/></linearGradient><path fill="url(#SVGID_33_)" d="M277.941 147.077 255.491 152.947V2e2H277.941z"/><path fill="#67b2c6" d="M277.941 147.077 254.685 153.127V149.497L277.941 142.864z"/><path fill="#446d8e" d="M277.941 142.864V147.077L299.928 152.813V149.177z"/><linearGradient id="SVGID_34_" gradientUnits="userSpaceOnUse" x1="288.4277" y1="188.7969" x2="288.4277" y2="200"><stop offset="0" style="stop-color:#5f40e5"/><stop offset="1" style="stop-color:#3d0077"/></linearGradient><path fill="url(#SVGID_34_)" d="M298.914 190.545 277.941 188.797V2e2H298.914z"/><path fill="#862f60" d="M284.627 2e2h-4.266v-7.498c0-1.983 4.266-1.404 4.266.58V2e2zM290.828 193.563c0-1.856-4.264-2.436-4.264-.579V2e2h4.264V193.563zM297.031 193.993c0-1.742-4.264-2.321-4.264-.579V2e2h4.264V193.993z"/><linearGradient id="SVGID_35_" gradientUnits="userSpaceOnUse" x1="266.7168" y1="188.7969" x2="266.7168" y2="200"><stop offset=".1182" style="stop-color:#c300ff"/><stop offset="1" style="stop-color:#001c8c"/></linearGradient><path fill="url(#SVGID_35_)" d="M255.491 190.993 277.941 188.797V2e2H255.491z"/><path fill="#87536c" d="M262.094 160.976 258 161.954v-6.767l4.094-1.049V160.976zM264.176 153.605v6.872l4.582-1.096v-6.95L264.176 153.605zM268.758 187.193v-6.969l-4.582.73v6.806L268.758 187.193zM264.176 162.722v6.851l4.582-.92v-6.957L264.176 162.722zM262.094 163.188 258 164.105v6.706l4.094-.821V163.188zM264.176 171.838v6.829l4.582-.744v-6.963L264.176 171.838zM270.84 168.234l4.211-.846v-7.103l-4.211.943v7.006zM262.094 172.237 258 173.022v6.646l4.094-.664V172.237zM270.84 177.585l4.211-.685v-7.147l-4.211.808V177.585zM270.84 151.897v6.986l4.211-1.007v-7.059L270.84 151.897zM270.84 186.936l4.211-.522v-7.192l-4.211.672V186.936zM262.094 181.287 258 181.939v6.587l4.094-.507V181.287z"/><linearGradient id="SVGID_36_" gradientUnits="userSpaceOnUse" x1="266.875" y1="152.749" x2="266.875" y2="188.6302"><stop offset="0" style="stop-color:#22beb1"/><stop offset=".0367" style="stop-color:#40c8b6"/><stop offset=".0922" style="stop-color:#67d6bd"/><stop offset=".147" style="stop-color:#86e0c3"/><stop offset=".2002" style="stop-color:#9ce8c7"/><stop offset=".2512" style="stop-color:#aaecc9"/><stop offset=".2976" style="stop-color:#aeeeca"/><stop offset=".3899" style="stop-color:#a5ebc8"/><stop offset=".5383" style="stop-color:#8ee3c4"/><stop offset=".7243" style="stop-color:#67d6bd"/><stop offset=".9385" style="stop-color:#33c4b4"/><stop offset="1" style="stop-color:#22beb1"/></linearGradient><path fill="url(#SVGID_36_)" d="M258.699 182.532l3.395-.541v6.015l-3.395.421V182.532zM264.875 181.548l3.883-.619v6.251l-3.883.48V181.548zM271.539 180.485l3.512-.56v6.474l-3.512.436V180.485zM258.699 173.605l3.395-.65v6.048l-3.395.551V173.605zM264.875 172.422l3.883-.744v6.242l-3.883.631V172.422zM271.539 171.145l3.512-.674v6.428l-3.512.57V171.145zM258.699 164.68l3.395-.76v6.078l-3.395.682v-6zM264.875 163.297l3.883-.87v6.234l-3.883.779V163.297zM271.539 161.805l3.512-.787v6.38l-3.512.705V161.805zM258.699 155.754l3.395-.869v6.109l-3.395.813V155.754zM264.875 154.172l3.883-.995v6.225l-3.883.928V154.172zM271.539 152.464l3.512-.9v6.332l-3.512.84V152.464z"/><path fill="#4a2748" d="M292.859 153.979l4.094.899v6.767l-4.094-.83V153.979zM286.197 152.513v6.95l4.58.93v-6.872L286.197 152.513zM290.777 187.676v-6.807l-4.58-.563v6.969L290.777 187.676zM286.197 161.776v6.957l4.58.753v-6.85L286.197 161.776zM292.859 169.829l4.094.673v-6.706l-4.094-.769V169.829zM286.197 171.041v6.963l4.58.577v-6.828L286.197 171.041zM284.113 161.386l-4.211-.79v7.103l4.211.692V161.386zM292.859 178.844l4.094.517v-6.647l-4.094-.637V178.844zM284.113 170.718l-4.211-.655v7.147l4.211.531V170.718zM279.902 151.128v7.059l4.211.854v-6.985L279.902 151.128zM284.113 180.049l-4.211-.519v7.192l4.211.369V180.049zM292.859 187.858l4.094.358v-6.587l-4.094-.504V187.858z"/><linearGradient id="SVGID_37_" gradientUnits="userSpaceOnUse" x1="288.0781" y1="151.8984" x2="288.0781" y2="189.1868"><stop offset="0" style="stop-color:#0485a5"/><stop offset=".0128" style="stop-color:#0d8ba7"/><stop offset=".0733" style="stop-color:#34a6ae"/><stop offset=".1331" style="stop-color:#53bab4"/><stop offset=".1913" style="stop-color:#69c9b8"/><stop offset=".247" style="stop-color:#77d2ba"/><stop offset=".2976" style="stop-color:#7bd5bb"/><stop offset=".4016" style="stop-color:#72cfb9"/><stop offset=".5686" style="stop-color:#5bbfb5"/><stop offset=".7778" style="stop-color:#34a6ae"/><stop offset="1" style="stop-color:#0485a5"/></linearGradient><path fill="url(#SVGID_37_)" d="M292.859 187.834v-6.017l3.395.417v5.897L292.859 187.834zM286.197 187.25v-6.254l3.881.479v6.115L286.197 187.25zM279.902 186.698v-6.478l3.512.434v6.352L279.902 186.698zM292.859 178.831v-6.051l3.395.527v5.951L292.859 178.831zM286.197 177.991v-6.246l3.881.603v6.133L286.197 177.991zM279.902 177.198v-6.432l3.512.546v6.328L279.902 177.198zM292.859 169.828v-6.084l3.395.638v6.005L292.859 169.828zM286.197 168.732v-6.239l3.881.729v6.149L286.197 168.732zM279.902 167.697v-6.385l3.512.659v6.303L279.902 167.697zM292.859 160.824v-6.115l3.395.746v6.058L292.859 160.824zM286.197 159.473v-6.229l3.881.854v6.164L286.197 159.473zM279.902 158.196v-6.338l3.512.772v6.278L279.902 158.196z"/><g><path fill="#4a2748" d="M295.385 194.281c0-.898-1.131-1.483-2.229-1.605-.24.171-.389.414-.389.738V2e2h2.617V194.281z"/><path fill="#4a2748" d="M282.979 193.369c0-.992-1.066-1.633-2.133-1.777-.293.201-.484.497-.484.91V2e2h2.617v-6.631z"/><path fill="#4a2748" d="M289.182 193.85c0-.942-1.1-1.554-2.182-1.686-.266.186-.436.453-.436.819V2e2h2.617V193.85z"/></g><path fill="#a48598" d="M270.84 193.082c0-1.984 4.582-2.563 4.582-.58V2e2h-4.582V193.082zM264.176 2e2h4.582v-7.017c0-1.856-4.582-1.277-4.582.579V2e2zM257.513 2e2h4.581v-6.586c0-1.742-4.581-1.163-4.581.579V2e2z"/><g><path fill="#862f60" d="M260.93 192.411c-1.117.162-2.207.732-2.207 1.582V2e2h3.371v-6.586C262.094 192.841 261.596 192.523 260.93 192.411z"/><path fill="#862f60" d="M267.563 191.9c-1.106.17-2.177.765-2.177 1.662V2e2h3.371v-7.017C268.758 192.363 268.243 192.021 267.563 191.9z"/><path fill="#862f60" d="M274.197 191.33c-1.096.178-2.146.801-2.146 1.752V2e2h3.371v-7.498C275.422 191.831 274.893 191.459 274.197 191.33z"/></g><path fill="#7a3e52" d="M258.854 145.049 277.824 139.561 295.758 144.764 294.932 145.435 277.941 140.624 259.512 145.435z"/><path fill="#7a3e52" d="M254.685 153.127 277.941 147.077 299.928 152.813 298.914 153.306 277.941 148.357 255.491 153.519z"/></g></g></g></svg>