<?xml version="1.0" encoding="utf-8"?>
<!-- Generator: Adobe Illustrator 16.0.3, SVG Export Plug-In . SVG Version: 6.00 Build 0)  -->
<!DOCTYPE svg PUBLIC "-//W3C//DTD SVG 1.1//EN" "http://www.w3.org/Graphics/SVG/1.1/DTD/svg11.dtd">
<svg version="1.1" id="layer_1" xmlns="http://www.w3.org/2000/svg" xmlns:xlink="http://www.w3.org/1999/xlink" x="0px" y="0px"
	 width="400px" height="200px" viewBox="0 0 400 200" enable-background="new 0 0 400 200" xml:space="preserve">
<g>
	<defs>
		<rect id="SVGID_1_" width="400" height="200"/>
	</defs>
	<clipPath id="SVGID_2_">
		<use xlink:href="#SVGID_1_"  overflow="visible"/>
	</clipPath>
	<g opacity="0.6" clip-path="url(#SVGID_2_)">
		<path fill="#4F86A1" d="M108.769-26.608L108.769-26.608L108.769-26.608l3.716,2.396v2.71c0.288-1.813,0.775-3.577,1.578-5.611
			l7.52-2.354c1.048,2.242,1.737,4.443,2.181,6.75v-11.303l5.575-1.119l4.641,1.199v6.687l3.477-1.324l5.853,1.021v17.052h-5.853
			h-2.16v0.1h-5.957h-4.909c0,0.005,0,0.01,0,0.014h-2.847h-2.337h-0.242h-6.825c-0.001-0.035-0.002-0.068-0.002-0.104h-3.407
			h-5.913V-23.19C103.782-24.417,106.14-26.199,108.769-26.608z"/>
		<polygon fill="#4F86A1" points="101.13,-30.561 101.13,-10.392 98.474,-10.392 94.003,-10.392 94.003,-30.925 98.474,-32.155 		
			"/>
		<polygon fill="#4F86A1" points="92.559,-28.511 92.559,-10.392 90.172,-10.392 86.155,-10.392 86.155,-28.838 90.172,-29.943 		
			"/>
		<polygon fill="#4F86A1" points="149.204,-23.138 149.204,-10.392 142.417,-10.392 138.385,-10.392 138.385,-22.868 
			142.417,-24.046 		"/>
		<polygon fill="#4F86A1" points="151.955,-24.94 151.955,-10.392 148.247,-10.392 145.479,-10.392 145.479,-24.146 
			148.935,-29.113 		"/>
		<path fill="#4F86A1" d="M154.793-22.343L154.793-22.343L154.793-22.343l2.718,1.753c0.321-1.303,0.762-2.572,1.364-3.86
			l5.541,1.735c1.59,4.03,1.503,6.626,1.389,12.323h-5.029h-0.179h-1.722h-2.099c-0.001-0.025-0.001-0.05-0.002-0.076h-1.981h-4.358
			v-9.355C151.117-20.728,152.855-22.041,154.793-22.343z"/>
		<path fill="#4F86A1" d="M48.878-26.76l3.396,2.418v2.735c0.264-1.829,0.709-3.61,1.443-5.664l6.874-2.376
			c0.958,2.263,1.588,4.484,1.993,6.813v-11.409l5.097-1.13l4.243,1.211v15.83l-4.243-0.252l5.446,0.323v7.854h-5.446h-4.487
			c0,0.005,0,0.009,0,0.014h-2.603h-2.137h-0.222h-6.239c-0.001-0.035-0.001-0.069-0.002-0.104h-3.114h-5.406v-12.814
			C44.319-24.548,46.475-26.347,48.878-26.76z"/>
		<polygon fill="#4F86A1" points="39.611,-27.603 39.611,-10.392 34.261,-10.392 31.082,-10.392 31.082,-27.297 34.261,-28.635 		
			"/>
		<polygon fill="#4F86A1" points="41.895,-30.749 41.895,-10.392 39.467,-10.392 35.379,-10.392 35.379,-31.117 39.467,-32.359 		
			"/>
		<polygon fill="#4F86A1" points="34.059,-28.68 34.059,-10.392 31.877,-10.392 28.205,-10.392 28.205,-29.011 31.877,-30.126 		"/>
		<polygon fill="#4F86A1" points="84.411,-23.138 84.411,-10.392 77.623,-10.392 73.591,-10.392 73.591,-22.868 77.623,-24.046 		
			"/>
		<polygon fill="#4F86A1" points="26.191,-22.984 26.191,-10.392 22.506,-10.392 16.301,-10.392 16.301,-23.257 22.506,-24.174 		
			"/>
		<polygon fill="#4F86A1" points="46.191,-25.076 46.191,-10.392 42.802,-10.392 40.271,-10.392 40.271,-24.274 43.431,-29.289 		
			"/>
		<polygon fill="#4F86A1" points="10.652,-23.271 13.771,-20.4 13.771,-10.392 9.941,-10.392 7.083,-10.392 7.083,-19.854 		"/>
	</g>
	<g opacity="0.6" clip-path="url(#SVGID_2_)">
		<path fill="#4F86A1" d="M107.323-23.608L107.323-23.608L107.323-23.608l3.716,2.396v2.71c0.288-1.813,0.775-3.577,1.578-5.611
			l7.519-2.354c1.048,2.242,1.737,4.443,2.181,6.75v-11.303l5.576-1.119l4.641,1.199v6.687l3.477-1.324l5.853,1.021v17.052h-5.853
			h-2.16v0.1h-5.957h-4.909c0,0.005,0,0.01,0,0.014h-2.847h-2.337h-0.242h-6.825c0-0.035-0.001-0.068-0.002-0.104h-3.407h-5.914
			V-20.19C102.336-21.417,104.694-23.199,107.323-23.608z"/>
		<polygon fill="#4F86A1" points="99.684,-27.561 99.684,-7.392 97.028,-7.392 92.557,-7.392 92.557,-27.925 97.028,-29.155 		"/>
		<polygon fill="#4F86A1" points="91.112,-25.511 91.112,-7.392 88.726,-7.392 84.709,-7.392 84.709,-25.838 88.726,-26.943 		"/>
		<polygon fill="#4F86A1" points="147.758,-20.138 147.758,-7.392 140.971,-7.392 136.938,-7.392 136.938,-19.868 140.971,-21.046 
					"/>
		<polygon fill="#4F86A1" points="150.509,-21.94 150.509,-7.392 146.801,-7.392 144.034,-7.392 144.034,-21.146 147.489,-26.113 		
			"/>
		<path fill="#4F86A1" d="M153.347-19.343L153.347-19.343L153.347-19.343l2.718,1.753c0.321-1.303,0.761-2.572,1.364-3.86
			l5.541,1.735c1.59,4.03,1.503,6.626,1.39,12.323h-5.03h-0.178h-1.722h-2.099c0-0.025-0.001-0.05-0.001-0.076h-1.982h-4.358v-9.355
			C149.671-17.728,151.409-19.041,153.347-19.343z"/>
		<path fill="#4F86A1" d="M47.432-23.76l3.396,2.418v2.735c0.263-1.829,0.709-3.61,1.443-5.664l6.874-2.376
			c0.958,2.263,1.588,4.484,1.994,6.813v-11.409l5.097-1.13l4.242,1.211v15.83l-4.242-0.252l5.445,0.323v7.854h-5.445h-4.488
			c0,0.005,0,0.009,0,0.014h-2.603h-2.137h-0.221h-6.239c-0.001-0.035-0.001-0.069-0.002-0.104h-3.114h-5.406v-12.814
			C42.874-21.548,45.029-23.347,47.432-23.76z"/>
		<polygon fill="#4F86A1" points="38.165,-24.603 38.165,-7.392 32.815,-7.392 29.637,-7.392 29.637,-24.297 32.815,-25.635 		"/>
		<polygon fill="#4F86A1" points="40.449,-27.749 40.449,-7.392 38.021,-7.392 33.933,-7.392 33.933,-28.117 38.021,-29.359 		"/>
		<polygon fill="#4F86A1" points="32.612,-25.68 32.612,-7.392 30.431,-7.392 26.759,-7.392 26.759,-26.011 30.431,-27.126 		"/>
		<polygon fill="#4F86A1" points="82.965,-20.138 82.965,-7.392 76.177,-7.392 72.145,-7.392 72.145,-19.868 76.177,-21.046 		"/>
		<polygon fill="#4F86A1" points="24.746,-19.984 24.746,-7.392 21.06,-7.392 14.854,-7.392 14.854,-20.257 21.06,-21.174 		"/>
		<polygon fill="#4F86A1" points="44.746,-22.076 44.746,-7.392 41.355,-7.392 38.826,-7.392 38.826,-21.274 41.984,-26.289 		"/>
		<polygon fill="#4F86A1" points="9.206,-20.271 12.326,-17.4 12.326,-7.392 8.495,-7.392 5.637,-7.392 5.637,-16.854 		"/>
	</g>
	<g clip-path="url(#SVGID_2_)">
		<g>
			
				<linearGradient id="SVGID_3_" gradientUnits="userSpaceOnUse" x1="211.4863" y1="200" x2="211.4863" y2="159.792" gradientTransform="matrix(-1 0 0 1 399.8613 0)">
				<stop  offset="0" style="stop-color:#FFFF74"/>
				<stop  offset="0.36" style="stop-color:#FF9574"/>
				<stop  offset="1" style="stop-color:#D900C7"/>
			</linearGradient>
			<polygon fill="url(#SVGID_3_)" points="202.273,159.792 202.273,200 174.476,200 174.476,163.268 			"/>
			
				<linearGradient id="SVGID_4_" gradientUnits="userSpaceOnUse" x1="191.5957" y1="200" x2="191.5957" y2="159.792" gradientTransform="matrix(-1 0 0 1 399.8613 0)">
				<stop  offset="0" style="stop-color:#9A00FF"/>
				<stop  offset="1" style="stop-color:#D900C7"/>
			</linearGradient>
			<polygon fill="url(#SVGID_4_)" points="202.273,159.792 214.258,162.771 214.258,200 202.273,200 			"/>
			<polygon fill="#446D8E" points="202.273,159.792 214.896,162.912 214.896,160.701 202.273,157.12 			"/>
			<polygon fill="#67B2C6" points="202.273,157.12 202.273,159.792 173.673,163.379 173.673,161.388 			"/>
			<path fill="#862F60" d="M191.182,183.956v-8.748l3.298-0.258v8.879L191.182,183.956z M194.479,196.047v-8.897l-3.298,0.12v8.777
				H194.479z M181.467,196.047h3.297v-8.543l-3.297,0.121V196.047z M186.324,196.047h3.297v-8.72l-3.297,0.12V196.047z
				 M186.324,163.73v8.507l3.297-0.253v-8.649L186.324,163.73z M194.479,162.751l-3.298,0.396v8.717l3.298-0.252V162.751z
				 M189.621,184.016v-8.685l-3.297,0.258v8.553L189.621,184.016z M196.04,196.047h3.822v-9.095l-3.822,0.14V196.047z
				 M179.906,187.682l-3.303,0.121v8.244h3.303V187.682z M179.906,176.092l-3.303,0.259v8.164l3.303-0.127V176.092z
				 M176.604,164.898v8.084l3.303-0.254v-8.228L176.604,164.898z M181.467,164.313v8.296l3.297-0.253v-8.438L181.467,164.313z
				 M181.467,175.97v8.358l3.297-0.127v-8.49L181.467,175.97z M196.04,183.77l3.822-0.146v-9.095l-3.822,0.3V183.77z
				 M196.04,171.492l3.822-0.293v-9.095l-3.822,0.459V171.492z"/>
			
				<linearGradient id="SVGID_5_" gradientUnits="userSpaceOnUse" x1="211.3633" y1="162.1328" x2="211.3633" y2="198.1649" gradientTransform="matrix(-1 0 0 1 399.8613 0)">
				<stop  offset="0" style="stop-color:#0485A5"/>
				<stop  offset="0.0128" style="stop-color:#0D8BA7"/>
				<stop  offset="0.0733" style="stop-color:#34A6AE"/>
				<stop  offset="0.1331" style="stop-color:#53BAB4"/>
				<stop  offset="0.1913" style="stop-color:#69C9B8"/>
				<stop  offset="0.247" style="stop-color:#77D2BA"/>
				<stop  offset="0.2976" style="stop-color:#7BD5BB"/>
				<stop  offset="0.4016" style="stop-color:#72CFB9"/>
				<stop  offset="0.5686" style="stop-color:#5BBFB5"/>
				<stop  offset="0.7778" style="stop-color:#34A6AE"/>
				<stop  offset="1" style="stop-color:#0485A5"/>
			</linearGradient>
			<path fill="url(#SVGID_5_)" d="M177.146,196.022v-7.7l2.751-0.101v7.801H177.146z M182.01,196.022v-7.878l2.744-0.101v7.979
				H182.01z M186.867,196.022v-8.056l2.744-0.101v8.156H186.867z M191.725,196.022v-8.233l2.744-0.101v8.334H191.725z
				 M196.582,196.022v-8.411l3.27-0.12v8.531H196.582z M177.146,184.479v-7.621l2.751-0.215v7.73L177.146,184.479z M182.01,184.293
				v-7.814l2.744-0.215v7.925L182.01,184.293z M186.867,184.107v-8.01l2.744-0.215v8.119L186.867,184.107z M191.725,183.921v-8.204
				l2.744-0.215v8.313L191.725,183.921z M196.582,183.734v-8.398l3.27-0.256v8.529L196.582,183.734z M177.146,172.937v-7.54
				l2.751-0.331v7.66L177.146,172.937z M182.01,172.563v-7.752l2.744-0.329v7.87L182.01,172.563z M186.867,172.19v-7.962
				l2.744-0.329v8.081L186.867,172.19z M191.725,171.818v-8.173l2.744-0.33v8.293L191.725,171.818z M196.582,171.446v-8.385
				l3.27-0.393v8.526L196.582,171.446z"/>
			<polygon fill="#7A3E52" points="214.896,162.912 202.273,159.792 173.673,163.379 174.476,163.737 202.289,160.493 
				214.258,163.072 			"/>
		</g>
		<g>
			<linearGradient id="SVGID_6_" gradientUnits="userSpaceOnUse" x1="372.3379" y1="200" x2="372.3379" y2="172.9736">
				<stop  offset="0" style="stop-color:#FFFF74"/>
				<stop  offset="0.36" style="stop-color:#FF9574"/>
				<stop  offset="1" style="stop-color:#D900C7"/>
			</linearGradient>
			<polygon fill="url(#SVGID_6_)" points="381.68,172.974 381.68,200 362.996,200 362.996,175.31 			"/>
			
				<linearGradient id="SVGID_7_" gradientUnits="userSpaceOnUse" x1="366.9131" y1="200" x2="366.9131" y2="172.9736" gradientTransform="matrix(-1 0 0 1 752.6211 0)">
				<stop  offset="0" style="stop-color:#9A00FF"/>
				<stop  offset="1" style="stop-color:#D900C7"/>
			</linearGradient>
			<polygon fill="url(#SVGID_7_)" points="381.68,172.974 389.736,174.976 389.736,200 381.68,200 			"/>
			<polygon fill="#446D8E" points="381.68,172.974 390.164,175.071 390.164,173.585 381.68,171.178 			"/>
			<polygon fill="#67B2C6" points="381.68,171.178 381.68,172.974 362.457,175.385 362.457,174.047 			"/>
			<path fill="#862F60" d="M374.225,189.216v-5.88l2.217-0.174v5.969L374.225,189.216z M376.441,197.343v-5.98l-2.217,0.081v5.899
				H376.441z M367.695,197.343h2.217v-5.742l-2.217,0.081V197.343z M370.961,197.343h2.215v-5.861l-2.215,0.081V197.343z
				 M370.961,175.621v5.718l2.215-0.17v-5.813L370.961,175.621z M376.441,174.963l-2.217,0.267v5.859l2.217-0.17V174.963z
				 M373.176,189.256v-5.838l-2.215,0.174v5.749L373.176,189.256z M377.49,197.343h2.57v-6.113l-2.57,0.094V197.343z
				 M366.646,191.721l-2.221,0.081v5.541h2.221V191.721z M366.646,183.93l-2.221,0.174v5.487l2.221-0.085V183.93z M364.426,176.406
				v5.434l2.221-0.17v-5.53L364.426,176.406z M367.695,176.014v5.575l2.217-0.17v-5.672L367.695,176.014z M367.695,183.848v5.618
				l2.217-0.085v-5.707L367.695,183.848z M377.49,189.091l2.57-0.099v-6.113l-2.57,0.201V189.091z M377.49,180.838l2.57-0.196
				v-6.113l-2.57,0.309V180.838z"/>
			
				<linearGradient id="SVGID_8_" gradientUnits="userSpaceOnUse" x1="380.1992" y1="174.5469" x2="380.1992" y2="198.7663" gradientTransform="matrix(-1 0 0 1 752.6211 0)">
				<stop  offset="0" style="stop-color:#0485A5"/>
				<stop  offset="0.0128" style="stop-color:#0D8BA7"/>
				<stop  offset="0.0733" style="stop-color:#34A6AE"/>
				<stop  offset="0.1331" style="stop-color:#53BAB4"/>
				<stop  offset="0.1913" style="stop-color:#69C9B8"/>
				<stop  offset="0.247" style="stop-color:#77D2BA"/>
				<stop  offset="0.2976" style="stop-color:#7BD5BB"/>
				<stop  offset="0.4016" style="stop-color:#72CFB9"/>
				<stop  offset="0.5686" style="stop-color:#5BBFB5"/>
				<stop  offset="0.7778" style="stop-color:#34A6AE"/>
				<stop  offset="1" style="stop-color:#0485A5"/>
			</linearGradient>
			<path fill="url(#SVGID_8_)" d="M364.791,197.326v-5.176l1.848-0.067v5.243H364.791z M368.061,197.326v-5.295l1.844-0.068v5.363
				H368.061z M371.324,197.326v-5.414l1.846-0.068v5.482H371.324z M374.59,197.326v-5.534l1.844-0.067v5.602H374.59z
				 M377.855,197.326v-5.653l2.197-0.081v5.734H377.855z M364.791,189.567v-5.122l1.848-0.145v5.196L364.791,189.567z
				 M368.061,189.442v-5.253l1.844-0.145v5.327L368.061,189.442z M371.324,189.317v-5.384l1.846-0.145v5.458L371.324,189.317z
				 M374.59,189.192v-5.515l1.844-0.145v5.588L374.59,189.192z M377.855,189.067v-5.646l2.197-0.172v5.732L377.855,189.067z
				 M364.791,181.809v-5.068l1.848-0.222v5.148L364.791,181.809z M368.061,181.558v-5.21l1.844-0.221v5.29L368.061,181.558z
				 M371.324,181.308v-5.352l1.846-0.222v5.432L371.324,181.308z M374.59,181.058v-5.494l1.844-0.222v5.574L374.59,181.058z
				 M377.855,180.808v-5.636l2.197-0.265v5.731L377.855,180.808z"/>
			<polygon fill="#7A3E52" points="390.164,175.071 381.68,172.974 362.457,175.385 362.996,175.625 381.691,173.444 
				389.736,175.179 			"/>
		</g>
		<g>
			<linearGradient id="SVGID_9_" gradientUnits="userSpaceOnUse" x1="307.2949" y1="162.3203" x2="325.6484" y2="162.3203">
				<stop  offset="0" style="stop-color:#9A00FF"/>
				<stop  offset="1" style="stop-color:#D900C7"/>
			</linearGradient>
			<polygon fill="url(#SVGID_9_)" points="307.295,124.642 307.295,200 325.648,200 325.648,129.952 			"/>
			<linearGradient id="SVGID_10_" gradientUnits="userSpaceOnUse" x1="297.4707" y1="200" x2="297.4707" y2="124.6416">
				<stop  offset="0" style="stop-color:#FFFF74"/>
				<stop  offset="0.36" style="stop-color:#FF9574"/>
				<stop  offset="1" style="stop-color:#D900C7"/>
			</linearGradient>
			<polygon fill="url(#SVGID_10_)" points="307.295,124.642 287.646,130.513 287.646,200 307.295,200 			"/>
			<polygon fill="#67B2C6" points="307.295,124.642 286.941,130.691 286.941,128.877 307.295,122.244 			"/>
			<polygon fill="#446D8E" points="307.295,122.244 307.295,124.642 326.537,130.378 326.537,128.557 			"/>
			<path fill="#4A2748" d="M320.352,131.357l3.582,0.9v6.767l-3.582-0.831V131.357z M314.52,129.892v6.95l4.01,0.93v-6.872
				L314.52,129.892z M318.529,165.055v-6.807l-4.01-0.563v6.969L318.529,165.055z M314.52,139.156v6.956l4.01,0.754v-6.851
				L314.52,139.156z M320.352,147.208l3.582,0.674v-6.707l-3.582-0.769V147.208z M314.52,148.42v6.963l4.01,0.577v-6.828
				L314.52,148.42z M312.697,138.765l-3.686-0.79v7.103l3.686,0.692V138.765z M320.352,156.223l3.582,0.517v-6.647l-3.582-0.636
				V156.223z M312.697,148.097l-3.686-0.655v7.148l3.686,0.53V148.097z M309.012,128.507v7.059l3.686,0.854v-6.986L309.012,128.507z
				 M312.697,157.428l-3.686-0.519v7.192l3.686,0.369V157.428z M320.352,165.237l3.582,0.359v-6.588l-3.582-0.504V165.237z
				 M314.52,192.663v-6.97l4.01,0.097v6.807L314.52,192.663z M314.52,167.165v6.957l4.01,0.286v-6.851L314.52,167.165z
				 M320.352,174.538l3.582,0.255v-6.707l-3.582-0.35V174.538z M314.52,176.43v6.963l4.01,0.109v-6.828L314.52,176.43z
				 M312.697,166.987l-3.686-0.361v7.103l3.686,0.264V166.987z M320.352,183.553l3.582,0.098v-6.646l-3.582-0.219V183.553z
				 M312.697,176.318l-3.686-0.225v7.147l3.686,0.101V176.318z M312.697,185.649l-3.686-0.089v7.192l3.686-0.061V185.649z
				 M320.352,192.567l3.582-0.06v-6.587l-3.582-0.087V192.567z"/>
			<linearGradient id="SVGID_11_" gradientUnits="userSpaceOnUse" x1="316.1406" y1="129.4014" x2="316.1406" y2="194.0293">
				<stop  offset="0" style="stop-color:#0485A5"/>
				<stop  offset="0.0128" style="stop-color:#0D8BA7"/>
				<stop  offset="0.0733" style="stop-color:#34A6AE"/>
				<stop  offset="0.1331" style="stop-color:#53BAB4"/>
				<stop  offset="0.1913" style="stop-color:#69C9B8"/>
				<stop  offset="0.247" style="stop-color:#77D2BA"/>
				<stop  offset="0.2976" style="stop-color:#7BD5BB"/>
				<stop  offset="0.4016" style="stop-color:#72CFB9"/>
				<stop  offset="0.5686" style="stop-color:#5BBFB5"/>
				<stop  offset="0.7778" style="stop-color:#34A6AE"/>
				<stop  offset="1" style="stop-color:#0485A5"/>
			</linearGradient>
			<path fill="url(#SVGID_11_)" d="M309.002,186.186l3.041,0.073v6.411l-3.041,0.049V186.186z M314.512,186.318l3.363,0.081v6.174
				l-3.363,0.056V186.318z M320.342,186.459l2.938,0.07v5.956l-2.938,0.047V186.459z M320.342,183.532v-6.11l2.938,0.18v6.012
				L320.342,183.532z M314.512,183.373v-6.307l3.363,0.205v6.193L314.512,183.373z M309.002,183.222v-6.491l3.041,0.186v6.389
				L309.002,183.222z M320.342,174.531v-6.146l2.938,0.287v6.068L320.342,174.531z M314.512,174.115v-6.301l3.363,0.329v6.212
				L314.512,174.115z M309.002,173.723v-6.447l3.041,0.298v6.366L309.002,173.723z M320.342,165.239v-6.069l2.938,0.414v5.95
				L320.342,165.239z M314.512,164.655v-6.306l3.363,0.473v6.17L314.512,164.655z M309.002,164.104v-6.529l3.041,0.429v6.405
				L309.002,164.104z M320.342,156.237v-6.103l2.938,0.521v6.005L320.342,156.237z M314.512,155.397V149.1l3.363,0.597v6.186
				L314.512,155.397z M309.002,154.604v-6.483l3.041,0.54v6.381L309.002,154.604z M320.342,147.234V141.1l2.938,0.63v6.057
				L320.342,147.234z M314.512,146.139v-6.29l3.363,0.723v6.199L314.512,146.139z M309.002,145.104v-6.436l3.041,0.652v6.354
				L309.002,145.104z M320.342,138.231v-6.166l2.938,0.737v6.109L320.342,138.231z M314.512,136.88v-6.28l3.363,0.846v6.214
				L314.512,136.88z M309.002,135.603v-6.388l3.041,0.765v6.328L309.002,135.603z"/>
			<path fill="#7A3E52" d="M293.426,138.54l-3.582,0.979v-6.767l3.582-1.049V138.54z M295.248,131.17v6.873l4.01-1.096v-6.951
				L295.248,131.17z M299.258,164.758v-6.969l-4.01,0.73v6.807L299.258,164.758z M295.248,140.287v6.85l4.01-0.919v-6.957
				L295.248,140.287z M293.426,140.753l-3.582,0.917v6.707l3.582-0.822V140.753z M295.248,149.403v6.828l4.01-0.743v-6.963
				L295.248,149.403z M301.08,145.799l3.686-0.845v-7.104l-3.686,0.943V145.799z M293.426,149.803l-3.582,0.784v6.647l3.582-0.665
				V149.803z M301.08,155.149l3.686-0.684v-7.147l-3.686,0.808V155.149z M301.08,129.463v6.986l3.686-1.008v-7.058L301.08,129.463z
				 M301.08,164.5l3.686-0.521v-7.192l-3.686,0.671V164.5z M293.426,158.852l-3.582,0.652v6.588l3.582-0.508V158.852z
				 M295.229,192.665v-6.807l3.996-0.229v6.97L295.229,192.665z M295.229,167.625v6.851l3.996-0.418v-6.957L295.229,167.625z
				 M293.414,167.864l-3.57,0.469v6.707l3.57-0.374V167.864z M295.229,176.742v6.828l3.996-0.242v-6.963L295.229,176.742z
				 M301.041,173.867l3.674-0.385v-7.103l-3.674,0.482V173.867z M293.414,176.913l-3.57,0.337v6.647l3.57-0.217V176.913z
				 M301.041,183.218l3.674-0.223v-7.147l-3.674,0.346V183.218z M301.041,192.568l3.674-0.062v-7.192l-3.674,0.211V192.568z
				 M293.414,185.963l-3.57,0.204v6.588l3.57-0.06V185.963z"/>
			<linearGradient id="SVGID_12_" gradientUnits="userSpaceOnUse" x1="297.624" y1="130.4854" x2="297.624" y2="194.3874">
				<stop  offset="0" style="stop-color:#22BEB1"/>
				<stop  offset="0.0367" style="stop-color:#40C8B6"/>
				<stop  offset="0.0922" style="stop-color:#67D6BD"/>
				<stop  offset="0.147" style="stop-color:#86E0C3"/>
				<stop  offset="0.2002" style="stop-color:#9CE8C7"/>
				<stop  offset="0.2512" style="stop-color:#AAECC9"/>
				<stop  offset="0.2976" style="stop-color:#AEEECA"/>
				<stop  offset="0.3899" style="stop-color:#A5EBC8"/>
				<stop  offset="0.5383" style="stop-color:#8EE3C4"/>
				<stop  offset="0.7243" style="stop-color:#67D6BD"/>
				<stop  offset="0.9385" style="stop-color:#33C4B4"/>
				<stop  offset="1" style="stop-color:#22BEB1"/>
			</linearGradient>
			<path fill="url(#SVGID_12_)" d="M290.484,186.773l2.926-0.167v6.074l-2.926,0.048V186.773z M295.871,186.466l3.35-0.192v6.311
				l-3.35,0.056V186.466z M301.684,186.132l3.027-0.173v6.533l-3.027,0.051V186.132z M290.484,177.846l2.926-0.275v6.109
				l-2.926,0.177V177.846z M295.871,177.338l3.35-0.315v6.305l-3.35,0.202V177.338z M301.684,176.79l3.027-0.286v6.49l-3.027,0.183
				V176.79z M290.484,168.918l2.926-0.384v6.144l-2.926,0.307V168.918z M295.871,168.211l3.35-0.439v6.298l-3.35,0.351V168.211z
				 M301.684,167.447l3.027-0.397v6.445l-3.027,0.316V167.447z M290.484,160.076l2.938-0.535v6.065l-2.938,0.416V160.076z
				 M295.891,159.092l3.363-0.613v6.302l-3.363,0.477V159.092z M301.721,158.029l3.043-0.555V164l-3.043,0.431V158.029z
				 M290.484,151.149l2.938-0.644v6.098l-2.938,0.545V151.149z M295.891,149.965l3.363-0.736v6.294l-3.363,0.624V149.965z
				 M301.721,148.688l3.043-0.666v6.479l-3.043,0.564V148.688z M290.484,142.223l2.938-0.752v6.13l-2.938,0.674V142.223z
				 M295.891,140.84l3.363-0.861v6.284l-3.363,0.772V140.84z M301.721,139.348l3.043-0.778v6.43l-3.043,0.698V139.348z
				 M290.484,133.297l2.938-0.859v6.159l-2.938,0.803V133.297z M295.891,131.715l3.363-0.985v6.273l-3.363,0.919V131.715z
				 M301.721,130.007l3.043-0.89v6.381l-3.043,0.831V130.007z"/>
			<polygon fill="#7A3E52" points="286.941,130.691 307.295,124.642 326.537,130.378 325.648,130.586 307.246,125.32 
				287.646,130.854 			"/>
		</g>
	</g>
</g>
</svg>
