<?xml version="1.0" encoding="utf-8"?>
<!-- Generator: Adobe Illustrator 16.0.3, SVG Export Plug-In . SVG Version: 6.00 Build 0)  -->
<!DOCTYPE svg PUBLIC "-//W3C//DTD SVG 1.1//EN" "http://www.w3.org/Graphics/SVG/1.1/DTD/svg11.dtd">
<svg version="1.1" id="Layer_1" xmlns="http://www.w3.org/2000/svg" xmlns:xlink="http://www.w3.org/1999/xlink" x="0px" y="0px"
	 width="4000px" height="4000px" viewBox="0 0 4000 4000" enable-background="new 0 0 4000 4000" xml:space="preserve">
<g>
	<g>
		<g opacity="0.3">
			<path fill="#000072" d="M29.479,3878.147c658.671,170.122,3264.578,170.122,3923.249,0
				c60.926-15.735,46.061-86.317-18.103-86.317H47.577C-16.583,3791.83-31.449,3862.412,29.479,3878.147z"/>
		</g>
		<g>
			<path fill="#000072" d="M213.859,3782.43c74.052-14.469,148.108-18.32,222.159-19.893c74.047-2.023,148.101-0.949,222.153,0.147
				c74.055,0.858,148.102,1.079,222.155,0.94h222.158h888.618h888.619h444.313l111.071-0.032
				c37.028,0.021,74.057-1.271,111.082-1.866c74.051-0.332,148.1,0.513,222.153,20.703c5.194,1.414,8.259,6.771,6.839,11.962
				c-0.937,3.446-3.629,5.954-6.839,6.841c-74.054,20.182-148.103,21.03-222.153,20.701c-37.025-0.597-74.054-1.891-111.082-1.871
				l-111.071-0.03h-444.313h-888.619h-888.618H880.327c-74.054-0.134-148.101,0.083-222.155,0.94
				c-74.053,1.102-148.106,2.17-222.153,0.151c-74.051-1.577-148.107-5.426-222.159-19.892c-5.192-1.019-8.575-6.049-7.563-11.238
				C207.067,3786.055,210.152,3783.156,213.859,3782.43z"/>
		</g>
		<g>
			<g>
				<g>
					<path fill="#4D5A6A" d="M2907.087,3591.027l11.699-1.391c326.268-38.785,549.594-348.294,483.549-670.154l-122.581-597.387
						c-55.938-272.607-295.856-468.297-574.142-468.297h-713.248h20.181h-713.248c-278.285,0-518.203,195.69-574.142,468.297
						l-122.583,597.387c-66.043,321.86,157.282,631.369,483.549,670.154l11.699,1.391H2907.087z"/>
				</g>
				<g>
					<path fill="#000072" d="M2907.353,3595.511H1097.823l-12.223-1.42c-156.766-18.64-299.642-102.748-392.012-230.765
						c-92.362-128.012-127.136-290.11-95.405-444.743l122.573-597.393c56.112-273.419,299.425-471.874,578.545-471.874h1406.311
						c279.119,0,522.421,198.455,578.533,471.874l122.584,597.393c31.73,154.637-3.056,316.741-95.414,444.752
						c-92.37,128.013-235.248,212.119-392.004,230.756L2907.353,3595.511z M1299.302,1858.281
						c-274.884,0-514.508,195.446-569.755,464.711l-122.574,597.393c-31.232,152.176,2.984,311.711,93.891,437.695
						c90.898,125.986,231.52,208.766,385.788,227.107l11.696,1.389l1808.479-0.032l11.435-1.356
						c154.269-18.342,294.881-101.117,385.778-227.097c90.907-125.983,125.131-285.519,93.901-437.706l-122.583-597.393
						c-55.247-269.266-294.862-464.711-569.745-464.711H1299.302z"/>
				</g>
			</g>
			<g opacity="0.3">
				<path fill="#000072" d="M2918.796,3589.682l-11.671,1.363H1097.829l-11.668-1.363
					c-208.755-24.794-375.314-160.53-451.059-339.24c82.844,74.478,188.727,125.135,308.518,139.432l11.669,1.358h1809.295
					l11.668-1.358c326.311-38.799,549.654-348.289,483.536-670.129l-122.511-597.391c-8.266-40.158-20.519-78.564-36.269-115.027
					c88.869,81.092,153.142,189.795,178.712,314.74l122.609,597.395C3468.352,3241.3,3245.009,3550.885,2918.796,3589.682z"/>
			</g>
			<g opacity="0.55">
				<path fill="#FFFFFF" d="M2994.829,1930.124c-66.796-26.35-139.332-40.645-214.688-40.645H1373.873
					c-278.277,0-518.249,195.632-574.156,468.271l-122.611,597.396c-50.366,245.511,67.576,483.73,271.182,600.213
					c-248.332-96.648-401.957-361.801-345.757-635.898l122.607-597.395c55.91-272.54,295.879-468.271,574.157-468.271h1406.27
					C2809.991,1853.795,2908.976,1881.313,2994.829,1930.124z"/>
			</g>
			<g>
				<path fill="#000072" d="M2907.09,3620.197H1097.823c-1.146,0-2.293-0.065-3.433-0.204l-11.697-1.388
					c-163.61-19.453-312.722-107.23-409.119-240.833c-96.396-133.597-132.687-302.779-99.573-464.156l122.573-597.384
					c58.45-284.857,311.935-491.6,602.728-491.6h1406.311c290.783,0,544.266,206.743,602.718,491.6l122.583,597.39
					c33.111,161.382-3.188,330.563-99.583,464.161c-96.397,133.597-245.51,221.369-409.104,240.822l-11.696,1.388
					C2909.383,3620.132,2908.236,3620.197,2907.09,3620.197z M1099.549,3561.858h1805.813l9.991-1.187
					c147.415-17.527,281.801-96.633,368.67-217.026c86.872-120.399,119.581-272.86,89.735-418.3l-122.585-597.393
					c-52.908-257.838-282.352-444.984-545.562-444.984H1299.302c-263.22,0-492.665,187.146-545.572,444.984l-122.574,597.393
					c-29.849,145.436,2.854,297.896,89.725,418.291c86.878,120.402,221.255,199.508,368.688,217.035L1099.549,3561.858z"/>
			</g>
			<g>
				<g>
					<path fill="#4D5A6A" d="M3041.21,1412.557c-1.751,6.805-3.598,13.71-5.444,20.417c-1.46,5.156-2.918,10.21-4.376,15.266
						c-0.585,1.943-1.069,3.793-1.749,5.737c-1.167,4.181-2.529,8.362-3.795,12.446c-1.65,5.348-3.401,10.596-5.151,15.847
						c-0.779,2.336-1.557,4.668-2.334,6.905c-2.529,7.583-5.153,15.07-7.972,22.461c-2.918,8.166-6.027,16.236-9.238,24.209
						c-3.113,8.072-6.418,16.043-9.821,24.018c-3.305,7.877-6.808,15.848-10.402,23.627c-3.404,7.584-6.905,15.071-10.502,22.559
						c-0.485,0.971-0.974,1.943-1.458,2.916c-3.306,7-6.806,13.906-10.404,20.808c-0.097,0.192-0.193,0.389-0.291,0.582
						c-3.891,7.683-7.876,15.169-11.96,22.752c-4.862,8.945-9.82,17.795-14.974,26.545c-3.5,6.126-7.1,12.153-10.696,18.182
						c-0.193,0.195-0.291,0.39-0.291,0.486c-4.473,7.39-9.042,14.683-13.709,21.976c-7.781,12.151-15.753,24.211-24.017,36.171
						c-3.6,5.25-7.293,10.405-10.987,15.557c-3.112,4.375-6.223,8.653-9.432,13.029c-4.766,6.515-9.628,12.932-14.487,19.349
						c-4.766,6.221-9.53,12.251-14.393,18.378c-2.72,3.402-5.442,6.804-8.167,10.11c-1.75,2.139-3.499,4.278-5.25,6.417
						c-3.306,3.89-6.515,7.78-9.82,11.667c-8.945,10.502-18.085,20.906-27.42,31.212c-4.473,5.057-9.138,10.016-13.808,14.973
						c-3.402,3.599-6.805,7.293-10.208,10.892c-4.862,5.055-9.626,10.014-14.585,14.875c-7.002,7.1-14.197,14.199-21.391,21.199
						c-5.833,5.637-11.669,11.182-17.599,16.625c-0.876,0.875-1.75,1.75-2.628,2.431c-6.026,5.738-12.152,11.28-18.375,16.82
						c-11.377,10.211-22.948,20.129-34.711,29.95c-2.917,2.43-5.836,4.859-8.85,7.387c-5.931,4.862-11.958,9.725-18.086,14.586
						c-21.196,16.822-42.876,33.059-65.047,48.713c-0.389,0.289-0.875,0.585-1.265,0.874
						c-86.438,60.868-180.463,106.081-278.083,135.737c-33.839,10.306-68.16,18.766-102.775,25.377
						c-153.337,29.17-312.213,21.486-462.63-22.849c-101.123-29.753-198.452-76.134-287.809-139.14
						c-7-4.958-14.002-10.016-21.003-15.072c-0.679-0.582-1.359-1.068-2.137-1.555c-6.906-5.152-13.808-10.305-20.614-15.461
						c-7.097-5.443-14.195-10.986-21.295-16.625h-0.097c-7.001-5.641-13.902-11.279-20.807-16.918
						c-7.002-5.738-13.808-11.568-20.614-17.404c-6.807-5.835-13.515-11.67-20.126-17.601c-6.708-6.028-13.321-11.959-19.836-18.086
						c-6.515-6.027-12.932-12.154-19.348-18.375c-6.418-6.125-12.738-12.349-18.961-18.667c-6.223-6.32-12.447-12.643-18.572-19.058
						c-6.125-6.514-12.251-13.027-18.378-19.639c-5.831-6.422-11.568-12.837-17.307-19.448c-4.472-5.057-8.945-10.208-13.321-15.363
						c-12.737-15.069-25.183-30.434-37.239-46.088c-4.861-6.416-9.82-12.832-14.487-19.349c-0.682-0.777-1.262-1.653-1.848-2.431
						c-3.306-4.374-6.514-8.846-9.626-13.32c-7.193-10.114-14.195-20.224-21-30.531c-3.794-5.639-7.588-11.377-11.185-17.112
						c-5.538-8.653-10.986-17.308-16.332-26.156c-3.698-6.223-7.489-12.542-11.184-18.861c-5.057-8.849-10.016-17.894-14.973-26.936
						c-3.6-6.804-7.196-13.612-10.695-20.417c-3.6-6.903-7.1-13.903-10.405-20.904c-0.584-0.974-1.07-1.945-1.459-2.917
						c-7.389-15.072-14.293-30.337-20.71-45.7c-0.389-0.68-0.68-1.264-0.876-1.945c-3.208-7.584-6.318-15.167-9.333-22.85
						c-3.209-7.973-6.321-16.043-9.237-24.209c-3.015-8.071-5.931-16.239-8.654-24.407c-2.041-6.027-4.084-12.153-6.028-18.278
						c-1.556-4.86-3.015-9.726-4.472-14.587c-0.681-2.137-1.362-4.373-1.945-6.513c-1.458-4.763-2.819-9.432-4.083-14.196
						c-1.946-7.001-3.792-14.002-5.642-21.099C868.267,899.171,1335.078,329.823,1801.5,85.673
						c118.624-62.131,260.581-62.131,379.206,0c10.501,5.445,20.902,11.279,31.404,17.307l0.099,0.098
						C2667.936,365.021,3112.286,910.742,3041.21,1412.557z"/>
				</g>
				<g>
					<g opacity="0.4">
						<path fill="#000072" d="M2170.497,2241.615c13.218-3.434,26.392-7.053,39.474-11.038
							c97.62-29.657,191.645-74.87,278.085-135.733c0.388-0.294,0.877-0.586,1.267-0.879c22.168-15.654,43.85-31.891,65.047-48.711
							c6.128-4.861,12.154-9.726,18.085-14.588c3.017-2.525,5.931-4.953,8.852-7.383c11.763-9.826,23.333-19.742,34.708-29.952
							c6.223-5.543,12.35-11.085,18.378-16.819c0.874-0.685,1.748-1.557,2.625-2.432c5.93-5.446,11.766-10.991,17.599-16.632
							c7.194-6.998,14.386-14.095,21.39-21.192c4.962-4.862,9.724-9.822,14.586-14.881c3.403-3.592,6.809-7.29,10.211-10.884
							c4.665-4.962,9.334-9.918,13.806-14.976c9.336-10.308,18.475-20.715,27.418-31.209c3.305-3.888,6.516-7.782,9.826-11.669
							c1.743-2.144,3.498-4.28,5.248-6.419c2.722-3.304,5.44-6.71,8.167-10.107c4.861-6.131,9.621-12.157,14.39-18.379
							c4.861-6.419,9.724-12.839,14.486-19.351c3.207-4.374,6.323-8.657,9.432-13.026c3.695-5.153,7.389-10.309,10.986-15.56
							c8.265-11.96,16.238-24.016,24.019-36.167c4.667-7.293,9.235-14.587,13.708-21.979c0-0.097,0.099-0.288,0.293-0.484
							c3.596-6.029,7.193-12.059,10.698-18.183c5.15-8.75,10.112-17.598,14.974-26.544c4.083-7.587,8.066-15.068,11.954-22.751
							c0.099-0.193,0.199-0.39,0.293-0.583c3.599-6.904,7.099-13.812,10.403-20.809c0.489-0.974,0.974-1.947,1.458-2.916
							c3.599-7.487,7.102-14.973,10.5-22.561c3.601-7.776,7.105-15.753,10.408-23.625c3.398-7.977,6.708-15.948,9.818-24.019
							c3.208-7.972,6.324-16.042,9.238-24.208c2.822-7.393,5.446-14.878,7.972-22.46c0.779-2.236,1.558-4.572,2.335-6.909
							c1.748-5.246,3.499-10.496,5.153-15.847c1.261-4.084,2.624-8.262,3.792-12.444c0.679-1.946,1.168-3.793,1.752-5.739
							c1.459-5.054,2.914-10.107,4.373-15.266c1.846-6.707,3.691-13.61,5.446-20.417
							c70.207-495.663-362.457-1034.171-812.251-1299.722c316.412,287.798,555.828,691.042,502.274,1069.378
							c-1.752,6.809-3.6,13.711-5.446,20.42c-1.455,5.156-2.917,10.207-4.376,15.264c-0.583,1.946-1.069,3.793-1.746,5.74
							c-1.168,4.178-2.531,8.36-3.796,12.443c-1.651,5.351-3.403,10.602-5.153,15.847c-0.775,2.336-1.555,4.667-2.334,6.908
							c-2.528,7.582-5.148,15.069-7.97,22.457c-2.92,8.17-6.026,16.237-9.239,24.213c-3.11,8.071-6.42,16.041-9.817,24.014
							c-3.311,7.876-6.809,15.852-10.407,23.629c-3.404,7.582-6.904,15.073-10.502,22.554c-0.485,0.974-0.969,1.948-1.456,2.922
							c-3.308,6.997-6.806,13.904-10.402,20.807c-0.102,0.191-0.195,0.391-0.296,0.581c-3.888,7.681-7.871,15.167-11.96,22.756
							c-4.859,8.945-9.817,17.793-14.973,26.543c-3.501,6.125-7.1,12.153-10.698,18.183c-0.19,0.191-0.289,0.39-0.289,0.485
							c-4.473,7.388-9.045,14.679-13.704,21.973c-7.784,12.154-15.755,24.212-24.02,36.172c-3.601,5.251-7.294,10.401-10.985,15.558
							c-3.117,4.373-6.224,8.65-9.436,13.028c-4.768,6.515-9.628,12.932-14.489,19.351c-4.764,6.22-9.522,12.251-14.387,18.374
							c-2.724,3.404-5.445,6.808-8.171,10.112c-1.75,2.141-3.498,4.277-5.249,6.42c-3.306,3.887-6.516,7.776-9.82,11.668
							c-8.943,10.496-18.082,20.905-27.418,31.211c-4.476,5.058-9.142,10.013-13.808,14.975c-3.406,3.593-6.805,7.292-10.208,10.885
							c-4.862,5.058-9.629,10.018-14.586,14.881c-7.004,7.097-14.195,14.194-21.392,21.193c-5.835,5.64-11.667,11.184-17.602,16.63
							c-0.871,0.875-1.748,1.747-2.62,2.429c-6.028,5.737-12.153,11.277-18.38,16.817c-11.379,10.213-22.942,20.131-34.713,29.95
							c-2.917,2.43-5.836,4.862-8.847,7.393c-5.932,4.86-11.958,9.722-18.087,14.584c-21.193,16.822-42.877,33.058-65.049,48.712
							c-0.389,0.293-0.872,0.581-1.261,0.876c-86.441,60.866-180.466,106.079-278.086,135.737
							c-33.839,10.307-68.158,18.762-102.774,25.377c-57.498,10.938-115.78,16.694-174.1,17.28
							c58.319-0.586,116.602-6.343,174.1-17.28c1.657-0.32,3.305-0.688,4.963-1.02c-20.965,5.447-42.068,10.286-63.3,14.339
							c-126.859,24.136-257.5,22.967-384.015-3.241c-1.474-1.158-2.945-2.283-4.42-3.448c6.964,5.528,13.932,10.973,20.893,16.313
							c6.808,5.156,13.712,10.308,20.615,15.464c0.778,0.484,1.461,0.966,2.14,1.553c7.001,5.057,14.003,10.112,21,15.073
							c89.359,63.007,186.688,109.387,287.809,139.141c150.421,44.333,309.295,52.019,462.631,22.846
							c18.094-3.458,36.102-7.445,54.01-11.907C2203.276,2234.764,2186.919,2238.393,2170.497,2241.615z"/>
					</g>
				</g>
				<g opacity="0.55">
					<path fill="#FFFFFF" d="M2378.962,217.926c-35.879-24.309-72.146-46.964-108.414-67.868l-0.1-0.098
						c-10.498-6.028-20.904-11.862-31.404-17.306c-118.623-62.131-260.583-62.131-379.207,0
						c-466.42,244.149-933.232,813.542-860.503,1326.927c1.847,7.1,3.695,14.1,5.639,21.101c1.264,4.763,2.625,9.432,4.086,14.194
						c0.583,2.14,1.265,4.375,1.943,6.514c1.459,4.863,2.917,9.726,4.473,14.586c1.946,6.125,3.987,12.251,6.028,18.279
						c2.724,8.169,5.639,16.336,8.653,24.405c2.917,8.167,6.029,16.239,9.238,24.21c3.012,7.682,6.125,15.266,9.334,22.852
						c0.192,0.68,0.486,1.265,0.874,1.943c6.418,15.364,13.321,30.628,20.711,45.7c0.39,0.972,0.874,1.946,1.46,2.917
						c3.304,7.001,6.805,14.001,10.405,20.904c3.498,6.807,7.093,13.614,10.692,20.421c4.958,9.04,9.918,18.083,14.975,26.933
						c3.695,6.318,7.486,12.639,11.182,18.862c5.348,8.848,10.791,17.501,16.334,26.156c3.599,5.736,7.39,11.475,11.183,17.112
						c6.806,10.308,13.806,20.417,21.002,30.532c3.111,4.474,6.32,8.946,9.626,13.318c0.581,0.779,1.166,1.655,1.847,2.433
						c4.67,6.516,9.626,12.931,14.487,19.348c12.058,15.655,24.504,31.019,37.241,46.089c4.375,5.155,8.848,10.306,13.322,15.362
						c5.735,6.613,11.469,13.031,17.306,19.448c6.125,6.613,12.249,13.126,18.377,19.639c6.125,6.419,12.347,12.738,18.57,19.06
						c6.223,6.316,12.544,12.542,18.962,18.667c6.417,6.222,12.834,12.351,19.349,18.378c6.515,6.125,13.125,12.056,19.835,18.084
						c6.611,5.93,13.321,11.765,20.127,17.6c6.808,5.836,13.613,11.666,20.613,17.405c6.904,5.639,13.808,11.275,20.807,16.917
						h0.099c7.098,5.641,14.197,11.181,21.295,16.626c6.319,4.765,12.735,9.53,19.153,14.39
						c-8.069-5.246-16.044-10.695-24.015-16.332c-7.003-4.959-14.003-10.016-21.004-15.072c-0.678-0.582-1.36-1.068-2.138-1.557
						c-6.905-5.15-13.807-10.308-20.613-15.458c-7.1-5.444-14.197-10.989-21.294-16.628h-0.097
						c-7.002-5.64-13.905-11.28-20.81-16.916c-7-5.742-13.807-11.571-20.61-17.406c-6.81-5.834-13.518-11.667-20.131-17.6
						c-6.709-6.029-13.318-11.959-19.835-18.084c-6.515-6.029-12.93-12.154-19.351-18.377c-6.416-6.127-12.736-12.35-18.957-18.668
						c-6.224-6.32-12.447-12.64-18.572-19.058c-6.125-6.514-12.252-13.029-18.377-19.642c-5.835-6.417-11.571-12.832-17.306-19.445
						c-4.476-5.057-8.947-10.21-13.323-15.363c-12.737-15.071-25.182-30.435-37.238-46.088c-4.862-6.416-9.82-12.834-14.489-19.35
						c-0.679-0.778-1.265-1.653-1.847-2.43c-3.305-4.375-6.516-8.849-9.626-13.321c-7.196-10.112-14.196-20.224-21.004-30.529
						c-3.79-5.642-7.584-11.379-11.179-17.116c-5.544-8.655-10.989-17.305-16.336-26.154c-3.695-6.223-7.487-12.545-11.184-18.862
						c-5.055-8.851-10.013-17.893-14.974-26.935c-3.597-6.807-7.194-13.612-10.696-20.418c-3.596-6.903-7.095-13.905-10.401-20.906
						c-0.584-0.972-1.068-1.946-1.459-2.916c-7.391-15.073-14.292-30.337-20.71-45.7c-0.389-0.683-0.681-1.263-0.875-1.946
						c-3.21-7.583-6.32-15.168-9.334-22.849c-3.211-7.972-6.322-16.043-9.236-24.21c-3.015-8.07-5.934-16.237-8.655-24.406
						c-2.043-6.028-4.084-12.153-6.029-18.278c-1.555-4.863-3.012-9.726-4.472-14.586c-0.679-2.14-1.361-4.376-1.945-6.515
						c-1.458-4.764-2.818-9.43-4.082-14.196c-1.945-6.999-3.794-14-5.641-21.097C877.988,912.163,1344.8,342.772,1811.223,98.621
						c118.623-62.131,260.582-62.131,379.205,0c10.5,5.446,20.905,11.279,31.406,17.308l0.099,0.097
						C2274.729,146.363,2327.334,180.491,2378.962,217.926z"/>
				</g>
				<g>
					<path fill="#000072" d="M1991.097,2288.969c-204.403,0.007-408.763-61.5-583.089-184.49
						c-7.119-5.043-14.203-10.157-21.275-15.271c-0.369-0.262-0.726-0.537-1.077-0.816c-0.489-0.319-0.963-0.656-1.438-1.002
						c-7.335-5.485-14.104-10.538-20.768-15.58c-6.889-5.289-13.656-10.572-20.416-15.932c-0.569-0.39-1.111-0.795-1.646-1.229
						c-6.837-5.503-13.581-11.008-20.33-16.521c-7.843-6.43-14.823-12.402-21.782-18.373c-6.978-5.985-13.86-11.965-20.626-18.039
						l-0.956-0.859c-6.559-5.89-13.011-11.697-19.385-17.692c-6.505-6.019-13.09-12.3-19.673-18.685
						c-6.463-6.167-13.001-12.602-19.438-19.138c-6.593-6.692-12.792-12.992-18.895-19.391c-6.32-6.717-12.484-13.279-18.656-19.942
						c-6.182-6.797-12.075-13.381-17.959-20.158c-4.42-5.002-9.034-10.31-13.534-15.63c-13.353-15.79-26.161-31.642-38.104-47.143
						l-3.212-4.237c-3.81-5.008-7.618-10.024-11.277-15.103c-0.674-0.841-1.313-1.698-1.928-2.545
						c-3.596-4.769-7.029-9.555-10.366-14.341c-7.809-10.967-14.865-21.23-21.396-31.119c-3.836-5.701-7.803-11.699-11.558-17.692
						c-5.543-8.645-11.12-17.52-16.592-26.584l-3.434-5.767c-2.66-4.46-5.339-8.956-7.967-13.456
						c-5.016-8.784-9.805-17.494-14.586-26.207l-0.77-1.404c-3.879-7.315-7.53-14.227-11.075-21.132
						c-3.521-6.754-7.022-13.75-10.35-20.75c-0.805-1.461-1.541-2.942-2.17-4.426c-7.855-16.241-14.57-31.046-20.507-45.183
						c-0.568-1.134-1.19-2.49-1.76-4.051c-3.16-7.497-6.234-14.995-9.211-22.586c-3.247-8.09-6.505-16.522-9.553-25.053
						c-2.984-7.995-6.014-16.49-8.851-24.989c-2.058-6.076-4.159-12.376-6.162-18.672c-1.586-4.987-3.093-10-4.607-15.018
						c-0.665-2.105-1.453-4.711-2.136-7.201c-1.331-4.311-2.793-9.325-4.15-14.446c-1.89-6.809-3.781-13.957-5.663-21.206
						c-0.282-1.071-0.5-2.163-0.657-3.257c-44.041-310.893,102.429-598.607,233.058-785.227
						c165.074-235.829,399.367-444.167,642.801-571.592c127.197-66.62,279.066-66.62,406.266,0
						c243.435,127.425,477.726,335.767,642.8,571.592c130.629,186.62,277.098,474.334,233.058,785.227
						c-0.157,1.068-0.368,2.134-0.64,3.178c-1.783,6.961-3.677,14.021-5.567,20.886l-4.999,17.41
						c-0.438,1.512-0.877,2.995-1.385,4.519c-0.874,3.068-1.828,6.138-2.782,9.167l-1.008,3.212
						c-1.593,5.172-3.274,10.232-4.946,15.289l-0.385,1.146c-0.842,2.508-1.654,4.964-2.479,7.314
						c-2.54,7.612-5.306,15.488-8.266,23.259c-2.828,7.95-6.076,16.387-9.438,24.723c-3.064,7.967-6.506,16.257-10.035,24.544
						c-3.386,8.055-7.029,16.346-10.767,24.436c-3.363,7.503-6.97,15.226-10.684,22.952l-1.689,3.376
						c-3.143,6.698-6.82,13.947-10.603,21.196c-4.124,8.174-8.231,15.874-12.424,23.669c-5.068,9.343-10.199,18.479-15.516,27.519
						c-3.413,5.971-7.107,12.159-10.794,18.339c-0.043,0.065-0.079,0.13-0.121,0.198c-0.089,0.147-0.177,0.295-0.264,0.444
						c-4.597,7.597-9.299,15.095-14.098,22.589c-8.553,13.365-16.6,25.479-24.582,37.035c-3.653,5.332-7.471,10.653-11.279,15.97
						c-3.145,4.405-6.321,8.784-9.604,13.266c-4.867,6.644-9.814,13.185-14.771,19.724c-4.964,6.489-9.832,12.653-14.813,18.916
						c-2.861,3.586-5.675,7.098-8.492,10.513l-15.357,18.439c-9.158,10.741-18.577,21.462-28.025,31.89
						c-4.291,4.866-9.036,9.919-13.781,14.964l-10.681,11.379c-5.326,5.543-10.235,10.646-15.34,15.656
						c-6.785,6.88-14.122,14.125-21.47,21.271c-5.935,5.739-11.81,11.326-17.788,16.814c-1.112,1.099-2.243,2.159-3.364,3.123
						c-6.032,5.724-12.161,11.265-18.395,16.812c-12.083,10.748-23.989,21.022-35.406,30.549l-8.781,7.342
						c-6.313,5.178-12.469,10.137-18.701,15.091c-21.486,17.052-43.821,33.771-66.365,49.698c-0.177,0.124-0.754,0.519-1.077,0.742
						c-0.08,0.054-0.159,0.109-0.236,0.17C2398.85,2227.77,2194.947,2288.961,1991.097,2288.969z M1421.632,2042.453
						c6.68,4.826,13.368,9.65,20.05,14.385c328.07,231.467,769.19,231.807,1097.665,0.816v0.005
						c0.456-0.328,0.946-0.665,1.235-0.858c21.644-15.287,43.084-31.344,63.722-47.721c5.997-4.763,11.906-9.529,17.72-14.292
						l8.65-7.229c10.943-9.14,22.396-19.019,34.015-29.355c5.971-5.31,11.864-10.633,17.65-16.147c0.5-0.482,1.024-0.94,1.567-1.386
						l0.543-0.543c0.298-0.293,0.604-0.582,0.91-0.867c5.743-5.273,11.392-10.643,17.039-16.101
						c6.987-6.8,14.043-13.755,20.89-20.706c5.053-4.957,9.561-9.646,14.149-14.423l10.207-10.89
						c4.692-4.981,9.02-9.578,13.159-14.262c9.298-10.267,18.326-20.543,27.082-30.818l14.647-17.582
						c2.738-3.33,5.377-6.623,8.011-9.914c4.701-5.919,9.357-11.813,14.019-17.893c4.667-6.168,9.438-12.463,14.112-18.855
						c3.126-4.263,6.161-8.44,9.204-12.712c3.631-5.065,7.203-10.052,10.688-15.129c7.661-11.084,15.332-22.636,23.508-35.411
						c4.526-7.07,8.967-14.148,13.309-21.324c0.07-0.117,0.142-0.234,0.211-0.354l0,0c3.51-5.875,7.014-11.747,10.428-17.714
						c5.155-8.771,9.954-17.328,14.655-25.984c3.915-7.267,7.793-14.538,11.566-21.998c0.054-0.105,0.394-0.792,0.454-0.896
						c3.417-6.558,6.742-13.116,9.885-19.766l1.796-3.616c3.24-6.75,6.636-13.995,9.92-21.341
						c3.606-7.792,6.971-15.447,10.148-23.005c3.317-7.792,6.496-15.452,9.482-23.202c3.229-8.027,6.197-15.737,8.982-23.534
						c2.89-7.6,5.383-14.695,7.782-21.883l2.698-8.008c1.558-4.682,3.115-9.368,4.586-14.133l1.077-3.451
						c0.851-2.713,1.718-5.46,2.487-8.203c0.166-0.622,0.359-1.234,0.578-1.844c0.279-0.812,0.498-1.605,0.728-2.402l4.857-16.89
						c1.602-5.836,3.265-12.017,4.851-18.149c31.693-227.509-47.577-490.93-223.313-741.986
						c-159.898-228.426-386.627-430.124-622.067-553.363c-110.246-57.751-241.892-57.751-352.14,0
						c-235.439,123.239-462.176,324.932-622.076,553.363c-175.72,251.044-254.982,514.456-223.313,741.954
						c1.672,6.389,3.345,12.706,5.095,19.018c1.261,4.762,2.53,9.081,3.88,13.488c0.717,2.597,1.294,4.465,1.856,6.251
						c1.53,5.09,2.949,9.797,4.447,14.508c1.899,5.979,3.896,11.929,5.874,17.782c2.653,7.967,5.454,15.807,8.344,23.557
						c2.934,8.199,5.907,15.912,8.975,23.535c3.012,7.676,6.031,15.023,9.141,22.368c0.053,0.136,0.112,0.272,0.166,0.413
						c0.272,0.546,0.525,1.104,0.753,1.646c5.735,13.732,12.301,28.199,20.06,44.24c0.183,0.385,0.366,0.773,0.533,1.169
						c0.367,0.649,0.717,1.311,1.033,1.982c3.153,6.66,6.479,13.326,9.902,19.892c3.527,6.862,7.073,13.564,10.611,20.271
						l0.552,0.998c4.632,8.426,9.254,16.849,13.964,25.1c2.399,4.098,4.992,8.45,7.565,12.765l3.371,5.667
						c5.104,8.448,10.419,16.885,15.82,25.324c3.582,5.7,7.196,11.18,10.822,16.565c6.286,9.518,12.976,19.23,20.556,29.891
						c3.075,4.404,6.052,8.565,9.134,12.633c0.131,0.181,0.726,0.994,0.856,1.177l-0.394-0.433c0.656,0.74,1.271,1.51,1.84,2.308
						c3.511,4.907,7.197,9.743,10.873,14.577l3.144,4.146c11.26,14.607,23.509,29.768,36.266,44.861
						c4.22,4.974,8.553,9.969,12.887,14.867c5.778,6.657,11.373,12.91,17.056,19.161c5.883,6.344,11.96,12.811,18.037,19.28
						c5.742,6.021,11.73,12.096,17.719,18.175c6.4,6.503,12.503,12.508,18.701,18.428c6.428,6.226,12.679,12.195,19.027,18.065
						c6.224,5.858,12.354,11.364,18.578,16.954l0.937,0.846c6.436,5.773,12.984,11.464,19.622,17.155
						c6.636,5.688,13.282,11.387,20.109,16.985c6.751,5.515,12.977,10.596,19.236,15.644c0.446,0.318,0.893,0.65,1.321,0.995
						c6.971,5.531,13.93,10.972,20.908,16.322c6.35,4.805,12.933,9.727,19.516,14.645
						C1419.494,2040.813,1420.572,2041.604,1421.632,2042.453z M1384.901,2087.77c0.01,0.002,0.019,0.016,0.027,0.02
						C1384.92,2087.785,1384.911,2087.771,1384.901,2087.77z M2684.582,1940.127c-0.071,0.058-0.14,0.115-0.21,0.171
						C2684.442,1940.242,2684.511,1940.185,2684.582,1940.127z M1018.447,1550.737c0.008,0.014,0.008,0.028,0.018,0.041
						C1018.455,1550.765,1018.455,1550.751,1018.447,1550.737z M1016.661,1546.308c0.009,0.011,0.009,0.014,0.019,0.021
						C1016.67,1546.321,1016.67,1546.313,1016.661,1546.308z M3041.212,1412.561h0.088H3041.212z"/>
				</g>
				<g>
					<g>
						<g>
							<g>
								<path fill="#FDBD91" d="M2808.201,1559.906c-1.794,5.462-3.744,11-5.772,16.696
									c-54.064,138.479-160.088,212.282-224.298,128.728l38.306-188.097l26.059-127.87
									C2742.669,1320.943,2876.231,1351.681,2808.201,1559.906z"/>
							</g>
							<g>
								<path fill="#000072" d="M2642.354,1744.055c-25.477,0-48.452-12.497-66.979-36.608l-0.963-1.256l64.955-318.901l1.166-0.797
									c54.686-37.352,116.235-43.823,153.14-16.135c24.032,18.027,58.302,66.769,17.826,190.63l0,0
									c-1.795,5.489-3.757,11.058-5.796,16.784c-36.134,92.559-95.724,157.465-151.838,165.455
									C2649.979,1743.781,2646.136,1744.055,2642.354,1744.055z M2581.862,1704.452c19.499,24.701,43.979,35.722,71.025,31.892
									c53.669-7.648,111.104-70.845,146.301-161.007c1.986-5.568,3.93-11.077,5.707-16.513l0,0
									c28.998-88.743,23.526-153.701-15.399-182.908c-34.27-25.717-91.957-19.441-143.877,15.533L2581.862,1704.452z"/>
							</g>
						</g>
						<g opacity="0.3">
							<path fill="#000072" d="M2808.201,1559.906c-1.794,5.462-3.744,11-5.772,16.696
								c-54.064,138.479-160.088,212.282-224.298,128.728l38.306-188.097c8.975-0.703,14.356-1.093,14.356-1.093
								c38.93,121.782,95.491,132.626,169.686,32.455C2800.479,1548.594,2803.286,1552.729,2808.201,1559.906z"/>
						</g>
						<g>
							<path fill="#000072" d="M2642.494,1763.954c-31.615,0-60.656-15.41-82.913-44.359c-4.143-5.381-5.735-12.288-4.379-18.937
								l64.362-315.964c1.207-5.967,4.701-11.224,9.726-14.656c62.487-42.67,133.854-48.59,177.559-14.691
								c29.323,22.729,70.604,82.73,17.59,229.218c-39.461,101.092-103.653,169.231-167.742,178.368
								C2651.913,1763.616,2647.178,1763.954,2642.494,1763.954z M2603.34,1698.854c13.771,14.43,29.174,20.231,46.752,17.741
								c45.958-6.553,98.412-66.234,130.534-148.506c31.144-86.082,30.328-150.341-2.45-175.748
								c-25.628-19.866-71.855-15.016-114.703,11.312L2603.34,1698.854z"/>
						</g>
						<g>
							<g>
								<path fill="#FDBD91" d="M1174.198,1559.906c1.793,5.462,3.743,11,5.772,16.696
									c54.064,138.479,160.088,212.282,224.297,128.728l-38.307-188.097l-26.059-127.87
									C1239.731,1320.943,1106.167,1351.681,1174.198,1559.906z"/>
							</g>
							<g>
								<path fill="#000072" d="M1340.066,1745.443c-3.853,0-7.765-0.284-11.731-0.849
									c-56.596-8.058-116.613-73.309-152.887-166.224c-2.102-5.87-4.063-11.448-5.876-16.946v-0.009
									c-40.729-124.68-6.004-173.916,18.327-192.171c37.375-28.042,99.563-21.582,154.741,16.105l1.627,1.113l65.211,320.067
									l-1.36,1.76C1389.315,1732.757,1365.982,1745.443,1340.066,1745.443z M1178.819,1558.396
									c1.776,5.422,3.722,10.921,5.735,16.573c34.969,89.567,91.965,152.427,145.154,160.004
									c26.685,3.787,49.994-6.586,69.351-30.876l-63.528-311.817c-51.314-34.376-108.12-40.537-141.794-15.256
									C1155.318,1405.847,1150.022,1470.255,1178.819,1558.396L1178.819,1558.396z"/>
							</g>
						</g>
						<g opacity="0.55">
							<path fill="#FFFFFF" d="M1317.757,1738.285c-49.539-16.542-100.641-76.302-133.096-159.387
								c-2.028-5.695-3.979-11.235-5.771-16.696c-68.031-208.224,65.531-238.963,165.705-170.542l0.467,2.339
								c-90.574-34.25-181.932,13.263-123.265,192.933c1.796,5.461,3.746,11,5.774,16.697
								C1250.586,1662.687,1283.117,1709.963,1317.757,1738.285z"/>
						</g>
						<g>
							<path fill="#000072" d="M1339.908,1763.954c-4.683,0-9.42-0.338-14.201-1.021c-64.087-9.136-128.282-77.275-167.533-177.822
								c-53.224-147.034-11.941-207.035,17.38-229.764c43.714-33.884,115.063-27.984,177.551,14.691
								c5.023,3.432,8.518,8.688,9.726,14.656l64.369,315.964c1.356,6.648-0.236,13.556-4.377,18.937
								C1400.565,1748.538,1371.524,1763.954,1339.908,1763.954z M1244.835,1380.149c-15.928,0-30.023,3.988-40.606,12.193
								c-32.781,25.407-33.597,89.666-2.244,176.295c31.914,81.725,84.367,141.406,130.323,147.959
								c17.6,2.494,32.966-3.311,46.755-17.741l-60.141-295.201C1293.775,1388.2,1267.458,1380.149,1244.835,1380.149z"/>
						</g>
						<g>
							<g>
								<path fill="#FDBD91" d="M2628.375,1521.99v108.131c0,185.989-89.015,362.383-242.317,467.703
									c-2.184,1.484-4.369,2.889-6.477,4.371c-233.813,156.734-539.947,156.734-773.762,0.076
									c-2.107-1.481-4.292-2.963-6.476-4.447c-153.377-105.243-242.396-281.635-242.396-467.703V1521.99
									c0,0,0.393-6.943,1.172-19.425c5.771-98.691,31.907-541.51,36.12-552.823
									C1533.421,575.111,2924.914,666.936,2628.375,1521.99z"/>
							</g>
							<g>
								<path fill="#000072" d="M1992.621,2225.222c-135.604,0-271.189-39.639-389.51-118.909c-1.97-1.387-3.913-2.711-5.864-4.035
									c-153.752-105.494-245.162-281.839-245.162-472.159V1521.99c0.012-0.275,0.405-7.227,1.185-19.726
									c9.517-162.783,32.115-542.682,36.423-554.217c36.527-98.335,160.379-171.197,339.786-199.893
									c173.182-27.702,374.912-8.926,539.617,50.216c164.452,59.054,528.954,247.833,364.135,724.438v107.311
									c0,190.224-91.37,366.562-244.423,471.711l-2.521,1.689c-1.323,0.881-2.637,1.758-3.914,2.654
									C2263.982,2185.536,2128.292,2225.222,1992.621,2225.222z M1893.632,745.316c-55.604,0-110.413,4.089-162.613,12.442
									c-175.851,28.123-296.938,98.716-332.213,193.682c-3.371,12.458-21.415,304.857-35.835,551.411
									c-0.78,12.473-1.174,19.406-1.174,19.414l0.006,107.854c0,187.116,89.832,360.457,240.294,463.694
									c2.608,1.781,4.604,3.136,6.523,4.484c233.302,156.311,534.897,156.274,768.254-0.141c1.261-0.889,2.637-1.806,4.026-2.73
									l2.426-1.624c150.391-103.319,240.188-276.664,240.188-463.683l0.262-109.721
									c162.647-468.98-196.146-654.769-357.963-712.874C2152.229,766.733,2020.863,745.316,1893.632,745.316z"/>
							</g>
						</g>
						<g opacity="0.3">
							<path fill="#000072" d="M2628.375,1521.99v108.131c0,185.989-89.015,362.383-242.317,467.703
								c-2.184,1.484-4.369,2.889-6.477,4.371c-233.813,156.734-539.947,156.734-773.762,0.076
								c-2.107-1.481-4.292-2.963-6.476-4.447c-4.837-3.352-9.674-6.787-14.431-10.295
								c220.003,106.957,483.698,91.044,690.675-47.746c2.104-1.483,4.29-2.887,6.474-4.371
								c153.301-105.32,242.317-281.714,242.317-467.705l9.246-136.302c100.644-290.141-2.379-464.186-175.578-590.104
								C2593.736,957.466,2747.661,1177.939,2628.375,1521.99z"/>
						</g>
						<g opacity="0.3">
							<path fill="#000072" d="M2628.375,1521.99v43.922c-69.902-102.98-83.399-383.995-83.399-383.995
								c-61.11,66.366-404.35,142.89-645.236,14.923c-12.994-6.901-27.25,6.9-20.728,20.089c2.938,5.942,4.126,7.95,4.126,7.95
								c-31.681,19.612-180.918,0.496-261.876-46.613c-22.517-13.102-51.229,1.09-55.263,26.827
								c-18.14,115.745-75.764,196.32-199.063,316.897c-3.045-6.475-6.009-12.951-8.815-19.425
								c5.771-98.691,31.907-541.51,36.12-552.823C1533.421,575.111,2924.914,666.936,2628.375,1521.99z"/>
						</g>
						<g opacity="0.55">
							<path fill="#FFFFFF" d="M2256.472,2167.809c-211.422,86.673-456.081,64.83-650.652-65.537
								c-2.107-1.481-4.292-2.963-6.476-4.447c-153.377-105.243-242.396-281.635-242.396-467.703V1521.99
								c0,0,32.534-559.531,37.292-572.248c29.255-78.717,113.745-136.839,226.324-171.634
								c-84.647,35.341-146.825,86.442-171.089,151.663c-4.76,12.794-37.29,572.248-37.29,572.248v108.128
								c0,186.069,89.015,362.463,242.394,467.786c2.186,1.402,4.597,2.595,6.554,4.368
								C1812.941,2219.756,2058.624,2229.984,2256.472,2167.809z"/>
						</g>
						<g>
							<path fill="#000072" d="M1992.674,2243.797c-139.203,0-278.388-40.693-399.84-122.094c-2.243-1.494-4.484-3.02-6.727-4.552
								c-158.146-108.517-252.563-290.589-252.563-487.037V1521.99c0-0.455,0.008-0.907,0.035-1.357
								c32.728-562.596,37.244-575.086,38.725-579.07l0,0c85.653-230.453,568.177-280.923,903.131-160.62
								c159.559,57.313,280.363,148.196,349.373,262.827c81.206,134.911,90.276,297.107,26.966,482.138v104.207
								c0,196.4-94.391,378.45-252.503,486.995l-6.663,4.521C2271.136,2203.07,2131.899,2243.792,1992.674,2243.797z
								 M1380.349,1522.668v107.446c0,181.013,86.828,348.653,232.255,448.446c2.082,1.435,4.167,2.842,6.268,4.25
								c227.124,152.217,520.593,152.189,747.646-0.045l6.243-4.237c145.407-99.819,232.209-267.445,232.209-448.414V1521.99
								c0-2.61,0.438-5.206,1.287-7.67c157.238-453.3-190.045-633.072-346.65-689.326
								c-339.437-121.91-771.382-54.397-842.78,131.186C1412.49,986.409,1392.766,1309.345,1380.349,1522.668z M1416.185,957.875
								c-0.009,0-0.009,0-0.009,0S1416.176,957.875,1416.185,957.875z M1416.352,957.41c-0.053,0.136-0.113,0.303-0.156,0.438
								C1416.238,957.722,1416.29,957.577,1416.352,957.41z M1394.243,949.714h0.09H1394.243z"/>
						</g>
						<g>
							<g>
								<path fill="#AC3D50" d="M2621.041,720.375c175.537,224.296,153.692,614.61,5.85,819.169
									c-113.121-62.414-120.609-357.627-120.609-357.627c-267.753,72.868-538.702,28.398-784.372-183.259
									c-5.228,83.166,64.44,160.323,64.44,160.323c-31.596-0.937-59.917-5.538-85.352-13.185
									c-88.86-26.604-141.754-90.966-174.131-171.869c-31.207,280.858-33.157,343.271-169.919,548.062
									c-136.526-292.56-161.648-653.383,65.924-761.279c-317.292-109.224-200.268-330.321,72.788-133.954
									c-133.953-192.466,35.109-266.659,70.216-54.611c197.456-360.668,1064.917-234.048,1182.488,175.536l-127.013-27.228
									C2621.12,720.375,2621.041,720.375,2621.041,720.375z"/>
							</g>
							<g>
								<path fill="#000072" d="M2628.311,1545.88l-3.766-2.08c-106.455-58.73-121.154-311.523-122.916-355.594
									c-284.417,75.594-545.116,15.317-775.137-179.236c0.753,76.304,62.812,146.026,63.467,146.753l7.627,8.449l-11.374-0.333
									c-30.959-0.916-60.096-5.415-86.617-13.382c-76.853-23.014-132.6-74.626-169.932-157.527l-1.708,15.404
									c-27.755,251.485-35.212,319.076-166.964,516.357l-4.798,7.179l-3.65-7.824c-137.502-294.67-160.363-648.053,57.915-762.569
									c-128.16-46.53-178.555-109.197-182.724-153.118c-2.18-22.938,7.669-41.917,27.738-53.435
									c37.612-21.59,114.966-17.729,222.524,53.702c-45.063-73.73-43.792-127.088-27.517-151.546
									c9.533-14.328,24.479-20.528,40.843-16.99c27.387,5.879,61.19,40.13,76.941,118.131
									c108.593-180.412,370.563-220.306,582.695-196.723c252.767,28.091,536.956,157.985,602.079,384.841l2.231,7.791
									l-122.398-26.235c170.317,230.384,140.74,616.931-2.041,814.497L2628.311,1545.88z M2510.979,1175.603l0.158,6.195
									c0.078,2.887,8.519,286.514,114.371,351.32c140.733-198.886,167.262-585.421-8.291-809.747l-6.156-7.857l11.879,0.351
									l118.409,25.342c-68.133-217.697-344.864-342.637-591.467-370.045c-213.455-23.731-477.849,17.222-579.743,203.317
									l-6.759,12.349l-2.303-13.89c-13.676-82.593-47.219-118.062-71.794-123.34c-12.485-2.667-23.386,1.876-30.707,12.869
									c-16.084,24.174-14.979,80.975,41.073,161.515l16.204,23.293l-23.034-16.569c-114.633-82.428-196.925-87.8-232.507-67.347
									c-16.564,9.509-24.699,25.164-22.904,44.083c3.826,40.197,55.099,103.256,187.051,148.675l11.275,3.883l-10.777,5.104
									c-221.554,105.038-201.574,453.688-67.241,746.958c125.798-189.763,133.361-258.274,160.573-504.79l5.892-53.154
									l7.207,18.001c36.046,90.074,91.983,145.365,170.998,169.022c22.563,6.781,47.133,10.974,73.161,12.498
									c-18.009-22.625-62.828-86.341-58.493-155.286l0.611-9.762l7.409,6.387c230.904,198.93,493.294,260.262,779.924,182.248
									L2510.979,1175.603z"/>
							</g>
						</g>
						<g opacity="0.3">
							<path fill="#000072" d="M1494.394,925.034c11.634,22.452,22.247,47.758,29.276,77.76
								c-28.321,256.595-34.796,321.583-166.722,519.196c-15.446-33.156-29.487-67.094-41.815-101.499
								c108.322-168.038,120.99-262.952,146.016-489.339C1463.072,913.75,1486.34,909.488,1494.394,925.034z"/>
						</g>
						<g opacity="0.55">
							<path fill="#FFFFFF" d="M1444.092,593.444c-171.79-72.789-233.968,53.052-66.625,149.635
								C1135.93,637.758,1222.059,466.279,1444.092,593.444z"/>
						</g>
						<g opacity="0.55">
							<path fill="#FFFFFF" d="M1417.411,763.441c0.159,0.072,0.32,0.144,0.482,0.216c21.626,9.564,26.196,37.944,7.995,53.037
								c-155.435,128.881-149.526,418.859-46.938,671.67c-6.867,10.767-14.2,22-22.002,33.625
								C1221.511,1231.772,1195.69,874.458,1417.411,763.441z"/>
						</g>
						<g opacity="0.55">
							<path fill="#FFFFFF" d="M1484.971,623.635l-0.524-0.291c-90.656-139.571-8.172-219.947,46.906-155.583
								c-30.421,4.489-48.486,51.539-14.704,125.974C1525.612,613.482,1503.999,634.032,1484.971,623.635z"/>
						</g>
						<g opacity="0.55">
							<path fill="#FFFFFF" d="M2576.183,537.039c-149.479-68.966-349.668-115.073-531.367-115.931
								c-28.008,53.751-122.406,51.1-162.117,12.872c-102.201,18.335-188.724,57.03-242.707,121.549
								c-15.449,18.489-45.64,17.241-57.81-3.589c-0.703-1.093-1.327-2.262-1.874-3.588
								C1749.604,332.481,2320.68,314.694,2576.183,537.039z"/>
						</g>
						<g>
							<path fill="#000072" d="M2626.873,1562.953c-3.832,0-7.722-0.946-11.285-2.917
								c-103.215-56.944-126.269-267.213-131.357-348.277c-266.466,64.623-512.08,11.635-731.428-157.676
								c15.856,49.644,50.474,88.718,50.945,89.239c6.254,6.973,7.768,17.016,3.817,25.509
								c-3.851,8.278-12.134,13.553-21.213,13.553c-0.237,0-0.473,0-0.718-0.008c-107.464-3.301-189.24-46.688-243.994-129.229
								c-24.717,220.714-38.795,292.521-165.23,481.843c-4.693,7.021-12.74,10.956-21.24,10.338
								c-8.432-0.644-15.856-5.78-19.429-13.44c-134.167-287.503-160.047-630.388,33.429-766.879
								c-110.66-48.081-155.61-109.81-159.898-154.891c-2.865-30.167,10.61-56.144,36.972-71.273
								c35.416-20.348,100.512-21.836,187.872,22.576c-19.271-52.418-14.227-91.835,0.929-114.612
								c13.781-20.694,36.31-29.982,60.175-24.848c34.375,7.385,62.9,40.882,80.542,92.653
								c123.757-158.923,373.161-194.207,577.245-171.544c258.916,28.775,550.373,163.051,617.852,398.154
								c2.275,7.906,0.226,16.419-5.386,22.431c-5.611,6.015-13.957,8.628-22.021,6.913l-69.63-14.937
								c63.353,103.93,96.729,237.195,94.819,382.04c-2.11,159.063-46.858,310.535-122.776,415.585
								C2641.321,1559.538,2634.177,1562.953,2626.873,1562.953z M2506.271,1158.517c4.979,0,9.892,1.589,13.981,4.627
								c5.761,4.289,9.236,10.992,9.42,18.176c1.884,72.722,22.194,261.688,91.403,325.252
								c127.516-197.578,147.68-559.48-18.461-771.771c-6.077-7.757-6.637-18.487-1.411-26.834
								c5.218-8.358,15.078-12.542,24.752-10.477l86.379,18.526c-81.108-190.813-335.915-301.018-564.5-326.425
								c-260.769-28.967-481.114,47.09-561.428,193.791c-4.805,8.758-14.622,13.513-24.455,11.837
								c-9.839-1.672-17.536-9.403-19.162-19.253c-13.03-78.666-43.245-105.199-57.393-108.238
								c-3.477-0.749-7.547-0.753-11.382,5.013c-9.641,14.488-13.511,62.53,40.853,140.646c6.515,9.36,5.332,22.046-2.785,30.048
								c-8.142,7.99-20.847,8.969-30.092,2.325c-100.581-72.337-179.177-85.417-212.447-66.317
								c-10.314,5.917-14.789,14.502-13.667,26.244c3.553,37.455,58.931,93.073,174.614,132.897
								c9.001,3.094,15.227,11.329,15.752,20.828c0.525,9.5-4.746,18.373-13.343,22.449
								c-122.407,58.035-152.475,190.328-156.134,291.089c-4.344,119.458,26.108,263.33,84.12,400.33
								c105.459-164.417,112.937-232.137,138.975-468.044l3.746-33.896c1.19-10.669,9.483-19.161,20.119-20.606
								c10.663-1.45,20.893,4.543,24.876,14.502c37.684,94.248,99.548,148.641,188.345,165.131
								c-20.111-33.227-41.642-81.653-38.401-133.174c0.56-8.869,6.086-16.657,14.28-20.106c8.179-3.449,17.625-1.97,24.356,3.845
								c225.959,194.652,482.621,254.683,762.949,178.402C2502.154,1158.783,2504.22,1158.517,2506.271,1158.517z"/>
						</g>
						<g>
							<path fill="#000072" d="M2506.26,1205.332c-10.323,0-19.778-6.886-22.58-17.332c-3.36-12.485,4.038-25.326,16.521-28.683
								c29.069-7.818,58.462-17.204,87.363-27.904c12.125-4.481,25.591,1.704,30.074,13.826
								c4.481,12.121-1.707,25.586-13.824,30.075c-30.241,11.193-61.008,21.016-91.459,29.207
								C2510.323,1205.068,2508.275,1205.332,2506.26,1205.332z"/>
						</g>
						<g opacity="0.3">
							<path fill="#000072" d="M2626.891,1539.545c-113.121-62.414-120.609-357.627-120.609-357.627
								c-267.753,72.868-538.702,28.398-784.372-183.259c-5.228,83.166,64.44,160.323,64.44,160.323
								c-31.596-0.937-59.917-5.538-85.352-13.185c-128.102-211.111-73.567-260.885,110.628-195.975
								c511.16,164.925,883.297,190.749,809.415-229.446C2796.578,944.672,2774.733,1334.985,2626.891,1539.545z"/>
						</g>
						<g opacity="0.2">
							<path fill="#FEFEFE" d="M2497.121,915.435c0,35.454-69.417,64.196-155.043,64.196c-85.63,0-155.047-28.742-155.047-64.196
								s69.417-36.372,155.047-36.372C2427.704,879.063,2497.121,879.98,2497.121,915.435z"/>
						</g>
						<g>
							<g>
								<path fill="#000072" d="M2074.69,1954.784c0,0-33.574,21.441-121.06,21.441c-18.979,1.313-73.296-1.67-141.935-64.343
									c0,0,31.709,91.396,139.891,91.396C1951.587,2003.277,2013.139,2008.873,2074.69,1954.784z"/>
							</g>
						</g>
						<g>
							<path fill="#000072" d="M1577.956,1548.616c7.351-23.871,24.935-43.732,46.604-57.246
								c21.784-13.497,47.89-20.403,73.773-20.134c25.911,0.18,51.647,7.61,73.192,21.031
								c21.449,13.461,39.052,32.767,47.272,56.349c-23.543-8.09-43.597-14.551-63.394-18.709
								c-19.659-4.248-38.613-6.349-57.549-6.609c-18.934-0.195-37.827,1.479-57.313,5.619
								C1620.93,1532.972,1601.113,1539.59,1577.956,1548.616z"/>
						</g>
						<g>
							<path fill="#000072" d="M2416.765,1548.616c-23.156-9.025-42.969-15.644-62.586-19.7c-19.485-4.139-38.38-5.813-57.313-5.619
								c-18.932,0.261-37.888,2.362-57.546,6.609c-19.797,4.158-39.854,10.62-63.397,18.709
								c8.224-23.583,25.825-42.888,47.275-56.349c21.543-13.421,47.282-20.851,73.189-21.031
								c25.887-0.27,51.992,6.637,73.772,20.134C2391.831,1504.884,2409.416,1524.745,2416.765,1548.616z"/>
						</g>
						<g>
							<ellipse fill="#000072" cx="1721.908" cy="1691.188" rx="80.459" ry="106.139"/>
						</g>
						<g>
							<g>
								<ellipse fill="#FFFFFF" cx="1742.457" cy="1666.569" rx="24.31" ry="35.642"/>
							</g>
							<g>
								<path fill="#000072" d="M1742.46,1707.073c-16.361,0-29.173-17.794-29.173-40.505c0-22.712,12.812-40.502,29.173-40.502
									c16.356,0,29.166,17.791,29.166,40.502C1771.626,1689.279,1758.816,1707.073,1742.46,1707.073z M1742.46,1635.792
									c-10.54,0-19.452,14.091-19.452,30.776c0,16.684,8.912,30.78,19.452,30.78c10.544,0,19.448-14.096,19.448-30.78
									C1761.908,1649.883,1753.004,1635.792,1742.46,1635.792z"/>
							</g>
						</g>
						<g>
							<ellipse fill="#000072" cx="2278.218" cy="1691.188" rx="80.459" ry="106.139"/>
						</g>
						<g>
							<g>
								<ellipse fill="#FFFFFF" cx="2257.668" cy="1666.569" rx="24.31" ry="35.642"/>
							</g>
							<g>
								<path fill="#000072" d="M2257.67,1707.073c-16.364,0-29.173-17.794-29.173-40.505c0-22.712,12.809-40.502,29.173-40.502
									c16.355,0,29.164,17.791,29.164,40.502C2286.834,1689.279,2274.025,1707.073,2257.67,1707.073z M2257.67,1635.792
									c-10.541,0-19.453,14.091-19.453,30.776c0,16.684,8.912,30.78,19.453,30.78c10.542,0,19.447-14.096,19.447-30.78
									C2277.117,1649.883,2268.212,1635.792,2257.67,1635.792z"/>
							</g>
						</g>
					</g>
				</g>
			</g>
			<g>
				<g>
					<g>
						<linearGradient id="SVGID_1_" gradientUnits="userSpaceOnUse" x1="859.9268" y1="3685.6953" x2="3167.5898" y2="3685.6953">
							<stop  offset="0" style="stop-color:#E39A65"/>
							<stop  offset="0.5025" style="stop-color:#A92FFB"/>
							<stop  offset="1" style="stop-color:#3919BB"/>
						</linearGradient>
						<path fill="url(#SVGID_1_)" d="M3167.59,3579.562c-12.476,61.692-45.86,114.78-91.893,152.466
							c-46.031,37.602-104.713,59.803-167.696,59.803H1119.518c-125.966,0-234.552-88.799-259.591-212.269H3167.59z"/>
					</g>
					<g>
						<path fill="#000072" d="M2908.001,3796.688H1119.52c-127.776,0-238.96-90.911-264.36-216.158l-1.182-5.831H3173.54
							l-1.181,5.824c-12.293,60.775-45.529,115.918-93.578,155.264C3030.696,3775.061,2970.049,3796.688,2908.001,3796.688z
							 M865.938,3584.426c26.705,117.717,132.399,202.537,253.582,202.537h1788.481c59.807,0,118.276-20.848,164.624-58.7
							c44.777-36.668,76.208-87.565,88.955-143.837H865.938z"/>
					</g>
				</g>
				<g>
					<path fill="#000072" d="M2908.034,3820.994H1119.537c-139.307,0-260.49-99.09-288.156-235.614
						c-1.743-8.575,0.463-17.481,6.007-24.257c5.541-6.775,13.823-10.703,22.58-10.703h2307.645c8.757,0,17.039,3.928,22.581,10.703
						c5.543,6.775,7.747,15.682,6.007,24.261C3168.523,3721.904,3047.332,3820.994,2908.034,3820.994z M898.517,3608.758
						c33.761,90.993,121.639,153.899,221.021,153.899h1788.497c99.373,0,187.251-62.921,221.028-153.899H898.517z"/>
				</g>
				<g opacity="0.3">
					<path fill="#000072" d="M3167.59,3579.562c-12.476,61.692-45.86,114.78-91.893,152.466
						c-46.031,37.602-104.713,59.803-167.696,59.803H1801.75c181.809-8.605,342.966-58.77,481.665-154.449
						c0,0,9.552-23.316,30.718-57.819H3167.59z"/>
				</g>
				<g>
					<g>
						<linearGradient id="SVGID_2_" gradientUnits="userSpaceOnUse" x1="859.9961" y1="2950.4609" x2="3167.605" y2="2950.4609">
							<stop  offset="0" style="stop-color:#E39A65"/>
							<stop  offset="0.5025" style="stop-color:#A92FFB"/>
							<stop  offset="1" style="stop-color:#3919BB"/>
						</linearGradient>
						<path fill="url(#SVGID_2_)" d="M3166.902,2458.08l-93.356,1064.52c-5.679,64.965-60.058,114.781-125.275,114.781H1079.248
							c-65.133,0-119.513-49.816-125.276-114.781l-93.272-1064.52c-9.206-104.541,73.225-194.54,178.109-194.54h1949.9
							c34.333,0,66.252,9.636,93.355,26.241C3137.82,2324.027,3173.099,2387.783,3166.902,2458.08z"/>
					</g>
					<g>
						<path fill="#000072" d="M2948.265,3642.246H1079.253c-68.15,0-124.1-51.254-130.122-119.217L855.86,2458.506
							c-4.509-51.183,12.818-102.28,47.532-140.193c34.708-37.898,84.069-59.64,135.42-59.64h1949.896
							c33.943,0,67.099,9.322,95.896,26.964c59.912,36.797,93.296,103.041,87.142,172.873v-0.004l-93.358,1064.519
							C3072.452,3590.992,3016.514,3642.246,2948.265,3642.246z M1038.813,2268.4c-48.637,0-95.382,20.586-128.248,56.48
							c-32.886,35.9-49.294,84.297-45.021,132.775l93.272,1064.52c5.575,62.906,57.355,110.342,120.438,110.342h1869.012
							c63.17,0,114.941-47.436,120.439-110.342l93.358-1064.523c5.831-66.135-25.793-128.874-82.547-163.73
							c-27.253-16.695-58.658-25.521-90.808-25.521H1038.813z"/>
					</g>
				</g>
				<g opacity="0.75">
					<path fill="#FFFFFF" d="M3137.133,2342.526c-22.804-10.669-48.271-16.606-75.289-16.606H1111.946
						c-104.889,0-187.315,90-178.108,194.543l93.268,1064.521c1.465,16.605,6.109,32.181,13.339,46.202
						c-46.807-15.143-81.913-57.131-86.473-108.586l-93.272-1064.52c-9.206-104.541,73.225-194.54,178.109-194.54h1949.9
						C3050.832,2263.54,3105.125,2295.115,3137.133,2342.526z"/>
				</g>
				<g>
					<path fill="#000072" d="M2948.302,3666.516H1079.271c-80.908,0-147.256-60.785-154.33-141.385L831.6,2460.594
						c-5.078-57.957,14.543-115.803,53.846-158.703c39.303-42.898,95.214-67.5,153.394-67.5h1949.895
						c58.178,0,114.091,24.602,153.393,67.5c39.303,42.9,58.924,100.746,53.847,158.703l-93.341,1064.533
						C3095.564,3605.73,3029.218,3666.516,2948.302,3666.516z M1038.839,2292.728c-42.481,0-81.679,17.253-110.379,48.577
						c-28.691,31.319-42.454,71.874-38.741,114.192l93.339,1064.532c4.414,50.253,45.774,88.149,96.213,88.149h1869.031
						c50.447,0,91.808-37.896,96.211-88.149l93.342-1064.532c3.712-42.318-10.052-82.873-38.744-114.192
						c-28.698-31.324-67.897-48.577-110.377-48.577H1038.839z"/>
				</g>
				<g opacity="0.3">
					<path fill="#000072" d="M3166.902,2458.08l-93.356,1064.52c-5.679,64.965-60.058,114.781-125.275,114.781H1262.348
						c1037.417-81.652,1679.295-500.768,1819.372-1347.685l0.345,0.085C3137.82,2324.027,3173.099,2387.783,3166.902,2458.08z"/>
				</g>
				<g opacity="0.3">
					<path fill="#FFFFFF" d="M1331.085,3157.059l-117.08,10.96c-30.359,2.84-57.274-19.469-60.112-49.829l-40.223-429.769
						c-2.841-30.36,19.466-57.273,49.825-60.114l117.08-10.959c30.359-2.84,57.273,19.467,60.116,49.826l40.22,429.77
						C1383.753,3127.306,1361.446,3154.219,1331.085,3157.059z"/>
				</g>
				<g>
					<g>
						<path fill-rule="evenodd" clip-rule="evenodd" fill="#FFFFFF" d="M2175.521,3185.793l-21.396,17.169l-2.559,54.259
							c-0.688,14.604-13.733,26.031-29.13,25.631l-0.125-0.006c-15.39-0.402-27.481-12.474-27.013-27.068l0.734-22.952
							c0.146-4.485-3.56-8.222-8.275-8.34l0,0c-4.712-0.118-8.631,3.429-8.755,7.909l-0.634,22.949
							c-0.4,14.59-13.179,26.01-28.534,25.609h-0.002c-15.349-0.402-27.636-12.465-27.453-27.047l0.241-19.175
							c0.082-6.552-5.431-12.016-12.314-12.188l0,0c-6.878-0.174-12.486,5.013-12.524,11.561l-0.114,19.171
							c-0.085,14.577-12.574,25.985-27.886,25.587l0,0c-15.303-0.4-27.809-12.451-27.938-27.018l-0.206-22.912
							c-0.039-4.475-3.874-8.207-8.562-8.324l0,0c-4.685-0.115-8.436,3.424-8.376,7.896l0.312,22.905
							c0.195,14.567-12.029,25.966-27.303,25.567l-0.123-0.004c-15.261-0.398-27.962-12.436-28.373-26.99l-1.541-54.08
							l-20.832-18.101c-54.097-46.982-87.902-114.854-91.898-187.278c-8.244-149.397,107.85-277.588,260.047-275.197
							c153.055,2.403,268.537,135.525,257.337,286.002C2266.899,3074.239,2231.241,3141.111,2175.521,3185.793L2175.521,3185.793z"
							/>
					</g>
					<g>
						<path fill="#000072" d="M2010.804,2715.295c1.393-0.004,2.785,0.009,4.186,0.031
							c153.053,2.403,268.536,135.527,257.337,286.002c-5.427,72.911-41.088,139.783-96.808,184.467l-21.389,17.169l-2.567,54.257
							c-0.672,14.354-13.279,25.636-28.339,25.636c-0.264,0-0.527,0-0.789-0.009l-0.121-0.004
							c-15.393-0.396-27.483-12.472-27.013-27.07l0.736-22.948c0.142-4.485-3.563-8.222-8.272-8.342h-0.01
							c-0.078,0-0.147-0.004-0.229-0.004c-4.604,0-8.405,3.507-8.525,7.915l-0.632,22.947
							c-0.394,14.342-12.738,25.621-27.746,25.621c-0.262,0-0.524,0-0.787-0.01c-15.348-0.404-27.641-12.465-27.457-27.047
							l0.244-19.178c0.08-6.545-5.438-12.013-12.317-12.181c-0.113-0.005-0.228-0.005-0.342-0.005
							c-6.724,0-12.144,5.123-12.179,11.559l-0.114,19.175c-0.087,14.323-12.15,25.593-27.098,25.593c-0.262,0-0.525,0-0.789-0.008
							c-15.303-0.4-27.805-12.451-27.937-27.016l-0.21-22.914c-0.043-4.473-3.87-8.207-8.563-8.328c-0.07,0-0.149-0.004-0.22-0.004
							c-4.579,0-8.214,3.498-8.15,7.904l0.307,22.905c0.2,14.317-11.62,25.578-26.521,25.578c-0.263,0-0.519,0-0.779-0.011
							l-0.122-0.004c-15.271-0.398-27.966-12.436-28.376-26.99l-1.542-54.08l-20.828-18.101
							c-54.101-46.982-87.905-114.854-91.904-187.276C1746.777,2842.507,1860.668,2715.302,2010.804,2715.295 M2010.804,2668.146
							L2010.804,2668.146c-83.787,0.006-161.543,33.416-218.944,94.071c-58.082,61.382-88.699,145.542-83.989,230.901
							c4.657,84.398,44.048,164.686,108.058,220.276l5.21,4.521l0.954,33.405c1.12,39.746,33.742,71.723,74.271,72.781
							c0.797,0.021,1.463,0.026,2.129,0.026c12.082,0,23.665-2.784,34.014-8.052c10.62,6.006,22.896,9.567,36.056,9.911
							c0.664,0.019,1.339,0.028,2.013,0.028c13.948,0,27.027-3.823,38.21-10.451c11.45,7.561,25.119,12.127,39.818,12.512
							c0.673,0.021,1.349,0.029,2.021,0.029c12.486,0,24.219-2.928,34.531-8.133c10.779,6.2,23.044,9.662,35.941,9.998
							c0.778,0.022,1.454,0.033,2.128,0.033c40.449,0,73.58-31.006,75.435-70.585l1.56-32.997l4.814-3.865
							c66.296-53.161,107.963-132.529,114.312-217.727c6.435-86.451-23.343-172.645-81.688-236.492
							c-57.795-63.243-136.61-98.813-221.923-100.154C2014.079,2668.161,2012.45,2668.146,2010.804,2668.146L2010.804,2668.146z"/>
					</g>
					<g>
						<g>
							<path fill-rule="evenodd" clip-rule="evenodd" fill="#000072" d="M1911.971,2928.877
								c-40.484-0.205-71.642,32.893-69.653,73.392c1.951,39.632,35.265,71.503,74.459,71.794
								c39.242,0.293,70.576-31.173,69.902-70.887C1985.99,2962.59,1952.506,2929.085,1911.971,2928.877L1911.971,2928.877z"/>
						</g>
						<g>
							<path fill-rule="evenodd" clip-rule="evenodd" fill="#000072" d="M2114.035,2926.824
								c-40.805-0.208-74.023,33.014-74.212,73.658c-0.184,39.771,31.671,71.757,71.169,72.051
								c39.553,0.294,72.851-31.281,74.333-71.137C2186.837,2960.664,2154.896,2927.032,2114.035,2926.824L2114.035,2926.824z"/>
						</g>
					</g>
				</g>
			</g>
		</g>
	</g>
</g>
</svg>
