<svg id="Capa_1" focusable="false" xmlns="http://www.w3.org/2000/svg" xmlns:xlink="http://www.w3.org/1999/xlink" width="612" height="792" viewBox="0 0 612 792" enable-background="new 0 0 612 792"><path fill="#4c02f1" d="M600.405 318.065c4.662-3.705 11.595-.239 11.595 5.618v244.441c0 31.676-25.699 57.375-57.375 57.375H57.375C25.699 625.5.0 599.801.0 568.125V323.803c0-5.977 6.813-9.324 11.595-5.618C38.37 338.983 73.87 365.4 195.792 453.973c25.221 18.408 67.774 57.136 110.208 56.896 42.673.359 86.063-39.206 110.327-56.896C538.249 365.4 573.631 338.864 600.405 318.065zM306 472.5c27.731.479 67.654-34.903 87.736-49.486 158.617-115.108 170.69-125.149 207.267-153.836 6.933-5.379 10.997-13.746 10.997-22.591v-22.711c0-31.676-25.699-57.375-57.375-57.375H57.375C25.699 166.5.0 192.199.0 223.875v22.711c0 8.845 4.064 17.093 10.997 22.591 36.576 28.568 48.649 38.728 207.267 153.836C238.345 437.597 278.269 472.979 306 472.5v0z"/></svg>