<svg id="Capa_1" focusable="false" xmlns="http://www.w3.org/2000/svg" xmlns:xlink="http://www.w3.org/1999/xlink" width="612" height="792" viewBox="0 0 612 792" enable-background="new 0 0 612 792"><path fill="#4c02f1" d="M204.699 570.47c0 2.468-2.838 4.441-6.416 4.441-4.072.37-6.91-1.604-6.91-4.441.0-2.468 2.838-4.442 6.416-4.442C201.491 565.657 204.699 567.632 204.699 570.47zM166.326 564.917c-.864 2.468 1.604 5.306 5.306 6.046 3.208 1.233 6.91.0 7.65-2.468.741-2.468-1.604-5.306-5.306-6.416C170.768 561.215 167.189 562.449 166.326 564.917v0zM220.863 562.819c-3.578.863-6.046 3.208-5.676 6.046.37 2.468 3.578 4.072 7.28 3.208 3.578-.863 6.046-3.208 5.676-5.676C227.772 564.053 224.441 562.449 220.863 562.819zM302.052 90C130.914 90 0 219.927.0 391.064.0 527.9 86.124 644.995 209.141 686.206c15.793 2.838 21.346-6.909 21.346-14.93.0-7.649-.37-49.848-.37-75.76.0.0-86.371 18.509-104.509-36.769.0.0-14.066-35.906-34.301-45.16.0.0-28.256-19.372 1.974-19.002.0.0 30.723 2.468 47.627 31.834 27.021 47.628 72.305 33.932 89.949 25.788 2.838-19.742 10.858-33.438 19.742-41.581-68.973-7.65-138.563-17.645-138.563-136.343.0-33.931 9.377-50.958 29.119-72.675-3.208-8.02-13.696-41.088 3.208-83.78 25.788-8.021 85.137 33.314 85.137 33.314 24.677-6.91 51.206-10.488 77.487-10.488 26.281.0 52.81 3.578 77.487 10.488.0.0 59.349-41.458 85.137-33.314 16.904 42.815 6.416 75.76 3.208 83.78 19.742 21.839 31.834 38.867 31.834 72.675.0 119.069-72.675 128.57-141.648 136.343 11.352 9.747 20.976 28.255 20.976 57.251.0 41.582-.37 93.034-.37 103.152.0 8.02 5.676 17.768 21.346 14.93C528.344 644.995 612 527.9 612 391.064 612 219.927 473.189 90 302.052 90zM119.932 515.563c-1.604 1.233-1.234 4.071.864 6.416 1.974 1.974 4.812 2.838 6.416 1.233 1.604-1.233 1.234-4.071-.864-6.416C124.374 514.821 121.536 513.958 119.932 515.563zM106.606 505.567c-.864 1.604.37 3.578 2.838 4.813 1.974 1.233 4.442.863 5.306-.864.864-1.604-.37-3.578-2.838-4.812C109.444 503.964 107.47 504.334 106.606 505.567zM146.584 549.493c-1.974 1.604-1.234 5.306 1.604 7.65 2.838 2.838 6.416 3.208 8.02 1.233 1.604-1.604.864-5.305-1.604-7.649C151.89 547.89 148.188 547.52 146.584 549.493zM132.518 531.355c-1.974 1.234-1.974 4.442.0 7.28s5.306 4.071 6.91 2.838c1.974-1.604 1.974-4.813.0-7.65C137.7 530.985 134.492 529.752 132.518 531.355v0z"/></svg>