<?xml version="1.0" encoding="utf-8"?>
<!-- Generator: Adobe Illustrator 16.0.3, SVG Export Plug-In . SVG Version: 6.00 Build 0)  -->
<!DOCTYPE svg PUBLIC "-//W3C//DTD SVG 1.1//EN" "http://www.w3.org/Graphics/SVG/1.1/DTD/svg11.dtd">
<svg version="1.1" id="Ñëîé_1" xmlns="http://www.w3.org/2000/svg" xmlns:xlink="http://www.w3.org/1999/xlink" x="0px" y="0px"
	 width="600px" height="450px" viewBox="0 0 600 450" enable-background="new 0 0 600 450" xml:space="preserve">
<linearGradient id="SVGID_1_" gradientUnits="userSpaceOnUse" x1="708.2324" y1="-163.0767" x2="752.0742" y2="-163.0767" gradientTransform="matrix(1 0 0 -1 -156 205)">
	<stop  offset="0" style="stop-color:#E39A65"/>
	<stop  offset="1" style="stop-color:#E95F8D"/>
</linearGradient>
<path fill="url(#SVGID_1_)" d="M574.152,380.968c-1.617,0-3.235-0.418-4.679-1.253l-15.778-9.108
	c-0.916-0.527-1.463-1.476-1.463-2.531s0.547-2.003,1.463-2.531l15.778-9.108c2.886-1.667,6.472-1.667,9.357,0l15.781,9.108
	c0.913,0.528,1.462,1.476,1.462,2.531s-0.549,2.004-1.462,2.531l-15.778,9.108C577.39,380.55,575.772,380.968,574.152,380.968z
	 M574.152,357.686c-1.187,0-2.374,0.306-3.43,0.918l-15.777,9.106c-0.184,0.108-0.21,0.276-0.21,0.365
	c0,0.09,0.028,0.258,0.21,0.365l15.777,9.107c0.003,0,0.003,0,0.003,0c2.111,1.221,4.739,1.221,6.858,0l15.778-9.107
	c0.181-0.107,0.207-0.275,0.207-0.365c0-0.089-0.026-0.257-0.207-0.365l-15.781-9.106
	C576.523,357.99,575.339,357.686,574.152,357.686z"/>
<linearGradient id="SVGID_2_" gradientUnits="userSpaceOnUse" x1="648.2061" y1="-102.9927" x2="721.8467" y2="-102.9927" gradientTransform="matrix(1 0 0 -1 -156 205)">
	<stop  offset="0" style="stop-color:#E39A65"/>
	<stop  offset="1" style="stop-color:#E95F8D"/>
</linearGradient>
<path fill="url(#SVGID_2_)" d="M529.026,329.275c-2.631,0-5.259-0.678-7.604-2.032l-27.152-15.679
	c-1.292-0.745-2.064-2.079-2.064-3.573c0-1.49,0.772-2.828,2.064-3.573l27.152-15.675c4.687-2.711,10.516-2.711,15.205,0
	l27.155,15.675c1.292,0.746,2.063,2.083,2.063,3.573c0,1.491-0.769,2.829-2.061,3.576l-27.155,15.676
	C534.286,328.598,531.655,329.275,529.026,329.275z M522.673,325.076c3.92,2.263,8.785,2.263,12.705,0l27.153-15.675
	c0.732-0.425,0.813-1.127,0.813-1.41c0-0.281-0.081-0.98-0.813-1.407l-27.153-15.676c-3.92-2.261-8.785-2.261-12.705,0
	l-27.153,15.676c-0.732,0.425-0.813,1.126-0.813,1.407c0,0.283,0.081,0.984,0.813,1.407L522.673,325.076z"/>
<linearGradient id="SVGID_3_" gradientUnits="userSpaceOnUse" x1="162.5879" y1="-127.6636" x2="236.2305" y2="-127.6636" gradientTransform="matrix(1 0 0 -1 -156 205)">
	<stop  offset="0" style="stop-color:#E39A65"/>
	<stop  offset="1" style="stop-color:#E95F8D"/>
</linearGradient>
<path fill="url(#SVGID_3_)" d="M43.41,353.946c-2.629,0-5.258-0.675-7.603-2.029L8.651,336.238
	c-1.293-0.745-2.063-2.082-2.063-3.576c0-1.491,0.771-2.825,2.063-3.57l27.155-15.679c4.688-2.71,10.518-2.71,15.205,0
	l27.154,15.679c1.294,0.745,2.065,2.082,2.065,3.573c0,1.494-0.771,2.828-2.065,3.573l-27.153,15.679
	C48.669,353.269,46.038,353.946,43.41,353.946z M43.41,313.883c-2.197,0-4.394,0.567-6.354,1.696L9.901,331.258
	c-0.732,0.421-0.812,1.124-0.812,1.407c0,0.281,0.08,0.984,0.813,1.407l27.154,15.679l0,0c3.921,2.261,8.785,2.261,12.705,0
	l27.154-15.679c0.734-0.423,0.812-1.124,0.812-1.407c0-0.281-0.079-0.982-0.812-1.407l-27.155-15.679
	C47.802,314.45,45.605,313.883,43.41,313.883z"/>
<g>
	<path opacity="0.6" fill="#020230" enable-background="new    " d="M318.395,422.341L124.228,310.236
		c-2.83-1.635-2.475-4.487,0.792-6.373l124.619-71.949c3.269-1.886,8.211-2.092,11.041-0.457l194.168,112.102
		c2.828,1.637,2.476,4.49-0.793,6.376l-124.618,71.949C326.168,423.77,321.226,423.975,318.395,422.341z"/>
	
		<linearGradient id="SVGID_4_" gradientUnits="userSpaceOnUse" x1="248.3247" y1="-122.9414" x2="641.3633" y2="-122.9414" gradientTransform="matrix(1 0 0 -1 -156 205)">
		<stop  offset="0" style="stop-color:#E39A65"/>
		<stop  offset="1" style="stop-color:#E95F8D"/>
	</linearGradient>
	<path fill="url(#SVGID_4_)" d="M322.843,442.58c-2.269,0-4.446-0.473-6.109-1.434h0.001L95.132,313.206
		c-1.811-1.044-2.807-2.551-2.807-4.243c0-1.942,1.352-3.838,3.71-5.198l151.059-88.503c4.144-2.393,10.23-2.623,13.86-0.528
		l221.603,127.943c1.81,1.044,2.807,2.551,2.807,4.243c0,1.941-1.354,3.836-3.712,5.197L330.594,440.62
		C328.347,441.918,325.53,442.58,322.843,442.58z M254.874,215.815c-2.269,0-4.682,0.546-6.521,1.607L97.295,305.925
		c-1.549,0.896-2.468,2.029-2.468,3.038c0,0.976,0.846,1.667,1.556,2.078l221.602,127.94c0.001,0,0.001,0,0.001,0
		c2.828,1.636,8.028,1.397,11.348-0.523l151.06-88.503c1.546-0.893,2.465-2.026,2.465-3.035c0-0.974-0.845-1.667-1.554-2.077
		L259.704,216.901C258.44,216.171,256.703,215.815,254.874,215.815z"/>
	
		<radialGradient id="SVGID_5_" cx="465.4219" cy="168.0542" r="300.1917" gradientTransform="matrix(1 0 0 -1 -156 205)" gradientUnits="userSpaceOnUse">
		<stop  offset="0" style="stop-color:#E39A65"/>
		<stop  offset="0.4742" style="stop-color:#A92FFB"/>
		<stop  offset="0.5947" style="stop-color:#891CFB"/>
		<stop  offset="0.7421" style="stop-color:#6507FA"/>
		<stop  offset="0.8016" style="stop-color:#0D0C6F"/>
	</radialGradient>
	<path fill="url(#SVGID_5_)" d="M506.43,155.618L313.026,43.956c-1.328-0.767-2.717-0.925-3.946-0.565l0,0l-0.002,0.001
		c-0.005,0.001-0.012,0.004-0.018,0.006l-3.581,1.248l1.262,0.298c-0.506,0.598-0.913,1.342-1.181,2.213l-43.738,142.007
		c-1.084,3.522,0.504,7.8,3.544,9.556l193.403,111.66c0.47,0.272,0.948,0.458,1.423,0.582l-0.478,1.044l3.421-1.201l-0.008-0.006
		c1.399-0.557,2.553-1.809,3.109-3.615l43.736-142.007C511.059,161.653,509.471,157.375,506.43,155.618z"/>
	
		<radialGradient id="SVGID_6_" cx="281.8188" cy="-73.0225" r="328.2554" gradientTransform="matrix(1 0 0 -1 -156 205)" gradientUnits="userSpaceOnUse">
		<stop  offset="0" style="stop-color:#E39A65"/>
		<stop  offset="0.4742" style="stop-color:#A92FFB"/>
		<stop  offset="0.5679" style="stop-color:#891CFB"/>
		<stop  offset="0.6825" style="stop-color:#6507FA"/>
		<stop  offset="0.7381" style="stop-color:#0D0C6F"/>
	</radialGradient>
	<path fill="url(#SVGID_6_)" d="M451.847,315.679l0.07,0.085L260.884,205.47c-2.81-1.623-7.719-1.419-10.963,0.454l-123.426,71.259
		l-4.115-1.57l1.156,5.774l0.006-0.006c0.153,0.869,0.761,1.684,1.853,2.313l192.798,111.313c2.811,1.622,7.719,1.419,10.964-0.455
		l123.739-71.44c1.527-0.882,2.404-1.977,2.623-3.056l0.008,0.008l1.179-5.619L451.847,315.679z"/>
	
		<radialGradient id="SVGID_7_" cx="312.0098" cy="-7.1353" r="294.3635" gradientTransform="matrix(1 0 0 -1 -156 205)" gradientUnits="userSpaceOnUse">
		<stop  offset="0" style="stop-color:#E39A65"/>
		<stop  offset="0.4742" style="stop-color:#A92FFB"/>
		<stop  offset="0.5875" style="stop-color:#891CFB"/>
		<stop  offset="0.7262" style="stop-color:#6507FA"/>
		<stop  offset="1" style="stop-color:#3919BB"/>
	</radialGradient>
	<path fill="url(#SVGID_7_)" d="M318.395,389.927L124.228,277.824c-2.83-1.633-2.475-4.487,0.792-6.374l124.619-71.948
		c3.269-1.888,8.211-2.093,11.041-0.46l194.168,112.105c2.828,1.633,2.476,4.487-0.793,6.372l-124.618,71.95
		C326.168,391.354,321.226,391.563,318.395,389.927z"/>
	<path fill="#FFFFFF" d="M454.055,316.01l-124.618,71.949c-3.269,1.886-8.211,2.094-11.042,0.459L124.227,276.313
		c-0.964-0.557-1.53-1.26-1.765-2.013c-0.375,1.301,0.173,2.604,1.765,3.524l194.168,112.102c2.83,1.636,7.773,1.428,11.042-0.457
		l124.618-71.95c2.155-1.241,3.015-2.901,2.558-4.358C456.32,314.172,455.485,315.183,454.055,316.01z"/>
	<g opacity="0.4">
		<path fill="#06033E" d="M216.843,259.633l-6.555-3.786c-0.527-0.303-0.461-0.835,0.146-1.184l7.738-4.47
			c0.608-0.349,1.528-0.388,2.054-0.084l6.555,3.784c0.527,0.305,0.461,0.835-0.147,1.187l-7.738,4.467
			C218.288,259.898,217.37,259.938,216.843,259.633z"/>
		<path fill="#06033E" d="M226.966,265.479l-6.555-3.785c-0.527-0.304-0.461-0.835,0.146-1.186l7.739-4.468
			c0.607-0.351,1.527-0.389,2.053-0.085l6.555,3.783c0.527,0.305,0.461,0.835-0.146,1.187l-7.738,4.467
			C228.413,265.743,227.493,265.781,226.966,265.479z"/>
		<path fill="#06033E" d="M237.09,271.323l-6.555-3.786c-0.527-0.304-0.461-0.835,0.146-1.185l7.738-4.469
			c0.608-0.35,1.528-0.389,2.054-0.084l6.555,3.782c0.527,0.306,0.461,0.835-0.147,1.188l-7.738,4.466
			C238.535,271.588,237.616,271.625,237.09,271.323z"/>
		<path fill="#06033E" d="M251.092,266.494l-6.555-3.783c-0.527-0.305-0.46-0.835,0.147-1.186l6.495-3.751
			c0.608-0.352,1.527-0.39,2.054-0.084l6.555,3.783c0.527,0.305,0.46,0.835-0.146,1.188l-6.496,3.749
			C252.537,266.762,251.618,266.799,251.092,266.494z"/>
		<path fill="#06033E" d="M261.215,272.339l-6.555-3.783c-0.527-0.305-0.459-0.835,0.148-1.188l6.496-3.749
			c0.608-0.351,1.528-0.389,2.054-0.084l6.555,3.782c0.527,0.306,0.459,0.835-0.147,1.188l-6.495,3.749
			C262.66,272.604,261.741,272.644,261.215,272.339z"/>
		<path fill="#06033E" d="M271.338,278.184l-6.555-3.783c-0.527-0.305-0.46-0.834,0.147-1.187l6.496-3.75
			c0.607-0.35,1.527-0.389,2.053-0.084l6.555,3.784c0.527,0.304,0.46,0.835-0.148,1.187l-6.495,3.749
			C272.783,278.45,271.863,278.488,271.338,278.184z"/>
		<path fill="#06033E" d="M281.461,284.029l-6.555-3.784c-0.527-0.305-0.459-0.835,0.148-1.187l6.495-3.75
			c0.608-0.352,1.527-0.389,2.055-0.084l6.555,3.782c0.526,0.307,0.459,0.835-0.147,1.188l-6.496,3.749
			C282.908,284.297,281.988,284.333,281.461,284.029z"/>
		<path fill="#06033E" d="M291.584,289.874l-6.555-3.784c-0.526-0.305-0.459-0.835,0.148-1.187l6.495-3.75
			c0.607-0.351,1.527-0.389,2.054-0.084l6.555,3.782c0.527,0.307,0.459,0.835-0.146,1.186l-6.496,3.753
			C293.031,290.139,292.111,290.179,291.584,289.874z"/>
		<path fill="#06033E" d="M301.709,295.719l-6.556-3.784c-0.527-0.305-0.459-0.833,0.148-1.187l6.496-3.75
			c0.608-0.349,1.528-0.388,2.053-0.084l6.556,3.784c0.526,0.305,0.461,0.835-0.148,1.186l-6.494,3.751
			C303.154,295.985,302.234,296.023,301.709,295.719z"/>
		<path fill="#06033E" d="M311.832,301.563l-6.556-3.784c-0.526-0.305-0.46-0.835,0.148-1.187l6.494-3.749
			c0.607-0.353,1.528-0.389,2.053-0.084l6.557,3.782c0.525,0.306,0.46,0.835-0.148,1.187l-6.494,3.749
			C313.276,301.831,312.358,301.868,311.832,301.563z"/>
		<path fill="#06033E" d="M321.955,307.408l-6.555-3.783c-0.526-0.305-0.461-0.836,0.147-1.188l6.494-3.749
			c0.608-0.351,1.527-0.389,2.054-0.084l6.555,3.783c0.526,0.306,0.461,0.835-0.146,1.187l-6.495,3.75
			C323.401,307.674,322.482,307.713,321.955,307.408z"/>
		<path fill="#06033E" d="M332.079,313.253l-6.557-3.782c-0.525-0.306-0.459-0.835,0.148-1.188l6.495-3.749
			c0.607-0.352,1.526-0.389,2.052-0.084l6.557,3.783c0.526,0.306,0.46,0.835-0.147,1.188l-6.495,3.75
			C333.524,313.519,332.605,313.558,332.079,313.253z"/>
		<path fill="#06033E" d="M342.202,319.098l-6.555-3.783c-0.528-0.305-0.461-0.835,0.146-1.188l6.494-3.749
			c0.607-0.352,1.527-0.389,2.053-0.084l6.557,3.783c0.526,0.305,0.46,0.835-0.147,1.186l-6.494,3.751
			C343.647,319.363,342.729,319.402,342.202,319.098z"/>
		<path fill="#06033E" d="M266.007,263.729l-6.555-3.785c-0.527-0.305-0.46-0.835,0.146-1.185l6.496-3.752
			c0.608-0.351,1.527-0.389,2.053-0.084l6.555,3.783c0.527,0.305,0.461,0.835-0.146,1.188l-6.496,3.749
			C267.453,263.994,266.533,264.031,266.007,263.729z"/>
		<path fill="#06033E" d="M255.732,257.795l-6.555-3.783c-0.526-0.305-0.459-0.835,0.148-1.187l6.496-3.75
			c0.607-0.352,1.527-0.389,2.052-0.085l6.555,3.785c0.527,0.303,0.461,0.835-0.146,1.185l-6.496,3.749
			C257.178,258.062,256.259,258.1,255.732,257.795z"/>
		<path fill="#06033E" d="M245.441,251.854l-14.119-8.15c-0.527-0.305-0.46-0.835,0.146-1.187l6.496-3.75
			c0.608-0.352,1.527-0.392,2.053-0.085l14.119,8.151c0.525,0.303,0.46,0.835-0.148,1.185l-6.496,3.752
			C246.887,252.12,245.969,252.158,245.441,251.854z"/>
		<path fill="#06033E" d="M252.635,244.629l-11.458-6.616c-0.527-0.304-0.46-0.835,0.148-1.186l6.496-3.75
			c0.608-0.353,1.527-0.389,2.053-0.084l11.457,6.614c0.527,0.303,0.46,0.835-0.146,1.184l-6.496,3.75
			C254.08,244.896,253.161,244.932,252.635,244.629z"/>
		<path fill="#06033E" d="M276.131,269.574l-6.555-3.785c-0.526-0.306-0.46-0.835,0.148-1.186l6.496-3.751
			c0.608-0.351,1.527-0.389,2.053-0.085l6.555,3.783c0.526,0.305,0.46,0.835-0.147,1.188l-6.496,3.749
			C277.576,269.84,276.658,269.876,276.131,269.574z"/>
		<path fill="#06033E" d="M286.253,275.418l-6.555-3.785c-0.526-0.305-0.459-0.835,0.147-1.186l6.496-3.751
			c0.608-0.351,1.527-0.389,2.053-0.084l6.555,3.782c0.525,0.306,0.459,0.835-0.148,1.188l-6.495,3.749
			C287.7,275.682,286.781,275.721,286.253,275.418z"/>
		<path fill="#06033E" d="M296.378,281.262l-6.555-3.784c-0.526-0.305-0.46-0.835,0.148-1.185l6.496-3.752
			c0.607-0.349,1.527-0.389,2.053-0.084l6.556,3.784c0.526,0.305,0.461,0.835-0.146,1.187l-6.497,3.75
			C297.823,281.527,296.903,281.565,296.378,281.262z"/>
		<path fill="#06033E" d="M306.501,287.106l-6.555-3.782c-0.527-0.307-0.46-0.835,0.147-1.186l6.496-3.751
			c0.607-0.351,1.527-0.389,2.054-0.086l6.555,3.784c0.526,0.305,0.461,0.835-0.147,1.187l-6.496,3.75
			C307.946,287.373,307.028,287.411,306.501,287.106z"/>
		<path fill="#06033E" d="M316.624,292.951l-6.555-3.784c-0.525-0.305-0.46-0.835,0.147-1.186l6.495-3.75
			c0.607-0.351,1.527-0.389,2.052-0.085l6.557,3.783c0.526,0.306,0.461,0.835-0.147,1.188l-6.495,3.75
			C318.07,293.216,317.15,293.256,316.624,292.951z"/>
		<path fill="#06033E" d="M326.747,298.796l-6.555-3.784c-0.526-0.304-0.46-0.833,0.147-1.187l6.495-3.749
			c0.607-0.351,1.527-0.389,2.053-0.084l6.555,3.783c0.528,0.305,0.461,0.835-0.146,1.187l-6.495,3.75
			C328.194,299.063,327.273,299.101,326.747,298.796z"/>
		<path fill="#06033E" d="M336.871,304.641l-6.556-3.783c-0.527-0.305-0.462-0.835,0.146-1.188l6.495-3.749
			c0.608-0.353,1.528-0.389,2.054-0.084l6.556,3.782c0.526,0.306,0.46,0.835-0.147,1.187l-6.495,3.75
			C338.317,304.908,337.397,304.945,336.871,304.641z"/>
		<path fill="#06033E" d="M346.994,310.485l-6.555-3.783c-0.526-0.305-0.46-0.835,0.146-1.188l6.496-3.749
			c0.608-0.351,1.527-0.389,2.054-0.084l6.555,3.782c0.526,0.306,0.461,0.835-0.146,1.188l-6.496,3.749
			C348.441,310.751,347.521,310.79,346.994,310.485z"/>
		<path fill="#06033E" d="M357.118,316.33l-6.556-3.783c-0.526-0.305-0.459-0.834,0.148-1.187l6.495-3.75
			c0.607-0.35,1.526-0.389,2.052-0.084l6.555,3.783c0.528,0.305,0.463,0.835-0.146,1.186l-6.496,3.751
			C358.564,316.597,357.645,316.635,357.118,316.33z"/>
		<path fill="#06033E" d="M375.117,326.721l-14.305-8.258c-0.526-0.304-0.461-0.835,0.146-1.186l6.496-3.75
			c0.608-0.352,1.527-0.39,2.052-0.085l14.306,8.258c0.526,0.305,0.459,0.835-0.148,1.187l-6.495,3.75
			C376.562,326.988,375.643,327.025,375.117,326.721z"/>
		<path fill="#06033E" d="M394.824,315.343l-12.07-6.973c-0.527-0.303-0.461-0.833,0.146-1.184l6.495-3.751
			c0.607-0.351,1.528-0.389,2.053-0.084l12.073,6.971c0.527,0.305,0.462,0.834-0.147,1.185l-6.495,3.751
			C396.27,315.608,395.351,315.646,394.824,315.343z"/>
		<path fill="#06033E" d="M293.859,268.43l-6.555-3.784c-0.527-0.305-0.461-0.835,0.146-1.187l6.496-3.75
			c0.607-0.352,1.527-0.388,2.053-0.085l6.555,3.785c0.526,0.305,0.461,0.835-0.147,1.184l-6.496,3.753
			C295.304,268.694,294.385,268.734,293.859,268.43z"/>
		<path fill="#06033E" d="M283.483,262.44l-6.555-3.786c-0.527-0.304-0.459-0.835,0.147-1.185l6.495-3.752
			c0.608-0.351,1.527-0.389,2.055-0.084l6.555,3.783c0.527,0.305,0.459,0.835-0.147,1.187l-6.495,3.75
			C284.93,262.705,284.01,262.742,283.483,262.44z"/>
		<path fill="#06033E" d="M273.108,256.448l-6.555-3.783c-0.526-0.307-0.46-0.835,0.147-1.188l6.496-3.749
			c0.608-0.353,1.527-0.389,2.053-0.086l6.555,3.785c0.527,0.304,0.461,0.835-0.146,1.185l-6.496,3.752
			C274.553,256.715,273.636,256.753,273.108,256.448z"/>
		<path fill="#06033E" d="M262.732,250.458l-6.555-3.785c-0.526-0.304-0.459-0.834,0.147-1.185l6.496-3.752
			c0.607-0.35,1.527-0.389,2.053-0.084l6.555,3.783c0.527,0.305,0.459,0.836-0.148,1.188l-6.496,3.751
			C264.179,250.725,263.26,250.761,262.732,250.458z"/>
		<path fill="#06033E" d="M303.981,274.274l-6.555-3.784c-0.527-0.305-0.461-0.835,0.146-1.187l6.496-3.748
			c0.607-0.354,1.527-0.39,2.053-0.087l6.556,3.786c0.526,0.304,0.459,0.834-0.147,1.185l-6.496,3.751
			C305.429,274.539,304.509,274.577,303.981,274.274z"/>
		<path fill="#06033E" d="M314.105,280.119l-6.554-3.785c-0.527-0.303-0.462-0.834,0.146-1.186l6.496-3.749
			c0.604-0.353,1.526-0.389,2.052-0.087l6.557,3.786c0.526,0.305,0.459,0.834-0.147,1.185l-6.496,3.751
			C315.552,280.385,314.631,280.424,314.105,280.119z"/>
		<path fill="#06033E" d="M324.229,285.964l-6.556-3.783c-0.526-0.305-0.46-0.835,0.147-1.188l6.496-3.749
			c0.605-0.352,1.526-0.389,2.052-0.086l6.556,3.785c0.527,0.305,0.459,0.835-0.146,1.185l-6.496,3.752
			C325.675,286.229,324.756,286.266,324.229,285.964z"/>
		<path fill="#06033E" d="M334.353,291.809l-6.555-3.785c-0.528-0.303-0.461-0.833,0.146-1.184l6.496-3.75
			c0.607-0.353,1.528-0.39,2.054-0.085l6.555,3.785c0.526,0.303,0.46,0.833-0.147,1.184l-6.495,3.751
			C335.798,292.074,334.879,292.112,334.353,291.809z"/>
		<path fill="#06033E" d="M344.478,297.653l-6.557-3.786c-0.526-0.303-0.461-0.832,0.147-1.184l6.494-3.75
			c0.608-0.352,1.528-0.39,2.055-0.087l6.556,3.785c0.526,0.304,0.461,0.835-0.147,1.186l-6.496,3.75
			C345.922,297.919,345.003,297.957,344.478,297.653z"/>
		<path fill="#06033E" d="M354.6,303.498l-6.555-3.786c-0.526-0.303-0.461-0.832,0.146-1.184l6.495-3.75
			c0.607-0.352,1.528-0.389,2.053-0.085l6.556,3.785c0.527,0.303,0.461,0.835-0.146,1.184l-6.496,3.75
			C356.045,303.764,355.126,303.801,354.6,303.498z"/>
		<path fill="#06033E" d="M364.724,309.344l-6.556-3.785c-0.527-0.304-0.461-0.834,0.147-1.185l6.496-3.751
			c0.604-0.352,1.526-0.389,2.052-0.084l6.555,3.784c0.528,0.305,0.46,0.835-0.146,1.186l-6.495,3.749
			C366.169,309.608,365.25,309.646,364.724,309.344z"/>
		<path fill="#06033E" d="M374.847,315.188l-6.556-3.786c-0.527-0.304-0.462-0.833,0.146-1.185l6.496-3.75
			c0.606-0.352,1.526-0.39,2.053-0.086l6.556,3.786c0.526,0.305,0.459,0.834-0.147,1.184l-6.496,3.75
			C376.293,315.453,375.373,315.491,374.847,315.188z"/>
		<path fill="#06033E" d="M384.97,321.033l-6.555-3.784c-0.526-0.306-0.461-0.837,0.146-1.187l6.496-3.749
			c0.607-0.353,1.527-0.389,2.054-0.086l6.555,3.785c0.527,0.304,0.461,0.835-0.146,1.185l-6.496,3.749
			C386.415,321.298,385.496,321.335,384.97,321.033z"/>
		<path fill="#06033E" d="M288.528,253.973l-6.555-3.784c-0.527-0.305-0.459-0.835,0.148-1.187l6.494-3.75
			c0.608-0.352,1.528-0.391,2.055-0.085l6.555,3.785c0.527,0.303,0.459,0.833-0.147,1.184l-6.495,3.753
			C289.974,254.238,289.054,254.276,288.528,253.973z"/>
		<path fill="#06033E" d="M278.455,248.156l-6.555-3.783c-0.527-0.305-0.46-0.835,0.146-1.188l6.496-3.749
			c0.608-0.353,1.527-0.389,2.054-0.086l6.555,3.785c0.527,0.304,0.46,0.835-0.147,1.185l-6.496,3.752
			C279.9,248.423,278.982,248.461,278.455,248.156z"/>
		<path fill="#06033E" d="M268.382,242.34l-6.555-3.783c-0.526-0.305-0.459-0.835,0.147-1.187l6.496-3.75
			c0.608-0.352,1.528-0.391,2.053-0.085l6.556,3.785c0.525,0.303,0.459,0.835-0.148,1.186l-6.496,3.75
			C269.829,242.606,268.909,242.645,268.382,242.34z"/>
		<path fill="#06033E" d="M258.31,236.524l-6.555-3.784c-0.526-0.304-0.459-0.835,0.148-1.186l6.496-3.75
			c0.607-0.353,1.527-0.391,2.052-0.084l6.555,3.783c0.527,0.305,0.461,0.835-0.146,1.186l-6.496,3.751
			C259.755,236.791,258.835,236.83,258.31,236.524z"/>
		<path fill="#06033E" d="M268.667,230.546l-6.555-3.785c-0.527-0.304-0.46-0.834,0.146-1.186l2.147-1.239
			c0.607-0.352,1.527-0.39,2.054-0.084l6.556,3.783c0.526,0.305,0.459,0.835-0.148,1.186l-2.146,1.239
			C270.113,230.811,269.194,230.849,268.667,230.546z"/>
		<path fill="#06033E" d="M281.813,238.134l-6.555-3.783c-0.526-0.305-0.46-0.835,0.148-1.188l2.146-1.239
			c0.608-0.351,1.527-0.389,2.053-0.084l6.555,3.784c0.527,0.305,0.461,0.835-0.146,1.187l-2.147,1.239
			C283.258,238.4,282.339,238.438,281.813,238.134z"/>
		<path fill="#06033E" d="M291.844,243.926l-6.555-3.784c-0.527-0.304-0.461-0.835,0.146-1.186l2.147-1.239
			c0.607-0.353,1.527-0.391,2.054-0.086l6.555,3.785c0.527,0.305,0.459,0.835-0.148,1.186l-2.147,1.24
			C293.289,244.191,292.371,244.229,291.844,243.926z"/>
		<path fill="#06033E" d="M301.875,249.717l-6.555-3.784c-0.527-0.304-0.46-0.835,0.147-1.185l2.147-1.24
			c0.607-0.351,1.527-0.391,2.053-0.086l6.555,3.784c0.527,0.305,0.46,0.835-0.146,1.187l-2.146,1.239
			C303.32,249.983,302.401,250.021,301.875,249.717z"/>
		<path fill="#06033E" d="M311.905,255.508l-6.555-3.783c-0.526-0.305-0.46-0.835,0.147-1.185l2.147-1.239
			c0.607-0.352,1.526-0.391,2.052-0.085l6.557,3.785c0.526,0.303,0.461,0.835-0.147,1.186l-2.147,1.239
			C313.353,255.774,312.434,255.813,311.905,255.508z"/>
		<path fill="#06033E" d="M367.908,287.842l-6.555-3.784c-0.528-0.305-0.461-0.835,0.146-1.187l2.148-1.239
			c0.608-0.353,1.527-0.389,2.053-0.086l6.555,3.784c0.528,0.305,0.462,0.833-0.146,1.186l-2.149,1.24
			C369.354,288.109,368.435,288.146,367.908,287.842z"/>
		<path fill="#06033E" d="M377.939,293.634l-6.555-3.784c-0.528-0.304-0.461-0.835,0.146-1.187l2.147-1.239
			c0.608-0.352,1.528-0.389,2.053-0.087l6.558,3.786c0.526,0.305,0.459,0.835-0.148,1.185l-2.146,1.242
			C379.385,293.898,378.466,293.938,377.939,293.634z"/>
		<path fill="#06033E" d="M387.97,299.426l-6.555-3.785c-0.526-0.303-0.46-0.835,0.146-1.186l2.148-1.239
			c0.607-0.352,1.526-0.391,2.053-0.085l6.556,3.785c0.526,0.303,0.461,0.832-0.147,1.186l-2.147,1.239
			C389.417,299.691,388.496,299.728,387.97,299.426z"/>
		<path fill="#06033E" d="M398.002,305.216l-6.556-3.784c-0.526-0.304-0.461-0.835,0.147-1.187l2.147-1.239
			c0.608-0.352,1.527-0.389,2.054-0.084l6.554,3.782c0.528,0.306,0.463,0.835-0.146,1.187l-2.147,1.241
			C399.447,305.48,398.528,305.521,398.002,305.216z"/>
		<path fill="#06033E" d="M298.651,259.817l-6.555-3.784c-0.527-0.305-0.46-0.835,0.147-1.187l6.495-3.75
			c0.608-0.352,1.527-0.391,2.054-0.085l6.555,3.785c0.527,0.303,0.461,0.835-0.146,1.186l-6.496,3.751
			C300.098,260.082,299.179,260.122,298.651,259.817z"/>
		<path fill="#06033E" d="M308.774,265.662l-6.555-3.784c-0.527-0.305-0.46-0.835,0.147-1.187l6.494-3.749
			c0.608-0.351,1.528-0.391,2.055-0.085l6.555,3.784c0.526,0.305,0.461,0.835-0.146,1.186l-6.495,3.749
			C310.221,265.927,309.302,265.967,308.774,265.662z"/>
		<path fill="#06033E" d="M318.899,271.507l-6.556-3.784c-0.527-0.304-0.462-0.835,0.147-1.187l6.493-3.749
			c0.608-0.353,1.528-0.389,2.054-0.084l6.556,3.783c0.525,0.306,0.46,0.835-0.146,1.187l-6.495,3.75
			C320.345,271.771,319.426,271.812,318.899,271.507z"/>
		<path fill="#06033E" d="M329.022,277.352l-6.557-3.783c-0.526-0.305-0.46-0.834,0.147-1.188l6.495-3.749
			c0.607-0.353,1.526-0.388,2.053-0.084l6.557,3.785c0.525,0.303,0.459,0.833-0.148,1.184l-6.495,3.751
			C330.468,277.617,329.549,277.656,329.022,277.352z"/>
		<path fill="#06033E" d="M339.146,283.196l-6.557-3.783c-0.525-0.305-0.46-0.835,0.148-1.188l6.494-3.749
			c0.608-0.352,1.527-0.389,2.053-0.084l6.556,3.783c0.526,0.305,0.461,0.835-0.146,1.185l-6.495,3.752
			C340.592,283.462,339.673,283.501,339.146,283.196z"/>
		<path fill="#06033E" d="M349.27,289.041l-6.557-3.783c-0.525-0.305-0.459-0.835,0.148-1.187l6.495-3.75
			c0.606-0.352,1.526-0.389,2.052-0.084l6.557,3.783c0.526,0.305,0.461,0.835-0.147,1.185l-6.494,3.752
			C350.715,289.307,349.796,289.346,349.27,289.041z"/>
		<path fill="#06033E" d="M359.393,294.886l-6.556-3.783c-0.526-0.305-0.461-0.834,0.146-1.187l6.495-3.749
			c0.607-0.353,1.528-0.39,2.053-0.086l6.556,3.786c0.526,0.303,0.461,0.834-0.147,1.185l-6.494,3.75
			C360.839,295.151,359.919,295.19,359.393,294.886z"/>
		<path fill="#06033E" d="M369.517,300.731l-6.558-3.785c-0.525-0.304-0.46-0.834,0.148-1.186l6.494-3.75
			c0.608-0.352,1.527-0.39,2.054-0.086l6.555,3.786c0.526,0.305,0.461,0.835-0.146,1.184l-6.495,3.751
			C370.962,300.996,370.043,301.034,369.517,300.731z"/>
		<path fill="#06033E" d="M379.64,306.576l-6.557-3.784c-0.524-0.305-0.459-0.835,0.148-1.187l6.495-3.75
			c0.607-0.352,1.526-0.389,2.052-0.085l6.556,3.785c0.527,0.305,0.462,0.835-0.146,1.184l-6.494,3.753
			C381.085,306.841,380.166,306.881,379.64,306.576z"/>
		<path fill="#06033E" d="M240.773,260.539l-19.306-11.147c-0.526-0.303-0.459-0.834,0.148-1.186l6.496-3.751
			c0.608-0.351,1.528-0.389,2.054-0.085l19.306,11.146c0.527,0.304,0.459,0.835-0.148,1.187l-6.495,3.749
			C242.22,260.805,241.301,260.844,240.773,260.539z"/>
		<path fill="#06033E" d="M365.144,332.345l-19.305-11.147c-0.527-0.304-0.461-0.835,0.146-1.186l6.495-3.75
			c0.607-0.352,1.529-0.39,2.054-0.086l19.307,11.146c0.526,0.307,0.461,0.835-0.147,1.188l-6.496,3.749
			C366.589,332.609,365.67,332.646,365.144,332.345z"/>
		<path fill="#06033E" d="M324.658,321.881l-6.555-3.786c-0.527-0.305-0.462-0.834,0.146-1.184l7.738-4.468
			c0.607-0.351,1.528-0.389,2.054-0.086l6.555,3.784c0.527,0.305,0.46,0.835-0.146,1.187l-7.739,4.467
			C326.103,322.146,325.186,322.183,324.658,321.881z"/>
		<path fill="#06033E" d="M251.141,279.434l-10.483-6.052c-0.527-0.305-0.461-0.835,0.146-1.185l7.739-4.469
			c0.607-0.35,1.527-0.389,2.053-0.086l10.483,6.053c0.527,0.306,0.46,0.835-0.148,1.187l-7.737,4.467
			C252.587,279.701,251.668,279.738,251.141,279.434z"/>
		<path fill="#06033E" d="M314.904,316.249l-10.484-6.055c-0.526-0.304-0.46-0.834,0.148-1.185l7.737-4.468
			c0.608-0.351,1.527-0.389,2.054-0.085l10.483,6.055c0.526,0.304,0.461,0.832-0.147,1.185l-7.738,4.466
			C316.351,316.515,315.431,316.553,314.904,316.249z"/>
		<path fill="#06033E" d="M265.747,287.867l-10.483-6.052c-0.526-0.305-0.46-0.835,0.147-1.187l7.737-4.467
			c0.608-0.352,1.527-0.389,2.055-0.084l10.483,6.053c0.526,0.304,0.46,0.835-0.147,1.186l-7.737,4.467
			C267.193,288.133,266.274,288.172,265.747,287.867z"/>
		<path fill="#06033E" d="M265.273,276.117l45.58,26.318c0.566,0.325,0.566,0.855,0,1.181l-7.89,4.556
			c-0.565,0.326-1.482,0.326-2.047,0l-45.581-26.314L265.273,276.117z"/>
		<path fill="#06033E" d="M352.952,332.479l7.302,4.216c0.431,0.249,0.377,0.684-0.12,0.972l-3.164,1.826
			c-0.499,0.288-1.254,0.32-1.685,0.072l-7.303-4.219c-0.432-0.249-0.378-0.683,0.121-0.972l3.165-1.826
			C351.767,332.258,352.521,332.228,352.952,332.479z"/>
		<path fill="#06033E" d="M342.744,326.584l7.303,4.217c0.431,0.249,0.377,0.684-0.121,0.973l-3.165,1.826
			c-0.499,0.286-1.253,0.317-1.684,0.069l-7.302-4.215c-0.432-0.25-0.378-0.686,0.121-0.974l3.165-1.826
			C341.559,326.366,342.313,326.334,342.744,326.584z"/>
		<path fill="#06033E" d="M332.621,320.739l7.302,4.217c0.431,0.249,0.377,0.683-0.12,0.972l-3.164,1.827
			c-0.499,0.286-1.254,0.317-1.685,0.068l-7.302-4.215c-0.433-0.249-0.379-0.685,0.12-0.973l3.166-1.826
			C331.436,320.521,332.189,320.489,332.621,320.739z"/>
		<path fill="#06033E" d="M348.335,323.356l7.304,4.215c0.43,0.249,0.375,0.686-0.121,0.974l-3.165,1.826
			c-0.498,0.288-1.253,0.319-1.684,0.07l-7.302-4.216c-0.433-0.251-0.377-0.685,0.12-0.973l3.164-1.828
			C347.149,323.139,347.902,323.107,348.335,323.356z"/>
	</g>
	<g opacity="0.4">
		<path fill="#06033E" d="M216.843,259.633l-6.555-3.786c-0.527-0.303-0.461-0.835,0.146-1.184l7.738-4.47
			c0.608-0.349,1.528-0.388,2.054-0.084l6.555,3.784c0.527,0.305,0.461,0.835-0.147,1.187l-7.738,4.467
			C218.288,259.898,217.37,259.938,216.843,259.633z"/>
		<path fill="#06033E" d="M226.966,265.479l-6.555-3.785c-0.527-0.304-0.461-0.835,0.146-1.186l7.739-4.468
			c0.607-0.351,1.527-0.389,2.053-0.085l6.555,3.783c0.527,0.305,0.461,0.835-0.146,1.187l-7.738,4.467
			C228.413,265.743,227.493,265.781,226.966,265.479z"/>
		<path fill="#06033E" d="M237.09,271.323l-6.555-3.786c-0.527-0.304-0.461-0.835,0.146-1.185l7.738-4.469
			c0.608-0.35,1.528-0.389,2.054-0.084l6.555,3.782c0.527,0.306,0.461,0.835-0.147,1.188l-7.738,4.466
			C238.535,271.588,237.616,271.625,237.09,271.323z"/>
		<path fill="#06033E" d="M251.092,266.494l-6.555-3.783c-0.527-0.305-0.46-0.835,0.147-1.186l6.495-3.751
			c0.608-0.352,1.527-0.39,2.054-0.084l6.555,3.783c0.527,0.305,0.46,0.835-0.146,1.188l-6.496,3.749
			C252.537,266.762,251.618,266.799,251.092,266.494z"/>
		<path fill="#06033E" d="M261.215,272.339l-6.555-3.783c-0.527-0.305-0.459-0.835,0.148-1.188l6.496-3.749
			c0.608-0.351,1.528-0.389,2.054-0.084l6.555,3.782c0.527,0.306,0.459,0.835-0.147,1.188l-6.495,3.749
			C262.66,272.604,261.741,272.644,261.215,272.339z"/>
		<path fill="#06033E" d="M271.338,278.184l-6.555-3.783c-0.527-0.305-0.46-0.834,0.147-1.187l6.496-3.75
			c0.607-0.35,1.527-0.389,2.053-0.084l6.555,3.784c0.527,0.304,0.46,0.835-0.148,1.187l-6.495,3.749
			C272.783,278.45,271.863,278.488,271.338,278.184z"/>
		<path fill="#06033E" d="M281.461,284.029l-6.555-3.784c-0.527-0.305-0.459-0.835,0.148-1.187l6.495-3.75
			c0.608-0.352,1.527-0.389,2.055-0.084l6.555,3.782c0.526,0.307,0.459,0.835-0.147,1.188l-6.496,3.749
			C282.908,284.297,281.988,284.333,281.461,284.029z"/>
		<path fill="#06033E" d="M291.584,289.874l-6.555-3.784c-0.526-0.305-0.459-0.835,0.148-1.187l6.495-3.75
			c0.607-0.351,1.527-0.389,2.054-0.084l6.555,3.782c0.527,0.307,0.459,0.835-0.146,1.186l-6.496,3.753
			C293.031,290.139,292.111,290.179,291.584,289.874z"/>
		<path fill="#06033E" d="M301.709,295.719l-6.556-3.784c-0.527-0.305-0.459-0.833,0.148-1.187l6.496-3.75
			c0.608-0.349,1.528-0.388,2.053-0.084l6.556,3.784c0.526,0.305,0.461,0.835-0.148,1.186l-6.494,3.751
			C303.154,295.985,302.234,296.023,301.709,295.719z"/>
		<path fill="#06033E" d="M311.832,301.563l-6.556-3.784c-0.526-0.305-0.46-0.835,0.148-1.187l6.494-3.749
			c0.607-0.353,1.528-0.389,2.053-0.084l6.557,3.782c0.525,0.306,0.46,0.835-0.148,1.187l-6.494,3.749
			C313.276,301.831,312.358,301.868,311.832,301.563z"/>
		<path fill="#06033E" d="M321.955,307.408l-6.555-3.783c-0.526-0.305-0.461-0.836,0.147-1.188l6.494-3.749
			c0.608-0.351,1.527-0.389,2.054-0.084l6.555,3.783c0.526,0.306,0.461,0.835-0.146,1.187l-6.495,3.75
			C323.401,307.674,322.482,307.713,321.955,307.408z"/>
		<path fill="#06033E" d="M332.079,313.253l-6.557-3.782c-0.525-0.306-0.459-0.835,0.148-1.188l6.495-3.749
			c0.607-0.352,1.526-0.389,2.052-0.084l6.557,3.783c0.526,0.306,0.46,0.835-0.147,1.188l-6.495,3.75
			C333.524,313.519,332.605,313.558,332.079,313.253z"/>
		<path fill="#06033E" d="M342.202,319.098l-6.555-3.783c-0.528-0.305-0.461-0.835,0.146-1.188l6.494-3.749
			c0.607-0.352,1.527-0.389,2.053-0.084l6.557,3.783c0.526,0.305,0.46,0.835-0.147,1.186l-6.494,3.751
			C343.647,319.363,342.729,319.402,342.202,319.098z"/>
		<path fill="#06033E" d="M266.007,263.729l-6.555-3.785c-0.527-0.305-0.46-0.835,0.146-1.185l6.496-3.752
			c0.608-0.351,1.527-0.389,2.053-0.084l6.555,3.783c0.527,0.305,0.461,0.835-0.146,1.188l-6.496,3.749
			C267.453,263.994,266.533,264.031,266.007,263.729z"/>
		<path fill="#06033E" d="M255.732,257.795l-6.555-3.783c-0.526-0.305-0.459-0.835,0.148-1.187l6.496-3.75
			c0.607-0.352,1.527-0.389,2.052-0.085l6.555,3.785c0.527,0.303,0.461,0.835-0.146,1.185l-6.496,3.749
			C257.178,258.062,256.259,258.1,255.732,257.795z"/>
		<path fill="#06033E" d="M245.441,251.854l-14.119-8.15c-0.527-0.305-0.46-0.835,0.146-1.187l6.496-3.75
			c0.608-0.352,1.527-0.392,2.053-0.085l14.119,8.151c0.525,0.303,0.46,0.835-0.148,1.185l-6.496,3.752
			C246.887,252.12,245.969,252.158,245.441,251.854z"/>
		<path fill="#06033E" d="M252.635,244.629l-11.458-6.616c-0.527-0.304-0.46-0.835,0.148-1.186l6.496-3.75
			c0.608-0.353,1.527-0.389,2.053-0.084l11.457,6.614c0.527,0.303,0.46,0.835-0.146,1.184l-6.496,3.75
			C254.08,244.896,253.161,244.932,252.635,244.629z"/>
		<path fill="#06033E" d="M276.131,269.574l-6.555-3.785c-0.526-0.306-0.46-0.835,0.148-1.186l6.496-3.751
			c0.608-0.351,1.527-0.389,2.053-0.085l6.555,3.783c0.526,0.305,0.46,0.835-0.147,1.188l-6.496,3.749
			C277.576,269.84,276.658,269.876,276.131,269.574z"/>
		<path fill="#06033E" d="M286.253,275.418l-6.555-3.785c-0.526-0.305-0.459-0.835,0.147-1.186l6.496-3.751
			c0.608-0.351,1.527-0.389,2.053-0.084l6.555,3.782c0.525,0.306,0.459,0.835-0.148,1.188l-6.495,3.749
			C287.7,275.682,286.781,275.721,286.253,275.418z"/>
		<path fill="#06033E" d="M296.378,281.262l-6.555-3.784c-0.526-0.305-0.46-0.835,0.148-1.185l6.496-3.752
			c0.607-0.349,1.527-0.389,2.053-0.084l6.556,3.784c0.526,0.305,0.461,0.835-0.146,1.187l-6.497,3.75
			C297.823,281.527,296.903,281.565,296.378,281.262z"/>
		<path fill="#06033E" d="M306.501,287.106l-6.555-3.782c-0.527-0.307-0.46-0.835,0.147-1.186l6.496-3.751
			c0.607-0.351,1.527-0.389,2.054-0.086l6.555,3.784c0.526,0.305,0.461,0.835-0.147,1.187l-6.496,3.75
			C307.946,287.373,307.028,287.411,306.501,287.106z"/>
		<path fill="#06033E" d="M316.624,292.951l-6.555-3.784c-0.525-0.305-0.46-0.835,0.147-1.186l6.495-3.75
			c0.607-0.351,1.527-0.389,2.052-0.085l6.557,3.783c0.526,0.306,0.461,0.835-0.147,1.188l-6.495,3.75
			C318.07,293.216,317.15,293.256,316.624,292.951z"/>
		<path fill="#06033E" d="M326.747,298.796l-6.555-3.784c-0.526-0.304-0.46-0.833,0.147-1.187l6.495-3.749
			c0.607-0.351,1.527-0.389,2.053-0.084l6.555,3.783c0.528,0.305,0.461,0.835-0.146,1.187l-6.495,3.75
			C328.194,299.063,327.273,299.101,326.747,298.796z"/>
		<path fill="#06033E" d="M336.871,304.641l-6.556-3.783c-0.527-0.305-0.462-0.835,0.146-1.188l6.495-3.749
			c0.608-0.353,1.528-0.389,2.054-0.084l6.556,3.782c0.526,0.306,0.46,0.835-0.147,1.187l-6.495,3.75
			C338.317,304.908,337.397,304.945,336.871,304.641z"/>
		<path fill="#06033E" d="M346.994,310.485l-6.555-3.783c-0.526-0.305-0.46-0.835,0.146-1.188l6.496-3.749
			c0.608-0.351,1.527-0.389,2.054-0.084l6.555,3.782c0.526,0.306,0.461,0.835-0.146,1.188l-6.496,3.749
			C348.441,310.751,347.521,310.79,346.994,310.485z"/>
		<path fill="#06033E" d="M357.118,316.33l-6.556-3.783c-0.526-0.305-0.459-0.834,0.148-1.187l6.495-3.75
			c0.607-0.35,1.526-0.389,2.052-0.084l6.555,3.783c0.528,0.305,0.463,0.835-0.146,1.186l-6.496,3.751
			C358.564,316.597,357.645,316.635,357.118,316.33z"/>
		<path fill="#06033E" d="M375.117,326.721l-14.305-8.258c-0.526-0.304-0.461-0.835,0.146-1.186l6.496-3.75
			c0.608-0.352,1.527-0.39,2.052-0.085l14.306,8.258c0.526,0.305,0.459,0.835-0.148,1.187l-6.495,3.75
			C376.562,326.988,375.643,327.025,375.117,326.721z"/>
		<path fill="#06033E" d="M394.824,315.343l-12.07-6.973c-0.527-0.303-0.461-0.833,0.146-1.184l6.495-3.751
			c0.607-0.351,1.528-0.389,2.053-0.084l12.073,6.971c0.527,0.305,0.462,0.834-0.147,1.185l-6.495,3.751
			C396.27,315.608,395.351,315.646,394.824,315.343z"/>
		<path fill="#06033E" d="M293.859,268.43l-6.555-3.784c-0.527-0.305-0.461-0.835,0.146-1.187l6.496-3.75
			c0.607-0.352,1.527-0.388,2.053-0.085l6.555,3.785c0.526,0.305,0.461,0.835-0.147,1.184l-6.496,3.753
			C295.304,268.694,294.385,268.734,293.859,268.43z"/>
		<path fill="#06033E" d="M283.483,262.44l-6.555-3.786c-0.527-0.304-0.459-0.835,0.147-1.185l6.495-3.752
			c0.608-0.351,1.527-0.389,2.055-0.084l6.555,3.783c0.527,0.305,0.459,0.835-0.147,1.187l-6.495,3.75
			C284.93,262.705,284.01,262.742,283.483,262.44z"/>
		<path fill="#06033E" d="M273.108,256.448l-6.555-3.783c-0.526-0.307-0.46-0.835,0.147-1.188l6.496-3.749
			c0.608-0.353,1.527-0.389,2.053-0.086l6.555,3.785c0.527,0.304,0.461,0.835-0.146,1.185l-6.496,3.752
			C274.553,256.715,273.636,256.753,273.108,256.448z"/>
		<path fill="#06033E" d="M262.732,250.458l-6.555-3.785c-0.526-0.304-0.459-0.834,0.147-1.185l6.496-3.752
			c0.607-0.35,1.527-0.389,2.053-0.084l6.555,3.783c0.527,0.305,0.459,0.836-0.148,1.188l-6.496,3.751
			C264.179,250.725,263.26,250.761,262.732,250.458z"/>
		<path fill="#06033E" d="M303.981,274.274l-6.555-3.784c-0.527-0.305-0.461-0.835,0.146-1.187l6.496-3.748
			c0.607-0.354,1.527-0.39,2.053-0.087l6.556,3.786c0.526,0.304,0.459,0.834-0.147,1.185l-6.496,3.751
			C305.429,274.539,304.509,274.577,303.981,274.274z"/>
		<path fill="#06033E" d="M314.105,280.119l-6.554-3.785c-0.527-0.303-0.462-0.834,0.146-1.186l6.496-3.749
			c0.604-0.353,1.526-0.389,2.052-0.087l6.557,3.786c0.526,0.305,0.459,0.834-0.147,1.185l-6.496,3.751
			C315.552,280.385,314.631,280.424,314.105,280.119z"/>
		<path fill="#06033E" d="M324.229,285.964l-6.556-3.783c-0.526-0.305-0.46-0.835,0.147-1.188l6.496-3.749
			c0.605-0.352,1.526-0.389,2.052-0.086l6.556,3.785c0.527,0.305,0.459,0.835-0.146,1.185l-6.496,3.752
			C325.675,286.229,324.756,286.266,324.229,285.964z"/>
		<path fill="#06033E" d="M334.353,291.809l-6.555-3.785c-0.528-0.303-0.461-0.833,0.146-1.184l6.496-3.75
			c0.607-0.353,1.528-0.39,2.054-0.085l6.555,3.785c0.526,0.303,0.46,0.833-0.147,1.184l-6.495,3.751
			C335.798,292.074,334.879,292.112,334.353,291.809z"/>
		<path fill="#06033E" d="M344.478,297.653l-6.557-3.786c-0.526-0.303-0.461-0.832,0.147-1.184l6.494-3.75
			c0.608-0.352,1.528-0.39,2.055-0.087l6.556,3.785c0.526,0.304,0.461,0.835-0.147,1.186l-6.496,3.75
			C345.922,297.919,345.003,297.957,344.478,297.653z"/>
		<path fill="#06033E" d="M354.6,303.498l-6.555-3.786c-0.526-0.303-0.461-0.832,0.146-1.184l6.495-3.75
			c0.607-0.352,1.528-0.389,2.053-0.085l6.556,3.785c0.527,0.303,0.461,0.835-0.146,1.184l-6.496,3.75
			C356.045,303.764,355.126,303.801,354.6,303.498z"/>
		<path fill="#06033E" d="M364.724,309.344l-6.556-3.785c-0.527-0.304-0.461-0.834,0.147-1.185l6.496-3.751
			c0.604-0.352,1.526-0.389,2.052-0.084l6.555,3.784c0.528,0.305,0.46,0.835-0.146,1.186l-6.495,3.749
			C366.169,309.608,365.25,309.646,364.724,309.344z"/>
		<path fill="#06033E" d="M374.847,315.188l-6.556-3.786c-0.527-0.304-0.462-0.833,0.146-1.185l6.496-3.75
			c0.606-0.352,1.526-0.39,2.053-0.086l6.556,3.786c0.526,0.305,0.459,0.834-0.147,1.184l-6.496,3.75
			C376.293,315.453,375.373,315.491,374.847,315.188z"/>
		<path fill="#06033E" d="M384.97,321.033l-6.555-3.784c-0.526-0.306-0.461-0.837,0.146-1.187l6.496-3.749
			c0.607-0.353,1.527-0.389,2.054-0.086l6.555,3.785c0.527,0.304,0.461,0.835-0.146,1.185l-6.496,3.749
			C386.415,321.298,385.496,321.335,384.97,321.033z"/>
		<path fill="#06033E" d="M288.528,253.973l-6.555-3.784c-0.527-0.305-0.459-0.835,0.148-1.187l6.494-3.75
			c0.608-0.352,1.528-0.391,2.055-0.085l6.555,3.785c0.527,0.303,0.459,0.833-0.147,1.184l-6.495,3.753
			C289.974,254.238,289.054,254.276,288.528,253.973z"/>
		<path fill="#06033E" d="M278.455,248.156l-6.555-3.783c-0.527-0.305-0.46-0.835,0.146-1.188l6.496-3.749
			c0.608-0.353,1.527-0.389,2.054-0.086l6.555,3.785c0.527,0.304,0.46,0.835-0.147,1.185l-6.496,3.752
			C279.9,248.423,278.982,248.461,278.455,248.156z"/>
		<path fill="#06033E" d="M268.382,242.34l-6.555-3.783c-0.526-0.305-0.459-0.835,0.147-1.187l6.496-3.75
			c0.608-0.352,1.528-0.391,2.053-0.085l6.556,3.785c0.525,0.303,0.459,0.835-0.148,1.186l-6.496,3.75
			C269.829,242.606,268.909,242.645,268.382,242.34z"/>
		<path fill="#06033E" d="M258.31,236.524l-6.555-3.784c-0.526-0.304-0.459-0.835,0.148-1.186l6.496-3.75
			c0.607-0.353,1.527-0.391,2.052-0.084l6.555,3.783c0.527,0.305,0.461,0.835-0.146,1.186l-6.496,3.751
			C259.755,236.791,258.835,236.83,258.31,236.524z"/>
		<path fill="#06033E" d="M268.667,230.546l-6.555-3.785c-0.527-0.304-0.46-0.834,0.146-1.186l2.147-1.239
			c0.607-0.352,1.527-0.39,2.054-0.084l6.556,3.783c0.526,0.305,0.459,0.835-0.148,1.186l-2.146,1.239
			C270.113,230.811,269.194,230.849,268.667,230.546z"/>
		<path fill="#06033E" d="M281.813,238.134l-6.555-3.783c-0.526-0.305-0.46-0.835,0.148-1.188l2.146-1.239
			c0.608-0.351,1.527-0.389,2.053-0.084l6.555,3.784c0.527,0.305,0.461,0.835-0.146,1.187l-2.147,1.239
			C283.258,238.4,282.339,238.438,281.813,238.134z"/>
		<path fill="#06033E" d="M291.844,243.926l-6.555-3.784c-0.527-0.304-0.461-0.835,0.146-1.186l2.147-1.239
			c0.607-0.353,1.527-0.391,2.054-0.086l6.555,3.785c0.527,0.305,0.459,0.835-0.148,1.186l-2.147,1.24
			C293.289,244.191,292.371,244.229,291.844,243.926z"/>
		<path fill="#06033E" d="M301.875,249.717l-6.555-3.784c-0.527-0.304-0.46-0.835,0.147-1.185l2.147-1.24
			c0.607-0.351,1.527-0.391,2.053-0.086l6.555,3.784c0.527,0.305,0.46,0.835-0.146,1.187l-2.146,1.239
			C303.32,249.983,302.401,250.021,301.875,249.717z"/>
		<path fill="#06033E" d="M311.905,255.508l-6.555-3.783c-0.526-0.305-0.46-0.835,0.147-1.185l2.147-1.239
			c0.607-0.352,1.526-0.391,2.052-0.085l6.557,3.785c0.526,0.303,0.461,0.835-0.147,1.186l-2.147,1.239
			C313.353,255.774,312.434,255.813,311.905,255.508z"/>
		<path fill="#06033E" d="M367.908,287.842l-6.555-3.784c-0.528-0.305-0.461-0.835,0.146-1.187l2.148-1.239
			c0.608-0.353,1.527-0.389,2.053-0.086l6.555,3.784c0.528,0.305,0.462,0.833-0.146,1.186l-2.149,1.24
			C369.354,288.109,368.435,288.146,367.908,287.842z"/>
		<path fill="#06033E" d="M377.939,293.634l-6.555-3.784c-0.528-0.304-0.461-0.835,0.146-1.187l2.147-1.239
			c0.608-0.352,1.528-0.389,2.053-0.087l6.558,3.786c0.526,0.305,0.459,0.835-0.148,1.185l-2.146,1.242
			C379.385,293.898,378.466,293.938,377.939,293.634z"/>
		<path fill="#06033E" d="M387.97,299.426l-6.555-3.785c-0.526-0.303-0.46-0.835,0.146-1.186l2.148-1.239
			c0.607-0.352,1.526-0.391,2.053-0.085l6.556,3.785c0.526,0.303,0.461,0.832-0.147,1.186l-2.147,1.239
			C389.417,299.691,388.496,299.728,387.97,299.426z"/>
		<path fill="#06033E" d="M398.002,305.216l-6.556-3.784c-0.526-0.304-0.461-0.835,0.147-1.187l2.147-1.239
			c0.608-0.352,1.527-0.389,2.054-0.084l6.554,3.782c0.528,0.306,0.463,0.835-0.146,1.187l-2.147,1.241
			C399.447,305.48,398.528,305.521,398.002,305.216z"/>
		<path fill="#06033E" d="M298.651,259.817l-6.555-3.784c-0.527-0.305-0.46-0.835,0.147-1.187l6.495-3.75
			c0.608-0.352,1.527-0.391,2.054-0.085l6.555,3.785c0.527,0.303,0.461,0.835-0.146,1.186l-6.496,3.751
			C300.098,260.082,299.179,260.122,298.651,259.817z"/>
		<path fill="#06033E" d="M308.774,265.662l-6.555-3.784c-0.527-0.305-0.46-0.835,0.147-1.187l6.494-3.749
			c0.608-0.351,1.528-0.391,2.055-0.085l6.555,3.784c0.526,0.305,0.461,0.835-0.146,1.186l-6.495,3.749
			C310.221,265.927,309.302,265.967,308.774,265.662z"/>
		<path fill="#06033E" d="M318.899,271.507l-6.556-3.784c-0.527-0.304-0.462-0.835,0.147-1.187l6.493-3.749
			c0.608-0.353,1.528-0.389,2.054-0.084l6.556,3.783c0.525,0.306,0.46,0.835-0.146,1.187l-6.495,3.75
			C320.345,271.771,319.426,271.812,318.899,271.507z"/>
		<path fill="#06033E" d="M329.022,277.352l-6.557-3.783c-0.526-0.305-0.46-0.834,0.147-1.188l6.495-3.749
			c0.607-0.353,1.526-0.388,2.053-0.084l6.557,3.785c0.525,0.303,0.459,0.833-0.148,1.184l-6.495,3.751
			C330.468,277.617,329.549,277.656,329.022,277.352z"/>
		<path fill="#06033E" d="M339.146,283.196l-6.557-3.783c-0.525-0.305-0.46-0.835,0.148-1.188l6.494-3.749
			c0.608-0.352,1.527-0.389,2.053-0.084l6.556,3.783c0.526,0.305,0.461,0.835-0.146,1.185l-6.495,3.752
			C340.592,283.462,339.673,283.501,339.146,283.196z"/>
		<path fill="#06033E" d="M349.27,289.041l-6.557-3.783c-0.525-0.305-0.459-0.835,0.148-1.187l6.495-3.75
			c0.606-0.352,1.526-0.389,2.052-0.084l6.557,3.783c0.526,0.305,0.461,0.835-0.147,1.185l-6.494,3.752
			C350.715,289.307,349.796,289.346,349.27,289.041z"/>
		<path fill="#06033E" d="M359.393,294.886l-6.556-3.783c-0.526-0.305-0.461-0.834,0.146-1.187l6.495-3.749
			c0.607-0.353,1.528-0.39,2.053-0.086l6.556,3.786c0.526,0.303,0.461,0.834-0.147,1.185l-6.494,3.75
			C360.839,295.151,359.919,295.19,359.393,294.886z"/>
		<path fill="#06033E" d="M369.517,300.731l-6.558-3.785c-0.525-0.304-0.46-0.834,0.148-1.186l6.494-3.75
			c0.608-0.352,1.527-0.39,2.054-0.086l6.555,3.786c0.526,0.305,0.461,0.835-0.146,1.184l-6.495,3.751
			C370.962,300.996,370.043,301.034,369.517,300.731z"/>
		<path fill="#06033E" d="M379.64,306.576l-6.557-3.784c-0.524-0.305-0.459-0.835,0.148-1.187l6.495-3.75
			c0.607-0.352,1.526-0.389,2.052-0.085l6.556,3.785c0.527,0.305,0.462,0.835-0.146,1.184l-6.494,3.753
			C381.085,306.841,380.166,306.881,379.64,306.576z"/>
		<path fill="#06033E" d="M240.773,260.539l-19.306-11.147c-0.526-0.303-0.459-0.834,0.148-1.186l6.496-3.751
			c0.608-0.351,1.528-0.389,2.054-0.085l19.306,11.146c0.527,0.304,0.459,0.835-0.148,1.187l-6.495,3.749
			C242.22,260.805,241.301,260.844,240.773,260.539z"/>
		<path fill="#06033E" d="M365.144,332.345l-19.305-11.147c-0.527-0.304-0.461-0.835,0.146-1.186l6.495-3.75
			c0.607-0.352,1.529-0.39,2.054-0.086l19.307,11.146c0.526,0.307,0.461,0.835-0.147,1.188l-6.496,3.749
			C366.589,332.609,365.67,332.646,365.144,332.345z"/>
		<path fill="#06033E" d="M324.658,321.881l-6.555-3.786c-0.527-0.305-0.462-0.834,0.146-1.184l7.738-4.468
			c0.607-0.351,1.528-0.389,2.054-0.086l6.555,3.784c0.527,0.305,0.46,0.835-0.146,1.187l-7.739,4.467
			C326.103,322.146,325.186,322.183,324.658,321.881z"/>
		<path fill="#06033E" d="M251.141,279.434l-10.483-6.052c-0.527-0.305-0.461-0.835,0.146-1.185l7.739-4.469
			c0.607-0.35,1.527-0.389,2.053-0.086l10.483,6.053c0.527,0.306,0.46,0.835-0.148,1.187l-7.737,4.467
			C252.587,279.701,251.668,279.738,251.141,279.434z"/>
		<path fill="#06033E" d="M314.904,316.249l-10.484-6.055c-0.526-0.304-0.46-0.834,0.148-1.185l7.737-4.468
			c0.608-0.351,1.527-0.389,2.054-0.085l10.483,6.055c0.526,0.304,0.461,0.832-0.147,1.185l-7.738,4.466
			C316.351,316.515,315.431,316.553,314.904,316.249z"/>
		<path fill="#06033E" d="M265.747,287.867l-10.483-6.052c-0.526-0.305-0.46-0.835,0.147-1.187l7.737-4.467
			c0.608-0.352,1.527-0.389,2.055-0.084l10.483,6.053c0.526,0.304,0.46,0.835-0.147,1.186l-7.737,4.467
			C267.193,288.133,266.274,288.172,265.747,287.867z"/>
		<path fill="#06033E" d="M265.273,276.117l45.58,26.318c0.566,0.325,0.566,0.855,0,1.181l-7.89,4.556
			c-0.565,0.326-1.482,0.326-2.047,0l-45.581-26.314L265.273,276.117z"/>
		<path fill="#06033E" d="M352.952,332.479l7.302,4.216c0.431,0.249,0.377,0.684-0.12,0.972l-3.164,1.826
			c-0.499,0.288-1.254,0.32-1.685,0.072l-7.303-4.219c-0.432-0.249-0.378-0.683,0.121-0.972l3.165-1.826
			C351.767,332.258,352.521,332.228,352.952,332.479z"/>
		<path fill="#06033E" d="M342.744,326.584l7.303,4.217c0.431,0.249,0.377,0.684-0.121,0.973l-3.165,1.826
			c-0.499,0.286-1.253,0.317-1.684,0.069l-7.302-4.215c-0.432-0.25-0.378-0.686,0.121-0.974l3.165-1.826
			C341.559,326.366,342.313,326.334,342.744,326.584z"/>
		<path fill="#06033E" d="M332.621,320.739l7.302,4.217c0.431,0.249,0.377,0.683-0.12,0.972l-3.164,1.827
			c-0.499,0.286-1.254,0.317-1.685,0.068l-7.302-4.215c-0.433-0.249-0.379-0.685,0.12-0.973l3.166-1.826
			C331.436,320.521,332.189,320.489,332.621,320.739z"/>
		<path fill="#06033E" d="M348.335,323.356l7.304,4.215c0.43,0.249,0.375,0.686-0.121,0.974l-3.165,1.826
			c-0.498,0.288-1.253,0.319-1.684,0.07l-7.302-4.216c-0.433-0.251-0.377-0.685,0.12-0.973l3.164-1.828
			C347.149,323.139,347.902,323.107,348.335,323.356z"/>
	</g>
	
		<radialGradient id="SVGID_8_" cx="385.3398" cy="105.4365" r="300.2526" gradientTransform="matrix(1 0 0 -1 -156 205)" gradientUnits="userSpaceOnUse">
		<stop  offset="0" style="stop-color:#E39A65"/>
		<stop  offset="0.4742" style="stop-color:#A92FFB"/>
		<stop  offset="0.5875" style="stop-color:#891CFB"/>
		<stop  offset="0.7262" style="stop-color:#6507FA"/>
		<stop  offset="1" style="stop-color:#3919BB"/>
	</radialGradient>
	<path fill="url(#SVGID_8_)" d="M455.476,311.53L262.071,199.869c-3.041-1.755-4.628-6.034-3.545-9.555l43.738-142.007
		c1.083-3.522,4.427-4.954,7.468-3.197l193.403,111.662c3.04,1.755,4.629,6.033,3.545,9.557l-43.737,142.006
		C461.861,311.856,458.516,313.287,455.476,311.53z"/>
	
		<linearGradient id="SVGID_9_" gradientUnits="userSpaceOnUse" x1="418.3418" y1="26.6201" x2="658.9385" y2="26.6201" gradientTransform="matrix(1 0 0 -1 -156 205)">
		<stop  offset="0" style="stop-color:#3919BB"/>
		<stop  offset="1" style="stop-color:#6507FA"/>
	</linearGradient>
	<path fill="url(#SVGID_9_)" d="M453.65,306.559L266.06,198.163c-2.911-1.681-4.43-5.774-3.392-9.143l41.815-135.759
		c1.036-3.371,4.236-4.741,7.146-3.061l187.59,108.395c2.912,1.681,4.43,5.774,3.393,9.146l-41.814,135.756
		C459.761,306.87,456.563,308.239,453.65,306.559z"/>
	<path opacity="0.4" fill="#06033E" enable-background="new    " d="M453.65,306.559L266.06,198.163
		c-2.911-1.681-4.43-5.774-3.392-9.143l41.815-135.759c1.036-3.371,4.236-4.741,7.146-3.061l187.59,108.395
		c2.912,1.681,4.43,5.774,3.393,9.146l-41.814,135.756C459.761,306.87,456.563,308.239,453.65,306.559z"/>
	<path opacity="0.4" fill="#06033E" enable-background="new    " d="M453.65,306.559L266.06,198.163
		c-2.911-1.681-4.43-5.774-3.392-9.143l41.815-135.759c1.036-3.371,4.236-4.741,7.146-3.061l187.59,108.395
		c2.912,1.681,4.43,5.774,3.393,9.146l-41.814,135.756C459.761,306.87,456.563,308.239,453.65,306.559z"/>
	<path opacity="0.5" fill="#06033E" enable-background="new    " d="M443.573,265.071l-126.991-73.317
		c-1.994-1.154-3.038-3.961-2.326-6.274l28.719-93.241c0.71-2.312,2.906-3.252,4.902-2.1l126.989,73.318
		c1.995,1.151,3.04,3.962,2.326,6.274l-28.718,93.242C447.766,265.284,445.571,266.224,443.573,265.071z"/>
	<g>
		
			<radialGradient id="SVGID_10_" cx="275.7314" cy="169.5518" r="467.638" gradientTransform="matrix(1 0 0 -1 -156 205)" gradientUnits="userSpaceOnUse">
			<stop  offset="0" style="stop-color:#E39A65"/>
			<stop  offset="0.4742" style="stop-color:#A92FFB"/>
			<stop  offset="0.5875" style="stop-color:#891CFB"/>
			<stop  offset="0.7262" style="stop-color:#6507FA"/>
			<stop  offset="1" style="stop-color:#3919BB"/>
		</radialGradient>
		<path fill="url(#SVGID_10_)" d="M426.416,267.321l-126.988-73.315c-1.997-1.153-3.04-3.962-2.327-6.276l28.718-93.242
			c0.711-2.313,2.906-3.252,4.903-2.1l126.988,73.317c1.998,1.154,3.04,3.962,2.329,6.274l-28.718,93.243
			C430.607,267.535,428.412,268.474,426.416,267.321z"/>
	</g>
	<g opacity="0.5">
		<path fill="#06033E" d="M426.416,267.321l-126.988-73.315c-1.997-1.153-3.04-3.962-2.327-6.276l28.718-93.242
			c0.711-2.313,2.906-3.252,4.903-2.1l126.988,73.317c1.998,1.154,3.04,3.962,2.329,6.274l-28.718,93.243
			C430.607,267.535,428.412,268.474,426.416,267.321z"/>
	</g>
	<path fill="#FFFFFF" d="M457.71,165.706L330.72,92.389c-1.251-0.722-2.579-0.622-3.573,0.123c0.599-0.018,1.224,0.117,1.834,0.469
		l126.988,73.318c1.998,1.151,3.041,3.961,2.326,6.274l-28.715,93.242c-0.268,0.865-0.74,1.534-1.331,1.977
		c1.363-0.039,2.576-0.963,3.069-2.566l28.718-93.243C460.748,169.668,459.705,166.859,457.71,165.706z"/>
	<path opacity="0.4" fill="#06033E" enable-background="new    " d="M266.252,343.465c-1.75,0-3.425-0.365-4.706-1.104l0,0
		l-50.879-29.373c-1.347-0.78-2.09-1.891-2.09-3.136c-0.001-1.441,1.023-2.859,2.806-3.89l26.188-15.122
		c3.201-1.846,7.897-2.026,10.697-0.412l50.877,29.374c1.349,0.78,2.09,1.894,2.092,3.135c0,1.442-1.023,2.86-2.806,3.891
		l-26.189,15.121C270.507,342.952,268.328,343.465,266.252,343.465z M243.589,290.816c-1.839,0-3.792,0.441-5.279,1.3
		l-26.188,15.121c-1.317,0.759-2.073,1.715-2.073,2.615c0,0.893,0.737,1.505,1.358,1.862l50.878,29.376
		c2.309,1.329,6.532,1.143,9.226-0.415l26.189-15.118c1.316-0.762,2.072-1.715,2.072-2.618c0-0.891-0.738-1.505-1.357-1.861
		l-50.877-29.374C246.502,291.107,245.083,290.816,243.589,290.816z"/>
</g>
<g>
	<g>
		<path fill="#FFFFFF" d="M361.649,141.307l-7.851-4.532c-0.728-0.422-1.118-1.433-0.872-2.258l0,0
			c0.248-0.827,1.037-1.154,1.767-0.734l7.851,4.533c0.729,0.421,1.12,1.431,0.873,2.257l0,0
			C363.169,141.399,362.378,141.727,361.649,141.307z"/>
		<path fill="#FFFFFF" d="M380.352,152.105l-11.577-6.685c-0.729-0.421-1.118-1.431-0.87-2.257l0,0
			c0.245-0.827,1.036-1.155,1.765-0.734l11.576,6.684c0.729,0.421,1.119,1.431,0.872,2.257l0,0
			C381.87,152.195,381.08,152.525,380.352,152.105z"/>
		<path fill="#FFFFFF" d="M345.816,176.259l-7.851-4.532c-0.728-0.421-1.118-1.431-0.87-2.258l0,0
			c0.246-0.824,1.035-1.154,1.764-0.732l7.852,4.532c0.729,0.421,1.12,1.431,0.873,2.258l0,0
			C347.336,176.354,346.545,176.68,345.816,176.259z"/>
		<path fill="#FFFFFF" d="M362.487,185.885l-11.575-6.683c-0.729-0.42-1.12-1.431-0.872-2.258l0,0
			c0.247-0.826,1.036-1.155,1.765-0.734l11.575,6.684c0.729,0.42,1.12,1.431,0.873,2.258l0,0
			C364.006,185.977,363.216,186.306,362.487,185.885z"/>
		<path fill="#FFFFFF" d="M338.133,135.079l-4.904-2.831c-0.727-0.421-1.118-1.431-0.871-2.258l0,0
			c0.248-0.826,1.037-1.154,1.766-0.733l4.903,2.831c0.729,0.421,1.119,1.43,0.873,2.257l0,0
			C339.651,135.169,338.861,135.499,338.133,135.079z"/>
		<path fill="#FFFFFF" d="M352.891,150.948l-14.985-8.652c-0.729-0.421-1.12-1.43-0.872-2.257l0,0
			c0.247-0.827,1.036-1.155,1.765-0.734l14.985,8.652c0.728,0.421,1.118,1.43,0.87,2.257l0,0
			C354.409,151.039,353.619,151.367,352.891,150.948z"/>
		<path fill="#FFFFFF" d="M339.068,157.666l-4.903-2.832c-0.729-0.421-1.12-1.43-0.872-2.257l0,0
			c0.247-0.826,1.036-1.155,1.765-0.734l4.903,2.832c0.729,0.42,1.12,1.43,0.872,2.256l0,0
			C340.588,157.758,339.797,158.086,339.068,157.666z"/>
		<path fill="#FFFFFF" d="M364.295,201.626l-13.1-7.562c-0.729-0.42-1.117-1.431-0.87-2.257l0,0
			c0.245-0.826,1.036-1.154,1.765-0.735l13.1,7.563c0.729,0.42,1.118,1.431,0.871,2.258l0,0
			C365.814,201.718,365.023,202.047,364.295,201.626z"/>
		<path fill="#FFFFFF" d="M333.573,169.19l-3.148-1.817c-0.729-0.42-1.12-1.431-0.873-2.258l0,0
			c0.247-0.824,1.037-1.154,1.766-0.732l3.147,1.817c0.729,0.42,1.119,1.431,0.871,2.258l0,0
			C335.091,169.282,334.301,169.612,333.573,169.19z"/>
		<path fill="#FFFFFF" d="M330.593,182.168l-3.908-2.257c-0.729-0.42-1.12-1.432-0.873-2.258l0,0
			c0.248-0.825,1.037-1.154,1.766-0.733l3.91,2.256c0.729,0.421,1.119,1.431,0.871,2.258l0,0
			C332.111,182.261,331.321,182.589,330.593,182.168z"/>
		<path fill="#FFFFFF" d="M345.803,190.95l-10.308-5.953c-0.729-0.42-1.119-1.43-0.872-2.255l0,0
			c0.247-0.827,1.036-1.155,1.765-0.735l10.308,5.952c0.729,0.42,1.118,1.43,0.873,2.257l0,0
			C347.321,191.042,346.531,191.37,345.803,190.95z"/>
		<path fill="#FFFFFF" d="M332.225,190.459l-7.412-4.279c-0.729-0.421-1.117-1.431-0.872-2.257l0,0
			c0.247-0.827,1.036-1.155,1.765-0.735l7.412,4.28c0.729,0.42,1.119,1.43,0.871,2.257l0,0
			C333.743,190.552,332.953,190.879,332.225,190.459z"/>
		<path fill="#FFFFFF" d="M375.533,208.147l-4.759-2.748c-0.729-0.42-1.12-1.431-0.873-2.258l0,0
			c0.248-0.825,1.037-1.154,1.766-0.733l4.759,2.747c0.729,0.421,1.119,1.433,0.872,2.258l0,0
			C377.052,208.237,376.262,208.568,375.533,208.147z"/>
		<path fill="#FFFFFF" d="M357.313,168.199l-13.099-7.563c-0.729-0.421-1.12-1.431-0.873-2.258l0,0
			c0.248-0.825,1.037-1.154,1.766-0.733l13.099,7.562c0.729,0.422,1.119,1.431,0.871,2.258l0,0
			C358.831,168.29,358.041,168.619,357.313,168.199z"/>
	</g>
	<path fill="#E8975B" d="M358.865,161.747l-22.829-13.183c-0.728-0.42-1.119-1.432-0.872-2.257l0,0
		c0.247-0.827,1.037-1.154,1.766-0.734l22.829,13.181c0.729,0.421,1.12,1.43,0.873,2.257l0,0
		C360.384,161.837,359.594,162.167,358.865,161.747z"/>
	<path fill="#E8975B" d="M345.394,168.667l-13.1-7.562c-0.729-0.421-1.118-1.43-0.871-2.257l0,0
		c0.246-0.827,1.037-1.155,1.766-0.735l13.1,7.562c0.729,0.421,1.118,1.432,0.87,2.258l0,0
		C346.913,168.757,346.123,169.088,345.394,168.667z"/>
	<path fill="#E8975B" d="M367.248,173.935l-4.76-2.748c-0.729-0.421-1.118-1.43-0.873-2.257l0,0
		c0.248-0.827,1.037-1.155,1.767-0.735l4.759,2.749c0.729,0.42,1.118,1.43,0.873,2.257l0,0
		C368.767,174.027,367.977,174.355,367.248,173.935z"/>
	<path fill="#E8975B" d="M415.661,172.491l-28.185-16.273c-0.729-0.421-1.12-1.43-0.872-2.257l0,0
		c0.247-0.826,1.036-1.155,1.765-0.735l28.185,16.273c0.728,0.421,1.119,1.43,0.872,2.257l0,0
		C417.179,172.582,416.389,172.911,415.661,172.491z"/>
	<path fill="#F8359E" d="M344.301,182.732l-15.747-9.09c-0.729-0.422-1.118-1.43-0.871-2.257l0,0
		c0.246-0.827,1.035-1.155,1.764-0.735l15.747,9.091c0.729,0.421,1.118,1.433,0.873,2.257l0,0
		C345.819,182.826,345.029,183.154,344.301,182.732z"/>
	<path fill="#F8359E" d="M346.676,132.661l-11.577-6.684c-0.729-0.421-1.119-1.431-0.872-2.258l0,0
		c0.247-0.825,1.036-1.154,1.765-0.734l11.577,6.685c0.727,0.421,1.118,1.432,0.87,2.258l0,0
		C348.193,132.753,347.402,133.082,346.676,132.661z"/>
	<path fill="#E8975B" d="M329.804,196.411l-13.409-7.742c-0.728-0.421-1.119-1.43-0.871-2.257l0,0
		c0.247-0.827,1.036-1.155,1.765-0.734l13.408,7.741c0.729,0.421,1.119,1.432,0.872,2.259l0,0
		C331.322,196.502,330.532,196.832,329.804,196.411z"/>
</g>
<g>
	<path fill="#FFFFFF" d="M418.822,157.995l-5.739-3.314c-0.53-0.307-0.816-1.045-0.636-1.649l0,0
		c0.179-0.604,0.757-0.844,1.289-0.536l5.737,3.311c0.533,0.309,0.819,1.046,0.641,1.652l0,0
		C419.934,158.063,419.355,158.302,418.822,157.995z"/>
	<path fill="#FFFFFF" d="M429.77,164.314l-5.737-3.313c-0.533-0.307-0.819-1.046-0.641-1.65l0,0
		c0.181-0.604,0.759-0.846,1.292-0.537l5.739,3.313c0.53,0.309,0.817,1.046,0.639,1.651l0,0
		C430.88,164.38,430.303,164.622,429.77,164.314z"/>
	<path fill="#FFFFFF" d="M440.716,170.635l-5.739-3.314c-0.531-0.307-0.817-1.045-0.639-1.649l0,0
		c0.182-0.604,0.757-0.845,1.289-0.537l5.74,3.312c0.533,0.307,0.816,1.046,0.638,1.649l0,0
		C441.826,170.703,441.249,170.942,440.716,170.635z"/>
	<path fill="#F8359E" d="M446.096,173.745l-0.173-0.104c-0.533-0.307-0.816-1.046-0.638-1.652l0,0
		c0.178-0.604,0.756-0.843,1.289-0.536l0.173,0.103c0.533,0.309,0.819,1.048,0.639,1.652l0,0
		C447.207,173.812,446.629,174.052,446.096,173.745z"/>
</g>
<linearGradient id="SVGID_11_" gradientUnits="userSpaceOnUse" x1="254.3076" y1="-6.292" x2="357.5215" y2="-6.292" gradientTransform="matrix(1 0 0 -1 -156 205)">
	<stop  offset="0" style="stop-color:#E39A65"/>
	<stop  offset="1" style="stop-color:#E95F8D"/>
</linearGradient>
<path fill="url(#SVGID_11_)" d="M149.915,240.901c-3.631,0-7.263-0.934-10.502-2.805l0,0l-38.442-22.195
	c-1.669-0.963-2.663-2.686-2.663-4.611c0-1.924,0.994-3.647,2.663-4.609l38.439-22.194c6.479-3.74,14.53-3.742,21.007,0
	l38.441,22.195c1.667,0.962,2.663,2.684,2.663,4.609s-0.997,3.647-2.663,4.609l-38.44,22.195
	C157.181,239.968,153.547,240.901,149.915,240.901z M140.663,235.931c5.708,3.293,12.799,3.293,18.508,0l38.439-22.195
	c0.884-0.509,1.411-1.423,1.411-2.442c0-1.019-0.528-1.933-1.411-2.442l-38.441-22.197c-5.711-3.296-12.801-3.294-18.508,0
	l-38.441,22.194c-0.882,0.512-1.41,1.425-1.41,2.443c0,1.019,0.528,1.934,1.41,2.443L140.663,235.931z"/>
<g>
	<path opacity="0.6" fill="#020230" enable-background="new    " d="M168.392,222.595c-10.311,5.953-27.028,5.954-37.341,0
		c-10.311-5.955-10.311-15.606,0-21.56c10.311-5.953,27.028-5.953,37.341,0C178.702,206.989,178.703,216.64,168.392,222.595z"/>
	
		<radialGradient id="SVGID_12_" cx="263.457" cy="77.8989" r="222.2899" gradientTransform="matrix(1 0 0 -1 -156 205)" gradientUnits="userSpaceOnUse">
		<stop  offset="0" style="stop-color:#E39A65"/>
		<stop  offset="0.1528" style="stop-color:#A92FFB"/>
		<stop  offset="0.4087" style="stop-color:#3919BB"/>
		<stop  offset="0.9311" style="stop-color:#3919BB"/>
	</radialGradient>
	<path fill="url(#SVGID_12_)" d="M188.861,103.164h-75.207l6.994,81.427l0,0c0,4.523,2.989,9.045,8.966,12.496
		c11.954,6.9,31.334,6.9,43.287,0c5.977-3.451,8.964-7.974,8.964-12.496L188.861,103.164z"/>
	<path opacity="0.4" fill="#06033E" enable-background="new    " d="M188.861,103.164h-75.207l1.151,13.397
		c1.723,2.21,4.042,4.327,6.97,6.271c14.372,9.532,38.083,11.371,54.264,4.504l-2.502,59.555c-0.109,2.597-1.005,5.121-2.688,7.101
		c-2.436,2.869-7.129,6.24-16.151,8.149c6.651-0.432,13.105-2.108,18.204-5.052c5.977-3.452,8.964-7.975,8.964-12.496l5.61-65.303
		l0,0L188.861,103.164z"/>
	<path opacity="0.4" fill="#06033E" enable-background="new    " d="M177.848,118.517c-14.685,8.479-38.495,8.479-53.179,0
		c-14.686-8.479-14.686-22.224,0-30.703c14.685-8.479,38.493-8.479,53.179,0C192.533,96.292,192.533,110.038,177.848,118.517z"/>
	<path opacity="0.4" fill="#06033E" enable-background="new    " d="M174.161,108.735c-12.648,7.303-33.156,7.303-45.804,0
		c-12.648-7.302-12.649-19.142,0-26.445c12.648-7.303,33.155-7.303,45.804,0C186.809,89.593,186.809,101.433,174.161,108.735z"/>
	
		<linearGradient id="SVGID_13_" gradientUnits="userSpaceOnUse" x1="267.3931" y1="105.4355" x2="347.125" y2="105.4355" gradientTransform="matrix(1 0 0 -1 -156 205)">
		<stop  offset="0" style="stop-color:#E39A65"/>
		<stop  offset="0.252" style="stop-color:#A92FFB"/>
		<stop  offset="0.5556" style="stop-color:#3919BB"/>
	</linearGradient>
	<path fill="url(#SVGID_13_)" d="M191.087,102.142l0.004,0.005l-0.007-0.066c-0.002-0.038-0.008-0.075-0.01-0.111l-0.722-7.291
		l-0.031,0.082c-0.323-5.517-4.123-10.981-11.419-15.194c-15.268-8.815-40.022-8.815-55.289,0
		c-7.48,4.318-11.286,9.952-11.435,15.612l-0.009-0.018l-0.689,6.491c-0.019,0.168-0.04,0.338-0.054,0.506l-0.01,0.107l0.006-0.004
		c-0.413,6.184,3.463,12.448,11.643,17.169c15.572,8.99,40.816,8.99,56.388,0C187.682,114.677,191.558,108.365,191.087,102.142z"/>
	
		<linearGradient id="SVGID_14_" gradientUnits="userSpaceOnUse" x1="274.8701" y1="109.4878" x2="339.6465" y2="109.4878" gradientTransform="matrix(1 0 0 -1 -156 205)">
		<stop  offset="0" style="stop-color:#4F1FEC"/>
		<stop  offset="1" style="stop-color:#A92FFB"/>
	</linearGradient>
	<path fill="url(#SVGID_14_)" d="M174.161,108.735c-12.648,7.303-33.156,7.303-45.804,0c-12.648-7.302-12.649-19.142,0-26.445
		c12.648-7.303,33.155-7.303,45.804,0C186.809,89.593,186.809,101.433,174.161,108.735z"/>
	
		<linearGradient id="SVGID_15_" gradientUnits="userSpaceOnUse" x1="273.3325" y1="109.4878" x2="338.1094" y2="109.4878" gradientTransform="matrix(1 0 0 -1 -156 205)">
		<stop  offset="0" style="stop-color:#4F1FEC"/>
		<stop  offset="1" style="stop-color:#A92FFB"/>
	</linearGradient>
	<path fill="url(#SVGID_15_)" d="M172.623,108.735c-12.648,7.303-33.156,7.303-45.804,0c-12.648-7.302-12.649-19.142,0-26.445
		c12.647-7.303,33.156-7.303,45.804,0C185.271,89.593,185.272,101.433,172.623,108.735z"/>
	<path opacity="0.4" fill="#06033E" enable-background="new    " d="M132.198,85.074c12.647-7.303,33.155-7.303,45.804,0
		c0.161,0.093,0.296,0.194,0.453,0.289c-1.22-1.088-2.644-2.122-4.295-3.075c-12.649-7.303-33.156-7.304-45.804,0
		c-12.487,7.21-12.622,18.833-0.452,26.156C119.777,101.2,121.2,91.423,132.198,85.074z"/>
	
		<linearGradient id="SVGID_16_" gradientUnits="userSpaceOnUse" x1="274.874" y1="118.0254" x2="356.5486" y2="118.0254" gradientTransform="matrix(1 0 0 -1 -156 205)">
		<stop  offset="0" style="stop-color:#131060"/>
		<stop  offset="0.1857" style="stop-color:#141062"/>
		<stop  offset="0.2823" style="stop-color:#19106A"/>
		<stop  offset="0.3584" style="stop-color:#221078"/>
		<stop  offset="0.4238" style="stop-color:#2E0F8B"/>
		<stop  offset="0.4823" style="stop-color:#3E0FA3"/>
		<stop  offset="0.5359" style="stop-color:#510EC2"/>
		<stop  offset="0.5848" style="stop-color:#680DE5"/>
		<stop  offset="0.6071" style="stop-color:#740DF8"/>
		<stop  offset="0.6179" style="stop-color:#7A14F0"/>
		<stop  offset="0.6826" style="stop-color:#9B3CC3"/>
		<stop  offset="0.7477" style="stop-color:#B75D9D"/>
		<stop  offset="0.8123" style="stop-color:#CC7680"/>
		<stop  offset="0.8762" style="stop-color:#DC886C"/>
		<stop  offset="0.9391" style="stop-color:#E5935F"/>
		<stop  offset="1" style="stop-color:#E8975B"/>
	</linearGradient>
	<path fill="url(#SVGID_16_)" d="M128.355,85.535c12.649-7.303,33.156-7.303,45.804,0c5.608,3.239,8.725,7.368,9.359,11.601
		c0.795-5.31-2.32-10.781-9.359-14.845c-12.649-7.303-33.156-7.304-45.804,0c-7.039,4.064-10.155,9.535-9.359,14.845
		C119.63,92.902,122.746,88.772,128.355,85.535z"/>
	
		<radialGradient id="SVGID_17_" cx="257.4419" cy="127.9956" r="145.4106" gradientTransform="matrix(1 0 0 -1 -156 205)" gradientUnits="userSpaceOnUse">
		<stop  offset="0" style="stop-color:#E39A65"/>
		<stop  offset="0.252" style="stop-color:#A92FFB"/>
		<stop  offset="0.7357" style="stop-color:#3919BB"/>
	</radialGradient>
	<path fill="url(#SVGID_17_)" d="M179.144,79.737c-15.246-8.982-40.091-9.201-55.491-0.488
		c-15.401,8.713-15.526,23.056-0.281,32.037c15.245,8.982,40.088,9.201,55.49,0.49S194.389,88.72,179.144,79.737z M174.161,108.735
		c-4.226,2.438-9.334,4.044-14.728,4.855l-0.588-1.932c-0.238-0.78-0.958-1.313-1.772-1.313h-11.63
		c-0.815,0-1.536,0.534-1.772,1.313l-0.587,1.932c-5.393-0.81-10.502-2.415-14.728-4.855c-12.649-7.302-12.649-19.142,0-26.445
		c12.648-7.303,33.156-7.303,45.804,0C186.809,89.593,186.809,101.433,174.161,108.735z"/>
	<g>
		<path fill="#FFFFFF" d="M174.159,80.905c-12.649-7.303-33.156-7.303-45.804,0c-6.629,3.827-9.778,8.9-9.458,13.915
			c0.291-4.552,3.439-9.055,9.458-12.53c12.649-7.303,33.156-7.303,45.804,0c6.02,3.475,9.167,7.978,9.459,12.53
			C183.937,89.806,180.79,84.732,174.159,80.905z"/>
		<path fill="#FFFFFF" d="M178.862,110.392c-15.401,8.711-40.245,8.492-55.49-0.49c-7.254-4.275-11.021-9.763-11.326-15.282
			c-0.301,5.976,3.463,12.034,11.326,16.665c15.245,8.982,40.09,9.201,55.49,0.49c8.071-4.565,11.94-10.679,11.605-16.756
			C190.185,100.631,186.32,106.171,178.862,110.392z"/>
	</g>
	<path fill="#0C0A78" d="M154.733,114.595h-6.952c-0.485,0-0.878-0.393-0.878-0.878v-0.122c0-0.486,0.393-0.878,0.878-0.878h6.952
		c0.486,0,0.878,0.392,0.878,0.878v0.122C155.611,114.203,155.219,114.595,154.733,114.595z"/>
	
		<linearGradient id="SVGID_18_" gradientUnits="userSpaceOnUse" x1="302.1318" y1="91.667" x2="313.43" y2="91.667" gradientTransform="matrix(1 0 0 -1 -156 205)">
		<stop  offset="0" style="stop-color:#131060"/>
		<stop  offset="0.1857" style="stop-color:#141062"/>
		<stop  offset="0.2823" style="stop-color:#19106A"/>
		<stop  offset="0.3584" style="stop-color:#221078"/>
		<stop  offset="0.4238" style="stop-color:#2E0F8B"/>
		<stop  offset="0.4823" style="stop-color:#3E0FA3"/>
		<stop  offset="0.5359" style="stop-color:#510EC2"/>
		<stop  offset="0.5848" style="stop-color:#680DE5"/>
		<stop  offset="0.6071" style="stop-color:#740DF8"/>
		<stop  offset="0.6179" style="stop-color:#7A14F0"/>
		<stop  offset="0.6826" style="stop-color:#9B3CC3"/>
		<stop  offset="0.7477" style="stop-color:#B75D9D"/>
		<stop  offset="0.8123" style="stop-color:#CC7680"/>
		<stop  offset="0.8762" style="stop-color:#DC886C"/>
		<stop  offset="0.9391" style="stop-color:#E5935F"/>
		<stop  offset="1" style="stop-color:#E8975B"/>
	</linearGradient>
	<path fill="url(#SVGID_18_)" d="M154.733,112.715h-6.952c-0.485,0-0.878,0.393-0.878,0.878v0.122c0,0.083,0.026,0.157,0.047,0.234
		c0.105-0.369,0.429-0.644,0.831-0.644h6.952c0.402,0,0.727,0.275,0.832,0.644c0.022-0.077,0.047-0.151,0.047-0.234v-0.122
		C155.611,113.109,155.219,112.715,154.733,112.715z"/>
	<g>
		<path fill="#E8975B" d="M152.322,176.226c-0.852,3.208-4.145,5.116-7.351,4.263c-3.207-0.852-5.116-4.143-4.262-7.349
			c0.852-3.208,3.877-4.115,7.085-3.264C151.002,170.729,153.175,173.02,152.322,176.226z"/>
		<path fill="#E8975B" d="M157.052,169.897c-1.209,1.181-2.757,1.029-3.784-0.021c-1.027-1.052-1.144-2.602,0.064-3.784
			c1.21-1.182,3.509-1.765,4.536-0.714C158.896,166.43,158.262,168.715,157.052,169.897z"/>
		<path fill="#E8975B" d="M150.769,164.871c-0.297,1.665-1.645,2.439-3.091,2.185c-1.446-0.257-2.444-1.452-2.147-3.117
			s1.828-3.477,3.275-3.219C150.252,160.977,151.064,163.204,150.769,164.871z"/>
		<path fill="#E8975B" d="M143.023,164.102c0.644,1.565-0.078,2.94-1.436,3.5c-1.359,0.559-2.84,0.086-3.484-1.479
			c-0.644-1.562-0.323-3.914,1.037-4.473C140.498,161.094,142.379,162.537,143.023,164.102z"/>
	</g>
</g>
<path opacity="0.5" fill="#FFFFFF" enable-background="new    " d="M153.721,113.655c0,0,21.026-7.046,12.513-31.206
	c-8.514-24.16-25.09-31.523-18.412-50.85c0,0-10.465,15.646-0.686,36.815c9.779,21.167,11.923,18.736,11.81,28.86
	c-0.137,12.028-9.853,16.381-9.853,16.381h4.628V113.655z"/>
<path opacity="0.5" fill="#FFFFFF" enable-background="new    " d="M155.611,34.961c0,0-2.189-14.452,11.368-29.016
	c0,0-11.988,26.776-8.066,39.995C158.913,45.939,155.74,37.537,155.611,34.961z"/>
</svg>
