<?xml version="1.0" encoding="utf-8"?>
<!-- Generator: Adobe Illustrator 16.0.3, SVG Export Plug-In . SVG Version: 6.00 Build 0)  -->
<!DOCTYPE svg PUBLIC "-//W3C//DTD SVG 1.1//EN" "http://www.w3.org/Graphics/SVG/1.1/DTD/svg11.dtd">
<svg version="1.1" id="Capa_1" focusable="false" xmlns="http://www.w3.org/2000/svg" xmlns:xlink="http://www.w3.org/1999/xlink"
	 x="0px" y="0px" width="612px" height="792px" viewBox="0 0 612 792" enable-background="new 0 0 612 792" xml:space="preserve">
<path fill="#4C02F1" d="M568.286,90H43.578C19.535,90,0,109.808,0,134.124v523.752C0,682.192,19.535,702,43.578,702h524.708
	C592.328,702,612,682.192,612,657.876V134.124C612,109.808,592.328,90,568.286,90z M184.966,614.571H94.259V322.505h90.844v292.066
	H184.966z M139.612,282.616c-29.097,0-52.594-23.633-52.594-52.594c0-28.961,23.497-52.594,52.594-52.594
	c28.961,0,52.594,23.633,52.594,52.594C192.206,259.12,168.71,282.616,139.612,282.616z M524.981,614.571h-90.707V472.5
	c0-33.879-0.684-77.456-47.13-77.456c-47.266,0-54.506,36.884-54.506,74.997v144.53h-90.708V322.505h87.019v39.889h1.229
	c12.158-22.95,41.802-47.129,85.926-47.129c91.8,0,108.876,60.517,108.876,139.203V614.571z"/>
</svg>
