<svg id="Capa_1" focusable="false" xmlns="http://www.w3.org/2000/svg" xmlns:xlink="http://www.w3.org/1999/xlink" width="612" height="792" viewBox="0 0 612 792" enable-background="new 0 0 612 792"><path fill="#4c02f1" d="M549.091 271.348c.389 5.436.389 10.874.389 16.31.0 165.813-126.205 356.87-356.871 356.87-71.063.0-137.078-20.582-192.609-56.307 10.097 1.164 19.804 1.553 30.289 1.553 58.636.0 112.614-19.804 155.718-53.588-55.142-1.166-101.353-37.279-117.274-86.985 7.767 1.164 15.533 1.941 23.688 1.941 11.261.0 22.523-1.555 33.007-4.271-57.472-11.65-100.577-62.132-100.577-123.099v-1.553c16.697 9.32 36.115 15.145 56.695 15.92-33.784-22.523-55.917-60.967-55.917-104.459.0-23.299 6.212-44.657 17.085-63.296 61.744 76.111 154.554 125.816 258.624 131.253-1.941-9.32-3.107-19.027-3.107-28.735.0-69.123 55.919-125.429 125.429-125.429 36.114.0 68.733 15.145 91.645 39.609 28.348-5.436 55.53-15.921 79.607-30.289-9.321 29.125-29.125 53.589-55.143 69.121 25.241-2.717 49.706-9.708 72.229-19.415C594.914 231.351 573.555 253.484 549.091 271.348v0z"/></svg>