<svg id="Capa_1" focusable="false" xmlns="http://www.w3.org/2000/svg" xmlns:xlink="http://www.w3.org/1999/xlink" width="612" height="792" viewBox="0 0 612 792" enable-background="new 0 0 612 792"><path fill="#4c02f1" d="M520.337 178.931C463.099 121.556 386.871 90 305.863 90 138.656 90 2.596 226.061 2.596 393.268c0 53.414 13.934 105.597 40.436 151.633L0 702l160.787-42.212c44.261 24.18 94.123 36.884 144.94 36.884h.137C472.934 696.672 612 560.611 612 393.404 612 312.396 577.575 236.306 520.337 178.931v0zM305.863 645.581c-45.354.0-89.751-12.158-128.411-35.107l-9.153-5.465-95.352 24.999 25.409-93.029-6.011-9.563c-25.272-40.162-38.523-86.473-38.523-134.148.0-138.93 113.111-252.041 252.177-252.041 67.348.0 130.597 26.229 178.136 73.905 47.539 47.676 76.773 110.925 76.637 178.272C560.772 532.471 444.793 645.581 305.863 645.581zM444.109 456.79c-7.513-3.825-44.807-22.13-51.773-24.589-6.967-2.596-12.021-3.825-17.076 3.824-5.055 7.65-19.535 24.59-24.043 29.781-4.371 5.054-8.879 5.737-16.393 1.912-44.534-22.267-73.768-39.753-103.139-90.161-7.787-13.388 7.787-12.431 22.267-41.392 2.459-5.055 1.229-9.426-.683-13.251-1.913-3.825-17.076-41.119-23.36-56.282-6.147-14.753-12.431-12.704-17.076-12.978-4.372-.273-9.426-.273-14.48-.273s-13.251 1.913-20.218 9.426c-6.967 7.65-26.502 25.955-26.502 63.249s27.185 73.358 30.874 78.413c3.825 5.055 53.413 81.555 129.503 114.477 48.086 20.765 66.938 22.54 90.98 18.988 14.617-2.186 44.807-18.305 51.091-36.064 6.284-17.759 6.284-32.922 4.371-36.063C456.678 462.391 451.623 460.479 444.109 456.79z"/></svg>